<svg id="man-protection" width="53" height="64" viewBox="0 0 53 64" fill="none" xmlns="http://www.w3.org/2000/svg">
<g clip-path="url(#clip0_22_471)">
<path d="M18.2619 23.8926C18.4626 23.8922 18.6633 23.8917 18.864 23.8911C19.4021 23.8898 19.9403 23.8903 20.4784 23.8912C21.046 23.8919 21.6135 23.8912 22.181 23.8908C23.1334 23.8903 24.0859 23.891 25.0383 23.8923C26.1339 23.8938 27.2296 23.8933 28.3252 23.8918C29.2718 23.8905 30.2185 23.8903 31.1651 23.8911C31.7279 23.8915 32.2906 23.8916 32.8534 23.8906C33.3829 23.8898 33.9124 23.8904 34.4419 23.892C34.7249 23.8926 35.008 23.8917 35.291 23.8908C38.4058 23.9051 41.1052 24.5083 43.461 26.6372C45.8138 29.184 47.1475 32.7403 48.6236 35.8232C48.9637 36.5325 49.308 37.2397 49.6537 37.9464C51.5175 41.7576 51.5175 41.7576 52.1408 43.1416C52.2045 43.2812 52.2045 43.2812 52.2695 43.4235C52.9245 44.9101 53.178 46.632 52.7127 48.2108C51.4892 50.8756 48.5136 51.6248 45.9764 52.5752C45.701 52.6792 45.4256 52.7833 45.1502 52.8875C44.6496 53.0765 44.1489 53.2653 43.6478 53.4532C43.5481 53.4906 43.4485 53.5279 43.3458 53.5664C42.278 53.9576 40.7769 54.0179 39.7057 53.5929C39.4821 53.4878 39.4821 53.4878 39.254 53.3806C39.1137 53.3806 38.9734 53.3806 38.8288 53.3806C38.6147 53.6749 38.4289 53.9623 38.2443 54.2744C37.6578 55.2226 37.0146 56.0808 36.278 56.9204C36.2132 56.9947 36.1483 57.069 36.0814 57.1456C35.1369 58.2206 34.1533 59.1574 33.0187 60.0354C32.8515 60.174 32.8515 60.174 32.681 60.3153C28.4667 63.8034 28.4667 63.8034 26.5564 64.047C25.8998 63.9829 25.4519 63.7175 24.888 63.3894C24.7768 63.3261 24.6657 63.2628 24.5511 63.1975C22.4489 61.9804 20.5329 60.5431 18.7407 58.906C18.4894 58.6798 18.2358 58.466 17.9707 58.2567C17.0709 57.4775 16.3524 56.5092 15.6325 55.5664C15.5538 55.465 15.4752 55.3636 15.3942 55.2592C14.9317 54.6554 14.5327 54.0496 14.1711 53.3806C13.8063 53.443 13.4888 53.5101 13.1512 53.6646C11.3122 54.3163 9.43166 53.5815 7.73207 52.885C7.51217 52.7987 7.29213 52.7128 7.07195 52.6272C5.94012 52.1835 4.82148 51.709 3.70824 51.2207C3.55035 51.152 3.55035 51.152 3.38927 51.0818C1.92641 50.4313 0.873559 49.5373 0.264549 48.0266C0.124212 47.5112 0.0888129 47.0563 0.0796603 46.5221C0.0739974 46.3442 0.0683345 46.1662 0.0625 45.9829C0.215131 43.8464 1.49048 41.8005 2.42675 39.9292C2.63778 39.5044 2.84841 39.0794 3.05901 38.6544C3.19903 38.3719 3.33917 38.0894 3.47946 37.807C3.97719 36.8036 4.46642 35.7963 4.94988 34.786C5.04274 34.5919 5.04274 34.5919 5.13747 34.394C5.50151 33.6307 5.85943 32.8648 6.213 32.0967C7.59778 29.1129 9.23276 26.0633 12.4091 24.7041C14.3171 24.0183 16.247 23.8863 18.2619 23.8926ZM10.9117 28.177C9.20889 30.2091 8.11735 32.7387 6.97037 35.1062C6.83181 35.391 6.6932 35.6757 6.55454 35.9604C6.16364 36.7637 5.77404 37.5676 5.38497 38.3717C5.33506 38.4748 5.28514 38.5779 5.23371 38.6842C4.7731 39.636 4.31503 40.5891 3.86026 41.5437C3.67798 41.925 3.49396 42.3055 3.30968 42.6859C3.19249 42.9292 3.07532 43.1726 2.95817 43.416C2.90614 43.5226 2.85411 43.6292 2.80051 43.739C2.22212 44.9468 1.82379 46.2575 2.21308 47.5918C2.76649 48.6928 3.96552 49.2483 5.06502 49.6604C5.17958 49.705 5.29414 49.7496 5.41217 49.7956C5.77448 49.9362 6.13766 50.0744 6.50095 50.2124C6.74329 50.3059 6.98556 50.3996 7.22777 50.4934C7.68814 50.6715 8.14888 50.8487 8.60994 51.025C9.19549 51.2495 9.77724 51.4826 10.3565 51.7229C11.1357 52.01 11.849 52.0418 12.6183 51.7113C13.288 51.2973 13.7489 50.6904 14.0914 49.9912C14.275 48.992 14.2531 48.2007 13.7459 47.2921C12.9846 46.3834 11.9378 45.9504 10.8685 45.5028C10.7602 45.4568 10.6518 45.4108 10.5402 45.3634C10.1978 45.2181 9.85509 45.0736 9.51231 44.9292C9.16654 44.7832 8.82085 44.6371 8.47532 44.4905C8.26115 44.3997 8.04682 44.3092 7.83233 44.2192C7.10137 43.9097 7.10137 43.9097 6.9438 43.7522C6.8798 42.889 6.8798 42.889 7.08551 42.4779C7.60917 42.2163 8.24618 42.3971 8.7876 42.5677C9.08135 42.6803 9.36994 42.8011 9.65845 42.9265C9.76425 42.9714 9.87005 43.0163 9.97905 43.0626C10.2013 43.1575 10.4233 43.2531 10.645 43.3493C10.9808 43.4948 11.3178 43.6371 11.6551 43.7791C13.4812 44.5581 14.9618 45.3409 15.7609 47.2694C16.1855 48.4424 16.0721 49.6563 15.7299 50.8319C15.6425 51.0016 15.6425 51.0016 15.5533 51.1748C15.4049 51.5458 15.4049 51.5458 15.591 51.9209C16.5896 53.5187 17.6925 54.9856 18.9893 56.354C19.0967 56.4688 19.2041 56.5836 19.3147 56.7019C20.7788 58.2197 22.4752 59.4482 24.2541 60.5709C24.5187 60.7451 24.7691 60.9319 25.0214 61.1234C25.4954 61.4656 25.9287 61.7215 26.4999 61.8761C27.1747 61.6935 27.6786 61.3511 28.2267 60.9349C28.4883 60.7401 28.7561 60.5633 29.0314 60.3883C31.867 58.5812 34.494 56.2921 36.4197 53.5221C36.4786 53.4382 36.5375 53.3543 36.5981 53.2678C37.2987 52.3058 37.2987 52.3058 37.5335 51.1864C37.4259 50.8733 37.4259 50.8733 37.2733 50.5775C36.7403 49.431 36.9871 48.0692 37.4023 46.9287C38.1094 45.3275 39.4079 44.5876 40.9722 43.9469C41.1281 43.8812 41.284 43.8154 41.4446 43.7477C41.7537 43.6178 42.0632 43.489 42.3733 43.3613C42.7395 43.2096 43.1028 43.0529 43.4654 42.8927C43.6499 42.8133 43.8344 42.734 44.019 42.6549C44.1728 42.5885 44.3266 42.522 44.4851 42.4536C45.0111 42.3125 45.3863 42.3606 45.9144 42.4779C46.0561 42.6195 46.0561 42.6195 46.0699 42.8811C46.0653 43.1715 46.0607 43.4619 46.0561 43.7522C44.7225 44.4416 43.3617 45.0302 41.9725 45.5974C40.6611 46.1411 39.6368 46.6268 38.9263 47.9115C38.6461 48.9802 38.8589 49.8831 39.3957 50.8319C39.8883 51.4517 40.4981 51.8428 41.2875 51.9572C42.8184 51.9874 44.6007 50.9939 46.0038 50.4343C46.3849 50.2828 46.767 50.1339 47.1491 49.9851C47.3954 49.8874 47.6417 49.7895 47.8878 49.6914C48.0002 49.648 48.1125 49.6046 48.2283 49.5599C49.226 49.1563 50.1244 48.6263 50.7326 47.7168C51.3433 45.8861 50.4391 44.1402 49.6377 42.5267C49.4343 42.1225 49.229 41.7194 49.0232 41.3164C48.6293 40.5443 48.2524 39.7652 47.8806 38.9823C47.2524 37.6637 46.6199 36.3471 45.983 35.0326C45.8804 34.8207 45.7779 34.6087 45.6757 34.3966C45.1239 33.2526 44.5605 32.1156 43.9708 30.9906C43.9205 30.8936 43.8701 30.7965 43.8182 30.6965C42.6952 28.5757 41.1648 26.9402 38.8288 26.1947C37.52 25.9109 36.2226 25.8701 34.8881 25.8726C34.6849 25.872 34.4817 25.8713 34.2785 25.8704C33.7321 25.8686 33.1857 25.8685 32.6393 25.8688C32.1805 25.869 31.7218 25.8683 31.263 25.8676C30.1791 25.866 29.0953 25.866 28.0114 25.8668C26.8993 25.8677 25.7873 25.8659 24.6752 25.8629C23.7149 25.8604 22.7546 25.8596 21.7942 25.86C21.2231 25.8603 20.652 25.8599 20.0809 25.858C19.5431 25.8562 19.0054 25.8565 18.4677 25.8583C18.1804 25.8588 17.8932 25.8572 17.606 25.8555C15.1422 25.8694 12.656 26.2837 10.9117 28.177Z" fill="#155DFC"/>
<path d="M32.9717 1.9956C35.4619 4.02947 37.1185 6.40421 37.487 9.66153C37.7574 12.6529 36.9668 15.4464 35.0912 17.8142C33.1496 20.0639 30.5982 21.4539 27.6221 21.7744C24.5226 21.9473 21.6565 21.1464 19.2727 19.1151C19.1015 18.9861 19.1015 18.9861 18.9267 18.8546C17.1671 17.3702 15.8724 14.8595 15.5882 12.6018C15.3281 9.26998 15.9022 6.31619 18.1141 3.72845C21.8841 -0.308888 28.3629 -1.48671 32.9717 1.9956ZM19.5561 5.09737C17.9682 7.10978 17.2486 9.40406 17.4964 11.9674C17.8243 14.0984 18.7563 15.7594 20.2647 17.2744C20.3485 17.3631 20.4324 17.4518 20.5188 17.5432C22.0818 19.0669 24.3601 19.8026 26.5 19.8761C29.0868 19.797 31.503 18.7061 33.3021 16.8496C34.8519 14.9405 35.7422 12.6695 35.5695 10.1947C35.2701 7.58 34.1075 5.48558 32.0921 3.80644C28.193 0.924788 22.772 1.40681 19.5561 5.09737Z" fill="#155DFC"/>
<path d="M33.7428 39.2444C34.9406 40.1119 35.9353 41.0447 36.1756 42.5381C36.0625 43.5879 35.3389 44.3475 34.6165 45.0563C34.522 45.1513 34.4275 45.2463 34.33 45.3442C34.0198 45.6553 33.7075 45.9642 33.3951 46.2732C33.178 46.4898 32.9609 46.7066 32.7439 46.9234C32.2902 47.3763 31.8356 47.8282 31.3802 48.2794C30.7965 48.8579 30.2146 49.4382 29.6333 50.0192C29.1858 50.4663 28.7375 50.9126 28.289 51.3587C28.0741 51.5725 27.8594 51.7865 27.6449 52.0006C27.3454 52.2992 27.045 52.5969 26.7444 52.8942C26.6559 52.9828 26.5674 53.0714 26.4762 53.1626C26.3939 53.2436 26.3117 53.3245 26.227 53.4079C26.1561 53.4782 26.0853 53.5486 26.0123 53.621C25.4948 54.0528 25.0607 54.1225 24.3881 54.1399C23.7003 54.0209 23.2132 53.5307 22.734 53.0548C22.6101 52.9324 22.4863 52.81 22.3587 52.6838C22.2268 52.552 22.095 52.4201 21.9591 52.2843C21.8211 52.1468 21.683 52.0095 21.5448 51.8721C21.2562 51.5848 20.9681 51.297 20.6804 51.0087C20.3124 50.6401 19.9427 50.2732 19.5725 49.9066C19.2872 49.6236 19.0028 49.3396 18.7188 49.0553C18.517 48.8539 18.3143 48.6533 18.1116 48.4528C17.9891 48.3295 17.8666 48.2062 17.7403 48.0791C17.6323 47.9713 17.5243 47.8635 17.4131 47.7524C16.997 47.2538 16.8054 46.7728 16.8548 46.1239C16.9719 45.2951 17.4462 44.7782 17.9973 44.177C18.0786 44.0844 18.1599 43.9919 18.2436 43.8965C18.8592 43.2334 19.5141 42.6909 20.4385 42.5824C21.4022 42.6138 21.885 43.0898 22.5321 43.7522C22.7025 43.9213 22.8732 44.0901 23.0441 44.2588C23.5379 44.7477 24.0276 45.2403 24.516 45.7345C25.0142 45.5223 25.3289 45.2369 25.7061 44.8517C25.8282 44.7279 25.9502 44.6041 26.0759 44.4766C26.1405 44.4105 26.2051 44.3443 26.2716 44.2762C26.4746 44.0684 26.6787 43.8615 26.8832 43.655C27.464 43.0677 28.0432 42.4789 28.6212 41.8888C28.9753 41.5274 29.3308 41.1674 29.6871 40.8082C29.8877 40.6051 30.0867 40.4005 30.2857 40.1959C30.4701 40.0102 30.4701 40.0102 30.6582 39.8208C30.819 39.657 30.819 39.657 30.983 39.4899C31.7951 38.8389 32.8307 38.7415 33.7428 39.2444ZM31.861 41.4606C31.7419 41.5809 31.6229 41.7012 31.5002 41.8251C31.4013 41.9242 31.4013 41.9242 31.3004 42.0253C31.0822 42.2443 30.8656 42.4648 30.6489 42.6852C30.4978 42.8374 30.3466 42.9894 30.1953 43.1414C29.7968 43.5419 29.3995 43.9437 29.0025 44.3458C28.3669 44.9893 27.7295 45.631 27.092 46.2726C26.8691 46.4972 26.6468 46.7224 26.4246 46.9477C26.2884 47.0851 26.1523 47.2226 26.0161 47.36C25.8972 47.4804 25.7783 47.6008 25.6557 47.7249C25.2812 48.0808 25.1417 48.1345 24.6217 48.1969C23.9591 48.1278 23.6843 47.8642 23.25 47.3982C23.1759 47.3228 23.1019 47.2473 23.0255 47.1696C22.7907 46.9295 22.5596 46.6861 22.3284 46.4424C22.1693 46.2785 22.0099 46.1148 21.8504 45.9513C21.4608 45.5512 21.0745 45.1481 20.6898 44.7433C20.5384 44.8662 20.3881 44.9904 20.2381 45.115C20.1543 45.184 20.0704 45.253 19.984 45.3241C19.6203 45.6657 19.3088 46.0593 18.9893 46.4424C21.725 49.1759 21.725 49.1759 24.516 51.9646C25.115 51.6653 25.504 51.2985 25.9668 50.8304C26.0539 50.7433 26.1411 50.6563 26.2309 50.5666C26.5183 50.2792 26.8048 49.9908 27.0912 49.7024C27.2905 49.5027 27.4898 49.3032 27.6892 49.1036C28.2136 48.5786 28.7371 48.0528 29.2604 47.5268C29.7947 46.9901 30.3298 46.4541 30.8648 45.9181C31.9142 44.8665 32.9627 43.8141 34.0107 42.761C33.7893 42.2911 33.5633 42.0068 33.1693 41.6637C33.0227 41.5334 33.0227 41.5334 32.8731 41.4004C32.4473 41.1005 32.2559 41.1304 31.861 41.4606Z" fill="#6A00FF"/>
<path d="M27.9171 29.3097C28.0545 29.3545 28.1918 29.3992 28.3333 29.4453C28.7813 29.5932 29.2273 29.7464 29.673 29.901C29.8385 29.9579 30.004 30.0149 30.1745 30.0735C30.6181 30.2264 31.0615 30.3797 31.5048 30.5333C31.7799 30.6287 32.055 30.7239 32.3301 30.8192C33.4295 31.1998 34.5283 31.5818 35.627 31.9644C36.1026 32.1298 36.5785 32.2947 37.0544 32.4593C37.7143 32.6876 38.3735 32.9178 39.0322 33.1498C39.2673 33.2323 39.5027 33.3143 39.7383 33.3956C40.06 33.5068 40.3809 33.6203 40.7016 33.7345C40.8405 33.7817 40.8405 33.7817 40.9822 33.8298C41.3411 33.96 41.6361 34.1017 41.932 34.344C42.1871 34.9091 42.1517 35.4759 42.1497 36.0885C42.1505 36.2246 42.1512 36.3608 42.152 36.501C42.1529 36.7886 42.1527 37.0761 42.1515 37.3637C42.1503 37.8037 42.1544 38.2436 42.1588 38.6836C42.1591 38.9631 42.159 39.2426 42.1586 39.5221C42.1602 39.6537 42.1618 39.7853 42.1634 39.9208C42.1536 40.8269 42.1536 40.8269 41.832 41.2871C41.3797 41.5778 41.0549 41.5535 40.5294 41.4867C40.2894 41.3043 40.2894 41.3043 40.1043 41.0619C40.0672 40.6454 40.0549 40.2595 40.0628 39.8435C40.0634 39.7246 40.064 39.6058 40.0646 39.4834C40.067 39.1039 40.0723 38.7246 40.0777 38.3451C40.0799 38.0878 40.0818 37.8306 40.0836 37.5733C40.0882 36.9426 40.0956 36.312 40.1043 35.6814C40.0117 35.6575 39.9191 35.6335 39.8237 35.6089C38.8087 35.3403 37.819 35.0215 36.8278 34.6764C36.6676 34.6211 36.5073 34.5657 36.3422 34.5086C36.0023 34.3911 35.6625 34.2733 35.3228 34.1553C34.7951 33.9721 34.2672 33.79 33.7391 33.608C30.8242 32.6016 30.8242 32.6016 29.4012 32.0642C29.3076 32.0291 29.214 31.9941 29.1175 31.958C28.7135 31.8069 28.3112 31.653 27.9108 31.4925C27.7759 31.4415 27.641 31.3905 27.502 31.3379C27.392 31.2943 27.2821 31.2506 27.1688 31.2056C25.9946 31.0376 24.703 31.6894 23.6171 32.0669C23.4336 32.1302 23.2501 32.1934 23.0666 32.2565C22.682 32.3891 22.2975 32.522 21.9132 32.6554C21.4321 32.8223 20.9509 32.9884 20.4695 33.1541C18.4367 33.8543 16.4073 34.5614 14.3908 35.3071C14.2554 35.3566 14.12 35.4061 13.9805 35.4571C13.8627 35.5006 13.7449 35.5442 13.6235 35.589C13.3209 35.6814 13.3209 35.6814 12.8958 35.6814C12.8987 35.8422 12.9017 36.0029 12.9048 36.1686C12.915 36.7647 12.9215 37.3607 12.9269 37.9569C12.9297 38.215 12.9336 38.473 12.9385 38.7311C12.9454 39.1019 12.9486 39.4726 12.9511 39.8435C12.954 39.959 12.957 40.0745 12.96 40.1935C12.9603 40.9915 12.9603 40.9915 12.6354 41.3461C12.2095 41.5415 11.9417 41.5638 11.4786 41.4867C11.0256 41.0801 10.8755 40.7561 10.8407 40.1637C10.8379 39.9204 10.8384 39.677 10.8415 39.4336C10.8413 39.3043 10.8411 39.175 10.8409 39.0418C10.8411 38.769 10.8427 38.4962 10.8457 38.2234C10.8498 37.8067 10.8486 37.3902 10.8468 36.9734C10.8476 36.708 10.8488 36.4425 10.8504 36.177C10.8499 36.0528 10.8495 35.9286 10.8491 35.8006C10.8671 34.6324 10.8671 34.6324 11.3369 34.1239C11.6898 33.9514 12.004 33.8248 12.3743 33.7057C12.4807 33.6693 12.5871 33.6328 12.6967 33.5952C13.0516 33.4741 13.4076 33.3566 13.7637 33.2389C14.0145 33.154 14.2652 33.0688 14.5158 32.9834C15.056 32.7995 15.5967 32.6169 16.1376 32.435C17.5044 31.9743 18.866 31.4984 20.2283 31.0246C20.6706 30.8709 21.113 30.7176 21.5554 30.5646C21.6953 30.5161 21.8352 30.4676 21.9793 30.4177C22.253 30.3231 22.5269 30.2291 22.801 30.1356C23.4182 29.9242 24.0291 29.7062 24.6335 29.4602C24.7401 29.4182 24.8467 29.3763 24.9565 29.3331C25.1496 29.2564 25.3414 29.1764 25.5312 29.092C26.3917 28.7563 27.0721 29.0208 27.9171 29.3097Z" fill="#155DFC"/>
</g>
<defs>
<clipPath id="clip0_22_471">
<rect width="53" height="64" fill="white"/>
</clipPath>
</defs>
</svg>
