<svg id="hand-card" width="64" height="64" viewBox="0 0 64 64" fill="none" xmlns="http://www.w3.org/2000/svg">
<path d="M17.5312 2.2578C18.4293 2.53611 18.9727 2.54942 19.8437 2.17967C20.596 1.88407 21.4249 1.82618 22.186 2.1201C22.8983 2.54574 23.3074 3.14071 23.7729 3.81395C24.3187 4.56162 25.042 4.72419 25.8857 4.99217C26.5118 5.22046 26.9604 5.52508 27.3593 6.0703C27.5633 6.51226 27.6391 6.90484 27.6513 7.38963C27.6549 7.48615 27.6584 7.58267 27.6621 7.68211C27.6685 7.88261 27.6741 8.08313 27.6787 8.28368C27.6845 8.42894 27.6845 8.42894 27.6904 8.57713C27.6929 8.66429 27.6953 8.75144 27.6979 8.84123C27.7683 9.22487 27.947 9.52998 28.125 9.87499C28.3429 9.87526 28.3429 9.87526 28.5653 9.87554C32.0163 9.88001 35.4673 9.88704 38.9183 9.89723C39.3433 9.89848 39.7682 9.89971 40.1931 9.90093C40.2777 9.90117 40.3623 9.90141 40.4495 9.90166C41.8185 9.90554 43.1875 9.90766 44.5565 9.90913C45.9617 9.91069 47.3669 9.91416 48.7721 9.91931C49.5611 9.92214 50.3502 9.9241 51.1393 9.92397C51.8821 9.92388 52.6249 9.92611 53.3677 9.93013C53.6402 9.9312 53.9127 9.93141 54.1852 9.93071C54.5577 9.92988 54.93 9.93212 55.3025 9.93511C55.41 9.93414 55.5175 9.93317 55.6282 9.93217C56.4215 9.94343 57.0961 10.127 57.691 10.6765C58.2871 11.3519 58.4122 11.9588 58.4084 12.8356C58.4089 12.9314 58.4095 13.0272 58.4101 13.1258C58.4117 13.4463 58.4115 13.7668 58.4113 14.0873C58.412 14.3173 58.4129 14.5473 58.4138 14.7773C58.416 15.4018 58.4166 16.0263 58.4168 16.6508C58.4169 17.041 58.4175 17.4313 58.4181 17.8216C58.4205 19.1836 58.4215 20.5455 58.4213 21.9075C58.4211 23.1764 58.4238 24.4453 58.4277 25.7142C58.431 26.8042 58.4323 27.8941 58.4322 28.984C58.4321 29.6348 58.4328 30.2855 58.4355 30.9363C58.4379 31.5485 58.4379 32.1607 58.4361 32.7729C58.4358 32.9972 58.4364 33.2215 58.4379 33.4459C58.4399 33.7529 58.4387 34.0598 58.4368 34.3668C58.438 34.4549 58.4393 34.543 58.4407 34.6338C58.4305 35.3708 58.1999 36.0219 57.6985 36.5668C56.9503 37.2242 56.2957 37.2868 55.3448 37.2834C55.2281 37.284 55.1114 37.2845 54.9911 37.2851C54.5998 37.2867 54.2085 37.2865 53.8172 37.2863C53.5367 37.287 53.2562 37.2879 52.9757 37.2888C52.2136 37.2911 51.4514 37.2916 50.6893 37.2918C50.0531 37.292 49.4169 37.293 48.7808 37.2938C47.3655 37.2958 45.9503 37.2965 44.535 37.2963C44.4502 37.2963 44.3653 37.2963 44.2778 37.2963C44.1928 37.2963 44.1078 37.2963 44.0203 37.2963C42.6432 37.2962 41.2662 37.2986 39.8891 37.3021C38.4743 37.3057 37.0595 37.3074 35.6447 37.3072C34.8507 37.3071 34.0568 37.3078 33.2628 37.3105C32.516 37.3129 31.7692 37.3129 31.0224 37.3111C30.7485 37.3108 30.4745 37.3114 30.2006 37.313C29.8263 37.3149 29.4521 37.3137 29.0777 37.3118C28.9697 37.3131 28.8616 37.3144 28.7503 37.3157C27.9548 37.3067 27.2805 37.1246 26.6839 36.5735C26.1296 35.9455 25.9677 35.3998 25.9755 34.5757C25.9768 34.3503 25.9768 34.3503 25.978 34.1203C25.9811 33.8867 25.9811 33.8867 25.9843 33.6484C25.9855 33.4903 25.9866 33.3321 25.9877 33.1692C25.9907 32.7794 25.9948 32.3897 26 32C25.9025 31.9877 25.805 31.9754 25.7045 31.9628C25.375 31.875 25.375 31.875 25.102 31.4707C25.0057 31.2838 24.912 31.0955 24.8203 30.9062C24.7677 30.8021 24.7151 30.6981 24.661 30.5908C24.4794 30.2285 24.3019 29.8645 24.125 29.5C24.025 29.2954 24.025 29.2954 23.9229 29.0867C23.7429 28.7179 23.5636 28.3489 23.3847 27.9796C23.3103 27.8262 23.2358 27.6729 23.1612 27.5196C22.7794 26.7356 22.4033 25.9513 22.0613 25.149C21.9603 24.9127 21.8569 24.6776 21.7528 24.4426C21.6243 24.1504 21.5002 23.8562 21.3816 23.5598C21.1194 22.9738 20.9419 22.5983 20.3577 22.2991C19.5736 22.0497 18.8187 21.886 18 22C17.8807 22.0079 17.7614 22.0158 17.6384 22.024C17.0336 22.126 16.5778 22.2511 16.1859 22.732C15.7061 23.4801 15.3507 24.294 14.9843 25.1015C14.865 25.3537 14.7451 25.6056 14.6248 25.8573C14.3363 26.4632 14.0536 27.0716 13.7728 27.6811C13.5111 28.2456 13.2392 28.8051 12.9678 29.3651C12.8108 29.6897 12.6563 30.0154 12.5029 30.3418C12.4187 30.5196 12.3343 30.6973 12.25 30.875C12.2052 30.9701 12.1604 31.0653 12.1143 31.1633C11.7786 31.8607 11.7786 31.8607 11.5 32C11.1328 32.0469 11.1328 32.0469 10.75 32C10.3671 31.5068 10.2486 30.9554 10.1196 30.3569C10.0979 30.2607 10.0763 30.1645 10.0539 30.0653C9.98542 29.7599 9.91845 29.4542 9.85152 29.1484C9.80515 28.9405 9.75869 28.7325 9.71211 28.5246C9.59856 28.0167 9.48639 27.5084 9.37496 27C9.29885 27.0384 9.22275 27.0767 9.14433 27.1163C8.79166 27.2939 8.43878 27.4712 8.08589 27.6484C7.90643 27.7389 7.90643 27.7389 7.72334 27.8313C7.35815 28.0145 6.99195 28.1954 6.62496 28.375C6.50082 28.436 6.37669 28.497 6.2488 28.5599C6.06882 28.6455 6.06882 28.6455 5.88521 28.7329C5.77803 28.7843 5.67084 28.8358 5.56041 28.8888C5.224 29.0093 4.97954 29.0315 4.62496 29C4.39839 28.8594 4.39839 28.8594 4.24996 28.625C4.19762 28.0293 4.31119 27.6637 4.58443 27.1372C4.65627 26.9966 4.72812 26.856 4.80214 26.7111C4.84071 26.6373 4.87928 26.5635 4.91902 26.4875C5.0829 26.1738 5.24341 25.8585 5.40414 25.5432C5.48606 25.3826 5.56815 25.2221 5.6504 25.0616C6.06034 24.2611 6.44923 23.4512 6.83107 22.637C7.13165 21.999 7.44115 21.3671 7.76517 20.7407C7.95289 20.3769 8.13768 20.0116 8.32235 19.6462C8.41319 19.4684 8.50535 19.2912 8.59895 19.1148C9.26772 17.8524 9.72364 16.6359 9.28145 15.1954C9.16782 14.9424 9.03154 14.729 8.87496 14.5C8.80116 14.3824 8.72736 14.2647 8.65132 14.1435C8.49809 13.8995 8.3431 13.6566 8.18599 13.415C7.7864 12.792 7.77483 12.2292 7.87496 11.5C8.07197 11.0425 8.33272 10.652 8.62496 10.25C8.68586 10.1659 8.74677 10.0818 8.80953 9.9951C8.86463 9.91937 8.91974 9.84364 8.97652 9.76561C9.32047 9.27424 9.38789 8.92668 9.39693 8.33739C9.39991 8.23579 9.40289 8.1342 9.40596 8.02953C9.41129 7.81862 9.41522 7.60767 9.41768 7.39671C9.44256 6.66357 9.55936 6.21909 9.99996 5.62499C10.4748 5.22815 10.9241 5.05684 11.5081 4.89693C12.6601 4.5737 13.2086 4.1403 13.853 3.14012C14.8047 1.77495 16.0278 1.78798 17.5312 2.2578ZM15.4111 3.55858C15.3424 3.64237 15.2738 3.72616 15.2031 3.81249C15.1265 3.90369 15.05 3.99489 14.9711 4.08885C14.7508 4.36571 14.7508 4.36571 14.5795 4.63768C13.8998 5.67638 12.7682 6.08926 11.6049 6.4077C11.3282 6.51874 11.1884 6.64522 11 6.87499C10.8688 7.26848 10.86 7.60788 10.8514 8.01955C10.8133 9.50551 10.4143 10.4154 9.51705 11.5996C9.32178 11.9781 9.3157 12.2029 9.37496 12.625C9.54793 12.9215 9.71484 13.1758 9.92183 13.4453C10.6563 14.4265 10.7877 15.1044 10.8208 16.3008C10.8276 17.0694 10.8276 17.0694 11.125 17.75C11.5181 17.9635 11.9302 18.1096 12.3515 18.2578C13.3767 18.6273 14.078 18.9355 14.6953 19.875C14.9725 20.295 15.2367 20.6757 15.625 21C16.1916 20.9904 16.6299 20.8783 17.1562 20.6797C18.321 20.2768 19.3697 20.4825 20.499 20.9028C20.9395 21.0167 21.1915 21.013 21.625 20.875C21.9068 20.6195 21.9068 20.6195 22.1328 20.289C22.218 20.1761 22.3032 20.0631 22.3911 19.9468C22.5251 19.7624 22.659 19.5779 22.7924 19.3931C23.4485 18.5338 24.4228 18.301 25.4204 18.0034C25.76 17.8711 25.899 17.7791 26.125 17.5C26.1629 17.1342 26.1821 16.788 26.1875 16.4219C26.2421 15.0352 26.4942 14.1944 27.3798 13.0972C27.6621 12.7271 27.7499 12.5246 27.7509 12.0547C27.6145 11.5893 27.4465 11.3263 27.1406 10.9531C26.3253 9.87237 26.1962 8.99284 26.2051 7.66182C26.1967 7.176 26.192 6.95226 25.8652 6.57567C25.4489 6.34692 25.0324 6.20629 24.5781 6.07811C23.2683 5.66876 22.7391 5.04311 21.9746 3.92381C21.7567 3.5995 21.7567 3.5995 21.375 3.37499C20.8732 3.40509 20.4487 3.51603 19.9843 3.6953C18.7807 4.10739 17.6431 3.90122 16.4721 3.48436C16.0608 3.35477 15.7588 3.26005 15.4111 3.55858ZM46 11.375C45.9587 15.1287 45.9175 18.8825 45.875 22.75C44.875 22.75 44.875 22.75 44.5703 22.5078C44.4646 22.3815 44.3589 22.2551 44.25 22.125C44.0662 21.9416 43.8812 21.7594 43.6953 21.5781C43.2289 21.1125 42.7957 20.632 42.375 20.125C41.5545 20.4852 40.9841 21.2426 40.4062 21.9062C40.3348 21.9881 40.2634 22.0699 40.1899 22.1543C40.0385 22.3302 39.8898 22.5085 39.7421 22.6875C39.5 22.875 39.5 22.875 39.1093 22.9219C38.75 22.875 38.75 22.875 38.5 22.625C38.4727 22.2713 38.461 21.9294 38.4601 21.5754C38.4588 21.4668 38.4576 21.3583 38.4563 21.2464C38.4524 20.8866 38.4503 20.5268 38.4482 20.167C38.4459 19.9179 38.4434 19.6688 38.4409 19.4198C38.4344 18.7634 38.4295 18.1071 38.4248 17.4507C38.419 16.6636 38.4113 15.8765 38.4039 15.0894C38.3928 13.893 38.3841 12.6965 38.375 11.5C35.3225 11.5 32.27 11.5 29.125 11.5C29.125 11.8712 29.125 12.2425 29.125 12.625C29.019 12.9643 29.019 12.9643 28.8671 13.2422C28.8111 13.3479 28.755 13.4536 28.6972 13.5625C28.5 13.875 28.5 13.875 28.2636 14.1484C27.5578 14.9748 27.4888 15.776 27.531 16.8219C27.6551 18.0881 28.3363 19.1918 28.9218 20.2969C29.0528 20.5529 29.1832 20.8093 29.3132 21.0658C29.5768 21.5852 29.8427 22.1032 30.1107 22.6203C30.6411 23.6456 31.1559 24.6784 31.6641 25.7148C31.8099 26.0104 31.9581 26.3046 32.1066 26.5988C32.1948 26.7771 32.283 26.9554 32.371 27.1338C32.4118 27.2131 32.4525 27.2923 32.4945 27.374C32.6637 27.7222 32.7525 27.9612 32.7268 28.351C32.625 28.625 32.625 28.625 32.375 28.875C31.7741 28.835 31.3073 28.6237 30.7719 28.3594C30.6934 28.321 30.6149 28.2826 30.534 28.2431C30.2852 28.1213 30.0371 27.9982 29.789 27.875C29.5395 27.752 29.2898 27.6294 29.04 27.5069C28.8142 27.396 28.5888 27.2845 28.3634 27.1728C28.0041 26.9929 28.0041 26.9929 27.625 26.875C27.2548 28.019 27.2548 28.019 27.375 30.375C37.1512 30.375 46.9275 30.375 57 30.375C57.0051 27.4385 57.0103 24.502 57.0156 21.4765C57.0179 20.549 57.0201 19.6215 57.0225 18.6659C57.0233 17.8351 57.0233 17.8351 57.0238 17.0044C57.024 16.6341 57.025 16.2638 57.0263 15.8935C57.0281 15.4212 57.0286 14.9489 57.0282 14.4765C57.0283 14.3032 57.0288 14.1298 57.0298 13.9565C57.031 13.7223 57.0306 13.488 57.03 13.2537C57.0302 13.1225 57.0305 12.9913 57.0307 12.8561C56.9899 12.3841 56.872 12.0235 56.5703 11.6562C56.1161 11.2929 55.5892 11.3581 55.0394 11.3608C54.9402 11.3608 54.8411 11.3608 54.7389 11.3607C54.4179 11.3608 54.0969 11.3618 53.7758 11.3628C53.5776 11.363 53.3795 11.3631 53.1813 11.3632C52.4464 11.3638 51.7114 11.3656 50.9765 11.3672C48.5131 11.371 48.5131 11.371 46 11.375ZM39.875 11.5C39.875 14.4287 39.875 17.3575 39.875 20.375C40.398 19.852 40.8884 19.3181 41.3764 18.7637C41.6768 18.445 41.7924 18.3854 42.226 18.3306C42.753 18.3892 42.9026 18.5754 43.2578 18.9609C43.3598 19.0697 43.4618 19.1785 43.5668 19.2905C43.7194 19.4561 43.7194 19.4561 43.875 19.625C44.0812 19.8312 44.2875 20.0375 44.5 20.25C44.5 17.3625 44.5 14.475 44.5 11.5C42.9737 11.5 41.4475 11.5 39.875 11.5ZM10.25 19C9.47771 20.5298 8.71811 22.0646 7.98406 23.6131C7.73357 24.1407 7.48146 24.6665 7.2148 25.186C7.15166 25.3092 7.15166 25.3092 7.08724 25.4348C6.97771 25.6466 6.86682 25.8578 6.75582 26.0688C6.71263 26.1699 6.66945 26.2709 6.62496 26.375C6.66621 26.4575 6.70746 26.54 6.74996 26.625C6.83247 26.5827 6.91498 26.5404 6.99999 26.4968C7.37644 26.3054 7.75454 26.1175 8.13277 25.9297C8.26256 25.863 8.39235 25.7964 8.52608 25.7278C8.65297 25.6653 8.77986 25.6029 8.9106 25.5386C9.02646 25.4803 9.14233 25.422 9.2617 25.362C9.62496 25.25 9.62496 25.25 10.5 25.375C10.7887 26.5712 11.0775 27.7675 11.375 29C11.6831 28.5892 11.899 28.2326 12.1254 27.7778C12.1969 27.6348 12.2684 27.4918 12.342 27.3445C12.4182 27.1906 12.4942 27.0367 12.5703 26.8828C12.6087 26.8052 12.6471 26.7277 12.6866 26.6478C12.8829 26.2513 13.0786 25.8545 13.2739 25.4576C13.4807 25.0379 13.6911 24.6202 13.9018 24.2026C14.018 23.9685 14.134 23.7343 14.25 23.5C14.3048 23.3927 14.3597 23.2854 14.4162 23.1748C14.4645 23.0759 14.5127 22.9769 14.5625 22.875C14.6263 22.7474 14.6263 22.7474 14.6914 22.6172C14.7761 22.3672 14.7761 22.3672 14.6471 22.1068C14.4968 21.87 14.3365 21.6688 14.1484 21.4609C13.8872 21.1684 13.6732 20.8808 13.4687 20.5469C12.8395 19.6511 11.5017 19.3113 10.5 19C10.4175 19 10.335 19 10.25 19ZM25.894 19.2583C25.625 19.375 25.625 19.375 25.2973 19.4722C24.332 19.7627 23.8476 20.2009 23.25 21C23.1776 21.0946 23.1053 21.1892 23.0307 21.2866C22.9032 21.4553 22.7772 21.6251 22.6533 21.7964C22.5 22 22.5 22 22.25 22.25C23.8587 25.5294 23.8587 25.5294 25.5 28.875C25.5825 28.875 25.665 28.875 25.75 28.875C25.7714 28.7741 25.7928 28.6731 25.8148 28.5691C25.912 28.1136 26.0107 27.6584 26.1093 27.2031C26.1598 26.9648 26.1598 26.9648 26.2114 26.7217C26.2444 26.5702 26.2774 26.4187 26.3115 26.2627C26.3416 26.1226 26.3717 25.9825 26.4027 25.8382C26.5 25.5 26.5 25.5 26.75 25.25C27.3151 25.1942 27.6751 25.2921 28.1748 25.5508C28.2964 25.6128 28.4181 25.6748 28.5434 25.7388C28.6683 25.8043 28.7932 25.8699 28.9218 25.9375C29.0496 26.0031 29.1774 26.0686 29.309 26.1362C29.6234 26.2978 29.937 26.4608 30.25 26.625C30.4079 26.2758 30.4079 26.2758 30.3018 26.0294C30.2601 25.9478 30.2185 25.8662 30.1755 25.7822C30.1287 25.6889 30.0819 25.5957 30.0336 25.4997C29.9814 25.3989 29.9292 25.2981 29.8754 25.1943C29.8221 25.0889 29.7689 24.9835 29.7139 24.8749C29.5422 24.5358 29.3688 24.1975 29.1953 23.8594C29.0267 23.5284 28.8584 23.1973 28.6904 22.8661C28.5796 22.6478 28.4685 22.4296 28.3571 22.2116C28.0891 21.6843 27.8283 21.1553 27.5824 20.6173C27.5372 20.5185 27.492 20.4196 27.4454 20.3178C27.3611 20.132 27.278 19.9457 27.1963 19.7588C27.0987 19.543 26.9879 19.3332 26.875 19.125C26.4297 18.9766 26.3019 19.0643 25.894 19.2583ZM27.375 31.875C27.0976 34.6092 27.0976 34.6092 27.875 35.625C28.2918 35.8334 28.7601 35.769 29.2185 35.7692C29.3332 35.7698 29.4478 35.7703 29.5659 35.7709C29.9523 35.7726 30.3388 35.7733 30.7252 35.7741C31.0013 35.7751 31.2774 35.7761 31.5535 35.7772C32.4623 35.7805 33.371 35.7824 34.2797 35.7842C34.5921 35.7848 34.9046 35.7855 35.217 35.7862C36.5161 35.7889 37.8151 35.7912 39.1142 35.7926C39.4514 35.793 39.7886 35.7934 40.1258 35.7937C40.2515 35.7939 40.2515 35.7939 40.3797 35.794C41.7377 35.7956 43.0956 35.7998 44.4535 35.805C45.8473 35.8103 47.241 35.8132 48.6348 35.8139C49.4175 35.8143 50.2002 35.8158 50.9829 35.8199C51.719 35.8236 52.4551 35.8244 53.1913 35.823C53.4617 35.8229 53.7322 35.824 54.0026 35.8262C54.3714 35.829 54.74 35.828 55.1087 35.826C55.2162 35.8277 55.3236 35.8295 55.4343 35.8312C55.975 35.824 56.1859 35.8 56.626 35.4562C57.4401 34.3732 57 33.4652 57 31.875C47.2237 31.875 37.4475 31.875 27.375 31.875Z" fill="#6A00FF"/>
<path d="M4.03863 35.7124C4.19871 35.7118 4.3588 35.7113 4.52374 35.7107C4.86152 35.7098 5.19929 35.7098 5.53707 35.7105C5.96758 35.7112 6.39802 35.7091 6.82851 35.7062C7.2423 35.7039 7.65608 35.7044 8.06988 35.7045C8.22329 35.7034 8.3767 35.7022 8.53476 35.701C9.64316 35.707 10.5756 35.8402 11.417 36.6215C11.669 36.9285 11.7728 37.2147 11.9004 37.5898C11.9432 37.7135 11.9859 37.8371 12.03 37.9645C12.0613 38.0587 12.0927 38.1529 12.1251 38.2499C12.239 38.2172 12.353 38.1844 12.4704 38.1506C12.8996 38.0274 13.329 37.9051 13.7585 37.783C13.9432 37.7304 14.1278 37.6776 14.3123 37.6245C17.0812 36.8283 19.584 36.47 22.2925 37.6967C22.3902 37.7406 22.4878 37.7844 22.5884 37.8296C23.5474 38.2643 24.489 38.732 25.428 39.2081C25.9198 39.4574 26.4126 39.7047 26.9053 39.9521C27.0499 40.0247 27.0499 40.0247 27.1974 40.0988C27.9324 40.4675 28.6711 40.8275 29.4141 41.1796C30.6432 41.764 31.8715 42.3495 33.097 42.9412C33.3165 43.0469 33.5361 43.1523 33.7559 43.2572C34.0668 43.4056 34.377 43.5554 34.6871 43.7055C34.7794 43.7492 34.8717 43.7929 34.9669 43.838C36.1815 44.4306 37.1671 45.2074 37.7344 46.4609C37.9691 47.1525 37.9281 47.9049 37.8751 48.6249C37.8338 48.7074 37.7926 48.7899 37.7501 48.8749C37.8216 48.8458 37.8931 48.8166 37.9668 48.7865C41.3571 47.4034 44.748 46.0218 48.1441 44.6526C49.4149 44.1399 50.6843 43.624 51.9521 43.1037C52.1838 43.0086 52.4157 42.9136 52.6475 42.8186C53.5511 42.4485 53.5511 42.4485 54.4542 42.0769C59.3152 40.0722 59.3152 40.0722 61.2344 40.7031C62.2608 41.1341 63.0642 41.7783 63.6251 42.7499C63.9896 43.6569 64.0407 44.6628 63.7745 45.6064C63.1345 47.032 61.7916 47.7304 60.5074 48.4951C59.8454 48.8899 59.1959 49.3029 58.5469 49.7187C57.5765 50.339 56.6025 50.9533 55.6251 51.5624C54.6636 52.1618 53.705 52.7653 52.7501 53.3749C51.6693 54.0648 50.5833 54.746 49.4952 55.4243C48.6606 55.9451 47.8293 56.4707 47.0001 56.9999C45.6636 57.8526 44.3212 58.6952 42.9746 59.5317C42.6462 59.7367 42.3193 59.9439 41.9927 60.1518C40.2582 61.2479 38.5539 62.0548 36.461 62.0336C36.3527 62.0329 36.2445 62.0322 36.1329 62.0315C34.9516 62.0128 33.7939 61.8733 32.6251 61.7109C32.506 61.6948 32.3869 61.6788 32.2642 61.6623C26.9358 60.9438 21.6338 60.015 16.3368 59.0971C16.0476 59.0469 15.7583 58.9969 15.4691 58.9469C15.0172 58.8687 14.5655 58.79 14.1138 58.7109C13.868 58.6679 13.6222 58.6253 13.3764 58.5827C13.158 58.5442 13.158 58.5442 12.9353 58.505C12.7447 58.4717 12.7447 58.4717 12.5504 58.4377C12.2501 58.3749 12.2501 58.3749 12.0001 58.2499C11.9768 58.3565 11.9768 58.3565 11.9532 58.4653C11.7333 59.2884 11.3594 59.8052 10.6251 60.2499C9.79327 60.5658 8.9721 60.5382 8.09087 60.5375C7.93108 60.5381 7.77129 60.5386 7.60666 60.5392C7.2694 60.5401 6.93216 60.5401 6.5949 60.5394C6.16553 60.5387 5.73622 60.5408 5.30686 60.5437C4.89371 60.546 4.48058 60.5455 4.06743 60.5454C3.91467 60.5465 3.7619 60.5477 3.6045 60.5488C2.65087 60.5437 1.72454 60.5107 0.957571 59.8872C0.858716 59.7612 0.858716 59.7612 0.757864 59.6328C0.689705 59.5491 0.621546 59.4655 0.551321 59.3793C0.168836 58.8273 0.0933637 58.4541 0.0907825 57.7743C0.0901279 57.6888 0.0894733 57.6034 0.0887989 57.5153C0.0869241 57.229 0.0868358 56.9427 0.0867523 56.6563C0.0857995 56.451 0.0847461 56.2456 0.0835994 56.0403C0.0808553 55.4824 0.0797564 54.9246 0.0791212 54.3667C0.0786658 54.018 0.0778857 53.6693 0.0769959 53.3206C0.0739336 52.1037 0.0723026 50.8869 0.0718597 49.67C0.0714055 48.5365 0.0676702 47.403 0.062434 46.2695C0.0580942 45.2958 0.0561662 44.3221 0.056079 43.3484C0.05598 42.7671 0.0548897 42.1858 0.0513292 41.6045C0.0480534 41.0574 0.0477828 40.5104 0.0497862 39.9633C0.0500127 39.763 0.0491789 39.5626 0.0471838 39.3623C0.0360469 38.1709 0.0888864 37.3308 0.925968 36.4372C1.8079 35.6123 2.90852 35.7115 4.03863 35.7124ZM1.62505 37.8749C1.48633 38.2911 1.48363 38.6021 1.4825 39.0406C1.48213 39.1212 1.48175 39.2017 1.48137 39.2847C1.48029 39.555 1.4801 39.8253 1.47991 40.0956C1.47933 40.2892 1.4787 40.4828 1.47803 40.6765C1.47639 41.2028 1.47558 41.7291 1.47503 42.2555C1.47466 42.5843 1.47415 42.913 1.47359 43.2418C1.47188 44.2702 1.47067 45.2986 1.47019 46.3271C1.46963 47.5146 1.46744 48.7022 1.46381 49.8898C1.46111 50.8075 1.45985 51.7253 1.45968 52.643C1.45955 53.1912 1.45881 53.7395 1.45658 54.2877C1.45452 54.8034 1.45425 55.319 1.45535 55.8347C1.45545 56.0239 1.4549 56.2131 1.45367 56.4023C1.45208 56.6608 1.45281 56.9191 1.45412 57.1775C1.45393 57.3221 1.45375 57.4667 1.45356 57.6156C1.51819 58.1499 1.72279 58.4759 2.10325 58.8484C2.45316 59.0435 2.69895 59.0483 3.0989 59.0505C3.2445 59.052 3.39009 59.0536 3.5401 59.0553C3.69688 59.0549 3.85366 59.0545 4.01519 59.0541C4.25745 59.0551 4.25745 59.0551 4.5046 59.0561C4.84621 59.0572 5.18777 59.0569 5.52938 59.0557C5.96626 59.0543 6.40302 59.0568 6.83988 59.0604C7.2577 59.0633 7.67549 59.0624 8.09331 59.062C8.3281 59.0641 8.3281 59.0641 8.56763 59.0662C8.71362 59.065 8.85961 59.0639 9.01003 59.0627C9.13815 59.0626 9.26627 59.0626 9.39827 59.0626C9.84803 58.9825 10.0517 58.818 10.3751 58.4999C10.6547 58.0681 10.657 57.7031 10.6585 57.1951C10.6593 57.0743 10.6593 57.0743 10.6602 56.951C10.6618 56.6814 10.6616 56.4117 10.6614 56.1421C10.6621 55.9487 10.663 55.7552 10.6639 55.5618C10.6661 55.0365 10.6667 54.5112 10.6669 53.9859C10.6671 53.5472 10.668 53.1086 10.6689 52.67C10.6709 51.6351 10.6716 50.6002 10.6714 49.5653C10.6712 48.498 10.6739 47.4306 10.6778 46.3633C10.6811 45.4467 10.6824 44.5302 10.6823 43.6136C10.6822 43.0662 10.6829 42.5189 10.6856 41.9716C10.688 41.4567 10.688 40.9419 10.6862 40.4271C10.6859 40.2383 10.6865 40.0495 10.688 39.8608C10.69 39.6026 10.6888 39.3447 10.6869 39.0866C10.687 38.9423 10.6871 38.798 10.6873 38.6493C10.6105 38.1567 10.4337 37.8873 10.1251 37.4999C9.69943 37.2162 9.54265 37.2169 9.04238 37.2116C8.82457 37.2087 8.82457 37.2087 8.60237 37.2056C8.44534 37.2049 8.28831 37.2043 8.12652 37.2036C7.96513 37.2024 7.80374 37.2013 7.63747 37.2001C7.29565 37.1981 6.95385 37.1971 6.61202 37.1968C6.17527 37.1961 5.73867 37.1914 5.30196 37.1857C4.88411 37.181 4.46627 37.1809 4.04839 37.1801C3.89212 37.1777 3.73585 37.1752 3.57484 37.1727C2.70784 37.1772 2.19837 37.1917 1.62505 37.8749ZM12.0001 39.8749C12.0001 45.4437 12.0001 51.0124 12.0001 56.7499C12.5365 56.9032 13.0212 57.0377 13.5624 57.1327C13.6929 57.1559 13.8234 57.179 13.9578 57.2028C14.0986 57.2272 14.2393 57.2516 14.3843 57.2768C14.5348 57.3032 14.6852 57.3297 14.8402 57.3569C15.2524 57.4291 15.6647 57.5009 16.077 57.5723C16.3374 57.6174 16.5978 57.6626 16.8582 57.7079C30.4 60.9934 30.4 60.9934 43.0674 57.7382C43.6276 57.3722 44.1919 57.0131 44.7579 56.6562C44.8551 56.5948 44.9524 56.5335 45.0526 56.4703C45.9954 55.8766 46.9406 55.2867 47.8857 54.6967C48.9555 54.0285 50.0224 53.3559 51.0882 52.6814C51.5795 52.3706 52.071 52.0603 52.5626 51.7499C52.7605 51.625 52.9584 51.5 53.1563 51.3749C53.5521 51.1249 53.948 50.8749 54.3438 50.6249C54.4417 50.5631 54.5396 50.5013 54.6405 50.4375C54.8389 50.3122 55.0374 50.1869 55.2358 50.0616C55.7229 49.754 56.21 49.4462 56.6968 49.1381C56.7917 49.0782 56.8866 49.0182 56.9843 48.9564C57.1771 48.8344 57.3697 48.7123 57.5622 48.5899C58.1329 48.2281 58.7073 47.8734 59.2857 47.5239C59.4198 47.4421 59.5539 47.3603 59.6921 47.276C59.953 47.117 60.2146 46.9594 60.4772 46.8033C61.2706 46.3175 62.1668 45.7609 62.4711 44.8315C62.5888 44.2271 62.4767 43.7601 62.171 43.2319C61.6819 42.5682 61.1631 42.2294 60.3751 41.9999C59.1984 41.8611 58.276 42.1009 57.2032 42.5624C56.9747 42.6564 56.7463 42.7503 56.5178 42.8441C56.2698 42.9466 56.0225 43.0504 55.7752 43.1546C55.226 43.3857 54.6747 43.6116 54.1231 43.8369C53.408 44.1291 52.6933 44.422 51.979 44.7161C50.5042 45.3234 49.0262 45.9225 47.5473 46.5198C46.1618 47.0795 44.7771 47.6413 43.3936 48.206C43.1707 48.2969 43.1707 48.2969 42.9434 48.3897C42.2158 48.6866 41.4883 48.9838 40.761 49.2813C39.4457 49.8186 38.1287 50.3513 36.8062 50.871C36.6909 50.9165 36.5757 50.962 36.4569 51.0088C34.4804 51.7813 34.4804 51.7813 33.6485 51.8515C33.481 51.8682 33.481 51.8682 33.3101 51.8852C31.8215 51.8501 30.6701 51.3536 29.3594 50.7109C29.1723 50.6209 28.9852 50.531 28.7979 50.4412C27.4964 49.8152 26.2017 49.1739 24.9138 48.5203C24.7926 48.4588 24.6713 48.3973 24.5464 48.3339C24.4333 48.2765 24.3201 48.219 24.2035 48.1598C23.7964 47.9617 23.3814 47.7878 22.9604 47.6214C22.7501 47.4999 22.7501 47.4999 22.6016 47.1171C22.6251 46.7499 22.6251 46.7499 22.8751 46.3749C23.4187 46.3122 23.7816 46.4063 24.2656 46.6479C24.3872 46.7077 24.5087 46.7674 24.6339 46.829C24.8284 46.9274 24.8284 46.9274 25.0269 47.0278C25.1629 47.0951 25.2989 47.1624 25.439 47.2317C25.8741 47.4473 26.3082 47.665 26.7422 47.8828C27.1715 48.0965 27.601 48.3098 28.0304 48.5231C28.3076 48.6608 28.5847 48.7986 28.8618 48.9365C31.581 50.4245 31.581 50.4245 34.5674 50.2636C35.2666 49.9484 35.8306 49.5094 36.2501 48.8671C36.5451 48.0003 36.5106 47.451 36.1251 46.6249C35.7558 45.9249 35.1676 45.6211 34.4747 45.288C34.2939 45.1995 34.1133 45.1109 33.9326 45.0223C33.84 44.9772 33.7475 44.9321 33.6521 44.8856C33.2167 44.6724 32.784 44.454 32.3511 44.2358C30.7081 43.4106 29.0653 42.586 27.403 41.8001C26.6086 41.4238 25.8186 41.0392 25.0298 40.6513C24.8094 40.5431 24.589 40.435 24.3686 40.3268C24.0384 40.1648 23.7083 40.0025 23.3787 39.8395C23.0695 39.6866 22.7599 39.5346 22.4502 39.3828C22.3586 39.3371 22.2669 39.2915 22.1724 39.2444C18.683 37.5407 15.5202 38.7749 12.0001 39.8749Z" fill="#155DFC"/>
<path d="M21.375 5.74999C21.4651 5.78464 21.5552 5.81928 21.648 5.85497C23.1948 6.53033 24.3631 7.87397 25.0513 9.38769C25.7299 11.1924 25.7913 13.3477 25 15.125C24.1263 16.9336 22.6879 18.2109 20.8081 18.9028C18.9183 19.4988 17.0046 19.3256 15.211 18.4844C13.5562 17.5916 12.4386 16.2833 11.8477 14.4927C11.3039 12.4453 11.4161 10.3914 12.4463 8.51806C12.6567 8.20249 12.8797 7.91411 13.125 7.62499C13.2057 7.52751 13.2865 7.43002 13.3696 7.32958C15.3484 5.1452 18.7161 4.65201 21.375 5.74999ZM14.5 8.27343C13.3327 9.54728 12.9388 11.0106 12.9693 12.6924C13.05 13.8277 13.5 14.69 14.125 15.625C14.2333 15.7913 14.2333 15.7913 14.3438 15.9609C15.4584 17.1066 16.9112 17.7576 18.5 17.7891C20.1159 17.7908 21.3553 17.2068 22.5278 16.1167C23.5555 15.043 24.042 13.7458 24.1641 12.2812C24.1142 10.8043 23.6044 9.36271 22.5938 8.27343C20.266 6.13539 16.8462 6.10835 14.5 8.27343Z" fill="#6A00FF"/>
<path d="M18.6562 8.83594C18.8883 8.91715 18.8883 8.91715 19.125 9C19.2788 9.3252 19.2788 9.3252 19.4297 9.72656C19.6546 10.2662 19.6546 10.2662 20.101 10.6155C20.5444 10.7617 20.9917 10.8439 21.4517 10.9189C21.5914 10.9457 21.7311 10.9724 21.875 11C22.0536 11.3573 22.0441 11.6047 22 12C21.7495 12.249 21.7495 12.249 21.4297 12.4844C21.0154 12.8536 21.0154 12.8536 20.842 13.3632C20.8471 13.724 20.8829 14.0711 20.9424 14.4269C21.0429 15.0652 21.0429 15.0652 20.7778 15.4351C20.5 15.625 20.5 15.625 20.1562 15.625C19.8143 15.5198 19.5601 15.4036 19.25 15.2344C18.9107 15.0583 18.767 15 18.375 15C18.0524 15.1075 17.7902 15.2313 17.4922 15.3906C17.1551 15.5685 17.0311 15.6264 16.6406 15.6094C16.375 15.5 16.375 15.5 16.125 15.25C16.0962 15.0146 16.0962 15.0146 16.1016 14.7344C16.1022 14.6337 16.1029 14.533 16.1035 14.4292C16.125 14.125 16.125 14.125 16.1934 13.8638C16.2792 13.5803 16.2792 13.5803 16.25 13.125C15.9844 12.8365 15.6964 12.6041 15.3896 12.3604C15.125 12.125 15.125 12.125 14.9688 11.7188C15.0071 11.2972 15.0716 11.1694 15.375 10.875C15.7073 10.798 15.9998 10.7489 16.3359 10.7188C16.4237 10.7091 16.5114 10.6994 16.6018 10.6895C16.8177 10.666 17.0338 10.6452 17.25 10.625C17.2861 10.5111 17.3222 10.3972 17.3594 10.2798C17.8335 8.91505 17.8335 8.91505 18.6562 8.83594ZM18.5 11.25C18.451 11.3505 18.402 11.4511 18.3516 11.5547C18.125 11.875 18.125 11.875 17.7891 11.9766C17.646 11.9882 17.646 11.9882 17.5 12C17.5387 12.0877 17.5773 12.1753 17.6172 12.2656C17.7541 12.6362 17.8205 12.9846 17.875 13.375C18.2473 13.3689 18.2473 13.3689 18.6196 13.3628C18.875 13.375 18.875 13.375 19.25 13.5C19.2655 13.3427 19.2809 13.1855 19.2969 13.0234C19.3373 12.6121 19.3833 12.4876 19.625 12.125C19.509 12.0734 19.393 12.0219 19.2734 11.9688C18.8899 11.7582 18.7262 11.6144 18.5 11.25Z" fill="#6A00FF"/>
<path d="M5.784 39.5624C6.05353 39.5625 6.32261 39.5573 6.59208 39.5517C6.76436 39.5511 6.93664 39.5507 7.10892 39.5508C7.26481 39.5499 7.42069 39.549 7.5813 39.5481C8.00004 39.625 8.00004 39.625 8.36304 39.8662C8.72936 40.4028 8.71521 40.8285 8.70804 41.4648C8.70864 41.5818 8.70924 41.6987 8.70986 41.8192C8.71028 42.0659 8.70913 42.3126 8.70652 42.5592C8.70317 42.9363 8.70649 43.3129 8.71049 43.6899C8.71007 43.93 8.70927 44.1701 8.70804 44.4101C8.70931 44.5225 8.71057 44.6349 8.71188 44.7507C8.70185 45.2881 8.67269 45.5553 8.36277 46.0085C7.91375 46.3074 7.65035 46.3289 7.11332 46.3286C7.02967 46.3289 6.94603 46.3292 6.85985 46.3295C6.68377 46.3294 6.50769 46.3277 6.33164 46.3246C6.06322 46.3203 5.79532 46.322 5.52689 46.3244C5.35518 46.3236 5.18346 46.3224 5.01175 46.3208C4.85666 46.3194 4.70157 46.3181 4.54178 46.3167C4.05027 46.238 3.84206 46.1074 3.50004 45.75C3.33508 45.2465 3.3548 44.7359 3.35404 44.2114C3.35362 44.1109 3.35321 44.0105 3.35278 43.907C3.35215 43.6948 3.35185 43.4827 3.35187 43.2706C3.3516 42.9469 3.34933 42.6232 3.34696 42.2995C3.34659 42.0931 3.34635 41.8866 3.34623 41.6801C3.34533 41.5838 3.34443 41.4874 3.34351 41.3881C3.34625 40.7397 3.38017 40.2587 3.836 39.7771C4.42354 39.4679 5.13275 39.5603 5.784 39.5624ZM4.87504 41C4.87504 42.2787 4.87504 43.5575 4.87504 44.875C5.65879 44.875 6.44254 44.875 7.25004 44.875C7.25004 43.5962 7.25004 42.3175 7.25004 41C6.46629 41 5.68254 41 4.87504 41Z" fill="#155DFC"/>
</svg>
