<svg id="time" width="64" height="64" viewBox="0 0 64 64" fill="none" xmlns="http://www.w3.org/2000/svg">
<g clip-path="url(#clip0_22_455)">
<path d="M34.273 1.22981C34.3773 1.22919 34.4816 1.22857 34.5891 1.22793C34.9347 1.2261 35.2803 1.22525 35.6259 1.22456C35.8665 1.22384 36.1071 1.22312 36.3477 1.2224C36.8527 1.22109 37.3577 1.22036 37.8627 1.21992C38.5079 1.21924 39.153 1.21624 39.7982 1.21267C40.2956 1.21034 40.7929 1.2097 41.2903 1.2095C41.528 1.20913 41.7657 1.20813 42.0035 1.20648C42.3373 1.20433 42.671 1.20459 43.0049 1.20539C43.1019 1.20424 43.199 1.20309 43.299 1.2019C44.5927 1.21164 45.5347 1.701 46.4614 2.57417C47.33 3.49726 47.5753 4.51727 47.559 5.76213C47.5082 6.92671 47.0612 7.91361 46.2499 8.74995C45.6182 9.27057 45.1995 9.48752 44.3749 9.62495C44.4162 10.6562 44.4574 11.6874 44.4999 12.7499C45.1458 12.924 45.1458 12.924 45.8046 13.1015C49.7222 14.217 53.2628 16.2383 56.1901 19.0715C56.3822 19.257 56.5768 19.4397 56.7714 19.6225C60.8884 23.5498 63.8483 29.6713 64.0221 35.3959C64.0253 35.5813 64.0279 35.7667 64.0297 35.9521C64.031 36.0529 64.0322 36.1536 64.0335 36.2575C64.0834 41.4215 63.3095 47.5569 59.7499 51.6249C59.3641 51.8544 59.1394 51.8752 58.6874 51.8671C58.1446 51.7217 57.9438 51.5887 57.6249 51.1249C57.4639 50.253 57.7449 49.6482 58.1953 48.9218C58.3111 48.7238 58.4265 48.5256 58.5414 48.3271C58.5984 48.2296 58.6554 48.132 58.7141 48.0316C60.5261 44.8587 61.3081 41.1649 61.289 37.539C61.2887 37.4462 61.2885 37.3534 61.2882 37.2577C61.2641 32.0578 59.463 26.8083 55.9999 22.8749C55.9073 22.7686 55.8146 22.6623 55.7192 22.5527C55.4419 22.2393 55.1601 21.9311 54.8749 21.6249C54.7894 21.5326 54.7038 21.4403 54.6157 21.3452C50.5234 17.0865 44.5645 14.9691 38.7499 14.8281C32.9137 14.9754 27.5489 17.0531 23.2499 20.9999C23.1856 21.0587 23.1212 21.1174 23.0548 21.1779C19.1262 24.8052 16.4569 30.4288 16.223 35.7861C16.1512 37.9032 16.1237 40.056 16.6249 42.1249C16.6498 42.232 16.6746 42.339 16.7002 42.4493C17.6305 46.3837 19.4612 49.9402 22.2499 52.8749C22.4019 53.0513 22.553 53.2283 22.7031 53.4062C23.139 53.9046 23.612 54.332 24.1249 54.7499C24.2434 54.8466 24.3618 54.9433 24.4838 55.0429C29.1991 58.8163 35.2606 60.5047 41.2509 59.937C44.7895 59.5343 48.067 58.2942 51.1064 56.4594C51.5666 56.2145 51.7727 56.1866 52.2665 56.2836C52.7132 56.4584 52.8892 56.7198 53.1249 57.1249C53.2309 57.605 53.2047 57.9928 52.9453 58.4228C52.4963 58.8813 51.9874 59.1653 51.4296 59.4765C51.313 59.5421 51.1964 59.6077 51.0762 59.6753C48.8682 60.8937 46.503 61.7502 44.039 62.2812C43.9517 62.3001 43.8643 62.319 43.7744 62.3384C42.1374 62.6687 40.5028 62.8016 38.8359 62.7968C38.7448 62.7968 38.6538 62.7967 38.5599 62.7966C31.6528 62.7732 25.3006 59.924 20.4449 55.07C18.657 53.2465 15.1249 49.2255 15.1249 46.4999C14.9532 46.5012 14.9532 46.5012 14.778 46.5025C13.6984 46.51 12.6188 46.5157 11.5392 46.5194C10.9841 46.5213 10.4291 46.524 9.87412 46.5282C9.33839 46.5323 8.80267 46.5346 8.26692 46.5355C8.06264 46.5362 7.85836 46.5376 7.65409 46.5396C7.36771 46.5423 7.08141 46.5427 6.79502 46.5425C6.63208 46.5434 6.46914 46.5442 6.30127 46.545C5.84254 46.4965 5.61284 46.4042 5.24994 46.1249C4.91506 45.6226 4.91293 45.2154 4.99994 44.6249C5.22418 44.2662 5.37277 44.0635 5.74994 43.8749C6.01929 43.8635 6.289 43.8603 6.5586 43.8608C6.68301 43.8607 6.68301 43.8607 6.80994 43.8607C7.08454 43.8608 7.35913 43.8618 7.63373 43.8627C7.82395 43.863 8.01416 43.8632 8.20438 43.8633C8.70538 43.8638 9.20638 43.865 9.70739 43.8664C10.2185 43.8676 10.7296 43.8682 11.2407 43.8688C12.2438 43.8702 13.2469 43.8723 14.2499 43.8749C14.2242 43.7748 14.1986 43.6746 14.1721 43.5714C14.1383 43.4385 14.1046 43.3056 14.0699 43.1686C14.0364 43.0375 14.003 42.9064 13.9686 42.7713C13.8308 42.1879 13.7437 41.6015 13.664 41.0078C13.6478 40.8946 13.6316 40.7814 13.6149 40.6647C13.5428 40.1452 13.4968 39.65 13.4999 39.1249C13.4246 39.1263 13.3492 39.1277 13.2716 39.1292C12.4869 39.143 11.7022 39.1524 10.9174 39.1593C10.6246 39.1624 10.3318 39.1667 10.039 39.1721C9.6179 39.1797 9.19695 39.1832 8.77582 39.186C8.57969 39.1908 8.57969 39.1908 8.37961 39.1958C7.46962 39.1961 7.46962 39.1961 6.98008 38.8282C6.73143 38.4736 6.66512 38.3034 6.67182 37.8749C6.67021 37.7718 6.6686 37.6687 6.66693 37.5624C6.79372 37.0851 6.979 36.9225 7.37494 36.6249C7.84242 36.5379 8.30173 36.5522 8.77582 36.5639C8.97842 36.5652 8.97842 36.5652 9.18511 36.5666C9.61567 36.5701 10.046 36.5779 10.4765 36.5859C10.7687 36.589 11.061 36.5919 11.3532 36.5944C12.0689 36.6013 12.7844 36.6118 13.4999 36.6249C13.499 36.5248 13.4981 36.4246 13.4972 36.3214C13.4965 36.1885 13.4958 36.0556 13.4951 35.9186C13.4942 35.7875 13.4933 35.6564 13.4924 35.5213C13.5038 34.9249 13.5868 34.3461 13.6796 33.7578C13.7049 33.588 13.7049 33.588 13.7307 33.4147C13.8084 32.8984 13.8966 32.3868 13.9999 31.8749C13.8353 31.8761 13.6707 31.8772 13.5011 31.8783C11.9506 31.8884 10.4001 31.8959 8.84957 31.9009C8.0524 31.9035 7.25526 31.907 6.4581 31.9127C5.68895 31.9181 4.91982 31.9211 4.15065 31.9224C3.85705 31.9233 3.56346 31.9251 3.26987 31.9278C2.85895 31.9314 2.44814 31.9319 2.0372 31.9317C1.91555 31.9335 1.7939 31.9353 1.66857 31.9372C1.12907 31.9339 0.83231 31.9258 0.364803 31.637C-0.0372441 31.1977 -0.0487025 30.8607 -0.0449791 30.2827C0.0262638 29.8343 0.275225 29.6414 0.624943 29.3749C0.923023 29.2259 1.10384 29.2345 1.4365 29.2349C1.55464 29.2347 1.67278 29.2346 1.79451 29.2344C1.98952 29.2351 1.98952 29.2351 2.18848 29.2358C2.32507 29.2357 2.46165 29.2357 2.60238 29.2357C3.05554 29.2358 3.5087 29.2368 3.96186 29.2377C4.27538 29.238 4.58891 29.2382 4.90244 29.2383C5.64439 29.2387 6.38635 29.2397 7.1283 29.2409C8.05573 29.2425 8.98316 29.2432 9.91059 29.2438C11.5654 29.2452 13.2202 29.2473 14.8749 29.2499C14.903 29.0725 14.903 29.0725 14.9317 28.8916C14.9903 28.5555 15.0626 28.3001 15.2001 27.9916C15.2409 27.8999 15.2817 27.8081 15.3237 27.7136C15.3664 27.6199 15.4091 27.5262 15.4531 27.4296C15.4929 27.3393 15.5327 27.249 15.5737 27.156C15.9632 26.2888 16.4182 25.458 16.8749 24.6249C16.7416 24.6262 16.7416 24.6262 16.6056 24.6275C15.7652 24.635 14.9248 24.6407 14.0844 24.6444C13.6524 24.6463 13.2205 24.649 12.7885 24.6532C12.2911 24.6581 11.7937 24.6599 11.2963 24.6616C11.0652 24.6645 11.0652 24.6645 10.8295 24.6674C10.0445 24.6676 9.4322 24.6582 8.74994 24.2499C8.41506 23.7476 8.41293 23.3404 8.49994 22.7499C8.72418 22.3912 8.87277 22.1885 9.24994 21.9999C9.54403 21.9919 9.83837 21.9922 10.1325 21.9961C10.321 21.9981 10.5094 22.0001 10.6978 22.002C10.798 22.0032 10.8982 22.0044 11.0014 22.0056C11.6436 22.0121 12.2859 22.0113 12.9281 22.012C13.4922 22.0131 14.056 22.0165 14.62 22.0252C15.1658 22.0335 15.7113 22.035 16.2572 22.0321C16.4646 22.0321 16.672 22.0346 16.8793 22.0397C18.0741 22.0868 18.0741 22.0868 19.1163 21.5783C19.4006 21.2316 19.6363 20.8788 19.8749 20.4999C23.3551 16.5591 27.9509 14.0529 32.9999 12.7499C32.9999 11.7599 32.9999 10.7699 32.9999 9.74995C32.7731 9.6494 32.5462 9.54886 32.3124 9.44526C31.1731 8.87158 30.5215 8.11397 30.0864 6.91987C29.7507 5.77451 29.816 4.66367 30.3281 3.57808C31.1863 2.03444 32.5038 1.23232 34.273 1.22981ZM32.7734 4.60933C32.5358 5.03443 32.4605 5.38847 32.5414 5.87349C32.7176 6.47681 32.9895 6.80789 33.5272 7.12312C34.323 7.41336 35.215 7.3331 36.0517 7.32417C36.2643 7.32395 36.4768 7.32396 36.6894 7.32418C37.1334 7.32398 37.5774 7.32165 38.0214 7.3177C38.5894 7.31273 39.1573 7.31219 39.7253 7.31313C40.1637 7.31352 40.6021 7.312 41.0405 7.30987C41.2499 7.30899 41.4593 7.3086 41.6687 7.3087C41.9616 7.30848 42.2543 7.3058 42.5471 7.30244C42.6757 7.30299 42.6757 7.30299 42.8069 7.30355C43.5711 7.29009 44.0509 7.05667 44.6093 6.54682C44.9491 6.00719 44.9953 5.62158 44.8749 4.99995C44.5934 4.43689 44.3139 4.14488 43.7499 3.87495C43.4144 3.83879 43.1081 3.82235 42.7729 3.82444C42.6283 3.82316 42.6283 3.82316 42.4807 3.82184C42.1631 3.81956 41.8455 3.82004 41.5278 3.82075C41.3063 3.82018 41.0847 3.81952 40.8632 3.81877C40.3993 3.81765 39.9354 3.81795 39.4715 3.81919C38.8779 3.82063 38.2843 3.8181 37.6907 3.81445C37.2333 3.81216 36.776 3.8122 36.3186 3.81291C36.0998 3.81293 35.8809 3.81217 35.6621 3.81062C35.3557 3.80876 35.0495 3.8101 34.7431 3.81224C34.6084 3.81042 34.6084 3.81042 34.4709 3.80857C33.73 3.81938 33.2807 4.08455 32.7734 4.60933ZM35.7499 9.87495C35.7499 10.7 35.7499 11.525 35.7499 12.3749C36.0387 12.3543 36.3274 12.3337 36.6249 12.3124C38.3422 12.2011 40.0352 12.2525 41.7499 12.3749C41.7499 11.5499 41.7499 10.7249 41.7499 9.87495C39.7699 9.87495 37.7899 9.87495 35.7499 9.87495Z" fill="#155DFC"/>
<path d="M51.375 22.625C51.4785 22.7133 51.5819 22.8016 51.6885 22.8925C55.7848 26.4623 57.8625 31.3942 58.25 36.75C58.2798 37.2135 58.2779 37.6613 58.25 38.125C58.2423 38.2584 58.2423 38.2584 58.2345 38.3944C57.9362 43.1444 56.1606 47.4146 52.875 50.875C52.8158 50.9383 52.7565 51.0017 52.6954 51.0669C51.7179 52.1063 50.7001 52.9781 49.5 53.75C49.4195 53.8023 49.339 53.8547 49.256 53.9086C46.1142 55.9255 42.5452 56.9326 38.8203 56.9218C38.7273 56.9217 38.6343 56.9216 38.5385 56.9215C33.1682 56.9007 28.3567 54.6878 24.5842 50.8951C21.0381 47.2233 19.1989 42.271 19.2419 37.1862C19.3832 31.7497 21.609 26.9744 25.4551 23.1738C32.5143 16.5274 44.0631 16.2014 51.375 22.625ZM25.9675 26.4445C23.2226 29.5985 21.6577 33.9398 21.875 38.125C22.1813 42.4275 23.7842 46.1072 26.75 49.25C26.8341 49.3421 26.9183 49.4343 27.0049 49.5293C29.0902 51.7317 31.8584 53.0795 34.75 53.875C34.8365 53.899 34.923 53.923 35.0121 53.9477C37.4114 54.5759 40.3622 54.538 42.75 53.875C42.8502 53.8474 42.9504 53.8199 43.0536 53.7915C45.9485 52.9667 48.3148 51.5622 50.5 49.5C50.5922 49.4159 50.6844 49.3317 50.7793 49.2451C53.7902 46.3944 55.4353 42.2216 55.625 38.125C55.6302 38.0304 55.6353 37.9358 55.6407 37.8383C55.7659 33.2921 53.8984 29.0037 50.8306 25.7151C47.7552 22.504 43.4891 20.702 39.0616 20.5808C34.0224 20.5373 29.3315 22.7217 25.9675 26.4445Z" fill="#6A00FF"/>
<path d="M48 27.375C48.4008 27.6125 48.6749 27.7919 48.8374 28.2422C48.9433 28.8432 48.8423 29.1127 48.5 29.625C48.3074 29.8274 48.1075 30.023 47.9027 30.213C47.7805 30.3274 47.6584 30.4417 47.5363 30.5561C47.472 30.6159 47.4078 30.6757 47.3415 30.7373C46.9986 31.058 46.6607 31.3838 46.322 31.709C45.8925 32.1213 45.4617 32.5318 45.024 32.9356C44.669 33.2633 44.3202 33.5968 43.9748 33.9346C43.843 34.0614 43.7092 34.186 43.5733 34.3083C42.8168 34.9724 42.8168 34.9724 42.4736 35.8843C42.4878 36.354 42.564 36.7993 42.6627 37.2577C42.8283 38.1917 42.5709 39.0232 42.0391 39.7969C41.2896 40.6869 40.3846 41.3014 39.2168 41.4146C37.9377 41.4575 37.0257 41.2325 36.0234 40.4297C35.2232 39.6663 34.8124 38.6984 34.7381 37.5991C34.75 37.25 34.75 37.25 34.8514 36.8833C34.9729 36.4377 35.0304 36.0873 35 35.625C34.6416 35.0376 34.1607 34.6125 33.6484 34.1641C33.5154 34.0416 33.3829 33.9186 33.2507 33.7952C33.0097 33.5703 32.7667 33.3495 32.5206 33.13C32.1539 32.7845 32.0995 32.5762 32.0781 32.0859C32.0847 31.6323 32.1142 31.5157 32.3828 31.125C32.8249 30.824 33.0907 30.75 33.625 30.75C34.2065 30.9871 34.5647 31.2811 34.9829 31.7446C35.1493 31.9222 35.1493 31.9222 35.3191 32.1033C35.4927 32.2901 35.665 32.4777 35.8348 32.6679C36.4546 33.4266 36.4546 33.4266 37.3122 33.7747C37.5999 33.7082 37.8535 33.6149 38.125 33.5C38.4688 33.4668 38.4688 33.4668 38.75 33.4688C38.8428 33.4681 38.9356 33.4675 39.0312 33.4668C39.375 33.5 39.375 33.5 39.6043 33.6039C39.9316 33.7333 40.147 33.7776 40.5 33.75C41.0544 33.3946 41.4839 32.9199 41.9321 32.4434C42.0663 32.306 42.2008 32.1689 42.3357 32.0321C42.6894 31.6718 43.0388 31.3076 43.3874 30.9424C43.8114 30.4995 44.2398 30.0608 44.668 29.622C45.0012 29.2805 45.3335 28.9384 45.6634 28.5936C45.7835 28.4689 45.9037 28.3443 46.0238 28.2196C46.1281 28.1106 46.2324 28.0016 46.3399 27.8893C46.8694 27.3984 47.2752 27.2875 48 27.375ZM37.6562 36.6719C37.4358 36.9585 37.3915 37.137 37.375 37.5C37.5178 37.936 37.6587 38.2701 37.9609 38.6172C38.3905 38.8146 38.7917 38.8302 39.25 38.75C39.7188 38.4952 39.8484 38.3136 40.0547 37.8203C40.1306 37.3392 40.1205 37.163 39.875 36.75C39.5842 36.3623 39.4181 36.2618 38.9453 36.1328C38.3495 36.1224 38.1081 36.3169 37.6562 36.6719Z" fill="#6A00FF"/>
<path d="M39.375 22.8749C39.7649 23.197 39.9648 23.3942 40.125 23.8749C40.2475 25.64 40.2475 25.64 39.75 26.2499C39.2522 26.5563 38.9948 26.6432 38.4141 26.5546C37.9709 26.3623 37.7835 26.2627 37.5 25.8749C37.4226 25.4806 37.4245 25.096 37.4297 24.6953C37.4267 24.5895 37.4237 24.4837 37.4207 24.3747C37.422 23.8175 37.4431 23.5735 37.7935 23.1205C38.3504 22.7079 38.7116 22.7148 39.375 22.8749Z" fill="#6A00FF"/>
<path d="M39.25 48.3749C39.6013 48.5991 39.8137 48.7523 40 49.1249C40.0222 49.4939 40.0347 49.8573 40.0391 50.2265C40.0427 50.3275 40.0463 50.4284 40.05 50.5324C40.0555 51.0455 40.0428 51.307 39.7632 51.7514C39.3615 52.1307 39.0676 52.1749 38.5132 52.1689C38.0378 52.0895 37.8249 51.8486 37.5 51.4999C37.3529 51.0914 37.3543 50.6891 37.3516 50.2578C37.3498 50.1303 37.348 50.0028 37.3462 49.8715C37.3884 49.3267 37.5213 48.9878 37.8906 48.5859C38.3582 48.3115 38.7198 48.2657 39.25 48.3749Z" fill="#6A00FF"/>
<path d="M25.914 36.0938C26.0786 36.0905 26.2431 36.0873 26.4126 36.084C27.0216 36.138 27.3401 36.3135 27.7344 36.7734C27.8958 37.1771 27.8972 37.4413 27.8638 37.8672C27.6806 38.2822 27.3891 38.5353 27 38.75C26.6391 38.8331 26.2985 38.8322 25.9297 38.8203C25.8369 38.8217 25.7442 38.8231 25.6487 38.8245C25.0295 38.8162 24.6984 38.7105 24.25 38.25C24.0329 37.8159 24.0497 37.3485 24.125 36.875C24.6723 36.1837 25.0729 36.1002 25.914 36.0938Z" fill="#6A00FF"/>
<path d="M52.7656 36.2891C53.125 36.5 53.125 36.5 53.375 36.875C53.4674 37.4491 53.4512 37.8781 53.1406 38.375C52.6491 38.8376 52.1681 38.7857 51.5234 38.7969C51.372 38.8039 51.372 38.8039 51.2175 38.811C50.6636 38.8192 50.4466 38.807 49.9985 38.4502C49.6355 37.9752 49.5673 37.7249 49.625 37.125C49.8398 36.7113 49.9887 36.444 50.4096 36.231C51.1513 36.0001 52.039 35.999 52.7656 36.2891Z" fill="#6A00FF"/>
<path d="M56.125 53.125C56.8173 53.5096 56.8173 53.5096 57 53.875C57.0526 54.2574 57.0606 54.6184 57 55C56.7273 55.3445 56.516 55.5545 56.125 55.75C55.5726 55.8138 55.3115 55.7865 54.8281 55.5C54.4732 55.0944 54.3811 54.8895 54.3535 54.3658C54.3968 53.8808 54.6428 53.6111 54.9688 53.2735C55.3808 53.056 55.6651 53.0695 56.125 53.125Z" fill="#6A00FF"/>
<path d="M1.99999 44C2.34968 44.2729 2.46879 44.4594 2.55078 44.8945C2.58768 45.4481 2.55634 45.6788 2.20312 46.125C1.68203 46.522 1.41034 46.5282 0.774897 46.4443C0.499995 46.375 0.499995 46.375 0.179682 46.125C-0.0657035 45.6129 -0.102105 45.183 -5.20423e-06 44.625C0.498458 43.7999 1.12656 43.7761 1.99999 44Z" fill="black"/>
</g>
<defs>
<clipPath id="clip0_22_455">
<rect width="64" height="64" fill="white"/>
</clipPath>
</defs>
</svg>
