<svg width="32" height="19" viewBox="0 0 32 19" fill="none" xmlns="http://www.w3.org/2000/svg">
<path d="M7 10.5H25C25.56 10.5 26 10.06 26 9.5C26 8.94 25.56 8.5 25 8.5H7C6.44 8.5 6 8.94 6 9.5C6 10.06 6.44 10.5 7 10.5Z" fill="#155DFC"/>
<path d="M12 17.5C12.1312 17.5016 12.2612 17.4757 12.3817 17.4241C12.5023 17.3724 12.6107 17.2961 12.7 17.2C13.1 16.8 13.1 16.18 12.7 15.78L6.4 9.48L12.7 3.18C13.1 2.78 13.1 2.16 12.7 1.76C12.3 1.36 11.68 1.36 11.28 1.76L4.28 8.76C3.88 9.16 3.88 9.78 4.28 10.18L11.28 17.18C11.48 17.38 11.74 17.48 11.98 17.48L12 17.5Z" fill="#155DFC"/>
</svg>
