<svg width="60" height="60" viewBox="0 0 60 60" fill="none" xmlns="http://www.w3.org/2000/svg">
<g clip-path="url(#clip0_23_658)">
<path d="M29.5775 0C29.9314 0.0602208 30.2839 0.130066 30.6338 0.210526C30.6338 0.766316 30.6338 1.32211 30.6338 1.89474C37.1068 3.70989 43.8936 2.6671 50.4312 1.78757C57.2598 0.875733 57.2598 0.875733 59.7887 1.68421C59.8585 2.03158 59.9282 2.37895 60 2.73684C59.0467 2.97434 59.0467 2.97434 58.5778 2.85156C55.7161 2.16643 52.3617 2.97673 49.5112 3.36705C45.7621 3.87466 42.0284 4.36253 38.2394 4.34211C37.9637 4.3417 37.688 4.34129 37.404 4.34087C35.2302 4.2944 32.9192 4.05737 30.8451 3.36842C30.7754 4.54947 30.7056 5.73053 30.6338 6.94737C31.0053 6.94004 31.3767 6.93271 31.7595 6.92516C32.2469 6.91924 32.7344 6.91349 33.2218 6.90789C33.4667 6.9026 33.7115 6.89731 33.9637 6.89186C34.1993 6.88982 34.4349 6.88779 34.6776 6.88569C34.8944 6.88238 35.1113 6.87908 35.3347 6.87567C36.0137 6.95949 36.2916 7.08468 36.7606 7.57895C36.8303 7.92632 36.9 8.27368 36.9718 8.63158C44.5014 8.63158 52.031 8.63158 59.7887 8.63158C59.8585 8.97895 59.9282 9.32632 60 9.68421C59.7887 9.89474 59.7887 9.89474 59.4064 9.92064C59.2383 9.92045 59.0703 9.92025 58.8971 9.92005C58.7048 9.92034 58.5126 9.92063 58.3145 9.92093C58.1019 9.92017 57.8893 9.91942 57.6702 9.91864C57.4477 9.91867 57.2251 9.9187 56.9958 9.91873C56.2561 9.91858 55.5165 9.91694 54.7769 9.9153C54.2656 9.9149 53.7544 9.9146 53.2431 9.91439C51.8945 9.91359 50.5458 9.91152 49.1972 9.90919C47.8222 9.90704 46.4472 9.90608 45.0722 9.90502C42.3721 9.90276 39.672 9.89916 36.9718 9.89474C36.9718 10.7284 36.9718 11.5621 36.9718 12.4211C44.5014 12.4211 52.031 12.4211 59.7887 12.4211C59.8585 12.7684 59.9282 13.1158 60 13.4737C59.7887 13.6842 59.7887 13.6842 59.4064 13.7101C59.2383 13.7099 59.0703 13.7097 58.8971 13.7095C58.7048 13.7098 58.5126 13.7101 58.3145 13.7104C58.1019 13.7096 57.8893 13.7089 57.6702 13.7081C57.4477 13.7081 57.2251 13.7082 56.9958 13.7082C56.2561 13.7081 55.5165 13.7064 54.7769 13.7048C54.2656 13.7044 53.7544 13.7041 53.2431 13.7039C51.8945 13.7031 50.5458 13.701 49.1972 13.6987C47.8222 13.6965 46.4472 13.6956 45.0722 13.6945C42.3721 13.6922 39.672 13.6887 36.9718 13.6842C36.9152 13.8839 36.8585 14.0837 36.8002 14.2895C36.5493 14.9474 36.5493 14.9474 35.9155 15.3684C35.2066 15.4095 35.2066 15.4095 34.397 15.3947C34.1282 15.3909 33.8594 15.3871 33.5825 15.3832C33.3763 15.3783 33.1702 15.3735 32.9577 15.3684C32.9321 15.5714 32.9065 15.7744 32.8802 15.9836C32.8271 16.3825 32.8271 16.3825 32.7729 16.7895C32.7386 17.0533 32.7043 17.317 32.6689 17.5888C32.5546 18.2103 32.4567 18.6348 32.1127 19.1579C31.4513 19.4874 30.7519 19.4246 30.0264 19.4342C29.7981 19.4434 29.7981 19.4434 29.5651 19.4527C28.8432 19.4613 28.3975 19.4286 27.7965 19.0156C27.4144 18.452 27.3006 18.0393 27.2007 17.3684C27.1691 17.1709 27.1375 16.9733 27.105 16.7697C27.0423 16.2105 27.0423 16.2105 27.0423 15.3684C26.841 15.3806 26.6397 15.3928 26.4324 15.4054C24.3142 15.4814 24.3142 15.4814 23.6529 15.1562C23.3715 14.8816 23.3715 14.8816 23.0282 14.3158C23.0282 14.1074 23.0282 13.8989 23.0282 13.6842C15.4986 13.6842 7.96901 13.6842 0.211268 13.6842C0.141549 13.3368 0.071831 12.9895 0 12.6316C0.211268 12.4211 0.211267 12.4211 0.593603 12.3951C0.761668 12.3953 0.929734 12.3955 1.10289 12.3957C1.29517 12.3954 1.48744 12.3952 1.68554 12.3949C1.89814 12.3956 2.11073 12.3964 2.32977 12.3972C2.55235 12.3971 2.77493 12.3971 3.00425 12.3971C3.74387 12.3972 4.48348 12.3988 5.2231 12.4005C5.73435 12.4009 6.24561 12.4012 6.75687 12.4014C8.10553 12.4022 9.45417 12.4043 10.8028 12.4066C12.1778 12.4087 13.5528 12.4097 14.9278 12.4108C17.6279 12.413 20.328 12.4166 23.0282 12.4211C23.0282 11.5874 23.0282 10.7537 23.0282 9.89474C15.4986 9.89474 7.96901 9.89474 0.211268 9.89474C0.141549 9.54737 0.071831 9.2 0 8.8421C0.211268 8.63158 0.211267 8.63158 0.593603 8.60567C0.761668 8.60587 0.929734 8.60606 1.10289 8.60626C1.29517 8.60597 1.48744 8.60568 1.68554 8.60538C1.89814 8.60614 2.11073 8.6069 2.32977 8.60768C2.55235 8.60765 2.77493 8.60762 3.00425 8.60759C3.74387 8.60773 4.48348 8.60937 5.2231 8.61102C5.73435 8.61141 6.24561 8.61171 6.75687 8.61192C8.10553 8.61273 9.45417 8.6148 10.8028 8.61712C12.1778 8.61927 13.5528 8.62024 14.9278 8.6213C17.6279 8.62356 20.328 8.62712 23.0282 8.63158C23.0556 8.46568 23.0831 8.29979 23.1114 8.12887C23.2394 7.57895 23.2394 7.57895 23.5978 7.20122C24.2112 6.88129 24.6317 6.87516 25.3224 6.88569C25.558 6.88773 25.7935 6.88976 26.0363 6.89186C26.4035 6.8998 26.4035 6.8998 26.7782 6.90789C27.1503 6.91217 27.1503 6.91217 27.53 6.91653C28.1422 6.92397 28.7541 6.93436 29.3662 6.94737C29.3651 6.74439 29.364 6.54142 29.3628 6.33229C29.359 5.58174 29.3566 4.8312 29.3546 4.08064C29.3535 3.75533 29.3521 3.43001 29.3503 3.1047C29.3477 2.63805 29.3465 2.17142 29.3456 1.70477C29.3445 1.5585 29.3434 1.41222 29.3423 1.26152C29.3422 0.911096 29.3531 0.560704 29.3662 0.210526C29.4359 0.141053 29.5056 0.0715789 29.5775 0ZM24.2958 8.42105C24.2747 8.82412 24.2681 9.22796 24.2677 9.63158C24.2674 9.87691 24.2672 10.1222 24.2669 10.375C24.2677 10.6334 24.2685 10.8917 24.2694 11.1579C24.2685 11.4163 24.2677 11.6746 24.2669 11.9408C24.2672 12.1861 24.2674 12.4314 24.2677 12.6842C24.268 12.9111 24.2682 13.138 24.2684 13.3717C24.2364 13.8826 24.2364 13.8826 24.507 14.1053C24.8496 14.126 25.193 14.1322 25.5361 14.1325C25.865 14.1335 25.865 14.1335 26.2005 14.1345C26.4391 14.1341 26.6776 14.1337 26.9234 14.1332C27.288 14.1335 27.288 14.1335 27.6599 14.1338C28.175 14.134 28.69 14.1336 29.2051 14.1327C29.9966 14.1316 30.788 14.1327 31.5796 14.134C32.0786 14.1339 32.5776 14.1336 33.0766 14.1332C33.4344 14.1339 33.4344 14.1339 33.7995 14.1345C34.0187 14.1339 34.238 14.1332 34.4639 14.1325C34.6579 14.1323 34.852 14.1322 35.0519 14.132C35.4906 14.1541 35.4906 14.1541 35.7042 13.8947C35.7253 13.4917 35.7319 13.0878 35.7323 12.6842C35.7326 12.4389 35.7328 12.1936 35.7331 11.9408C35.7319 11.5533 35.7319 11.5533 35.7306 11.1579C35.7314 10.8995 35.7323 10.6412 35.7331 10.375C35.7328 10.1297 35.7326 9.88434 35.7323 9.63158C35.7319 9.29127 35.7319 9.29127 35.7316 8.94408C35.7636 8.43322 35.7636 8.43322 35.493 8.21053C35.1504 8.18976 34.807 8.18358 34.4639 8.18329C34.2446 8.18262 34.0254 8.18196 33.7995 8.18127C33.5609 8.1817 33.3224 8.18213 33.0766 8.18257C32.8335 8.18236 32.5905 8.18216 32.3401 8.18196C31.825 8.18181 31.31 8.1822 30.7949 8.18308C30.0034 8.18421 29.212 8.18309 28.4204 8.18174C27.9214 8.18188 27.4224 8.18215 26.9234 8.18257C26.5656 8.18193 26.5656 8.18193 26.2005 8.18127C25.9813 8.18194 25.762 8.1826 25.5361 8.18329C25.3421 8.18345 25.148 8.18362 24.9481 8.18379C24.5094 8.16165 24.5094 8.16165 24.2958 8.42105ZM28.3099 15.3684C28.4493 16.2716 28.5887 17.1747 28.7324 18.1053C29.569 18.1053 30.4056 18.1053 31.2676 18.1053C31.407 17.2021 31.5465 16.2989 31.6901 15.3684C30.5746 15.3684 29.4592 15.3684 28.3099 15.3684Z" fill="#6A00FF"/>
<path d="M15.0214 17.176C15.6675 17.3165 15.9041 17.5621 16.2675 18.1053C16.5316 18.8948 16.5316 18.8948 16.6901 19.579C16.9515 19.6224 17.2129 19.6658 17.4823 19.7106C18.2318 19.8956 18.3655 19.9828 18.8952 20.6053C19.3137 21.4395 19.4608 22.105 19.4799 23.0319C19.4862 23.3037 19.4862 23.3037 19.4927 23.5809C19.4962 23.7746 19.4997 23.9683 19.5034 24.1678C19.5078 24.3676 19.5122 24.5673 19.5167 24.7731C19.5305 25.4101 19.5429 26.0472 19.5554 26.6843C19.5645 27.1166 19.5737 27.5489 19.583 27.9811C19.6056 29.0401 19.627 30.099 19.6478 31.1579C19.7872 31.1579 19.9267 31.1579 20.0703 31.1579C20.3379 30.8118 20.5907 30.4542 20.8362 30.0922C21.7349 28.8347 22.6255 27.6587 24.124 27.1316C24.8477 27.1637 25.2049 27.3516 25.7746 27.7895C26.1223 28.4825 26.0916 29.1459 25.9858 29.8948C25.4088 31.5852 24.5672 33.1247 23.6619 34.6579C22.6256 36.4652 21.6009 38.2781 20.6249 40.1185C20.5029 40.3359 20.3809 40.5533 20.2552 40.7773C19.3542 42.5108 19.374 43.7803 19.6478 45.6843C19.7013 46.1479 19.7508 46.6119 19.8004 47.076C19.8539 47.5723 19.9102 48.0683 19.9672 48.5642C20.5757 53.903 20.5757 53.903 20.6117 56.3158C20.6201 56.5697 20.6201 56.5697 20.6287 56.8286C20.621 58.0474 20.2718 58.5449 19.4365 59.3685C18.7059 59.9024 17.998 59.8841 17.1126 59.7895C16.3517 59.3129 16.1569 58.6906 15.8582 57.8816C15.602 57.2108 15.4641 56.8814 14.9339 56.3816C13.9804 56.0944 13.1774 56.3247 12.2534 56.6316C12.0596 57.0381 12.0596 57.0381 11.9365 57.5264C11.6825 58.3631 11.4099 59.1564 10.7746 59.7895C9.78457 59.8731 9.27755 59.8876 8.3846 59.4343C7.71426 58.8595 7.25534 58.3866 7.12272 57.4848C7.09597 56.9576 7.09584 56.4358 7.10379 55.9079C7.10517 55.7044 7.10654 55.5008 7.10796 55.291C7.16119 52.1714 7.46238 49.0561 7.73465 45.9492C7.74676 45.8042 7.75887 45.6593 7.77134 45.5099C7.80333 45.1883 7.84426 44.8675 7.89164 44.5478C8.0795 43.1831 7.88423 42.1457 7.51972 40.829C6.77147 37.7783 6.82756 34.7292 6.86227 31.6128C6.86745 30.9992 6.86622 30.3857 6.86496 29.772C6.86431 29.1749 6.86687 28.5778 6.87048 27.9807C6.87266 27.5634 6.87278 27.146 6.87284 26.7287C6.89051 25.3934 6.90574 24.3177 7.60555 23.1579C8.37544 22.6465 8.8124 22.7028 9.71822 22.7369C9.7509 22.4047 9.7509 22.4047 9.78424 22.0658C9.92672 21.2785 10.0899 20.8456 10.5633 20.2106C11.3332 19.6991 11.7701 19.7555 12.676 19.7895C12.6934 19.5681 12.7108 19.3466 12.7288 19.1185C13.0109 17.6892 13.5601 17.0732 15.0214 17.176ZM14.3661 18.5264C13.6233 19.8846 13.6497 21.1067 13.6704 22.6308C13.6718 23.0062 13.6718 23.0062 13.6731 23.3891C13.6767 24.1849 13.6846 24.9806 13.6927 25.7764C13.6959 26.3173 13.6988 26.8583 13.7014 27.3993C13.7083 28.7224 13.7189 30.0454 13.7323 31.3685C13.3837 31.3685 13.0351 31.3685 12.676 31.3685C12.6063 27.9643 12.5365 24.5601 12.4647 21.0527C11.4389 21.1339 11.4389 21.1339 11.1353 21.6347C10.972 22.1489 10.9272 22.5701 10.9185 23.1092C10.9143 23.3073 10.9101 23.5053 10.9057 23.7093C10.9021 24.0275 10.9021 24.0275 10.8984 24.352C10.8943 24.5705 10.8902 24.7889 10.886 25.0139C10.8733 25.7111 10.8635 26.4082 10.8538 27.1053C10.8457 27.5782 10.8375 28.051 10.829 28.5239C10.8087 29.6826 10.7908 30.8413 10.7746 32.0001C10.4957 32.0001 10.2168 32.0001 9.92949 32.0001C9.85977 29.2906 9.79005 26.5811 9.71822 23.7895C8.69676 23.8723 8.69676 23.8723 8.38864 24.3582C8.20789 24.9441 8.18102 25.4455 8.17462 26.0591C8.17124 26.3047 8.16786 26.5504 8.16438 26.8034C8.16325 27.0694 8.16212 27.3354 8.16095 27.6094C8.15904 27.8865 8.15714 28.1635 8.15517 28.4489C8.15168 29.0381 8.15006 29.6272 8.14945 30.2164C8.14855 30.8107 8.14423 31.4048 8.13645 31.9991C8.08883 35.6965 8.3002 39.1496 9.29569 42.7369C9.99287 42.8064 10.6901 42.8758 11.4084 42.9474C11.4781 43.2253 11.5478 43.5032 11.6196 43.7895C10.4693 43.8937 10.4693 43.8937 9.29569 44.0001C8.69229 47.8189 8.4268 51.7024 8.37139 55.5658C8.36591 55.7676 8.36043 55.9694 8.35478 56.1773C8.3426 57.2793 8.3426 57.2793 8.84427 58.2344C9.28247 58.5669 9.28247 58.5669 9.83706 58.579C10.4404 58.3411 10.4404 58.3411 10.6689 57.5395C10.7174 57.3884 10.7659 57.2372 10.8158 57.0815C11.1502 56.1966 11.7104 55.5651 12.5307 55.079C13.6305 54.8241 14.5646 54.77 15.5809 55.2764C16.742 56.0223 17.1585 57.2441 17.5351 58.5264C18.061 58.4555 18.4845 58.3814 18.9398 58.1023C19.4014 57.4262 19.3074 56.6917 19.2896 55.903C19.2875 55.7258 19.2853 55.5486 19.2831 55.3661C19.2479 53.5908 19.0871 51.8321 18.8874 50.0686C18.8284 49.5457 18.7728 49.0225 18.7177 48.4992C18.6808 48.159 18.6437 47.8188 18.6063 47.4787C18.5819 47.2497 18.5819 47.2497 18.5569 47.0161C18.431 45.9195 18.2113 44.864 17.9577 43.7895C17.2605 43.7895 16.5633 43.7895 15.845 43.7895C15.9147 43.4422 15.9844 43.0948 16.0563 42.7369C16.1951 42.7473 16.334 42.7578 16.4771 42.7686C17.0992 42.7699 17.578 42.7256 18.1689 42.5264C18.7419 41.8709 19.0245 41.1181 19.3441 40.3158C19.5388 39.8707 19.7341 39.4258 19.93 38.9811C20.0245 38.7605 20.1189 38.5399 20.2162 38.3127C20.5984 37.4446 21.0311 36.6099 21.4832 35.7764C21.5596 35.6338 21.6361 35.4912 21.7148 35.3443C22.357 34.1548 23.0323 32.9849 23.7197 31.8208C24.5579 30.3157 24.5579 30.3157 24.7182 28.6316C24.5788 28.5622 24.4394 28.4927 24.2957 28.4211C22.9297 29.4667 21.9352 30.6981 20.9162 32.0642C20.4929 32.6316 20.4929 32.6316 20.2816 32.8422C19.6851 32.9047 19.352 32.9323 18.8555 32.579C18.3879 31.9267 18.3536 31.2428 18.3435 30.4586C18.3407 30.2808 18.3378 30.103 18.3349 29.9199C18.3327 29.7295 18.3305 29.5391 18.3282 29.343C18.3212 28.938 18.3142 28.5329 18.3072 28.1279C18.2971 27.4909 18.2877 26.8538 18.2795 26.2167C18.2711 25.6009 18.2602 24.9851 18.249 24.3693C18.2472 24.1794 18.2454 23.9894 18.2436 23.7937C18.2422 22.4658 18.2422 22.4658 17.7464 21.2632C17.2235 21.159 17.2235 21.159 16.6901 21.0527C16.6203 24.179 16.5506 27.3053 16.4788 30.5264C15.9559 30.6306 15.9559 30.6306 15.4224 30.7369C15.4239 30.5307 15.4239 30.5307 15.4253 30.3204C15.4346 28.8894 15.441 27.4585 15.4457 26.0276C15.4478 25.4936 15.4507 24.9596 15.4543 24.4256C15.4595 23.6579 15.4618 22.8903 15.4637 22.1226C15.4659 21.884 15.4681 21.6453 15.4703 21.3995C15.4704 21.1761 15.4704 20.9528 15.4704 20.7228C15.4718 20.4289 15.4718 20.4289 15.4733 20.1292C15.4177 19.5281 15.2503 19.0732 14.9999 18.5264C14.7908 18.5264 14.5816 18.5264 14.3661 18.5264Z" fill="#155DFC"/>
<path d="M34.9422 34.2421C35.3522 34.2386 35.7623 34.2329 36.1722 34.2248C36.7637 34.2133 37.3549 34.2087 37.9464 34.2056C38.2204 34.1985 38.2204 34.1985 38.5 34.1912C39.4218 34.1944 39.8112 34.2268 40.5684 34.7964C41.2745 35.764 41.2271 36.595 41.2343 37.7624C41.2392 38.0734 41.2443 38.3844 41.2495 38.6953C41.2569 39.1803 41.2631 39.6651 41.266 40.1501C41.2914 43.7529 42.066 46.9008 44.5906 49.6316C46.6699 51.573 49.1441 52.626 51.947 52.9737C52.1333 52.9979 52.3195 53.0221 52.5114 53.0471C52.8825 53.0936 53.2542 53.135 53.6265 53.1705C54.9448 53.3302 55.7306 53.7468 56.6197 54.7369C57.1355 55.5862 57.1648 56.5019 57.0422 57.4737C56.6294 58.5995 56.0044 59.254 54.9295 59.7895C54.6184 59.8111 54.3064 59.8198 53.9946 59.8219C53.6997 59.8246 53.6997 59.8246 53.3988 59.8274C53.1824 59.8283 52.966 59.8292 52.743 59.8301C52.4018 59.8327 52.4018 59.8327 52.0537 59.8353C51.298 59.8406 50.5422 59.844 49.7865 59.8471C49.5284 59.8482 49.2704 59.8493 49.0046 59.8505C47.6378 59.8561 46.271 59.8602 44.9042 59.8632C43.4943 59.8664 42.0845 59.8761 40.6746 59.8869C39.5893 59.894 38.504 59.8964 37.4187 59.8976C36.8991 59.899 36.3796 59.9022 35.8601 59.9072C35.1309 59.9139 34.402 59.9139 33.6728 59.9123C33.4598 59.9158 33.2468 59.9193 33.0273 59.9228C31.3463 59.9082 29.9717 59.4618 28.7009 58.334C27.5494 57.156 27.0481 55.8889 26.9927 54.2591C27.006 53.2611 27.2492 52.4498 27.61 51.5263C27.6671 51.3722 27.7242 51.218 27.7831 51.0591C28.0498 50.3438 28.3298 49.6345 28.6143 48.926C28.7056 48.6986 28.7968 48.4712 28.8908 48.2369C28.9725 48.042 29.0542 47.8472 29.1384 47.6464C29.9969 45.0117 29.8636 42.2748 29.8691 39.5353C29.8711 38.9453 29.8783 38.3556 29.8861 37.7657C29.885 37.586 29.8839 37.4064 29.8828 37.2213C29.9021 36.0568 30.085 35.4229 30.845 34.5263C31.9485 33.9766 33.7133 34.2498 34.9422 34.2421ZM31.2675 36C31.2675 36.8337 31.2675 37.6674 31.2675 38.5263C34.126 38.5263 36.9844 38.5263 39.9295 38.5263C40.1444 36.4052 40.1444 36.4052 39.507 35.579C38.3809 35.2049 37.1628 35.321 35.9834 35.3179C35.5085 35.3158 35.0339 35.3093 34.5591 35.3027C34.2567 35.3013 33.9542 35.3002 33.6517 35.2994C33.377 35.2974 33.1022 35.2954 32.8191 35.2934C32.0323 35.3162 32.0323 35.3162 31.2675 36ZM31.2675 39.579C31.2458 40.3475 31.224 41.1161 31.2015 41.9079C31.0734 45.2388 30.3956 48.0773 29.1549 51.1579C28.4467 52.9296 27.938 54.3605 28.6935 56.2122C29.3152 57.2548 30.3688 58.0518 31.4788 58.5263C31.9463 58.5901 31.9463 58.5901 32.4476 58.5826C32.641 58.5844 32.8344 58.5862 33.0336 58.5881C33.3496 58.5878 33.3496 58.5878 33.6719 58.5875C33.8949 58.5889 34.118 58.5903 34.3478 58.5918C35.0857 58.5958 35.8236 58.5966 36.5616 58.5971C37.0742 58.5984 37.5867 58.5998 38.0993 58.6013C39.1739 58.6038 40.2486 58.6046 41.3232 58.6044C42.701 58.6043 44.0787 58.6101 45.4565 58.6173C46.5151 58.622 47.5737 58.6229 48.6324 58.6226C49.1404 58.6231 49.6484 58.625 50.1564 58.6283C50.8665 58.6324 51.5764 58.6312 52.2866 58.6286C52.4968 58.631 52.707 58.6334 52.9235 58.6358C53.8447 58.6274 54.3625 58.615 55.1607 58.1252C55.6456 57.5941 55.7634 57.3882 55.8274 56.6711C55.7673 55.907 55.6103 55.5489 55.1408 54.9474C54.5407 54.5881 54.0234 54.4557 53.3318 54.3767C53.1472 54.3539 52.9625 54.3311 52.7723 54.3076C52.5778 54.2843 52.3834 54.2609 52.183 54.2369C48.3663 53.7367 48.3663 53.7367 46.7825 52.6974C46.3032 52.3767 46.3032 52.3767 45.8537 52.4704C45.356 52.6565 45.128 52.8634 44.7689 53.2509C44.6515 53.3736 44.5341 53.4965 44.4132 53.623C44.1701 53.8836 43.9275 54.1445 43.6853 54.4059C43.5679 54.5284 43.4505 54.6509 43.3296 54.7772C43.2243 54.8905 43.1191 55.0038 43.0106 55.1206C42.676 55.3684 42.676 55.3684 41.8309 55.3684C41.9536 54.6735 42.1581 54.3345 42.6636 53.8454C42.7868 53.7247 42.9101 53.6039 43.037 53.4795C43.1663 53.356 43.2955 53.2325 43.4286 53.1053C43.5587 52.9786 43.6887 52.8518 43.8227 52.7212C44.1433 52.4092 44.4658 52.0992 44.7887 51.7895C44.6144 51.5898 44.4401 51.39 44.2605 51.1842C44.0139 50.8949 43.7674 50.6054 43.5211 50.3158C43.3115 50.0756 43.3115 50.0756 43.0977 49.8306C42.059 48.6011 41.3383 47.4007 40.7746 45.8948C40.7095 45.723 40.6444 45.5512 40.5773 45.3742C39.9437 43.4194 40.0436 41.7388 39.9295 39.579C37.0711 39.579 34.2126 39.579 31.2675 39.579Z" fill="#155DFC"/>
<path d="M17.3238 33.4736C17.6778 33.5339 18.0303 33.6037 18.3802 33.6842C17.9892 37.7363 17.9892 37.7363 16.69 38.9473C15.874 39.3539 14.8808 39.2242 13.9831 39.2368C13.7722 39.2447 13.5613 39.2525 13.344 39.2606C12.367 39.2723 11.7994 39.2783 10.9742 38.7253C10.5047 38.0169 10.2624 37.3441 10.0747 36.5263C10.0392 36.3892 10.0036 36.2522 9.967 36.111C9.78035 35.3594 9.67787 34.6683 9.71818 33.8947C10.0668 33.8252 10.4154 33.7557 10.7745 33.6842C10.8674 33.9559 10.9597 34.2279 11.0518 34.4999C11.1098 34.6709 11.1678 34.8419 11.2276 35.018C11.4671 35.7613 11.6673 36.5141 11.8639 37.2697C11.9227 37.4065 11.9815 37.5432 12.0421 37.6842C12.741 37.9163 13.3003 37.9447 14.036 37.9605C14.395 37.9723 14.395 37.9723 14.7614 37.9843C15.4249 37.943 15.4249 37.943 15.9027 37.5773C16.3987 36.8639 16.5518 36.1699 16.7296 35.3289C17.0936 33.703 17.0936 33.703 17.3238 33.4736Z" fill="#155DFC"/>
<path d="M34.4505 50.213C35.1674 50.3934 35.4895 50.7897 35.9154 51.3684C36.1511 51.9949 36.1533 52.3122 35.9946 52.9605C35.6183 53.6254 35.3182 53.9382 34.6478 54.3158C33.799 54.3864 33.1566 54.2242 32.4295 53.7895C31.9491 52.9916 31.93 52.2733 32.1126 51.3684C32.7407 50.41 33.3386 50.1397 34.4505 50.213ZM33.5914 51.579C33.3176 51.8035 33.3176 51.8035 33.367 52.329C33.3713 52.4983 33.3757 52.6676 33.3802 52.8421C33.7683 53.0047 33.7683 53.0047 34.2252 53.0526C34.5996 52.7675 34.5996 52.7675 34.859 52.4211C34.7196 52.1432 34.5802 51.8653 34.4365 51.579C34.1576 51.579 33.8788 51.579 33.5914 51.579Z" fill="#155DFC"/>
</g>
<defs>
<clipPath id="clip0_23_658">
<rect width="60" height="60" fill="white"/>
</clipPath>
</defs>
</svg>
