<svg width="60" height="60" viewBox="0 0 60 60" fill="none" xmlns="http://www.w3.org/2000/svg">
<g clip-path="url(#clip0_26_834)">
<path d="M33.0468 0.468711C33.1471 0.493201 33.2475 0.517692 33.3508 0.542925C36.2028 1.26744 38.7911 2.56785 41.1328 4.3359C41.2909 4.45418 41.2909 4.45418 41.4523 4.57485C46.2763 8.34956 49.2031 14.0923 49.9622 20.1152C50.0631 20.9847 50.0805 21.8522 50.0756 22.727C50.0754 22.8101 50.0751 22.8933 50.0749 22.9789C50.0603 26.0008 49.9494 30.95 47.6531 33.2263C47.5897 33.2831 47.5263 33.3399 47.4609 33.3984C47.3715 33.4854 47.282 33.5724 47.1899 33.6621C46.0407 34.4104 44.8144 34.5078 43.4788 34.275C43.4007 34.2564 43.3226 34.2379 43.2421 34.2187C43.2149 34.3118 43.1878 34.4048 43.1597 34.5007C41.8231 38.2048 39.0458 41.7197 36.3784 44.5765C36.064 44.9147 35.7624 45.2623 35.4615 45.6124C35.2742 45.8194 35.0758 46.0047 34.8706 46.1938C33.5376 47.5147 32.9554 49.2812 32.9017 51.1173C32.8174 53.6652 31.9752 55.9766 30.1171 57.7734C28.0235 59.6147 25.7603 60.147 23.0404 60.02C20.9919 59.8856 19.1296 58.6761 17.7392 57.2314C15.9552 55.1759 15.5217 52.8414 15.6084 50.1872C15.6516 48.7665 15.4485 47.9223 14.5458 46.8383C13.2372 45.1971 12.5832 43.2384 12.7467 41.1348C12.8905 39.8602 13.3251 38.7362 13.9453 37.6171C14.485 36.5667 14.7023 35.7027 14.4758 34.514C14.2069 33.7289 13.6887 33.0859 13.2078 32.4202C11.0244 29.3836 9.90725 25.806 9.92426 22.0678C9.92492 21.9141 9.92559 21.7605 9.92627 21.6021C9.96629 18.3823 10.8724 14.1227 13.1529 11.6711C13.4508 11.2325 13.4185 10.8528 13.4179 10.3344C13.476 8.14536 14.1669 6.22162 15.4687 4.45309C15.5297 4.37015 15.5908 4.28722 15.6536 4.20177C17.8371 1.49455 21.4517 0.625078 24.7265 0.117148C24.8412 0.0988931 24.8412 0.0988931 24.9582 0.0802695C27.57 -0.272609 30.495 -0.157127 33.0468 0.468711ZM24.7045 2.25582C24.6207 2.26862 24.5369 2.28142 24.4506 2.29462C23.7449 2.42585 23.1809 2.70065 22.6904 3.22994C22.4332 3.61573 22.368 3.90441 22.3754 4.35787C22.3779 4.50531 22.3803 4.65274 22.3828 4.80465C22.5205 4.77323 22.6583 4.74181 22.8002 4.70943C23.3071 4.59716 23.815 4.49093 24.3237 4.38717C24.4664 4.35801 24.6092 4.32886 24.7563 4.29882C27.0591 3.87859 29.7159 3.89025 31.9921 4.45309C32.1315 4.48521 32.1315 4.48521 32.2737 4.51797C34.5157 5.04395 36.7138 5.98406 38.5546 7.38277C38.6545 7.4583 38.7543 7.53384 38.8572 7.61166C42.7545 10.6528 45.2638 14.9389 45.8784 19.8619C46.2837 23.7766 45.634 27.7993 44.3087 31.4863C44.1612 31.8623 44.1612 31.8623 44.1796 32.2265C44.7641 32.2681 45.2143 32.2951 45.747 32.0288C46.3752 31.4754 46.6388 30.9529 46.875 30.1684C46.9048 30.071 46.9347 29.9736 46.9655 29.8732C47.2853 28.7971 47.5137 27.7087 47.6953 26.6015C47.7092 26.5179 47.7231 26.4342 47.7374 26.348C48.5877 20.96 47.3741 15.0909 44.187 10.6201C43.9938 10.3575 43.7955 10.0997 43.5937 9.84371C43.5202 9.7501 43.5202 9.7501 43.4452 9.6546C40.1366 5.49364 35.5527 2.78659 30.2495 2.13475C29.5334 2.06182 28.8076 2.0807 28.0883 2.08004C27.9553 2.07986 27.9553 2.07986 27.8196 2.07968C26.7743 2.08062 25.7397 2.09352 24.7045 2.25582ZM17.6953 5.15621C16.8328 6.05197 16.0057 7.30374 15.8203 8.55465C16.2263 8.37637 16.5196 8.13455 16.853 7.8442C17.6253 7.20215 18.4638 6.70495 19.3359 6.2109C19.4502 6.14609 19.5646 6.08129 19.6824 6.01452C19.9176 5.88305 20.1539 5.75368 20.3906 5.62496C20.3326 4.58082 20.3326 4.58082 20.2734 3.51559C19.3694 3.51559 18.3013 4.58837 17.6953 5.15621ZM16.2519 11.1387C15.9867 11.4458 15.7719 11.7061 15.5859 12.0703C15.6346 12.4182 15.693 12.6642 15.8129 12.9858C15.8412 13.0681 15.8695 13.1503 15.8987 13.2351C16.2444 14.3324 16.2444 14.3324 16.9921 15.1171C17.0279 15.0587 17.0637 15.0002 17.1006 14.94C18.9979 11.9632 21.8676 10.0455 25.3124 9.25777C28.7895 8.6161 32.2996 9.32508 35.2528 11.2739C37.7364 12.9992 39.3885 15.3569 40.3564 18.1933C40.3984 18.3156 40.3984 18.3156 40.4412 18.4404C40.8516 19.7144 40.941 20.985 40.935 22.3169C40.9343 22.4712 40.9337 22.6255 40.933 22.7845C40.8749 28.7402 38.1235 34.3105 34.3359 38.789C34.2275 38.9193 34.1192 39.0496 34.0109 39.18C33.4182 39.8872 32.8097 40.5574 32.1459 41.1987C30.2487 43.0488 29.1967 45.3605 29.0459 48.0004C29.014 48.4369 28.9928 48.6837 28.7329 49.0457C28.4614 49.2289 28.3314 49.2824 28.0078 49.2773C27.8917 49.2791 27.8917 49.2791 27.7734 49.281C27.4218 49.1876 27.286 49.0406 27.0703 48.75C26.6839 46.3012 27.7749 43.477 29.165 41.5136C29.7936 40.6876 30.4893 39.9321 31.2304 39.2065C31.7052 38.7375 32.1262 38.2392 32.5424 37.7179C32.721 37.4962 32.9035 37.2776 33.0899 37.0623C34.4201 35.5238 35.5068 33.7936 36.4453 31.9921C36.4895 31.9075 36.5337 31.8228 36.5793 31.7356C38.4876 28.032 39.7762 23.1041 38.5187 18.9929C37.8892 17.1107 36.8982 15.5895 35.5078 14.1796C35.4149 14.0852 35.322 13.9908 35.2262 13.8935C33.8919 12.617 32.3338 11.8969 30.5859 11.3671C30.4901 11.3372 30.3943 11.3073 30.2957 11.2765C27.6544 10.5728 24.8167 11.2347 22.4801 12.531C21.9458 12.8429 21.4573 13.2058 20.9765 13.5937C20.8927 13.6597 20.8088 13.7257 20.7225 13.7938C19.7301 14.6134 19.0244 15.6433 18.3984 16.7578C19.0634 17.5688 19.8057 18.3014 20.5462 19.0425C20.6865 19.1832 20.8268 19.3239 20.9671 19.4646C21.2597 19.7578 21.5524 20.0508 21.8453 20.3436C22.2214 20.7196 22.5966 21.0964 22.9716 21.4735C23.2603 21.7635 23.5495 22.053 23.8389 22.3423C23.9776 22.4811 24.1161 22.6201 24.2544 22.7593C24.4468 22.9529 24.6399 23.1457 24.8333 23.3383C24.8905 23.3962 24.9477 23.4541 25.0067 23.5137C25.283 23.8203 25.283 23.8203 25.664 23.9062C25.8433 23.7198 25.8433 23.7198 26.0302 23.4814C26.9082 22.4591 28.0621 21.7611 29.414 21.5625C31.2168 21.4408 32.7788 21.757 34.2141 22.9206C35.3261 23.9525 35.9013 25.3481 35.9912 26.8455C36.0356 28.4325 35.5339 29.8889 34.4531 31.0546C33.6694 31.8396 32.8287 32.5551 31.9628 33.2473C31.5424 33.5973 31.1494 33.9733 30.7534 34.3503C30.3866 34.6908 30.0263 34.9352 29.5825 35.1635C29.253 35.345 29.0966 35.432 28.9407 35.7774C28.8901 35.9783 28.8426 36.1801 28.7983 36.3826C28.6449 36.9037 28.3253 37.2981 27.8906 37.6171C26.7831 38.1412 25.5468 38.0233 24.3476 38.0286C24.0584 38.0305 23.7692 38.0343 23.48 38.0383C23.3921 38.0379 23.3042 38.0376 23.2136 38.0372C22.5729 38.0463 22.0837 38.1758 21.6041 38.6132C21.2457 39.0736 21.0808 39.3966 21.073 39.9764C21.0715 40.0734 21.0699 40.1704 21.0684 40.2704C21.0675 40.3747 21.0667 40.4791 21.0658 40.5867C21.0644 40.7481 21.0644 40.7481 21.0629 40.9128C21.0613 41.1405 21.06 41.3681 21.0591 41.5958C21.0571 41.944 21.0519 42.2922 21.0468 42.6404C21.0456 42.8616 21.0446 43.0828 21.0438 43.3039C21.0407 43.4602 21.0407 43.4602 21.0376 43.6195C21.0372 44.2053 21.0372 44.2053 21.3056 44.7141C21.6837 44.9624 21.9409 44.9459 22.3828 44.8828C22.6599 44.664 22.8117 44.4936 22.9687 44.1796C22.9813 43.9128 22.9869 43.6457 22.9893 43.3786C22.992 43.2159 22.9948 43.0532 22.9978 42.8906C23.0019 42.6342 23.0053 42.3779 23.0069 42.1214C23.0087 41.8739 23.0134 41.6265 23.0186 41.3791C23.0203 41.2308 23.022 41.0826 23.0238 40.9298C23.0962 40.4832 23.193 40.3422 23.5546 40.0781C23.9575 40.0122 23.9575 40.0122 24.3749 40.0781C24.7765 40.3887 24.9422 40.5621 25.0348 41.0669C25.0348 41.2184 25.0347 41.3699 25.0346 41.526C25.0349 41.6082 25.0351 41.6905 25.0354 41.7752C25.0353 41.9488 25.0338 42.1225 25.0308 42.2961C25.0268 42.5583 25.0284 42.82 25.0307 43.0822C25.0295 44.1939 24.8625 45.062 24.3017 46.0327C23.6541 46.6291 22.8026 47.0191 21.914 46.9921C20.8745 46.9122 20.2336 46.5061 19.5263 45.7617C19.0548 45.0362 19.064 44.3191 19.0621 43.482C19.0614 43.3583 19.0606 43.2347 19.0598 43.1072C19.0586 42.846 19.058 42.5848 19.0581 42.3236C19.0576 41.9267 19.0533 41.5301 19.0489 41.1332C19.0482 40.8786 19.0477 40.6239 19.0475 40.3692C19.0458 40.2519 19.0441 40.1345 19.0424 40.0136C19.05 38.8192 19.419 37.8971 20.2395 37.0289C21.1157 36.2709 22.0317 36.0792 23.1559 36.069C23.3557 36.0657 23.5556 36.0623 23.7554 36.0589C24.0696 36.0541 24.3839 36.0498 24.6982 36.0467C25.002 36.0434 25.3057 36.0381 25.6095 36.0324C25.7037 36.032 25.7978 36.0316 25.8948 36.0312C26.3969 36.0239 26.3969 36.0239 26.8402 35.8124C26.9761 35.6268 26.9761 35.6268 26.9384 35.3833C26.8414 35.1151 26.8414 35.1151 26.4843 34.9218C26.212 34.8691 25.9383 34.8239 25.664 34.7827C23.1072 34.3434 20.8772 33.1523 18.9843 31.4062C18.8994 31.3322 18.8145 31.2582 18.7271 31.1819C16.6659 29.2877 15.259 26.1559 15.0929 23.3842C15.0815 22.9427 15.0786 22.5022 15.0805 22.0605C15.0806 21.9829 15.0808 21.9053 15.0809 21.8253C15.0853 20.5543 15.1496 19.3686 15.5992 18.1668C15.832 17.555 15.832 17.555 15.6884 16.9445C15.5481 16.7516 15.4013 16.5632 15.2494 16.3792C14.9538 15.9946 14.7485 15.5965 14.5385 15.1611C14.5027 15.0874 14.4668 15.0137 14.4299 14.9378C14.3456 14.7636 14.2625 14.5889 14.1796 14.414C14.1023 14.414 14.0249 14.414 13.9453 14.414C11.9282 18.4131 11.4647 22.7559 12.8379 27.0579C13.1022 27.8356 13.4559 28.566 13.8281 29.2968C13.8806 29.4044 13.9332 29.5119 13.9874 29.6228C14.3948 30.4184 14.9037 31.1341 15.4319 31.8529C16.5436 33.3813 16.7991 34.8107 16.6406 36.6796C16.4659 37.6114 16.0302 38.3596 15.5406 39.1607C14.7981 40.4622 14.6992 41.9475 15.0732 43.3813C15.2978 44.0977 15.5969 44.6446 16.0546 45.2343C16.965 46.4273 17.729 47.5411 17.6902 49.0814C17.6872 49.2412 17.6843 49.401 17.6816 49.5608C17.6801 49.6438 17.6786 49.7268 17.6771 49.8123C17.6397 52.3091 17.9222 54.301 19.7222 56.19C21.1499 57.5166 22.8265 57.9635 24.721 57.9304C26.0668 57.869 27.204 57.3308 28.2421 56.4843C28.3534 56.4014 28.3534 56.4014 28.4669 56.3168C29.7172 55.3397 30.4546 53.8053 30.7031 52.2656C30.7298 51.9094 30.7422 51.5532 30.7543 51.1963C30.8684 48.2234 31.9422 46.0614 34.0589 43.9865C34.4473 43.6 34.8011 43.1902 35.1562 42.7734C35.2606 42.6543 35.3651 42.5353 35.4698 42.4163C37.8463 39.7009 39.8465 36.6738 41.3671 33.3984C41.4053 33.3164 41.4435 33.2344 41.4828 33.1499C43.8958 27.8862 44.9164 21.716 42.8906 16.1718C41.6356 12.9602 39.3343 10.2897 36.4453 8.43746C36.2735 8.32711 36.2735 8.32711 36.0983 8.21453C29.5593 4.20877 21.4876 5.9497 16.2519 11.1387ZM17.4609 18.9843C16.5901 21.5914 17.0551 24.5023 18.2038 26.9339C18.948 28.3726 20.0082 29.8966 21.4453 30.7031C21.4625 30.5827 21.4797 30.4623 21.4974 30.3382C21.7493 28.7225 22.3307 27.6563 23.4418 26.4573C23.8474 26.0203 23.8474 26.0203 23.9062 25.4296C23.6022 24.961 23.1976 24.6293 22.7774 24.2701C22.4417 23.9716 22.1221 23.6595 21.8041 23.3422C21.7189 23.2578 21.7189 23.2578 21.632 23.1717C21.2254 22.7634 21.2254 22.7634 21.0937 22.5C21.0164 22.5 20.939 22.5 20.8593 22.5C20.8348 22.4373 20.8102 22.3747 20.785 22.3101C20.5623 21.922 20.2556 21.6308 19.9397 21.3189C19.8727 21.252 19.8056 21.185 19.7366 21.116C19.5953 20.9751 19.4538 20.8344 19.3119 20.6941C19.0939 20.4782 18.8769 20.2615 18.66 20.0445C18.5226 19.9077 18.3852 19.771 18.2478 19.6344C18.1825 19.5692 18.1172 19.504 18.0499 19.4369C17.7969 19.1258 17.7969 19.1258 17.4609 18.9843ZM27.0419 25.3839C26.8683 25.5976 26.6962 25.8124 26.5255 26.0284C26.2296 26.3922 25.9178 26.7349 25.5981 27.0776C24.0816 28.6664 24.0816 28.6664 23.5034 30.7251C23.5327 31.2585 23.5996 31.6584 23.9062 32.1093C24.6479 32.6055 25.6365 32.711 26.5001 32.8629C26.9707 32.9509 27.3445 33.0495 27.7537 33.3032C28.0889 33.5341 28.0889 33.5341 28.368 33.5211C28.7068 33.3369 28.9873 33.0954 29.2748 32.8418C29.3737 32.7562 29.3737 32.7562 29.4746 32.669C29.6161 32.5465 29.7572 32.4236 29.8981 32.3005C30.1172 32.1092 30.3376 31.9196 30.5584 31.7303C30.9283 31.4128 31.2959 31.0929 31.6624 30.7716C31.8018 30.6498 31.9416 30.5286 32.082 30.408C33.1208 29.5351 33.1208 29.5351 33.7499 28.3593C33.777 28.2852 33.804 28.211 33.8319 28.1346C34.1188 27.219 33.9689 26.2986 33.5485 25.4489C32.9467 24.4324 32.1633 23.9242 31.0546 23.5546C29.2709 23.389 28.1859 24.0525 27.0419 25.3839Z" fill="#155DFC"/>
</g>
<defs>
<clipPath id="clip0_26_834">
<rect width="60" height="60" fill="white"/>
</clipPath>
</defs>
</svg>
