<svg width="60" height="60" viewBox="0 0 60 60" fill="none" xmlns="http://www.w3.org/2000/svg">
<g clip-path="url(#clip0_26_871)">
<path d="M18.501 0.124591C19.3105 0.626494 19.9837 1.33189 20.657 2.00051C20.7332 2.07599 20.8093 2.15147 20.8878 2.22924C21.0469 2.38723 21.2058 2.54538 21.3646 2.70369C21.6075 2.94545 21.8516 3.18594 22.0958 3.42644C22.2511 3.58094 22.4062 3.7355 22.5613 3.89016C22.6341 3.96146 22.7068 4.03276 22.7818 4.10622C23.3144 4.64166 23.5876 5.0763 23.5913 5.85213C23.5844 6.37099 23.4441 6.68853 23.2031 7.14852C23.3534 7.61973 23.723 7.93416 24.0665 8.2729C24.1306 8.33698 24.1946 8.40105 24.2606 8.46707C24.4718 8.67814 24.6839 8.88836 24.8959 9.09859C25.0428 9.245 25.1896 9.39147 25.3363 9.53798C25.7223 9.92303 26.1089 10.3074 26.4957 10.6916C26.8905 11.0839 27.2845 11.4769 27.6787 11.8699C28.4518 12.6405 29.2257 13.4104 30 14.1798C30.8038 13.5212 31.527 12.7849 32.2591 12.0493C32.3971 11.9111 32.5352 11.7728 32.6733 11.6346C33.0344 11.2731 33.3951 10.9112 33.7558 10.5492C34.1248 10.179 34.4942 9.80909 34.8635 9.43917C35.5864 8.71501 36.309 7.99047 37.0312 7.2657C36.9976 7.1874 36.9639 7.10909 36.9292 7.02841C36.8859 6.92454 36.8425 6.82066 36.7978 6.71364C36.7328 6.55993 36.7328 6.55993 36.6665 6.40311C36.5029 5.91658 36.5129 5.52358 36.6797 5.03914C37.0826 4.38398 37.6202 3.82819 38.1619 3.28728C38.2341 3.21456 38.3064 3.14185 38.3808 3.06693C38.5323 2.9147 38.6842 2.76277 38.8363 2.61114C39.067 2.38081 39.2961 2.14895 39.5251 1.91697C39.6737 1.76817 39.8223 1.61947 39.971 1.47087C40.0383 1.4025 40.1056 1.33413 40.1749 1.26369C40.963 0.484385 41.71 -0.0116344 42.8394 -0.0438657C42.9749 -0.0496061 43.1104 -0.0553464 43.25 -0.0612607C44.5965 0.117923 45.4565 1.07666 46.3657 1.99682C46.5107 2.14136 46.6557 2.28577 46.8009 2.43007C47.1925 2.82001 47.5823 3.21174 47.9717 3.60388C48.3803 4.0149 48.7905 4.42438 49.2005 4.83408C49.8881 5.52176 50.5747 6.21059 51.2605 6.90015C52.0528 7.69684 52.8468 8.49186 53.6417 9.28597C54.4077 10.0512 55.1726 10.8174 55.9371 11.5841C56.2619 11.9099 56.5871 12.2354 56.9126 12.5607C57.2955 12.9436 57.6776 13.3273 58.059 13.7117C58.199 13.8525 58.3392 13.993 58.4798 14.1332C58.6719 14.3248 58.8628 14.5175 59.0535 14.7105C59.214 14.8717 59.214 14.8717 59.3779 15.0362C59.9636 15.7191 60.0613 16.2906 60.0586 17.1534C60.0619 17.2486 60.0652 17.3437 60.0687 17.4418C60.069 17.5361 60.0693 17.6303 60.0696 17.7274C60.0704 17.8113 60.0712 17.8952 60.0721 17.9817C59.8552 18.883 59.1401 19.5437 58.5017 20.1737C58.372 20.3036 58.372 20.3036 58.2396 20.436C58.0579 20.6174 57.8758 20.7984 57.6933 20.979C57.4139 21.2556 57.1362 21.5337 56.8586 21.8121C56.6813 21.9887 56.5039 22.1652 56.3264 22.3417C56.2435 22.4247 56.1607 22.5077 56.0752 22.5932C55.9974 22.6699 55.9196 22.7467 55.8394 22.8257C55.7714 22.8932 55.7034 22.9606 55.6334 23.0301C55.194 23.4036 54.836 23.472 54.2651 23.4742C54.1456 23.4762 54.0262 23.4781 53.903 23.4802C53.5547 23.4376 53.5547 23.4376 53.2466 23.2449C53.1549 23.1924 53.0632 23.14 52.9688 23.086C52.5526 23.2313 52.2881 23.5033 51.9809 23.8113C51.8778 23.9141 51.7746 24.017 51.6682 24.123C51.5548 24.2372 51.4414 24.3515 51.328 24.4658C51.2079 24.5859 51.0878 24.706 50.9676 24.8261C50.6417 25.1519 50.3165 25.4785 49.9915 25.8052C49.6516 26.1465 49.311 26.4873 48.9705 26.828C48.3259 27.4733 47.6819 28.1192 47.0381 28.7654C46.3052 29.501 45.5715 30.2359 44.8378 30.9708C43.3286 32.4824 41.8203 33.9949 40.3125 35.5079C40.4951 35.9431 40.762 36.2233 41.0921 36.5572C41.148 36.614 41.2038 36.6708 41.2614 36.7293C41.4484 36.9192 41.6363 37.1083 41.8243 37.2974C41.9587 37.4334 42.093 37.5696 42.2274 37.7057C42.6685 38.1524 43.111 38.5978 43.5535 39.0432C43.7059 39.1967 43.8583 39.3502 44.0107 39.5038C44.6447 40.1423 45.2791 40.7806 45.9143 41.418C46.824 42.3308 47.7319 43.2454 48.6372 44.1626C49.2743 44.8078 49.9134 45.4509 50.5541 46.0926C50.9365 46.4757 51.318 46.8597 51.6973 47.2458C52.0544 47.6091 52.4139 47.9698 52.7754 48.3288C52.9074 48.4606 53.0384 48.5934 53.1685 48.7271C53.955 49.5731 53.955 49.5731 55.0175 49.9272C55.1079 49.9236 55.1983 49.92 55.2914 49.9163C56.3495 49.9397 57.3867 51.3659 58.0766 52.0671C58.3027 52.2969 58.53 52.5254 58.7576 52.7537C58.9021 52.8992 59.0464 53.0447 59.1907 53.1904C59.2585 53.2587 59.3264 53.3271 59.3963 53.3975C59.8455 53.8549 60.0239 54.0936 60.0677 54.7314C60.059 55.4429 59.8183 55.7589 59.3271 56.2518C59.2304 56.3421 59.1337 56.4325 59.0341 56.5257C58.8867 56.6708 58.8867 56.6708 58.7363 56.8188C58.4231 57.1256 58.1057 57.4275 57.7881 57.7296C57.5752 57.9369 57.3627 58.1446 57.1504 58.3526C56.7627 58.7306 56.3742 59.1076 55.9823 59.4813C55.8644 59.5937 55.8644 59.5937 55.7441 59.7084C55.3994 60.0133 55.0898 60.0633 54.6298 60.0527C54.3242 59.9896 54.204 59.8954 53.9754 59.6847C53.8943 59.6101 53.8132 59.5355 53.7297 59.4587C53.585 59.3206 53.585 59.3206 53.4375 59.1798C53.3503 59.0968 53.3503 59.0968 53.2614 59.0122C52.8482 58.6181 52.44 58.2193 52.0343 57.8175C51.8902 57.6755 51.7456 57.534 51.6003 57.3932C51.3877 57.1871 51.1772 56.9791 50.9669 56.7706C50.9025 56.7088 50.838 56.647 50.7716 56.5833C50.3319 56.1412 50.0473 55.6957 49.9219 55.0782C49.9315 54.9506 49.9412 54.8231 49.9511 54.6917C49.9146 54.1494 49.7765 54.0061 49.4012 53.6212C49.3171 53.5333 49.3171 53.5333 49.2313 53.4437C49.0433 53.2483 48.8525 53.056 48.6615 52.8635C48.5258 52.7238 48.3903 52.584 48.2549 52.444C47.8864 52.0642 47.5151 51.6872 47.143 51.3109C46.9097 51.075 46.6769 50.8386 46.4442 50.602C45.7138 49.8598 44.9817 49.1192 44.2472 48.381C43.4038 47.5334 42.5663 46.6804 41.7334 45.8224C41.0869 45.157 40.4354 44.4968 39.7801 43.8401C39.39 43.4491 39.0023 43.0563 38.6197 42.658C36.7818 40.7489 35.4171 39.527 32.679 39.2906C32.2136 39.2452 31.7732 39.1454 31.3184 39.0382C30.3546 38.8317 29.5057 38.906 28.5521 39.099C28.4508 39.119 28.3494 39.139 28.245 39.1596C28.0323 39.2018 27.8197 39.2445 27.6072 39.2876C27.2827 39.3531 26.9579 39.4165 26.6329 39.4797C26.4254 39.5211 26.218 39.5627 26.0106 39.6044C25.914 39.6231 25.8175 39.6418 25.718 39.6611C25.6272 39.6798 25.5364 39.6985 25.4429 39.7179C25.3637 39.7337 25.2846 39.7496 25.203 39.766C24.6145 39.9553 24.204 40.3359 23.7715 40.7636C23.7136 40.8205 23.6558 40.8774 23.5962 40.9361C23.4034 41.126 23.2114 41.3168 23.0194 41.5076C22.881 41.6443 22.7426 41.781 22.6041 41.9177C22.1505 42.3658 21.6981 42.8152 21.2457 43.2647C21.0897 43.4196 20.9337 43.5745 20.7777 43.7294C20.1287 44.3738 19.4801 45.0185 18.8324 45.6641C17.9051 46.5883 16.976 47.5106 16.0443 48.4304C15.3887 49.078 14.7351 49.7276 14.083 50.3787C13.6937 50.7672 13.3036 51.1549 12.9113 51.5404C12.5423 51.9032 12.1759 52.2683 11.8113 52.6355C11.6774 52.7695 11.5425 52.9027 11.4067 53.0348C10.55 53.829 10.55 53.829 10.1889 54.9015C10.1946 55.0369 10.1946 55.0369 10.2003 55.175C10.1796 56.2291 8.75503 57.266 8.05655 57.953C7.82806 58.1778 7.60088 58.4039 7.37389 58.6302C7.22877 58.7743 7.08359 58.9182 6.93832 59.0621C6.87057 59.1294 6.80282 59.1966 6.73301 59.2659C5.9508 60.0342 5.9508 60.0342 5.38033 60.0773C4.60342 60.0565 4.1917 59.5297 3.68042 58.9994C3.57815 58.897 3.47587 58.7947 3.3705 58.6892C3.15535 58.4727 2.94149 58.2549 2.72884 58.036C2.403 57.7009 2.07315 57.3707 1.74225 57.0406C1.53355 56.8296 1.32511 56.6182 1.11694 56.4066C0.969014 56.2583 0.969014 56.2583 0.818095 56.1069C0.682444 55.9662 0.682444 55.9662 0.544052 55.8227C0.464221 55.741 0.384389 55.6593 0.302138 55.5751C0.0728809 55.2497 0.0283652 55.0039 0 54.6095C0.225323 53.9568 0.675861 53.5308 1.15585 53.0553C1.23432 52.9765 1.31279 52.8977 1.39364 52.8165C1.55918 52.6508 1.72517 52.4854 1.89157 52.3205C2.14517 52.0688 2.39685 51.8152 2.64839 51.5614C2.80995 51.4001 2.97161 51.2389 3.13339 51.0778C3.20812 51.0024 3.28286 50.9269 3.35985 50.8492C3.77198 50.4435 4.13369 50.1199 4.6875 49.922C4.80758 49.9255 4.80758 49.9255 4.93008 49.9292C5.64489 49.9482 6.00974 49.7347 6.53417 49.2568C6.78862 49.0092 7.03607 48.7554 7.28331 48.5006C7.4218 48.3618 7.56052 48.2232 7.69946 48.0849C8.07465 47.71 8.4465 47.332 8.81782 46.9533C9.20692 46.5575 9.59903 46.1648 9.99082 45.7718C10.7317 45.0277 11.4698 44.2809 12.207 43.5331C13.0466 42.6817 13.8892 41.8333 14.7321 40.9851C16.4654 39.2408 18.1949 37.4928 19.9219 35.7423C19.3366 35.0357 18.7022 34.3896 18.0524 33.7423C17.9357 33.6256 17.819 33.5089 17.7023 33.3921C17.3876 33.0774 17.0726 32.7631 16.7574 32.4488C16.4274 32.1194 16.0977 31.7898 15.7679 31.4602C15.1444 30.837 14.5205 30.2141 13.8966 29.5914C13.1859 28.8819 12.4755 28.1722 11.7651 27.4624C10.3047 26.0032 8.8439 24.5445 7.38281 23.086C7.27396 23.143 7.16511 23.1999 7.05297 23.2586C6.66026 23.4469 6.41538 23.4883 5.98389 23.4888C5.86923 23.4911 5.75457 23.4934 5.63644 23.4957C4.76371 23.3559 4.17439 22.7448 3.5733 22.1439C3.49262 22.0641 3.41193 21.9844 3.3288 21.9021C3.15917 21.7338 2.98999 21.5649 2.82125 21.3957C2.56504 21.1393 2.30643 20.8856 2.04758 20.6319C1.88217 20.4672 1.71691 20.3022 1.55182 20.1371C1.47539 20.0626 1.39896 19.9881 1.32022 19.9113C0.59721 19.1774 0.0517528 18.3023 -0.00732422 17.2518C0.0392038 15.603 1.19158 14.5769 2.29148 13.4834C2.42849 13.3459 2.56542 13.2084 2.70229 13.0707C3.07194 12.6995 3.44268 12.3294 3.81369 11.9595C4.20316 11.5709 4.59177 11.1815 4.98052 10.7922C5.6333 10.1387 6.28682 9.48606 6.94076 8.8338C7.69509 8.08139 8.44814 7.32771 9.20055 6.57337C9.84841 5.9239 10.497 5.27513 11.1461 4.62693C11.533 4.24059 11.9196 3.85401 12.3057 3.46681C12.6687 3.10271 13.0327 2.73948 13.3973 2.3769C13.5304 2.24427 13.6632 2.11135 13.7956 1.97811C15.0908 0.676038 16.5125 -0.629193 18.501 0.124591ZM14.3582 4.49389C14.228 4.62396 14.0977 4.75401 13.9674 4.88403C13.6174 5.23358 13.2677 5.58349 12.918 5.93349C12.5509 6.30088 12.1836 6.66799 11.8162 7.03514C11.2006 7.65057 10.5852 8.26625 9.96992 8.88207C9.25866 9.59397 8.54697 10.3055 7.83506 11.0167C7.22246 11.6288 6.61009 12.2411 5.99791 12.8536C5.63283 13.2188 5.26767 13.584 4.9023 13.949C4.5596 14.2914 4.21719 14.634 3.875 14.9769C3.74934 15.1027 3.62359 15.2284 3.49772 15.354C3.3262 15.5252 3.15504 15.6968 2.98396 15.8684C2.88805 15.9644 2.79213 16.0603 2.69331 16.1592C2.39091 16.4808 2.23809 16.6925 2.16064 17.1314C2.32299 18.2318 3.73027 19.2125 4.50439 19.9805C4.63618 20.1117 4.76794 20.243 4.89967 20.3742C5.21926 20.6925 5.53921 21.0105 5.85938 21.3282C6.66233 20.6701 7.38547 19.935 8.11749 19.2006C8.26191 19.0561 8.40635 18.9117 8.55081 18.7673C8.94107 18.3771 9.33097 17.9865 9.72081 17.5958C10.129 17.187 10.5374 16.7784 10.9459 16.3698C11.7185 15.5969 12.4908 14.8236 13.2629 14.0503C14.1424 13.1695 15.0222 12.2891 15.902 11.4087C17.7111 9.59837 19.5197 7.78764 21.3281 5.97664C21.1705 5.6506 21.0204 5.40356 20.7682 5.14271C20.7028 5.07471 20.6374 5.0067 20.5701 4.93664C20.4995 4.86472 20.429 4.7928 20.3563 4.71871C20.2466 4.60655 20.2466 4.60655 20.1346 4.49214C19.9798 4.33461 19.8246 4.17742 19.6692 4.02056C19.4322 3.7804 19.1981 3.53757 18.964 3.2946C18.813 3.14169 18.6619 2.98894 18.5106 2.83638C18.4412 2.76352 18.3719 2.69065 18.3004 2.61558C17.9735 2.29206 17.7554 2.1267 17.3074 1.9981C16.15 2.29614 15.1935 3.65689 14.3582 4.49389ZM40.1367 4.38729C40.0055 4.51907 39.8743 4.65083 39.743 4.78257C39.4247 5.10215 39.1068 5.42211 38.7891 5.74227C38.9743 6.19638 39.2826 6.50243 39.6255 6.84129C39.6875 6.90343 39.7494 6.96556 39.8132 7.02957C40.0208 7.23759 40.2293 7.44476 40.4378 7.65194C40.5868 7.8009 40.7357 7.9499 40.8847 8.09896C41.2892 8.50355 41.6944 8.90741 42.0998 9.31115C42.5233 9.73317 42.9461 10.1558 43.369 10.5785C44.1699 11.3787 44.9715 12.1783 45.7732 12.9777C46.686 13.8878 47.598 14.7986 48.51 15.7094C50.3862 17.5831 52.2631 19.4559 54.1406 21.3282C54.2697 21.2184 54.3986 21.1084 54.5275 20.9984C54.5993 20.9372 54.6711 20.876 54.7451 20.8129C55.2937 20.3356 55.8071 19.8194 56.3246 19.3089C56.466 19.17 56.6082 19.0318 56.7511 18.8944C56.9592 18.6942 57.1648 18.4917 57.3701 18.2887C57.4342 18.2278 57.4983 18.167 57.5643 18.1044C57.8373 17.8299 57.9974 17.6166 58.0989 17.2408C57.8374 16.1911 56.5911 15.3245 55.8395 14.5744C55.7046 14.4394 55.5698 14.3044 55.435 14.1693C55.0714 13.8052 54.7075 13.4414 54.3434 13.0777C53.9619 12.6965 53.5806 12.315 53.1994 11.9335C52.56 11.2939 51.9203 10.6546 51.2805 10.0153C50.5404 9.27586 49.8007 8.53595 49.0612 7.79582C48.4257 7.15974 47.7899 6.52389 47.1539 5.88823C46.7743 5.50881 46.3948 5.1293 46.0155 4.74959C45.6596 4.39333 45.3034 4.03736 44.9469 3.68161C44.816 3.5508 44.6851 3.4199 44.5544 3.28888C44.3764 3.11063 44.1981 2.93274 44.0197 2.75495C43.9199 2.65516 43.8201 2.55538 43.7172 2.45257C43.4416 2.19384 43.3047 2.12137 42.9346 2.05086C41.8773 2.20749 40.8762 3.64199 40.1367 4.38729ZM21.1775 9.04549C21.0701 9.15425 20.9627 9.26302 20.8521 9.37508C20.6905 9.53823 20.6905 9.53823 20.5257 9.70467C20.4424 9.78926 20.3592 9.87386 20.2734 9.96102C20.4619 10.4316 20.7933 10.7467 21.1476 11.0962C21.2128 11.1614 21.278 11.2266 21.3451 11.2938C21.5602 11.5087 21.776 11.7227 21.9919 11.9367C22.1414 12.0858 22.2908 12.2349 22.4402 12.384C22.833 12.776 23.2266 13.1673 23.6204 13.5584C24.0222 13.9578 24.4233 14.3579 24.8245 14.7579C25.6115 15.5424 26.3993 16.3262 27.1875 17.1095C27.3184 16.9982 27.4491 16.8868 27.5798 16.7753C27.6526 16.7133 27.7254 16.6512 27.8005 16.5873C28.0369 16.3809 28.2591 16.1638 28.4766 15.9376C28.288 15.4676 27.9577 15.152 27.6043 14.8024C27.5393 14.7372 27.4743 14.672 27.4073 14.6048C27.1929 14.3899 26.9776 14.1759 26.7622 13.9619C26.6131 13.8128 26.4639 13.6637 26.3148 13.5146C26.0026 13.2026 25.69 12.8909 25.3771 12.5796C24.975 12.1795 24.5738 11.7787 24.1728 11.3776C23.8651 11.07 23.5571 10.7626 23.249 10.4554C23.1008 10.3076 22.9528 10.1598 22.8048 10.0119C22.5986 9.80591 22.392 9.60034 22.1853 9.39488C22.1236 9.33315 22.0619 9.27143 21.9984 9.20784C21.6093 8.736 21.6093 8.736 21.1775 9.04549ZM38.5547 8.78914C36.8171 10.513 35.0813 12.2386 33.3474 13.9661C32.5422 14.7682 31.7366 15.5698 30.9296 16.3701C30.2261 17.0677 29.5237 17.7663 28.8225 18.4662C28.4513 18.8367 28.0796 19.2066 27.7066 19.5753C27.3553 19.9226 27.0054 20.2713 26.6565 20.621C26.5285 20.7489 26.4 20.8763 26.2709 21.0031C25.3326 21.9069 25.3326 21.9069 24.8438 23.086C24.8214 23.18 24.7991 23.274 24.7761 23.3709C24.7019 23.7005 24.6366 24.031 24.5728 24.3627C24.5481 24.4873 24.5235 24.6118 24.4981 24.7402C24.445 25.0092 24.3923 25.2782 24.3399 25.5474C24.2568 25.9736 24.1728 26.3997 24.0884 26.8257C23.8793 27.8833 23.6718 28.9413 23.4644 29.9994C23.2889 30.8946 23.1127 31.7897 22.9354 32.6845C22.8527 33.1037 22.7711 33.523 22.6895 33.9424C22.6386 34.2 22.5876 34.4575 22.5366 34.7151C22.5032 34.8892 22.5032 34.8892 22.4691 35.0669C22.4474 35.1752 22.4257 35.2834 22.4034 35.3949C22.3852 35.488 22.3669 35.5811 22.3482 35.677C22.1473 36.4063 21.8642 36.9054 21.329 37.4384C21.2703 37.4974 21.2117 37.5565 21.1512 37.6174C20.9558 37.8136 20.7588 38.008 20.5617 38.2025C20.4207 38.3434 20.2798 38.4843 20.139 38.6254C19.7575 39.007 19.3746 39.3872 18.9915 39.7671C18.5909 40.1647 18.1916 40.5637 17.7922 40.9626C17.0361 41.7172 16.2789 42.4706 15.5212 43.2236C14.6584 44.0811 13.797 44.94 12.9357 45.7989C11.1643 47.5654 9.39132 49.3302 7.61719 51.0938C7.80532 51.4935 8.01623 51.7522 8.33496 52.0606C8.41986 52.1434 8.50476 52.2262 8.59222 52.3115C8.65718 52.3737 8.72214 52.436 8.78906 52.5001C9.55266 51.8724 10.2425 51.1763 10.9373 50.4748C11.07 50.3414 11.2028 50.2079 11.3355 50.0745C11.62 49.7884 11.9043 49.5022 12.1885 49.2159C12.6383 48.7628 13.0887 48.3105 13.5392 47.8582C13.6938 47.7031 13.8483 47.5479 14.0029 47.3927C14.0803 47.315 14.1576 47.2374 14.2374 47.1573C15.2852 46.1053 16.3324 45.0527 17.3784 43.999C18.0855 43.2867 18.7933 42.5753 19.5021 41.8649C19.8767 41.4893 20.2509 41.1134 20.624 40.7364C20.9746 40.3821 21.3264 40.0289 21.679 39.6765C21.8079 39.5472 21.9365 39.4176 22.0646 39.2875C22.2399 39.1095 22.4167 38.933 22.5939 38.7568C22.6924 38.6578 22.7908 38.5588 22.8922 38.4568C23.4009 38.0419 23.9662 37.839 24.6052 37.7139C24.7675 37.6814 24.7675 37.6814 24.9331 37.6482C25.0493 37.6259 25.1654 37.6036 25.285 37.5806C25.4715 37.5437 25.4715 37.5437 25.6618 37.506C25.9307 37.4529 26.1997 37.4001 26.4688 37.3478C26.8951 37.2648 27.3212 37.1807 27.7472 37.0963C28.575 36.9326 29.403 36.77 30.231 36.6077C31.3563 36.3872 32.4814 36.166 33.6063 35.9433C34.0252 35.8607 34.4444 35.779 34.8635 35.6974C35.1215 35.6465 35.3794 35.5955 35.6373 35.5445C35.7532 35.5222 35.8691 35.4999 35.9885 35.477C36.2987 35.415 36.6063 35.3466 36.9141 35.2735C36.9934 35.2568 37.0727 35.2402 37.1545 35.223C38.01 34.9831 38.581 34.2697 39.1843 33.6557C39.316 33.5239 39.4477 33.3922 39.5796 33.2607C39.9358 32.9046 40.2902 32.5468 40.6443 32.1887C41.0151 31.8141 41.3877 31.4413 41.76 31.0682C42.4642 30.3622 43.1669 29.6547 43.8691 28.9466C44.6689 28.1403 45.4703 27.3357 46.2718 26.5312C47.9201 24.8768 49.5662 23.2204 51.2109 21.5626C51.0228 21.1629 50.8119 20.9042 50.4932 20.5958C50.4083 20.513 50.3234 20.4302 50.2359 20.3449C50.1709 20.2827 50.106 20.2205 50.0391 20.1563C49.4013 20.688 48.8106 21.2521 48.2257 21.841C48.13 21.937 48.0342 22.0329 47.9356 22.1317C47.729 22.3388 47.5225 22.5459 47.3162 22.7532C46.9899 23.081 46.6633 23.4083 46.3367 23.7356C45.6442 24.4293 44.9522 25.1236 44.2603 25.818C43.4564 26.6246 42.6523 27.4311 41.8477 28.237C41.5253 28.5602 41.2033 28.8836 40.8814 29.2071C40.685 29.4039 40.4886 29.6007 40.2922 29.7974C40.2023 29.888 40.1124 29.9785 40.0197 30.0717C39.9378 30.1537 39.8558 30.2357 39.7714 30.3201C39.7001 30.3917 39.6287 30.4633 39.5553 30.537C39.2242 30.8422 38.9077 30.8812 38.461 30.8761C38.137 30.8061 37.9959 30.681 37.7538 30.4566C37.6317 30.3445 37.6317 30.3445 37.5072 30.2301C37.4275 30.1542 37.3478 30.0783 37.2656 30.0001C37.1621 29.9018 37.1621 29.9018 37.0564 29.8015C36.8498 29.6026 36.6457 29.4013 36.4422 29.1992C36.3277 29.0861 36.3277 29.0861 36.2108 28.9708C35.9618 28.7246 35.7132 28.478 35.4648 28.2313C35.3793 28.1464 35.2938 28.0616 35.2058 27.9742C34.7546 27.5261 34.3037 27.0775 33.8532 26.6287C33.4812 26.2583 33.1084 25.8887 32.7348 25.5199C32.2818 25.0727 31.8303 24.6241 31.3798 24.1744C31.2085 24.0039 31.0366 23.8338 30.8643 23.6643C30.6236 23.4273 30.3849 23.1886 30.1465 22.9494C30.0399 22.8456 30.0399 22.8456 29.9311 22.7397C29.5015 22.3037 29.2693 21.9544 29.1797 21.3282C29.3159 20.8759 29.5103 20.6023 29.8426 20.2714C29.9317 20.1819 30.0208 20.0923 30.1125 20C30.2592 19.8553 30.2592 19.8553 30.4088 19.7076C30.5117 19.6046 30.6146 19.5017 30.7207 19.3956C31.0023 19.1141 31.2848 18.8335 31.5675 18.5531C31.8631 18.2597 32.1578 17.9653 32.4525 17.671C33.0104 17.1142 33.5692 16.5583 34.1283 16.0027C34.765 15.37 35.4006 14.7362 36.0362 14.1024C37.3433 12.799 38.6517 11.4968 39.9609 10.1954C39.5299 9.66498 39.0925 9.21169 38.5547 8.78914ZM18.1795 12.0404C18.1152 12.1051 18.051 12.1697 17.9848 12.2363C17.9174 12.3038 17.8499 12.3712 17.7804 12.4407C17.5563 12.6649 17.3326 12.8895 17.1089 13.1141C16.9541 13.2691 16.7992 13.4241 16.6444 13.5791C16.2359 13.9881 15.8277 14.3974 15.4197 14.8067C15.0036 15.224 14.5872 15.641 14.1708 16.058C13.3531 16.8769 12.5358 17.6962 11.7188 18.5157C12.2288 19.1253 12.7643 19.6958 13.3263 20.2575C13.4579 20.3897 13.4579 20.3897 13.5922 20.5245C13.8799 20.8133 14.168 21.1017 14.4562 21.39C14.6569 21.5911 14.8577 21.7923 15.0584 21.9934C15.4778 22.4135 15.8975 22.8334 16.3173 23.2531C16.8564 23.7923 17.3948 24.3323 17.933 24.8724C18.3465 25.2873 18.7606 25.7017 19.1749 26.1158C19.3738 26.3148 19.5724 26.514 19.7709 26.7134C20.0472 26.9909 20.3243 27.2676 20.6015 27.5441C20.7252 27.6688 20.7252 27.6688 20.8513 27.7959C20.9266 27.8707 21.0018 27.9454 21.0793 28.0224C21.1447 28.0879 21.2101 28.1534 21.2775 28.2208C21.4392 28.3843 21.4391 28.3843 21.6797 28.3595C21.6973 28.2772 21.7149 28.195 21.7331 28.1103C21.7705 27.9354 21.7705 27.9354 21.8088 27.757C21.8369 27.6257 21.865 27.4945 21.8939 27.3592C21.9568 27.066 22.02 26.773 22.0834 26.4799C22.2494 25.7114 22.4108 24.9427 22.5613 24.1709C22.5904 24.0258 22.6195 23.8807 22.6494 23.7311C22.7046 23.4546 22.7582 23.1777 22.8097 22.9005C23.0956 21.4915 23.7426 20.5939 24.7705 19.6143C24.8568 19.5302 24.943 19.4461 25.0319 19.3594C25.2416 19.1551 25.4523 18.9521 25.6641 18.7501C25.4755 18.2801 25.1452 17.9645 24.7918 17.6149C24.6943 17.5171 24.6943 17.5171 24.5948 17.4173C24.3804 17.2024 24.1651 16.9884 23.9497 16.7744C23.8006 16.6253 23.6514 16.4762 23.5023 16.3271C23.1901 16.0151 22.8775 15.7034 22.5646 15.3921C22.1625 14.992 21.7613 14.5912 21.3603 14.1901C21.0526 13.8825 20.7446 13.5751 20.4365 13.2679C20.2883 13.1201 20.1403 12.9723 19.9923 12.8244C19.7861 12.6184 19.5795 12.4128 19.3728 12.2074C19.2803 12.1148 19.2803 12.1148 19.1859 12.0203C18.6789 11.5179 18.6836 11.5376 18.1795 12.0404ZM40.8993 12.1576C40.8354 12.2223 40.7716 12.2869 40.7059 12.3535C40.6384 12.421 40.5709 12.4884 40.5014 12.5579C40.2777 12.7818 40.0548 13.0065 39.8318 13.2313C39.6772 13.3863 39.5225 13.5414 39.3678 13.6963C38.96 14.105 38.5529 14.5144 38.146 14.9239C37.7309 15.3414 37.3151 15.7583 36.8994 16.1752C36.0833 16.9938 35.268 17.8131 34.4531 18.6329C34.9742 19.2547 34.9742 19.2547 35.5417 19.8336C35.606 19.8955 35.6704 19.9573 35.7367 20.0211C35.8676 20.1457 35.9991 20.2696 36.1313 20.3928C36.2274 20.4858 36.2274 20.4858 36.3254 20.5807C36.3823 20.6344 36.4392 20.6881 36.4978 20.7434C37.1183 21.5391 37.2892 22.4209 37.4762 23.39C37.5041 23.5291 37.5321 23.6682 37.5609 23.8116C37.6493 24.2531 37.7358 24.6949 37.8223 25.1368C37.8821 25.4374 37.9421 25.738 38.0022 26.0386C38.1487 26.7729 38.2937 27.5074 38.4375 28.2423C38.8851 28.2879 38.8851 28.2879 39.1122 28.094C39.1817 28.024 39.2513 27.954 39.323 27.8819C39.4035 27.802 39.484 27.7222 39.567 27.6399C39.654 27.5511 39.7411 27.4624 39.8308 27.3709C39.9698 27.232 39.9698 27.232 40.1116 27.0904C40.4183 26.7833 40.7234 26.4746 41.0284 26.1659C41.2405 25.9529 41.4526 25.7401 41.6649 25.5274C42.1667 25.024 42.6674 24.5196 43.1677 24.0146C43.7372 23.4398 44.3081 22.8663 44.8791 22.293C46.0537 21.1135 47.2266 19.9323 48.3984 18.7501C48.1864 18.2934 47.893 17.9772 47.5388 17.6257C47.4751 17.5616 47.4114 17.4975 47.3458 17.4315C47.1358 17.2204 46.9248 17.0102 46.7139 16.8C46.5676 16.6536 46.4214 16.5071 46.2752 16.3606C45.969 16.0541 45.6624 15.748 45.3555 15.4422C44.9614 15.0494 44.5683 14.6556 44.1756 14.2615C43.874 13.9591 43.5719 13.6572 43.2696 13.3555C43.1244 13.2105 42.9794 13.0652 42.8345 12.9199C42.6325 12.7173 42.4298 12.5154 42.2269 12.3138C42.1667 12.2532 42.1066 12.1926 42.0446 12.1301C41.524 11.6157 41.4139 11.6458 40.8993 12.1576ZM9.79889 20.4127C9.63982 20.5758 9.63982 20.5758 9.47754 20.7423C9.37089 20.851 9.26424 20.9598 9.15436 21.0719C9.07248 21.1565 8.99061 21.241 8.90625 21.3282C9.07829 21.7252 9.29889 21.9844 9.60401 22.2893C9.74919 22.4352 9.74919 22.4352 9.8973 22.5841C10.0037 22.6898 10.11 22.7955 10.2196 22.9044C10.3326 23.0176 10.4456 23.1308 10.5586 23.244C10.865 23.5511 11.1722 23.8574 11.4796 24.1635C11.8008 24.4837 12.1215 24.8046 12.4422 25.1254C12.9806 25.6636 13.5194 26.2015 14.0585 26.739C14.6827 27.3613 15.3062 27.9842 15.9293 28.6074C16.5282 29.2064 17.1274 29.805 17.7269 30.4034C17.9823 30.6585 18.2376 30.9136 18.4929 31.1688C18.793 31.4688 19.0934 31.7685 19.3941 32.068C19.5576 32.231 19.7209 32.3944 19.8842 32.5577C19.9807 32.6537 20.0771 32.7496 20.1765 32.8485C20.2608 32.9326 20.345 33.0167 20.4319 33.1033C20.5956 33.2946 20.5956 33.2946 20.7422 33.2813C20.8016 33.0032 20.8601 32.7249 20.918 32.4464C20.9347 32.3684 20.9515 32.2905 20.9688 32.2102C21.0157 31.9823 21.0548 31.7529 21.0938 31.5235C21.1167 31.4054 21.1397 31.2873 21.1633 31.1655C21.0809 30.7568 20.9973 30.7078 20.6835 30.451C20.1439 29.9946 19.6472 29.5051 19.1499 29.0033C19.0541 28.9072 18.9584 28.8111 18.8597 28.712C18.6534 28.5049 18.4473 28.2977 18.2413 28.0903C17.9156 27.7626 17.5895 27.4353 17.2632 27.1081C16.3363 26.1783 15.4101 25.2479 14.4844 24.317C13.917 23.7464 13.349 23.1764 12.7806 22.6068C12.5641 22.3895 12.3478 22.172 12.1316 21.9543C11.8309 21.6513 11.5295 21.349 11.2279 21.0469C11.1381 20.9562 11.0484 20.8654 10.9559 20.7719C10.8742 20.6903 10.7924 20.6086 10.7081 20.5245C10.6369 20.453 10.5658 20.3815 10.4925 20.3078C10.1756 20.0412 10.0973 20.1388 9.79889 20.4127ZM32.5589 20.5042C32.4637 20.6021 32.3686 20.7 32.2705 20.8009C32.1747 20.8988 32.079 20.9966 31.9803 21.0975C31.9069 21.1736 31.8335 21.2498 31.7578 21.3282C31.9137 21.6742 32.0833 21.9169 32.3523 22.1837C32.425 22.2563 32.4977 22.329 32.5726 22.4039C32.6509 22.481 32.7291 22.558 32.8098 22.6374C32.8901 22.7174 32.9704 22.7973 33.0531 22.8797C33.3093 23.1346 33.5662 23.3886 33.8232 23.6427C33.9972 23.8155 34.1712 23.9884 34.3451 24.1613C34.7711 24.5847 35.1979 25.0074 35.625 25.4298C35.9305 24.5132 35.5333 23.2376 35.1562 22.3829C34.5967 21.5777 33.8453 20.8446 33.0469 20.2735C32.7843 20.2472 32.7843 20.2472 32.5589 20.5042ZM37.6163 37.1595C37.5007 37.1859 37.3851 37.2124 37.2661 37.2396C37.0846 37.2815 37.0846 37.2815 36.8994 37.3243C36.7775 37.3522 36.6556 37.3802 36.53 37.409C36.2283 37.4782 35.9266 37.5476 35.625 37.6173C35.625 37.6559 35.625 37.6946 35.625 37.7345C35.7266 37.7488 35.7266 37.7488 35.8302 37.7634C36.9007 37.991 37.5186 38.6976 38.2531 39.4491C38.3951 39.5913 38.5373 39.7334 38.6796 39.8753C39.0637 40.2591 39.4452 40.6455 39.8263 41.0323C40.2257 41.4368 40.6274 41.839 41.0289 42.2414C41.7879 43.003 42.5449 43.7667 43.301 44.5311C44.1624 45.4016 45.0261 46.2698 45.89 47.1378C47.6662 48.9227 49.4396 50.7104 51.2109 52.5001C51.7413 52.069 52.1946 51.6316 52.6172 51.0938C51.1211 49.595 49.6246 48.0965 48.1278 46.5984C47.4327 45.9027 46.7378 45.2069 46.0431 44.5109C45.4373 43.9039 44.8313 43.2972 44.225 42.6907C43.9043 42.3698 43.5837 42.0488 43.2633 41.7276C42.9612 41.4246 42.6587 41.1219 42.3561 40.8195C42.1934 40.6567 42.0309 40.4936 41.8685 40.3306C41.3497 39.8126 40.8241 39.3111 40.2668 38.8345C40.0456 38.6439 39.8389 38.4428 39.6359 38.233C39.566 38.1616 39.496 38.0902 39.424 38.0167C39.281 37.8694 39.1382 37.722 38.9955 37.5745C38.9265 37.5041 38.8574 37.4338 38.7863 37.3614C38.7248 37.2979 38.6632 37.2344 38.5998 37.1689C38.3014 36.916 37.9709 37.078 37.6163 37.1595ZM5.02347 52.268C4.91607 52.376 4.80868 52.484 4.69803 52.5953C4.64097 52.6525 4.58391 52.7097 4.52512 52.7687C4.34216 52.9523 4.1596 53.1364 3.97705 53.3204C3.8534 53.4446 3.72973 53.5688 3.60603 53.693C3.30215 53.9982 2.99864 54.3037 2.69531 54.6095C2.87569 55.0392 3.13533 55.3109 3.46527 55.6367C3.57026 55.7409 3.67525 55.8451 3.78342 55.9525C3.89324 56.0604 4.00306 56.1682 4.11621 56.2794C4.22811 56.3901 4.33996 56.5009 4.45175 56.6117C4.72513 56.8823 4.99904 57.1524 5.27344 57.422C5.70323 57.2416 5.9749 56.9819 6.30066 56.652C6.40489 56.547 6.50912 56.442 6.61652 56.3338C6.72437 56.224 6.83223 56.1142 6.94336 56.0011C7.05408 55.8892 7.16486 55.7773 7.2757 55.6655C7.54631 55.3921 7.81636 55.1182 8.08594 54.8438C7.53899 54.187 6.95588 53.5788 6.3501 52.9762C6.2138 52.8392 6.2138 52.8392 6.07475 52.6994C5.98842 52.6133 5.90209 52.5271 5.81314 52.4383C5.73477 52.36 5.65639 52.2818 5.57565 52.2012C5.29217 51.9409 5.31759 51.9895 5.02347 52.268ZM54.4633 52.268C54.3031 52.43 54.3031 52.43 54.1397 52.5953C54.0828 52.6525 54.0259 52.7097 53.9673 52.7687C53.7853 52.9521 53.6041 53.1362 53.4229 53.3204C53.2998 53.4446 53.1766 53.5689 53.0534 53.693C52.7512 53.9979 52.4496 54.3035 52.1484 54.6095C52.3288 55.0392 52.5885 55.3109 52.9184 55.6367C53.0234 55.7409 53.1284 55.8451 53.2365 55.9525C53.3464 56.0604 53.4562 56.1682 53.5693 56.2794C53.6812 56.3901 53.7931 56.5009 53.9049 56.6117C54.1783 56.8823 54.4522 57.1524 54.7266 57.422C55.1563 57.2416 55.428 56.9819 55.7538 56.652C55.858 56.547 55.9622 56.442 56.0696 56.3338C56.1775 56.224 56.2854 56.1142 56.3965 56.0011C56.5072 55.8892 56.618 55.7773 56.7288 55.6655C56.9994 55.3921 57.2695 55.1182 57.5391 54.8438C57.359 54.4174 57.1026 54.1428 56.7773 53.8166C56.6734 53.7124 56.5695 53.6081 56.4624 53.5007C56.3536 53.3929 56.2449 53.285 56.1328 53.1739C56.024 53.0642 55.9153 52.9546 55.8032 52.8416C55.6473 52.6861 55.6473 52.6861 55.4883 52.5275C55.3928 52.4323 55.2973 52.3371 55.199 52.239C54.8571 51.9407 54.8006 51.9648 54.4633 52.268Z" fill="#155DFC"/>
<path d="M27.8588 23.4824C28.2086 23.5773 28.3762 23.7379 28.6406 23.9854C28.7435 24.0816 28.8465 24.1778 28.9525 24.2769C29.6232 24.9213 30.2832 25.5764 30.9411 26.2339C31.0965 26.3889 31.2519 26.5439 31.4073 26.6989C31.7306 27.0215 32.0536 27.3442 32.3764 27.6672C32.7901 28.0809 33.2046 28.4937 33.6193 28.9064C33.9393 29.2252 34.2589 29.5445 34.5783 29.864C34.731 30.0165 34.8839 30.1689 35.0369 30.3211C35.2501 30.533 35.4624 30.7457 35.6746 30.9586C35.7692 31.0522 35.7692 31.0522 35.8657 31.1477C36.3085 31.5943 36.5343 31.8881 36.6137 32.5121C36.5471 33.0542 36.3974 33.1754 35.9765 33.5155C35.6483 33.625 35.3578 33.7021 35.0212 33.7649C34.8794 33.7942 34.8794 33.7942 34.7346 33.8241C34.4231 33.8878 34.1111 33.9482 33.7989 34.0085C33.5813 34.0522 33.3637 34.096 33.1461 34.14C32.6903 34.2317 32.2344 34.3219 31.7781 34.4109C31.1949 34.5247 30.6123 34.6413 30.0298 34.7588C29.5804 34.8494 29.1309 34.9389 28.6813 35.0281C28.4665 35.0708 28.2517 35.1136 28.037 35.1567C27.736 35.2168 27.4348 35.2756 27.1335 35.3341C27.0458 35.3519 26.958 35.3696 26.8676 35.3878C25.4339 35.6618 25.4339 35.6618 24.8437 35.2807C24.3836 34.5761 24.6141 33.6866 24.7759 32.8979C24.7936 32.8075 24.8113 32.717 24.8296 32.6238C24.8877 32.3283 24.9474 32.0332 25.0071 31.738C25.0484 31.5311 25.0896 31.3241 25.1307 31.117C25.2168 30.6848 25.3037 30.2527 25.3911 29.8207C25.5028 29.2682 25.6127 28.7153 25.722 28.1622C25.8067 27.7353 25.8922 27.3086 25.9781 26.8819C26.019 26.6782 26.0596 26.4743 26.0999 26.2704C26.1564 25.9853 26.2142 25.7005 26.2723 25.4158C26.2886 25.3323 26.3048 25.2488 26.3216 25.1628C26.5135 24.2384 26.7747 23.4468 27.8588 23.4824ZM28.2421 26.7187C27.7824 28.8229 27.3502 30.9298 26.9531 33.0468C27.7799 32.9799 28.5808 32.8544 29.3929 32.6874C29.5083 32.6642 29.6237 32.641 29.7426 32.617C30.1068 32.5435 30.4709 32.4692 30.8349 32.3949C31.0836 32.3446 31.3323 32.2943 31.5811 32.2441C32.187 32.1216 32.7927 31.9985 33.3984 31.8749C32.8569 31.2252 32.2809 30.6231 31.6822 30.026C31.5398 29.8834 31.5398 29.8834 31.3944 29.7379C31.1952 29.5385 30.9957 29.3393 30.7961 29.1402C30.4892 28.8339 30.1828 28.5269 29.8766 28.2199C29.6826 28.026 29.4886 27.8321 29.2945 27.6383C29.2025 27.546 29.1105 27.4538 29.0156 27.3587C28.9311 27.2745 28.8466 27.1904 28.7595 27.1037C28.6848 27.0291 28.6102 26.9546 28.5333 26.8778C28.3842 26.7055 28.3842 26.7055 28.2421 26.7187Z" fill="#6A00FF"/>
</g>
<defs>
<clipPath id="clip0_26_871">
<rect width="60" height="60" fill="white"/>
</clipPath>
</defs>
</svg>
