<svg width="60" height="21" viewBox="0 0 60 21" fill="none" xmlns="http://www.w3.org/2000/svg">
<path d="M18.5337 0.459493C18.6551 0.479154 18.7764 0.498816 18.9015 0.519073C21.4976 0.952509 24.1686 1.59739 26.4774 2.88487C26.8711 3.09986 27.0861 3.21519 27.5448 3.18279C27.7209 3.12852 27.7209 3.12852 27.9005 3.07315C29.2455 2.71197 30.7162 2.58804 32.0614 3.05737C32.5501 3.222 32.8276 3.22693 33.3024 3.01318C33.4968 2.91349 33.6901 2.8116 33.8824 2.70795C36.776 1.25778 39.9483 0.571528 43.1616 0.230351C43.2584 0.219385 43.3552 0.208419 43.455 0.197121C44.7072 0.0734999 45.9676 0.0878393 47.2249 0.0871373C47.4116 0.0870213 47.4116 0.0870213 47.602 0.086903C51.328 0.090568 54.957 0.510891 58.5905 1.34026C58.6924 1.36343 58.7944 1.3866 58.8994 1.41047C59.5896 1.57628 59.5896 1.57628 59.8525 1.83435C60.0113 2.76468 60.1644 4.13033 59.6122 4.93358C59.3054 5.14975 59.3054 5.14975 58.9826 5.32921C58.4145 5.65676 58.1828 6.23263 58.0183 6.83967C57.9929 6.94128 57.9674 7.04289 57.9412 7.14758C57.8085 7.63604 57.8085 7.63604 57.5528 7.82203C57.3285 7.91378 57.3285 7.91378 56.9345 8.02119C56.7191 8.23267 56.7692 8.57849 56.7462 8.86346C56.7328 9.01712 56.7194 9.17078 56.7059 9.32443C56.6852 9.56513 56.6651 9.80583 56.6461 10.0467C56.4044 13.0708 55.2841 15.8269 53.0057 17.932C50.0874 20.3579 46.7841 21.2112 42.998 20.9483C39.9376 20.6311 37.3038 18.8643 35.3195 16.6498C33.2782 14.1556 32.0765 10.8723 32.1899 7.67747C32.2146 7.47195 32.2412 7.26664 32.2702 7.06165C32.3467 6.40028 32.1712 6.00069 31.7522 5.47198C30.9781 4.88095 30.2286 4.8345 29.2719 4.92777C28.6765 5.0646 28.2405 5.36797 27.8713 5.84434C27.6241 6.48664 27.6404 7.00487 27.7546 7.67747C27.9863 11.1293 26.4205 14.5875 24.1402 17.1431C22.1406 19.3294 19.3459 20.8181 16.3297 20.9865C12.8685 21.1141 9.86741 20.3501 7.21189 18.1034C7.13064 18.0389 7.04939 17.9744 6.96568 17.9079C4.86174 16.1989 3.67061 13.5072 3.36013 10.8855C3.30197 10.2711 3.25195 9.65623 3.21229 9.04047C3.20436 8.92652 3.19642 8.81258 3.18824 8.69519C3.17875 8.54169 3.17875 8.54169 3.16907 8.38509C3.14799 8.11228 3.14799 8.11228 2.89325 7.90661C2.79696 7.86881 2.70066 7.831 2.60145 7.79204C2.30965 7.67747 2.30965 7.67747 2.07621 7.44833C2.02171 7.27577 1.97397 7.10111 1.93031 6.9256C1.73176 6.25363 1.43553 5.51031 0.795943 5.13755C0.390686 4.89679 0.132124 4.74044 0.0126723 4.27514C-0.00839622 3.90635 -0.00105327 3.54936 0.0190269 3.18056C0.0212838 3.05443 0.0235407 2.9283 0.0258659 2.79835C0.0524999 1.8731 0.0524999 1.8731 0.325416 1.6052C0.586041 1.52336 0.586041 1.52336 0.913575 1.44856C1.03525 1.42062 1.15692 1.39268 1.28229 1.36389C1.48028 1.32029 1.48028 1.32029 1.68228 1.27581C1.81917 1.24549 1.95606 1.21517 2.0971 1.18393C3.44507 0.89103 4.79357 0.643618 6.16141 0.459493C6.35158 0.433546 6.35158 0.433546 6.54559 0.407075C10.4557 -0.101563 14.6388 -0.187057 18.5337 0.459493ZM10.3633 2.52177C10.2846 2.53344 10.2059 2.54511 10.1249 2.55713C8.43705 2.8167 6.60166 3.32545 5.49392 4.6937C4.24888 6.64237 4.70569 9.54468 5.17163 11.6769C5.61344 13.5674 6.37253 15.1191 7.79548 16.4994C7.92435 16.6297 7.92435 16.6297 8.05582 16.7626C9.96977 18.5878 12.7344 19.5493 15.3822 19.5185C18.1139 19.4246 20.5436 18.3655 22.5022 16.4994C22.5809 16.4306 22.6596 16.3618 22.7406 16.2909C24.693 14.5236 25.9207 11.6164 26.1205 9.05233C26.1355 7.58658 25.8483 6.26598 24.8366 5.15691C24.7808 5.0903 24.7249 5.02369 24.6674 4.95507C22.8631 2.96979 19.6865 2.49244 17.1331 2.29263C16.4015 2.25611 15.6696 2.25927 14.9373 2.26399C14.792 2.26446 14.792 2.26446 14.6437 2.26495C13.2074 2.27046 11.7848 2.30146 10.3633 2.52177ZM35.3432 4.90763C34.9695 5.30355 34.6345 5.69388 34.393 6.18089C34.3566 6.25281 34.3202 6.32474 34.2827 6.39884C33.3726 8.47453 33.9686 10.6775 34.7787 12.6819C35.2474 13.7951 35.8788 14.7445 36.6253 15.6975C36.6769 15.7646 36.7285 15.8318 36.7817 15.9011C38.3684 17.8781 40.9955 19.0854 43.4867 19.442C46.1965 19.7038 49.001 19.051 51.1739 17.3831C51.5992 17.0334 51.992 16.6569 52.3825 16.2703C52.4688 16.1894 52.5552 16.1084 52.6442 16.0251C54.8621 13.8056 55.2109 10.1665 55.1837 7.21919C55.1361 5.99985 54.7951 4.94632 53.8852 4.08996C51.5389 2.2042 47.9828 2.26605 45.1021 2.26399C44.9557 2.26387 44.9557 2.26387 44.8064 2.26375C41.5216 2.26787 37.8438 2.56036 35.3432 4.90763ZM1.60933 2.98006C1.49723 3.21801 1.49723 3.21801 1.49261 3.43834C2.0132 3.84362 2.39351 3.91637 3.05374 3.92527C3.18464 3.92822 3.31554 3.93118 3.45041 3.93422C3.86524 3.89281 4.0806 3.79867 4.41061 3.55291C4.51312 3.31399 4.51312 3.31399 4.52733 3.09463C3.73502 2.47781 2.44771 2.35729 1.60933 2.98006ZM55.5339 2.98006C55.3902 3.19972 55.3902 3.19972 55.4172 3.43834C55.6321 3.72318 55.7679 3.78223 56.1175 3.89663C57.2886 3.99097 57.2886 3.99097 58.3352 3.55291C58.3737 3.43949 58.4122 3.32606 58.4519 3.2092C58.0871 2.82646 57.8653 2.65332 57.3189 2.61307C56.3708 2.58527 56.3708 2.58527 55.5339 2.98006Z" fill="#155DFC"/>
</svg>
