<svg width="60" height="60" viewBox="0 0 60 60" fill="none" xmlns="http://www.w3.org/2000/svg">
<path d="M46.8751 1.40616C46.9506 1.4319 47.0261 1.45764 47.1038 1.48415C50.1307 2.54018 52.7238 4.73034 54.1444 7.61893C54.8436 9.11652 55.3266 10.6739 55.3364 12.3366C55.3372 12.4295 55.338 12.5223 55.3389 12.6179C55.3531 14.6845 55.3375 16.711 54.961 18.7499C54.9402 18.8673 54.9194 18.9847 54.898 19.1056C54.5024 21.2719 53.8125 23.3161 53.1016 25.3937C51.7949 29.2259 50.95 33.177 50.7948 37.2275C50.7899 37.3543 50.785 37.4811 50.7799 37.6118C50.7358 38.8262 50.7247 40.0399 50.7225 41.2551C50.7213 41.7704 50.7183 42.2856 50.7154 42.8009C50.7102 43.7521 50.7057 44.7034 50.7041 45.6547C50.7029 46.3244 50.6994 46.9942 50.6945 47.6639C50.6931 47.9159 50.6925 48.1678 50.6928 48.4197C50.6942 50.2301 50.5992 51.9614 49.7169 53.5912C49.6765 53.6684 49.6362 53.7455 49.5946 53.825C48.3081 56.223 46.3671 57.7972 43.8282 58.7108C43.7178 58.7507 43.6073 58.7906 43.4936 58.8317C40.9906 59.5613 38.1961 59.1302 35.9405 57.9061C33.6202 56.592 31.9273 54.5238 31.1991 51.9469C30.9553 50.9775 30.8874 50.0745 30.8921 49.0775C30.8917 48.9152 30.891 48.7529 30.8902 48.5905C30.8885 48.1489 30.889 47.7073 30.8899 47.2656C30.8905 46.7876 30.889 46.3095 30.8878 45.8315C30.8858 44.8966 30.8857 43.9618 30.8863 43.0269C30.8868 42.2664 30.8866 41.5059 30.886 40.7455C30.8859 40.637 30.8858 40.5285 30.8857 40.4167C30.8855 40.1962 30.8853 39.9758 30.8852 39.7553C30.8836 37.6906 30.8842 35.6259 30.8855 33.5612C30.8867 31.6757 30.8852 29.7902 30.8824 27.9047C30.8795 25.9651 30.8784 24.0254 30.8792 22.0858C30.8796 20.9983 30.8793 19.9108 30.8773 18.8233C30.8755 17.8974 30.8755 16.9715 30.8775 16.0456C30.8785 15.5739 30.8788 15.1023 30.877 14.6307C30.8625 10.5587 31.6592 7.28853 34.5777 4.27726C37.6788 1.18159 42.714 -0.0206128 46.8751 1.40616ZM36.0938 5.62491C36.0198 5.68941 35.9458 5.75392 35.8695 5.82038C33.8232 7.7125 32.969 10.4253 32.8126 13.1249C32.7977 13.6386 32.7962 14.1519 32.7969 14.6658C32.7966 14.8131 32.7964 14.9605 32.7961 15.1123C32.7954 15.5168 32.7954 15.9213 32.7955 16.3257C32.7956 16.7637 32.7949 17.2017 32.7944 17.6397C32.7934 18.4961 32.7931 19.3524 32.793 20.2088C32.7929 20.9054 32.7927 21.602 32.7923 22.2986C32.7913 24.2775 32.7908 26.2563 32.7908 28.2352C32.7909 28.3416 32.7909 28.4481 32.7909 28.5578C32.7909 28.6643 32.7909 28.7709 32.7909 28.8808C32.7909 30.6079 32.7898 32.3351 32.7881 34.0623C32.7865 35.8394 32.7857 37.6166 32.7858 39.3938C32.7858 40.3901 32.7855 41.3863 32.7842 42.3826C32.7831 43.2307 32.7829 44.0789 32.7837 44.927C32.7841 45.359 32.7841 45.7909 32.7831 46.2229C32.7757 49.5345 32.837 52.3737 35.2296 54.9279C36.7515 56.3898 38.7958 57.1848 40.8985 57.1874C43.2113 57.0493 45.1538 56.1621 46.7579 54.4921C48.3856 52.5285 48.766 50.3605 48.7686 47.8854C48.7692 47.7589 48.7697 47.6323 48.7704 47.5019C48.7716 47.229 48.7726 46.9562 48.7734 46.6833C48.7748 46.2481 48.7771 45.813 48.7796 45.3778C48.7868 44.1412 48.7932 42.9045 48.7971 41.6678C48.7996 40.9087 48.8038 40.1497 48.8089 39.3906C48.8106 39.1048 48.8116 38.8189 48.812 38.533C48.8192 33.5846 49.7681 28.9075 51.3941 24.2504C51.9857 22.5529 52.517 20.8715 52.8516 19.1015C52.8756 18.9783 52.8996 18.8551 52.9242 18.7282C53.2432 17.0292 53.3667 15.3479 53.379 13.623C53.3802 13.5356 53.3814 13.4483 53.3827 13.3583C53.4006 11.7334 53.1546 10.1804 52.4268 8.70841C52.3675 8.58561 52.3675 8.58561 52.3069 8.46033C51.8871 7.62668 51.3525 6.91346 50.7423 6.21085C50.6666 6.12338 50.5909 6.03592 50.5129 5.9458C48.7131 4.01719 46.0412 2.9272 43.4322 2.80875C40.6568 2.8327 38.1548 3.75224 36.0938 5.62491Z" fill="#155DFC"/>
<path d="M20.625 1.40619C20.7005 1.43193 20.776 1.45766 20.8538 1.48418C23.8806 2.54021 26.4738 4.73037 27.8943 7.61896C28.5432 9.00888 29.0755 10.5162 29.0782 12.0633C29.0788 12.2007 29.0793 12.3381 29.0798 12.4797C29.0798 12.6296 29.0798 12.7795 29.0797 12.9339C29.0801 13.0956 29.0806 13.2573 29.0811 13.4189C29.0822 13.8627 29.0827 14.3064 29.083 14.7501C29.0834 15.229 29.0846 15.7078 29.0856 16.1867C29.0879 17.3429 29.0891 18.4991 29.0901 19.6553C29.0906 20.2004 29.0913 20.7454 29.0919 21.2905C29.0939 23.1034 29.0956 24.9164 29.0964 26.7293C29.0966 27.1995 29.0969 27.6698 29.0971 28.14C29.0971 28.2569 29.0972 28.3737 29.0973 28.4941C29.0982 30.3858 29.1012 32.2775 29.105 34.1691C29.1089 36.1131 29.111 38.0571 29.1114 40.0011C29.1116 41.0919 29.1126 42.1826 29.1156 43.2733C29.1182 44.2025 29.1191 45.1317 29.118 46.061C29.1175 46.5345 29.1177 47.0079 29.12 47.4814C29.1395 51.7714 29.1395 51.7714 28.1543 53.5912C28.1139 53.6684 28.0736 53.7455 28.032 53.825C26.7455 56.2231 24.8046 57.7972 22.2656 58.7109C22.1552 58.7508 22.0448 58.7906 21.931 58.8317C19.428 59.5613 16.6335 59.1302 14.3779 57.9061C12.0248 56.5734 10.4481 54.5476 9.63687 51.9819C9.2879 50.6932 9.32112 49.4076 9.31915 48.0816C9.31747 47.8228 9.31562 47.564 9.31362 47.3052C9.30874 46.6259 9.3058 45.9466 9.30337 45.2673C9.29916 44.1855 9.29189 43.1038 9.28479 42.022C9.28261 41.6494 9.2812 41.2769 9.27994 40.9043C9.26751 37.6282 9.26751 37.6282 9.00147 34.3652C8.9867 34.2419 8.97193 34.1187 8.95672 33.9917C8.54817 30.8091 7.70907 27.7281 6.64871 24.7074C5.77739 22.2246 5.13379 19.7249 4.80469 17.1093C4.78825 16.9887 4.78825 16.9887 4.77147 16.8656C4.6575 15.9159 4.65736 14.961 4.65291 14.0058C4.65157 13.8058 4.64918 13.6057 4.6457 13.4057C4.58615 9.96289 5.76605 6.99156 8.13684 4.47415C11.2603 1.25141 16.3448 -0.0614408 20.625 1.40619ZM9.84375 5.62494C9.76973 5.68944 9.69571 5.75394 9.61945 5.8204C7.87041 7.43766 6.73226 9.97349 6.62356 12.3429C6.61307 12.7698 6.61506 13.196 6.62109 13.623C6.62174 13.7139 6.62239 13.8048 6.62306 13.8984C6.63767 15.6596 6.81181 17.3712 7.14844 19.1015C7.17044 19.2179 7.19244 19.3342 7.2151 19.4542C7.55739 21.2022 8.12203 22.8644 8.70778 24.5421C10.3478 29.2402 11.1843 33.9523 11.1845 38.9332C11.1859 39.2263 11.1875 39.5195 11.1892 39.8126C11.1934 40.5742 11.1958 41.3357 11.1976 42.0973C11.2006 43.32 11.2052 44.5427 11.2119 45.7654C11.2138 46.1879 11.2143 46.6103 11.2146 47.0327C11.2241 50.0674 11.4951 52.6093 13.667 54.9279C15.1889 56.3898 17.2332 57.1849 19.3359 57.1874C21.6487 57.0493 23.5912 56.1621 25.1953 54.4921C26.8728 52.4685 27.2066 50.2506 27.2032 47.7076C27.2036 47.4871 27.2036 47.4871 27.204 47.2621C27.2047 46.8576 27.2047 46.4531 27.2045 46.0485C27.2045 45.6108 27.2052 45.1731 27.2057 44.7354C27.2067 43.8791 27.207 43.0228 27.2071 42.1665C27.2071 41.4698 27.2074 40.7731 27.2077 40.0763C27.2088 38.0973 27.2093 36.1183 27.2092 34.1392C27.2092 34.0327 27.2092 33.9262 27.2092 33.8164C27.2092 33.6564 27.2092 33.6564 27.2092 33.4932C27.2092 31.7662 27.2103 30.0391 27.2119 28.3121C27.2136 26.5352 27.2144 24.7583 27.2143 22.9814C27.2143 21.9852 27.2146 20.9891 27.2159 19.993C27.2169 19.1446 27.2172 18.2962 27.2164 17.4478C27.216 17.0158 27.216 16.5838 27.217 16.1518C27.2254 12.3659 27.0279 9.01337 24.375 6.09369C24.3105 6.01967 24.246 5.94565 24.1795 5.86938C22.425 3.97191 19.7266 2.9243 17.1822 2.80878C14.4068 2.83273 11.9047 3.75226 9.84375 5.62494Z" fill="#155DFC"/>
<path d="M20.8594 5.74219C21.9893 5.88468 23.0304 7.07834 23.7167 7.93716C23.9347 8.24578 24.0234 8.4041 24.0234 8.78906C23.7717 8.96988 23.5291 9.12608 23.2617 9.27979C23.1891 9.32291 23.1164 9.36604 23.0415 9.41048C22.8617 9.51699 22.6809 9.62193 22.5 9.72656C22.1991 9.4311 21.9196 9.14798 21.665 8.81104C21.2246 8.26511 20.6113 7.89485 20.0391 7.5C20.1196 7.0716 20.3033 6.73609 20.5151 6.35742C20.6114 6.1843 20.6114 6.1843 20.7097 6.00769C20.7838 5.87627 20.7838 5.87627 20.8594 5.74219Z" fill="#6A00FF"/>
<path d="M23.3204 49.9219C24.0135 49.9749 24.6507 50.0576 25.3126 50.2734C25.0518 51.8382 24.2983 52.924 23.2032 54.0234C22.7131 53.967 22.5285 53.7162 22.2291 53.3423C22.1449 53.24 22.0608 53.1377 21.9741 53.0324C21.7969 52.7344 21.7969 52.7344 21.8047 52.4876C21.9341 52.225 22.0871 52.0615 22.295 51.8555C22.8166 51.2876 23.0609 50.6393 23.3204 49.9219Z" fill="#6A00FF"/>
<path d="M43.5938 52.1484C44.0618 52.1931 44.3015 52.4502 44.6265 52.771C44.7215 52.8624 44.8165 52.9538 44.9144 53.0479C45.1172 53.3203 45.1172 53.3203 45.1144 53.5675C44.694 54.3815 43.4604 54.88 42.6366 55.1665C42.1239 55.3083 41.6586 55.3344 41.1328 55.3125C40.9937 54.8953 41.0043 54.558 41.0083 54.1187C41.0094 53.9696 41.0104 53.8205 41.0115 53.6668C41.0129 53.5525 41.0142 53.4381 41.0156 53.3203C41.1049 53.3031 41.1942 53.2859 41.2862 53.2681C42.1696 53.0762 42.941 52.8012 43.5938 52.1484Z" fill="#6A00FF"/>
<path d="M36.6797 49.9219C36.7111 50.0112 36.7425 50.1004 36.7749 50.1924C37.0798 50.9959 37.4085 51.5591 38.0301 52.1558C38.2031 52.3828 38.2031 52.3828 38.2008 52.608C38.0463 52.9356 37.8408 53.1882 37.6099 53.4668C37.5239 53.5713 37.438 53.6759 37.3494 53.7836C37.2831 53.8627 37.2168 53.9419 37.1484 54.0234C36.5476 53.9432 36.2677 53.517 35.8891 53.0804C35.2401 52.2301 34.8625 51.3236 34.6875 50.2734C34.9315 50.2142 35.1757 50.1558 35.4199 50.0977C35.5559 50.065 35.6918 50.0324 35.8319 49.9988C36.2109 49.9219 36.2109 49.9219 36.6797 49.9219Z" fill="#6A00FF"/>
<path d="M39.1406 5.74219C39.3585 6.03333 39.3585 6.03333 39.5801 6.41602C39.6916 6.60363 39.6916 6.60363 39.8053 6.79504C39.9609 7.14844 39.9609 7.14844 39.9632 7.40204C39.7883 7.71708 39.5516 7.8473 39.2505 8.04199C38.5683 8.51403 38.0973 9.0553 37.6172 9.72656C37.4096 9.61446 37.2021 9.50211 36.9946 9.38965C36.8791 9.32711 36.7635 9.26457 36.6444 9.20013C36.3281 9.02344 36.3281 9.02344 35.9766 8.78906C36.0271 8.22515 36.2953 7.91621 36.6724 7.52197C36.7295 7.4609 36.7867 7.39982 36.8456 7.33689C38.3691 5.74219 38.3691 5.74219 39.1406 5.74219Z" fill="#6A00FF"/>
<path d="M16.3077 52.163C16.5233 52.2656 16.5233 52.2656 16.7724 52.478C17.4279 52.9767 18.1757 53.2037 18.9843 53.3202C18.9874 53.5864 18.9897 53.8525 18.9916 54.1186C18.9929 54.2668 18.9943 54.415 18.9957 54.5677C18.9843 54.9609 18.9843 54.9609 18.8671 55.3124C17.4238 55.4467 16.1159 54.715 15.0155 53.8517C14.8827 53.6718 14.8827 53.6718 14.8877 53.4507C15.0395 53.1156 15.2472 52.9005 15.5053 52.6391C15.6424 52.4966 15.6424 52.4966 15.7822 52.3512C16.0546 52.1484 16.0546 52.1484 16.3077 52.163Z" fill="#6A00FF"/>
<path d="M43.0078 4.68747C44.5286 4.61912 45.8938 4.86339 47.2266 5.62497C47.0455 6.26708 46.7396 6.81024 46.4062 7.38278C45.9516 7.30195 45.5263 7.17525 45.0879 7.03122C44.4634 6.83488 43.8926 6.73297 43.2422 6.67965C43.1648 6.64098 43.0875 6.60231 43.0078 6.56247C43.0078 5.94372 43.0078 5.32497 43.0078 4.68747Z" fill="#6A00FF"/>
<path d="M16.9922 4.6876C16.9922 5.30635 16.9922 5.9251 16.9922 6.5626C16.6847 6.71633 16.4033 6.73158 16.062 6.77501C15.403 6.87083 14.8239 7.03828 14.2081 7.28862C13.9453 7.38292 13.9453 7.38292 13.5938 7.38292C13.4564 7.13421 13.3198 6.88515 13.1836 6.63585C13.1445 6.56515 13.1053 6.49445 13.065 6.42161C12.7734 5.88603 12.7734 5.88603 12.7734 5.6251C14.192 4.91863 15.4053 4.63586 16.9922 4.6876Z" fill="#6A00FF"/>
<path d="M12.1876 23.4374C12.3395 23.7211 12.3395 23.7211 12.4682 24.0947C12.5148 24.2292 12.5614 24.3636 12.6094 24.5021C12.6563 24.6438 12.7032 24.7855 12.7515 24.9315C12.8007 25.0714 12.8499 25.2113 12.9005 25.3554C13.289 26.4997 13.289 26.4997 13.1251 27.0702C12.8762 27.1487 12.6271 27.2268 12.378 27.3046C12.2393 27.3481 12.1007 27.3916 11.9578 27.4364C11.6016 27.539 11.6016 27.539 11.3673 27.539C11.1966 27.0808 11.0276 26.6221 10.8601 26.1628C10.803 26.0067 10.7453 25.8507 10.6872 25.695C10.6037 25.4708 10.5219 25.2461 10.4403 25.0213C10.3906 24.8862 10.3409 24.7512 10.2897 24.6121C10.198 24.2675 10.1613 24.1086 10.3126 23.789C10.6152 23.6365 10.6152 23.6365 10.9937 23.518C11.1798 23.457 11.1798 23.457 11.3696 23.3948C11.7247 23.319 11.8624 23.2899 12.1876 23.4374Z" fill="#6A00FF"/>
<path d="M47.9297 23.3203C48.5964 23.4062 49.1994 23.6229 49.8047 23.9062C49.725 24.3608 49.5976 24.7805 49.4453 25.2159C49.3981 25.3515 49.3509 25.4871 49.3023 25.6268C49.2283 25.8374 49.2283 25.8374 49.1528 26.0522C49.1031 26.1949 49.0533 26.3376 49.002 26.4846C48.8793 26.8362 48.7562 27.1877 48.6328 27.5391C48.408 27.486 48.1835 27.4322 47.959 27.3779C47.7714 27.3331 47.7714 27.3331 47.58 27.2873C47.2783 27.2021 47.0302 27.1052 46.7578 26.9531C46.8285 26.173 47.0817 25.476 47.3438 24.7412C47.4086 24.5554 47.4086 24.5554 47.4747 24.3658C47.7957 23.4543 47.7957 23.4543 47.9297 23.3203Z" fill="#6A00FF"/>
<path d="M10.547 16.172C10.837 18.0282 10.837 18.0282 11.1329 19.922C9.60948 20.2735 9.60948 20.2735 9.14073 20.2735C8.82481 19.0057 8.52904 17.7196 8.55479 16.4064C8.81274 16.2774 9.00142 16.2539 9.28721 16.2233C9.37483 16.2134 9.46244 16.2036 9.55271 16.1935C9.88331 16.1691 10.2155 16.172 10.547 16.172Z" fill="#6A00FF"/>
<path d="M50.3906 8.55469C51.6605 11.1014 51.6605 11.1014 51.5625 12.5391C51.2033 12.7187 50.828 12.6683 50.4346 12.6636C50.3518 12.663 50.269 12.6625 50.1837 12.662C49.9792 12.6606 49.7748 12.6585 49.5703 12.6562C49.5419 12.5318 49.5135 12.4073 49.4843 12.2791C49.2503 11.2193 49.2503 11.2193 48.8306 10.2246C48.6328 9.84375 48.6328 9.84375 48.6397 9.61304C48.8038 9.25895 49.0509 9.13758 49.3799 8.93555C49.4944 8.86364 49.6089 8.79174 49.7269 8.71765C50.0391 8.55469 50.0391 8.55469 50.3906 8.55469Z" fill="#6A00FF"/>
<path d="M9.60927 8.55469C10.1112 8.6189 10.4122 8.79191 10.8178 9.08936C10.9212 9.16443 11.0247 9.23951 11.1313 9.31686C11.2091 9.37472 11.2869 9.43258 11.3671 9.49219C11.2777 9.90798 11.124 10.2852 10.9643 10.6787C10.7088 11.3321 10.5344 11.9634 10.4296 12.6562C10.1415 12.6594 9.85343 12.6617 9.56533 12.6636C9.48345 12.6646 9.40158 12.6655 9.31722 12.6665C8.69832 12.6695 8.69832 12.6695 8.4374 12.5391C8.38921 11.0915 8.9139 9.79941 9.60927 8.55469Z" fill="#6A00FF"/>
<path d="M14.2968 30.5859C14.3764 31.0325 14.454 31.4793 14.5312 31.9263C14.5535 32.0516 14.5759 32.1769 14.5989 32.306C14.7235 33.0336 14.7904 33.715 14.7656 34.4531C14.4204 34.6257 14.087 34.6163 13.7035 34.6436C13.4804 34.6603 13.4804 34.6603 13.2526 34.6774C13.0734 34.6824 13.0734 34.6824 12.8906 34.6875C12.6861 34.4831 12.7023 34.1912 12.6594 33.913C12.6282 33.7113 12.6282 33.7113 12.5964 33.5056C12.5751 33.3639 12.5537 33.2222 12.5317 33.0762C12.5098 32.9363 12.488 32.7964 12.4655 32.6523C12.2905 31.5061 12.2905 31.5061 12.3046 30.9375C12.5486 30.8783 12.7928 30.8198 13.037 30.7617C13.173 30.7291 13.309 30.6965 13.449 30.6628C13.8281 30.5859 13.8281 30.5859 14.2968 30.5859Z" fill="#6A00FF"/>
<path d="M49.4531 16.1719C51.2109 16.2891 51.2109 16.2891 51.4453 16.4062C51.3971 17.726 51.1369 18.986 50.8594 20.2734C50.1736 20.1986 49.5477 20.0731 48.8672 19.9219C49.0605 18.6844 49.2539 17.4469 49.4531 16.1719Z" fill="#6A00FF"/>
<path d="M45.7032 30.5859C46.3889 30.6547 47.03 30.756 47.6954 30.9375C47.6197 31.7668 47.516 32.5893 47.3951 33.4131C47.3788 33.5252 47.3626 33.6373 47.3458 33.7527C47.3063 34.0253 47.2666 34.2978 47.2266 34.5703C46.7481 34.6972 46.3853 34.6681 45.9009 34.5776C45.7757 34.5548 45.6505 34.532 45.5214 34.5085C45.3794 34.4811 45.3794 34.4811 45.2344 34.4531C45.2052 33.5848 45.3164 32.7801 45.4688 31.9263C45.4911 31.7969 45.5135 31.6675 45.5365 31.5342C45.5913 31.218 45.6469 30.9019 45.7032 30.5859Z" fill="#6A00FF"/>
<path d="M44.8829 45.7031C45.5404 45.7031 46.1978 45.7031 46.8751 45.7031C46.8751 46.9793 46.8751 48.2555 46.8751 49.5703C46.2564 49.5703 45.6376 49.5703 45.0001 49.5703C44.8829 49.4531 44.8829 49.4531 44.8696 49.0956C44.8696 48.9375 44.8703 48.7794 44.8715 48.6214C44.8717 48.5383 44.8718 48.4552 44.872 48.3696C44.8726 48.1034 44.8741 47.8371 44.8756 47.5708C44.8762 47.3907 44.8767 47.2105 44.8772 47.0304C44.8784 46.588 44.8807 46.1456 44.8829 45.7031Z" fill="#6A00FF"/>
<path d="M45 38.2031C45.6574 38.2031 46.3148 38.2031 46.9922 38.2031C46.9949 38.6785 46.9972 39.1539 46.9986 39.6293C46.9992 39.791 47 39.9526 47.001 40.1142C47.0025 40.3469 47.0031 40.5797 47.0036 40.8124C47.0046 41.0223 47.0046 41.0223 47.0055 41.2364C46.9922 41.6016 46.9922 41.6016 46.875 42.0703C46.2563 42.0703 45.6375 42.0703 45 42.0703C45 40.7941 45 39.518 45 38.2031Z" fill="#6A00FF"/>
<path d="M25.3125 12.539C25.4281 12.9251 25.4448 13.2757 25.4453 13.6779C25.4455 13.8707 25.4455 13.8707 25.4457 14.0675C25.4453 14.2012 25.4448 14.3348 25.4443 14.4726C25.445 14.6731 25.445 14.6731 25.4457 14.8777C25.4456 15.0063 25.4454 15.1348 25.4453 15.2673C25.4451 15.3846 25.445 15.5019 25.4449 15.6227C25.4297 15.9374 25.4297 15.9374 25.3125 16.4062C24.6938 16.4062 24.075 16.4062 23.4375 16.4062C23.3988 15.1687 23.3602 13.9312 23.3203 12.6562C24.0239 12.578 24.6217 12.5264 25.3125 12.539Z" fill="#6A00FF"/>
<path d="M13.125 45.7031C13.7438 45.7031 14.3625 45.7031 15 45.7031C15.0194 46.235 15.0384 46.7669 15.0565 47.2989C15.0628 47.48 15.0693 47.661 15.076 47.8421C15.0855 48.1018 15.0943 48.3616 15.103 48.6214C15.1062 48.7028 15.1093 48.7842 15.1126 48.8681C15.1187 49.063 15.1186 49.2581 15.1172 49.4531C15.0785 49.4918 15.0398 49.5305 15 49.5703C14.3813 49.5703 13.7625 49.5703 13.125 49.5703C13.125 48.2941 13.125 47.018 13.125 45.7031Z" fill="#6A00FF"/>
<path d="M34.6875 42.5391C35.3063 42.5391 35.925 42.5391 36.5625 42.5391C36.5625 43.8152 36.5625 45.0914 36.5625 46.4062C35.9438 46.4062 35.325 46.4062 34.6875 46.4062C34.6875 45.1301 34.6875 43.8539 34.6875 42.5391Z" fill="#6A00FF"/>
<path d="M23.4375 42.5391C24.0563 42.5391 24.675 42.5391 25.3125 42.5391C25.3125 43.8152 25.3125 45.0914 25.3125 46.4062C24.6938 46.4062 24.075 46.4062 23.4375 46.4062C23.4375 45.1301 23.4375 43.8539 23.4375 42.5391Z" fill="#6A00FF"/>
<path d="M13.125 38.2031C13.7438 38.2031 14.3625 38.2031 15 38.2031C15 39.4793 15 40.7555 15 42.0703C14.3813 42.0703 13.7625 42.0703 13.125 42.0703C13.125 40.7941 13.125 39.518 13.125 38.2031Z" fill="#6A00FF"/>
<path d="M34.6875 35.0391C35.3063 35.0391 35.925 35.0391 36.5625 35.0391C36.5625 36.3152 36.5625 37.5914 36.5625 38.9062C35.9438 38.9062 35.325 38.9062 34.6875 38.9062C34.6875 37.6301 34.6875 36.3539 34.6875 35.0391Z" fill="#6A00FF"/>
<path d="M23.4375 35.0391C24.0563 35.0391 24.675 35.0391 25.3125 35.0391C25.3125 36.3152 25.3125 37.5914 25.3125 38.9062C24.6938 38.9062 24.075 38.9062 23.4375 38.9062C23.4375 37.6301 23.4375 36.3539 23.4375 35.0391Z" fill="#6A00FF"/>
<path d="M34.6875 27.5391C35.3063 27.5391 35.925 27.5391 36.5625 27.5391C36.5625 28.8152 36.5625 30.0914 36.5625 31.4062C35.9438 31.4062 35.325 31.4062 34.6875 31.4062C34.6875 30.1301 34.6875 28.8539 34.6875 27.5391Z" fill="#6A00FF"/>
<path d="M23.4375 27.5391C24.0563 27.5391 24.675 27.5391 25.3125 27.5391C25.3125 28.8152 25.3125 30.0914 25.3125 31.4062C24.6938 31.4062 24.075 31.4062 23.4375 31.4062C23.4375 30.1301 23.4375 28.8539 23.4375 27.5391Z" fill="#6A00FF"/>
<path d="M34.6875 20.0391C35.3063 20.0391 35.925 20.0391 36.5625 20.0391C36.5625 21.3152 36.5625 22.5914 36.5625 23.9062C35.9438 23.9062 35.325 23.9062 34.6875 23.9062C34.6875 22.6301 34.6875 21.3539 34.6875 20.0391Z" fill="#6A00FF"/>
<path d="M23.4375 20.0391C24.0563 20.0391 24.675 20.0391 25.3125 20.0391C25.3125 21.3152 25.3125 22.5914 25.3125 23.9062C24.6938 23.9062 24.075 23.9062 23.4375 23.9062C23.4375 22.6301 23.4375 21.3539 23.4375 20.0391Z" fill="#6A00FF"/>
<path d="M34.6875 12.5391C35.7422 12.5391 35.7422 12.5391 36.6797 12.6562C36.641 13.8938 36.6023 15.1312 36.5625 16.4062C35.9438 16.4062 35.325 16.4062 34.6875 16.4062C34.6875 15.1301 34.6875 13.8539 34.6875 12.5391Z" fill="#6A00FF"/>
</svg>
