<svg width="60" height="60" viewBox="0 0 60 60" fill="none" xmlns="http://www.w3.org/2000/svg">
<g clip-path="url(#clip0_26_826)">
<path d="M2.88927 -0.0341048C3.0406 -0.0352855 3.0406 -0.0352855 3.19498 -0.0364902C3.52801 -0.0387135 3.86102 -0.0391743 4.19407 -0.0394263C4.4266 -0.0401799 4.65914 -0.0409684 4.89168 -0.0417902C5.3793 -0.0431932 5.86691 -0.0436278 6.35454 -0.0434889C6.97671 -0.0434652 7.59882 -0.0466585 8.22097 -0.0507012C8.70155 -0.0533193 9.18211 -0.0537821 9.66269 -0.0536585C9.89189 -0.0539336 10.1211 -0.0549617 10.3503 -0.0567833C12.0451 -0.0689878 13.3448 0.00211801 14.6215 1.23819C15.6517 2.36227 15.8565 3.32558 15.847 4.81467C15.847 4.95538 15.847 5.09609 15.8471 5.24106C15.8469 5.62477 15.8458 6.00846 15.8441 6.39217C15.8426 6.79396 15.8425 7.19575 15.8422 7.59755C15.8415 8.35744 15.8396 9.11734 15.8372 9.87723C15.8346 10.7427 15.8333 11.6083 15.8321 12.4738C15.8297 14.2533 15.8255 16.0329 15.8203 17.8124C16.4004 17.7738 16.9805 17.7351 17.5782 17.6953C17.6338 17.5067 17.6893 17.3182 17.7466 17.124C18.1639 15.9823 19.0683 15.0697 20.1563 14.5312C20.8465 14.2881 21.4722 14.2621 22.2003 14.2628C22.3207 14.262 22.441 14.2612 22.565 14.2604C22.9614 14.2582 23.3579 14.2577 23.7543 14.2574C24.0312 14.2567 24.308 14.2559 24.5849 14.2551C25.1649 14.2537 25.7449 14.2532 26.3249 14.2534C27.0659 14.2534 27.8067 14.2502 28.5476 14.2462C29.1195 14.2436 29.6913 14.2431 30.2632 14.2432C30.5362 14.2429 30.8092 14.2419 31.0823 14.2401C31.4653 14.2378 31.8482 14.2385 32.2313 14.2399C32.3426 14.2386 32.4539 14.2372 32.5686 14.2359C33.8368 14.2476 34.8088 14.6574 35.7157 15.5355C36.2298 16.0966 36.6268 16.6395 36.8189 17.3803C36.8863 17.6178 36.8863 17.6178 37.0313 17.8124C37.3376 17.9566 37.6467 18.0462 37.9706 18.1439C38.9397 18.5244 39.7393 19.4693 40.1954 20.3906C40.4651 21.1304 40.4614 21.8237 40.4563 22.6057C40.4564 22.7441 40.4564 22.8825 40.4564 23.0251C40.4563 23.4025 40.4551 23.7799 40.4535 24.1573C40.452 24.5526 40.4519 24.9478 40.4516 25.343C40.4509 26.0905 40.449 26.8379 40.4466 27.5853C40.444 28.4367 40.4427 29.288 40.4415 30.1394C40.4391 31.8898 40.435 33.6402 40.4297 35.3906C40.5608 35.3875 40.6919 35.3844 40.827 35.3813C41.3196 35.3706 41.8123 35.3639 42.3051 35.3584C42.5172 35.3555 42.7293 35.3515 42.9413 35.3464C44.4775 35.3103 45.7097 35.3962 46.9703 36.3793C48.226 37.6028 48.507 39.3327 48.8228 40.9799C48.8687 41.2103 48.9149 41.4406 48.9612 41.671C49.0814 42.2718 49.1987 42.8732 49.3154 43.4748C49.4115 43.9672 49.5098 44.4592 49.6081 44.9512C49.7255 45.5389 49.8419 46.1268 49.9581 46.7147C49.9802 46.8265 50.0023 46.9382 50.0251 47.0534C50.0873 47.3687 50.1488 47.6842 50.21 47.9997C50.2285 48.093 50.2469 48.1863 50.2659 48.2823C50.3431 48.6831 50.3907 49.0432 50.3907 49.4531C50.4855 49.452 50.5803 49.451 50.678 49.4499C51.5744 49.4405 52.4709 49.4334 53.3674 49.4288C53.8282 49.4263 54.289 49.423 54.7498 49.4177C55.1951 49.4126 55.6403 49.4098 56.0856 49.4086C56.2549 49.4077 56.4242 49.4061 56.5935 49.4035C57.6472 49.3883 58.4654 49.4066 59.2997 50.1264C59.3519 50.1918 59.4042 50.2573 59.458 50.3246C59.5121 50.3898 59.5662 50.4549 59.6219 50.5219C60.0981 51.2513 60.0808 52.0069 60 52.8515C59.8038 53.5776 59.3334 54.0858 58.711 54.4921C58.2292 54.7265 57.8335 54.7567 57.3003 54.7587C57.1793 54.7596 57.1793 54.7596 57.0559 54.7605C56.7906 54.7621 56.5254 54.762 56.2601 54.7618C56.0752 54.7622 55.8904 54.7627 55.7055 54.7633C55.3188 54.7641 54.9321 54.7641 54.5453 54.7635C54.0494 54.7628 53.5536 54.7648 53.0577 54.7675C52.6763 54.7692 52.2949 54.7694 51.9135 54.769C51.7306 54.769 51.5477 54.7697 51.3649 54.7708C51.1096 54.7723 50.8544 54.7715 50.5991 54.7701C50.4539 54.7702 50.3086 54.7703 50.1589 54.7704C49.8047 54.7265 49.8047 54.7265 49.5892 54.5856C49.4159 54.3172 49.3593 54.0866 49.2954 53.7732C49.2693 53.6484 49.2431 53.5236 49.2162 53.395C49.189 53.258 49.1617 53.1209 49.1336 52.9797C49.1039 52.8353 49.0741 52.691 49.0434 52.5422C48.9613 52.1438 48.8809 51.745 48.8009 51.3461C48.7323 51.0054 48.6626 50.6648 48.593 50.3243C48.3917 49.3391 48.1932 48.3532 47.996 47.3672C47.9027 46.9006 47.8088 46.4341 47.7147 45.9677C47.6414 45.6039 47.5685 45.2399 47.4958 44.876C47.4612 44.7036 47.4266 44.5313 47.3918 44.359C47.3437 44.121 47.2962 43.8829 47.2489 43.6447C47.2218 43.5099 47.1948 43.3752 47.167 43.2363C47.1094 42.8906 47.1094 42.8906 47.1094 42.4218C44.9051 42.4218 42.7008 42.4218 40.4297 42.4218C40.4297 43.466 40.4297 44.5101 40.4297 45.5859C40.0782 45.9374 40.0782 45.9374 39.8255 45.9841C39.7348 45.9832 39.6442 45.9823 39.5508 45.9814C39.4602 45.9823 39.3695 45.9832 39.2762 45.9841C38.9495 45.9238 38.8672 45.8548 38.6719 45.5859C38.6296 45.2233 38.6296 45.2233 38.632 44.7714C38.632 44.6891 38.6319 44.6067 38.6318 44.5219C38.6321 44.2498 38.6348 43.9779 38.6376 43.7058C38.6382 43.5172 38.6387 43.3285 38.6391 43.1398C38.6404 42.6434 38.6439 42.1469 38.6478 41.6504C38.652 41.0547 38.6536 40.459 38.6557 39.8632C38.6591 38.9582 38.6658 38.0534 38.6719 37.1484C36.5836 37.1484 34.4953 37.1484 32.3438 37.1484C32.5371 37.7285 32.7305 38.3085 32.9297 38.9062C33.2704 40.3661 33.4266 41.7328 33.4278 43.2275C33.4278 43.3144 33.4279 43.4014 33.428 43.491C33.4262 44.7723 33.3723 45.9808 33.0469 47.2265C33.0205 47.3401 33.0205 47.3401 32.9935 47.456C32.4779 49.6694 31.4287 51.791 30 53.5546C29.9493 53.6189 29.8986 53.6831 29.8463 53.7492C27.0607 57.2644 23.0786 59.4342 18.6328 59.9999C18.0131 60.028 17.3928 60.0287 16.7725 60.0292C16.6855 60.0293 16.5986 60.0294 16.509 60.0295C15.2276 60.0276 14.0192 59.9737 12.7735 59.6484C12.6978 59.6308 12.622 59.6131 12.544 59.595C8.47062 58.6461 4.81077 55.9442 2.57084 52.434C0.837937 49.6149 -0.0538604 46.6441 -0.0365857 43.33C-0.0362653 43.2022 -0.0362653 43.2022 -0.0359384 43.0718C-0.0305937 41.8051 0.0300103 40.6062 0.351598 39.3749C0.369216 39.2992 0.386833 39.2235 0.404985 39.1455C1.35387 35.0721 4.05576 31.4122 7.56595 29.1723C9.54541 27.9555 11.6454 27.0951 13.9453 26.7187C13.9508 23.8338 13.955 20.949 13.9575 18.0641C13.9587 16.7246 13.9603 15.3851 13.963 14.0455C13.9654 12.8779 13.9669 11.7102 13.9674 10.5425C13.9677 9.92435 13.9684 9.30622 13.9701 8.68808C13.9717 8.10587 13.9722 7.52367 13.9719 6.94145C13.9719 6.72817 13.9724 6.51488 13.9733 6.3016C13.9745 6.00945 13.9742 5.71734 13.9735 5.42519C13.9746 5.29984 13.9746 5.29984 13.9756 5.17197C13.9702 4.25323 13.8349 3.42334 13.2422 2.69525C12.2921 1.84014 11.3201 1.85512 10.0928 1.80902C9.96743 1.80396 9.84205 1.7989 9.71287 1.79369C9.40496 1.78132 9.09703 1.76948 8.7891 1.75775C8.7891 2.33783 8.7891 2.91791 8.7891 3.51557C9.01343 3.51149 9.23775 3.50741 9.46888 3.50321C9.7623 3.49991 10.0557 3.49671 10.3492 3.49359C10.4971 3.49065 10.6451 3.4877 10.7975 3.48467C10.9392 3.48353 11.0808 3.4824 11.2267 3.48123C11.3574 3.47939 11.4881 3.47755 11.6228 3.47566C11.9532 3.51557 11.9532 3.51557 12.1467 3.64079C12.3832 3.97959 12.354 4.31738 12.3509 4.71595C12.352 4.84655 12.352 4.84655 12.3531 4.97978C12.3551 5.27236 12.3545 5.56487 12.3539 5.85746C12.3548 6.06687 12.3558 6.27629 12.3569 6.48571C12.3595 7.05518 12.3599 7.62463 12.3597 8.19411C12.3597 8.66911 12.3607 9.14411 12.3616 9.61911C12.3639 10.7395 12.3642 11.8599 12.3634 12.9803C12.3627 14.137 12.3653 15.2937 12.3697 16.4505C12.3733 17.4428 12.3746 18.4351 12.3742 19.4275C12.3739 20.0205 12.3746 20.6135 12.3774 21.2066C12.38 21.7642 12.3798 22.3217 12.3774 22.8793C12.377 23.0842 12.3776 23.289 12.3793 23.4938C12.3814 23.7732 12.3799 24.0522 12.3776 24.3316C12.379 24.4129 12.3805 24.4943 12.382 24.5782C12.3741 25.0036 12.329 25.1693 12.0338 25.4841C11.7188 25.664 11.7188 25.664 11.294 25.6567C10.7685 25.5107 10.7685 25.5107 10.5469 25.1953C10.5037 24.8409 10.5037 24.8409 10.5046 24.3967C10.5043 24.315 10.504 24.2334 10.5037 24.1492C10.5031 23.875 10.5051 23.6008 10.507 23.3266C10.5071 23.1303 10.507 22.9339 10.5068 22.7376C10.5067 22.204 10.5088 21.6704 10.5113 21.1368C10.5135 20.5794 10.5137 20.022 10.5141 19.4646C10.5152 18.4087 10.5181 17.3529 10.5216 16.2971C10.5255 15.0952 10.5275 13.8933 10.5292 12.6914C10.5329 10.2187 10.5391 7.74604 10.5469 5.27338C10.3871 5.27494 10.3871 5.27494 10.224 5.27653C9.21716 5.28595 8.21034 5.29307 7.20347 5.29767C6.68589 5.30011 6.16834 5.30341 5.65078 5.30874C5.15081 5.31385 4.65087 5.31664 4.15087 5.31785C3.96063 5.31872 3.77038 5.3204 3.58015 5.32294C1.55579 5.34888 1.55579 5.34888 0.700414 4.59589C0.648146 4.52942 0.595879 4.46295 0.542028 4.39447C0.487947 4.32801 0.433867 4.26154 0.378148 4.19306C-0.123239 3.46493 -0.0764767 2.73885 3.54126e-05 1.87494C0.190989 1.14772 0.667442 0.640138 1.2891 0.234316C1.81287 -0.0326761 2.31404 -0.0347514 2.88927 -0.0341048ZM1.87504 2.2265C1.81549 2.77519 1.81549 2.77519 2.02152 3.26654C2.5266 3.59124 3.11002 3.5308 3.68961 3.52701C3.78519 3.52684 3.88077 3.52668 3.97924 3.52651C4.2837 3.52585 4.58815 3.52438 4.89261 3.52289C5.09937 3.5223 5.30613 3.52177 5.51288 3.52129C6.01902 3.52 6.52515 3.51798 7.03129 3.51557C7.03129 2.93549 7.03129 2.35541 7.03129 1.75775C6.42451 1.75195 5.81775 1.7477 5.21096 1.74488C5.00466 1.7437 4.79836 1.7421 4.59206 1.74007C4.29506 1.73722 3.99807 1.7359 3.70105 1.73487C3.60924 1.73366 3.51742 1.73245 3.42281 1.7312C2.79134 1.73107 2.33106 1.77048 1.87504 2.2265ZM19.9439 17.1166C19.6733 17.4426 19.6733 17.4426 19.5703 17.8124C24.6364 17.8124 29.7024 17.8124 34.9219 17.8124C34.619 17.1695 34.619 17.1695 34.1675 16.7285C34.1 16.6723 34.0325 16.6161 33.9629 16.5582C33.1985 16.0124 32.3337 16.0371 31.4272 16.0376C31.327 16.0372 31.2269 16.0368 31.1237 16.0364C30.7946 16.0353 30.4655 16.0351 30.1364 16.0349C29.9063 16.0346 29.6762 16.0342 29.446 16.0338C28.9644 16.0331 28.4827 16.0328 28.001 16.0329C27.3856 16.0329 26.7703 16.0313 26.155 16.0293C25.6799 16.028 25.2047 16.0278 24.7296 16.0278C24.5028 16.0277 24.276 16.0272 24.0493 16.0263C23.7313 16.0251 23.4134 16.0255 23.0954 16.0262C23.003 16.0255 22.9105 16.0248 22.8153 16.0242C21.6751 16.0305 20.7222 16.2231 19.9439 17.1166ZM15.8203 19.5703C15.8203 20.7304 15.8203 21.8906 15.8203 23.0859C23.3614 23.0859 30.9024 23.0859 38.6719 23.0859C38.58 21.3588 38.58 21.3588 37.6099 20.1708C36.8452 19.6176 36.1784 19.5555 35.2396 19.5562C35.1145 19.556 35.1145 19.556 34.9869 19.5559C34.7089 19.5557 34.4309 19.5563 34.1529 19.557C33.9531 19.557 33.7532 19.557 33.5534 19.5569C33.0118 19.5569 32.4703 19.5576 31.9287 19.5584C31.3624 19.5591 30.796 19.5592 30.2297 19.5593C29.1577 19.5597 28.0857 19.5606 27.0137 19.5618C25.7931 19.5631 24.5725 19.5638 23.3519 19.5644C20.8414 19.5656 18.3309 19.5677 15.8203 19.5703ZM15.8203 24.8437C15.8203 25.4238 15.8203 26.0038 15.8203 26.6015C16.0003 26.6059 16.1802 26.6103 16.3655 26.6148C19.235 26.6993 21.804 27.166 24.375 28.4765C24.4867 28.5318 24.5983 28.5871 24.7133 28.644C27.5517 30.1109 29.975 32.528 31.4063 35.3906C33.8039 35.3906 36.2016 35.3906 38.6719 35.3906C38.6719 31.9101 38.6719 28.4296 38.6719 24.8437C31.1309 24.8437 23.5899 24.8437 15.8203 24.8437ZM7.03129 31.9921C6.93264 32.0752 6.834 32.1583 6.73237 32.2439C4.04173 34.5621 2.28936 37.9644 1.87504 41.4843C1.84114 42.0804 1.83585 42.6744 1.83841 43.2714C1.83867 43.3516 1.83892 43.4318 1.83918 43.5144C1.84522 44.7106 1.89582 45.835 2.2266 46.9921C2.24863 47.0726 2.27067 47.1532 2.29337 47.2361C2.87559 49.3223 3.86597 51.2065 5.27347 52.8515C5.37197 52.969 5.47046 53.0866 5.57193 53.2076C8.13014 56.1791 11.8491 57.8953 15.7303 58.2034C19.6093 58.4345 23.4452 57.1821 26.3672 54.6093C26.4659 54.5262 26.5645 54.4431 26.6661 54.3575C29.3494 52.0457 31.1119 48.629 31.5235 45.1171C31.5573 44.521 31.5627 43.927 31.5601 43.33C31.5598 43.2498 31.5596 43.1697 31.5593 43.0871C31.5533 41.8909 31.5027 40.7664 31.1719 39.6093C31.1389 39.4885 31.1389 39.4885 31.1051 39.3653C30.5229 37.2792 29.5325 35.3949 28.125 33.7499C28.0265 33.6324 27.9281 33.5149 27.8266 33.3938C25.2684 30.4223 21.5494 28.7062 17.6683 28.3981C13.7892 28.1669 9.95326 29.4194 7.03129 31.9921ZM40.4297 37.1484C40.4297 38.3085 40.4297 39.4687 40.4297 40.664C42.518 40.664 44.6063 40.664 46.7579 40.664C46.4371 38.8561 46.4371 38.8561 45.3736 37.5659C44.3354 37.057 43.2515 37.1199 42.1216 37.1337C41.5633 37.1386 41.005 37.1434 40.4297 37.1484ZM50.7422 51.2109C50.8582 51.791 50.9743 52.371 51.0938 52.9687C51.9676 52.9745 52.8414 52.9787 53.7152 52.9816C54.0124 52.9827 54.3097 52.9843 54.6069 52.9864C55.0342 52.9892 55.4615 52.9905 55.8889 52.9916C56.0881 52.9934 56.0881 52.9934 56.2914 52.9952C56.4778 52.9953 56.4778 52.9953 56.6681 52.9953C56.7771 52.9958 56.8861 52.9963 56.9985 52.9969C57.4686 52.9536 57.7905 52.8345 58.125 52.4999C58.1846 51.9513 58.1846 51.9513 57.9786 51.4599C57.5608 51.1913 57.1351 51.1965 56.6491 51.1976C56.5177 51.1976 56.3864 51.1976 56.2511 51.1976C56.1099 51.1982 55.9688 51.1988 55.8234 51.1994C55.6059 51.1997 55.6059 51.1997 55.384 51.1999C54.9995 51.2005 54.6149 51.2015 54.2304 51.2028C53.8376 51.204 53.4449 51.2046 53.0521 51.2052C52.2821 51.2065 51.5122 51.2085 50.7422 51.2109Z" fill="#155DFC"/>
<path d="M16.648 30.0733C16.7279 30.0733 16.8078 30.0733 16.8901 30.0733C18.186 30.0773 19.3859 30.1894 20.625 30.586C20.7581 30.6284 20.8912 30.6708 21.0283 30.7146C24.4665 31.9351 27.1849 34.4132 28.7549 37.6904C29.5885 39.5028 29.9295 41.2595 29.9268 43.2495C29.9267 43.3295 29.9266 43.4095 29.9266 43.4919C29.9219 44.7826 29.8279 45.9963 29.4141 47.2266C29.3883 47.3031 29.3626 47.3796 29.3361 47.4585C28.1094 50.9753 25.6816 53.7252 22.3462 55.3491C19.2266 56.8018 15.4144 56.9876 12.1802 55.8179C8.72355 54.4805 6.0744 52.0217 4.52681 48.6573C3.76098 46.9234 3.46915 45.2405 3.4717 43.3521C3.47176 43.2721 3.47182 43.1921 3.47189 43.1097C3.47661 41.8189 3.57054 40.6053 3.98439 39.375C4.01013 39.2985 4.03587 39.2219 4.06238 39.1431C5.2544 35.7256 7.5972 32.978 10.8332 31.3676C12.7221 30.4627 14.5561 30.0706 16.648 30.0733ZM8.2274 35.7175C7.83754 36.1191 7.83754 36.1191 7.50002 36.5625C7.49858 36.7992 7.49858 36.7992 7.6172 37.0313C7.87254 37.2292 7.87254 37.2292 8.19948 37.3947C8.32113 37.4613 8.44278 37.5278 8.56812 37.5963C8.69905 37.6661 8.82997 37.7358 8.96486 37.8076C9.23397 37.9544 9.50298 38.1013 9.7719 38.2485C9.90428 38.3204 10.0367 38.3924 10.1731 38.4665C10.6672 38.738 11.1536 39.0211 11.6382 39.3091C11.717 39.3555 11.7958 39.402 11.877 39.4498C12.2392 39.6636 12.5992 39.8803 12.9566 40.1019C13.1451 40.2171 13.1451 40.2171 13.3374 40.3345C13.4445 40.4014 13.5516 40.4683 13.662 40.5373C13.9686 40.7095 13.9686 40.7095 14.4141 40.5469C14.8781 40.3149 15.3422 40.0828 15.8203 39.8438C15.8203 37.2527 15.8203 34.6617 15.8203 31.9922C12.8116 31.9922 10.279 33.6688 8.2274 35.7175ZM17.5781 31.9922C17.5781 34.5832 17.5781 37.1742 17.5781 39.8438C18.8022 40.5193 18.8022 40.5193 19.4531 40.6641C19.7737 40.5346 19.7737 40.5346 20.1096 40.3272C20.2406 40.2511 20.3717 40.1751 20.5068 40.0968C20.6488 40.0125 20.7907 39.9282 20.9326 39.8438C21.0783 39.7584 21.2239 39.6731 21.3697 39.588C21.5955 39.456 21.8213 39.3239 22.0467 39.1912C22.5691 38.8838 23.0955 38.5845 23.6247 38.2892C23.7659 38.2099 23.907 38.1306 24.0481 38.0512C24.3161 37.9006 24.5847 37.751 24.8539 37.6026C25.0345 37.5001 25.0345 37.5001 25.2187 37.3956C25.3248 37.3364 25.431 37.2771 25.5403 37.2161C25.7948 37.0509 25.7948 37.0509 25.8894 36.7939C25.9237 36.5287 25.9237 36.5287 25.6691 36.2462C25.5593 36.1279 25.4476 36.0112 25.3345 35.896C25.2753 35.8341 25.2162 35.7722 25.1552 35.7084C24.9753 35.5223 24.7929 35.3389 24.6094 35.1563C24.5126 35.0594 24.4157 34.9626 24.316 34.8628C22.551 33.1909 20.0389 31.9922 17.5781 31.9922ZM6.32814 38.5547C5.10061 41.4755 4.96734 44.6136 6.12306 47.5855C6.18989 47.7399 6.25756 47.8941 6.32814 48.0469C6.77411 47.9788 7.09297 47.8519 7.47942 47.6212C7.5889 47.5565 7.69838 47.4918 7.81118 47.4252C7.92844 47.3548 8.04571 47.2844 8.16652 47.2119C8.41777 47.0631 8.66909 46.9143 8.92046 46.7656C9.05156 46.6878 9.18266 46.6101 9.31774 46.5299C9.73423 46.2838 10.1533 46.0422 10.573 45.8016C10.6421 45.7619 10.7113 45.7222 10.7826 45.6813C11.1187 45.4886 11.455 45.2962 11.7914 45.1041C11.9131 45.0343 12.0347 44.9644 12.1601 44.8924C12.2673 44.8311 12.3746 44.7697 12.4852 44.7065C12.7548 44.5426 13.0057 44.3887 13.2422 44.1797C13.3391 43.7772 13.3391 43.7772 13.3374 43.3228C13.3454 43.1709 13.3534 43.0191 13.3617 42.8627C13.2078 42.2948 12.9989 42.1822 12.5064 41.8929C12.4012 41.8354 12.2959 41.778 12.1875 41.7188C12.0789 41.6563 11.9702 41.5937 11.8583 41.5293C11.5012 41.3253 11.1416 41.1261 10.7813 40.9277C8.09324 39.4358 8.09324 39.4358 6.94154 38.6989C6.6782 38.5264 6.6782 38.5264 6.32814 38.5547ZM26.125 38.8774C26.0042 38.9478 25.8834 39.0181 25.7589 39.0906C25.6285 39.1676 25.4981 39.2445 25.3638 39.3237C25.2285 39.4029 25.0931 39.482 24.9577 39.561C24.7464 39.6843 24.5351 39.8077 24.324 39.9314C23.8205 40.2264 23.3153 40.5183 22.809 40.8083C22.6699 40.8881 22.5307 40.9679 22.3916 41.0477C22.1262 41.1997 21.8608 41.3516 21.5952 41.5034C21.4748 41.5727 21.3543 41.6419 21.2302 41.7133C21.1244 41.7739 21.0186 41.8345 20.9096 41.8969C20.6415 42.0603 20.3918 42.214 20.1563 42.4219C20.0593 42.8244 20.0593 42.8244 20.0611 43.2788C20.053 43.4306 20.045 43.5825 20.0368 43.7389C20.1909 44.3074 20.4016 44.4206 20.8946 44.7103C20.999 44.7672 21.1034 44.8242 21.211 44.8828C21.3165 44.9435 21.422 45.0041 21.5307 45.0666C21.8788 45.2652 22.2294 45.4589 22.5806 45.6519C23.7075 46.2753 24.8204 46.9176 25.9198 47.5885C26.02 47.6488 26.1202 47.7091 26.2235 47.7713C26.3547 47.8514 26.3547 47.8514 26.4887 47.9331C26.7285 48.0729 26.7285 48.0729 27.0703 48.0469C28.2979 45.126 28.4311 41.988 27.2754 39.0161C27.2086 38.8616 27.1409 38.7075 27.0703 38.5547C26.6475 38.5547 26.4877 38.6646 26.125 38.8774ZM15.3516 42.1875C14.9992 42.6941 14.925 43.1004 15 43.711C15.204 44.2889 15.5221 44.652 16.0716 44.9227C16.512 45.0793 16.8865 45.0793 17.3268 44.9227C17.8772 44.6516 18.1928 44.2889 18.3985 43.711C18.4808 43.1342 18.3939 42.7376 18.0853 42.2553C17.7057 41.8042 17.2793 41.6294 16.7066 41.5357C16.1533 41.623 15.7758 41.8245 15.3516 42.1875ZM13.2807 46.2785C13.1484 46.3552 13.0161 46.4318 12.8799 46.5108C12.7369 46.5956 12.5941 46.6803 12.4512 46.7652C12.3048 46.8507 12.1583 46.9361 12.0118 47.0213C11.7108 47.1967 11.4103 47.373 11.1102 47.5499C10.6859 47.8 10.2603 48.0476 9.83415 48.2945C9.35101 48.5749 8.868 48.8554 8.38579 49.1373C8.29069 49.1929 8.19558 49.2484 8.0976 49.3057C7.89484 49.4272 7.6967 49.5564 7.50002 49.6875C7.59927 50.3839 8.20889 50.8402 8.67189 51.3281C8.74153 51.404 8.81117 51.4798 8.88292 51.5579C10.6767 53.4502 13.2845 54.3981 15.8203 54.6094C15.8203 52.0184 15.8203 49.4274 15.8203 46.7578C14.4883 45.9323 14.4883 45.9323 13.2807 46.2785ZM18.6475 46.2158C18.2856 46.4585 17.9981 46.5898 17.5781 46.7578C17.5781 49.3488 17.5781 51.9399 17.5781 54.6094C20.967 54.327 23.5161 52.7555 25.7698 50.2611C25.9212 50.0487 25.9212 50.0487 25.8793 49.8109C25.7458 49.4833 25.5884 49.4158 25.2791 49.249C25.1722 49.1901 25.0653 49.1313 24.9552 49.0706C24.8387 49.0083 24.7221 48.946 24.6021 48.8819C24.3564 48.747 24.1109 48.612 23.8655 48.4767C23.7377 48.4067 23.6099 48.3367 23.4782 48.2645C22.8336 47.9069 22.1982 47.5339 21.5625 47.1607C21.2285 46.9649 20.8944 46.7693 20.56 46.5742C20.3805 46.469 20.2016 46.3628 20.0235 46.2553C19.4562 45.9169 19.1997 45.8441 18.6475 46.2158Z" fill="#6A00FF"/>
<path d="M43.0965 48.685C44.453 49.6255 45.3529 50.9897 45.703 52.6172C45.8745 54.7401 45.4979 56.2752 44.2748 58.0225C43.3676 59.0423 41.9047 59.9093 40.5244 60.0207C38.4288 60.0749 36.7245 59.7906 35.1154 58.3292C33.7144 56.8519 33.3386 55.1958 33.3659 53.2375C33.4192 51.73 34.1799 50.2558 35.2734 49.2188C37.5338 47.3432 40.6167 47.0925 43.0965 48.685ZM36.7162 50.4712C35.7244 51.463 35.2451 52.4419 35.2221 53.833C35.2276 54.6412 35.3267 55.3069 35.7421 56.0156C35.7904 56.0981 35.8388 56.1806 35.8886 56.2656C36.5629 57.2732 37.6305 57.9214 38.8018 58.1795C40.1395 58.3906 41.2706 57.924 42.3852 57.2241C43.377 56.2323 43.8563 55.2535 43.8793 53.8623C43.8738 53.0541 43.7747 52.3885 43.3593 51.6797C43.311 51.5972 43.2626 51.5147 43.2128 51.4298C42.5385 50.4221 41.4709 49.774 40.2996 49.5158C38.9619 49.3047 37.8308 49.7713 36.7162 50.4712Z" fill="#155DFC"/>
<path d="M40.8324 51.3941C41.4912 51.7868 41.9531 52.3576 42.1874 53.086C42.2855 53.977 42.2865 54.818 41.7186 55.5469C41.2077 56.0881 40.7107 56.4405 39.9549 56.5238C39.0218 56.5349 38.3362 56.483 37.6468 55.8183C36.9567 55.0488 36.8402 54.4368 36.8695 53.4036C36.9482 52.6338 37.2917 52.199 37.8515 51.6944C38.706 51.0891 39.86 50.9567 40.8324 51.3941ZM38.9135 53.2105C38.717 53.5687 38.7461 53.8583 38.789 54.2578C38.8964 54.502 38.8964 54.502 39.1405 54.6094C39.5401 54.6522 39.8296 54.6814 40.1879 54.4849C40.3844 54.1266 40.3552 53.8371 40.3124 53.4375C40.205 53.1934 40.205 53.1934 39.9608 53.086C39.5613 53.0431 39.2717 53.014 38.9135 53.2105Z" fill="#6A00FF"/>
</g>
<defs>
<clipPath id="clip0_26_826">
<rect width="60" height="60" fill="white"/>
</clipPath>
</defs>
</svg>
