<svg width="50" height="74" viewBox="0 0 50 74" fill="none" xmlns="http://www.w3.org/2000/svg">
<path d="M28.7179 0.720448C28.8404 0.750576 28.9628 0.780703 29.0889 0.811744C32.5693 1.70302 35.728 3.30273 38.5856 5.47771C38.7787 5.62321 38.7787 5.62321 38.9756 5.77166C44.8626 10.4152 48.4343 17.4796 49.3607 24.8887C49.4839 25.9584 49.505 27.0255 49.4991 28.1017C49.4988 28.204 49.4985 28.3062 49.4982 28.4116C49.4804 32.129 49.345 38.2173 46.5428 41.0175C46.4654 41.0874 46.388 41.1572 46.3082 41.2292C46.1991 41.3363 46.0899 41.4433 45.9775 41.5536C44.5751 42.4741 43.0785 42.594 41.4486 42.3076C41.3533 42.2847 41.258 42.2619 41.1598 42.2383C41.1266 42.3528 41.0935 42.4673 41.0593 42.5852C39.428 47.1418 36.0388 51.4658 32.7837 54.9801C32.4 55.3961 32.0319 55.8237 31.6647 56.2545C31.4361 56.5091 31.194 56.737 30.9435 56.9696C29.3169 58.5946 28.6064 60.7677 28.5408 63.0264C28.4379 66.1606 27.4101 69.0041 25.1427 71.2144C22.5877 73.4795 19.8259 74.1343 16.5066 73.9781C14.0067 73.8127 11.734 72.3248 10.0372 70.5476C7.86014 68.019 7.33106 65.1472 7.43686 61.8821C7.48956 60.1345 7.24171 59.096 6.1402 57.7625C4.54313 55.7435 3.74513 53.334 3.94463 50.7463C4.12005 49.1783 4.65041 47.7955 5.40727 46.419C6.06592 45.1267 6.33115 44.0639 6.05473 42.6016C5.72658 41.6358 5.09418 40.8448 4.50731 40.0258C1.84284 36.2904 0.479473 31.8894 0.500234 27.2908C0.50104 27.1018 0.501847 26.9127 0.502678 26.7179C0.551523 22.757 1.65725 17.5171 4.44028 14.5012C4.80383 13.9616 4.76449 13.4945 4.76373 12.8569C4.83467 10.164 5.67774 7.79745 7.2664 5.62187C7.34088 5.51985 7.41536 5.41782 7.49209 5.31271C10.1566 1.98239 14.5678 0.912805 18.5642 0.28797C18.7041 0.265513 18.7041 0.265513 18.8469 0.242603C22.0342 -0.191494 25.6039 -0.0494328 28.7179 0.720448ZM18.5374 2.91888C18.4351 2.93463 18.3328 2.95038 18.2275 2.9666C17.3663 3.12804 16.6781 3.46608 16.0794 4.1172C15.7655 4.59178 15.686 4.94691 15.6951 5.50474C15.698 5.68611 15.701 5.86748 15.704 6.05434C15.8721 6.01569 16.0403 5.97704 16.2135 5.93721C16.832 5.7991 17.4519 5.66842 18.0726 5.54078C18.2468 5.50491 18.421 5.46905 18.6005 5.43209C21.4108 4.91515 24.653 4.92949 27.4308 5.62187C27.6009 5.66138 27.6009 5.66138 27.7744 5.70169C30.5105 6.34872 33.1929 7.50521 35.4394 9.22585C35.5613 9.31876 35.6831 9.41168 35.8087 9.50741C40.5647 13.2486 43.627 18.5211 44.377 24.5771C44.8716 29.3929 44.0787 34.3414 42.4614 38.8771C42.2814 39.3396 42.2814 39.3396 42.3039 39.7876C43.0171 39.8388 43.5666 39.872 44.2167 39.5444C44.9832 38.8636 45.305 38.2209 45.5931 37.2558C45.6296 37.136 45.6661 37.0161 45.7036 36.8927C46.0939 35.5689 46.3726 34.23 46.5942 32.868C46.6112 32.7651 46.6281 32.6622 46.6456 32.5562C47.6833 25.928 46.2022 18.708 42.3128 13.2083C42.0771 12.8853 41.8351 12.5681 41.5889 12.2532C41.4991 12.138 41.4991 12.138 41.4076 12.0206C37.37 6.90192 31.776 3.57181 25.3042 2.76994C24.4304 2.68022 23.5446 2.70345 22.6668 2.70264C22.5045 2.70242 22.5045 2.70242 22.3389 2.7022C21.0632 2.70336 19.8007 2.71922 18.5374 2.91888ZM9.9836 6.48682C8.93108 7.58875 7.9217 9.12862 7.69544 10.6674C8.19093 10.4481 8.54889 10.1507 8.95571 9.79348C9.89822 9.00365 10.9215 8.39201 11.9857 7.78426C12.1253 7.70454 12.2648 7.62481 12.4086 7.54268C12.6956 7.38095 12.984 7.2218 13.2728 7.06346C13.202 5.779 13.202 5.779 13.1298 4.46859C12.0267 4.46859 10.7232 5.78828 9.9836 6.48682ZM8.22223 13.8463C7.89851 14.2241 7.63639 14.5443 7.40941 14.9922C7.46881 15.4202 7.54014 15.7229 7.6865 16.1185C7.72103 16.2197 7.75556 16.3209 7.79114 16.4251C8.21307 17.775 8.21307 17.775 9.12554 18.7404C9.16923 18.6684 9.21292 18.5965 9.25793 18.5224C11.5733 14.8604 15.0753 12.5014 19.2793 11.5324C23.5225 10.743 27.8061 11.6152 31.4101 14.0125C34.4408 16.1349 36.457 19.0352 37.6382 22.5245C37.6894 22.675 37.6894 22.675 37.7417 22.8285C38.2425 24.3957 38.3517 25.9588 38.3443 27.5972C38.3435 27.787 38.3427 27.9768 38.3419 28.1724C38.2709 35.4989 34.9133 42.3512 30.291 47.8606C30.1588 48.0208 30.0266 48.1811 29.8944 48.3415C29.1711 49.2115 28.4286 50.036 27.6185 50.8248C25.3032 53.1008 24.0194 55.9445 23.8353 59.192C23.7965 59.729 23.7706 60.0326 23.4534 60.4779C23.1221 60.7033 22.9635 60.769 22.5685 60.7628C22.4269 60.765 22.4269 60.765 22.2825 60.7673C21.8534 60.6524 21.6877 60.4716 21.4244 60.1141C20.953 57.1017 22.2843 53.6275 23.9807 51.2123C24.7478 50.1961 25.5969 49.2668 26.5013 48.3741C27.0807 47.7971 27.5944 47.1841 28.1023 46.5429C28.3203 46.2702 28.5431 46.0012 28.7704 45.7365C30.3939 43.8438 31.7199 41.7153 32.8652 39.4993C32.9192 39.3952 32.9732 39.291 33.0288 39.1838C35.3576 34.6276 36.9302 28.5656 35.3956 23.5082C34.6274 21.1927 33.418 19.3214 31.7212 17.5871C31.6078 17.4709 31.4944 17.3548 31.3776 17.2351C29.7493 15.6647 27.8478 14.779 25.7147 14.1273C25.5978 14.0905 25.481 14.0537 25.3605 14.0158C22.1372 13.1501 18.6743 13.9643 15.8228 15.5589C15.1708 15.9427 14.5746 16.3891 13.9879 16.8663C13.8856 16.9475 13.7833 17.0287 13.6778 17.1124C12.4668 18.1207 11.6056 19.3876 10.8417 20.7586C11.6533 21.7563 12.559 22.6576 13.4628 23.5691C13.634 23.7422 13.8052 23.9153 13.9765 24.0884C14.3334 24.4491 14.6907 24.8095 15.0482 25.1698C15.507 25.6323 15.9649 26.0959 16.4226 26.5596C16.7749 26.9164 17.1279 27.2725 17.4811 27.6285C17.6503 27.7992 17.8193 27.9702 17.9881 28.1415C18.2229 28.3796 18.4586 28.6168 18.6945 28.8537C18.7643 28.9249 18.8342 28.9961 18.9061 29.0695C19.2434 29.4466 19.2434 29.4466 19.7083 29.5523C19.9271 29.323 19.9271 29.323 20.1552 29.0297C21.2267 27.7722 22.6348 26.9135 24.2846 26.6691C26.4847 26.5195 28.3909 26.9084 30.1425 28.3399C31.4995 29.6093 32.2014 31.326 32.3111 33.1681C32.3653 35.1204 31.7531 36.912 30.4341 38.346C29.4778 39.3117 28.4518 40.1919 27.3951 41.0434C26.882 41.4739 26.4025 41.9364 25.9192 42.4002C25.4715 42.819 25.0318 43.1197 24.4902 43.4006C24.0881 43.6239 23.8973 43.7309 23.707 44.1558C23.6452 44.403 23.5873 44.6512 23.5333 44.9002C23.3461 45.5413 22.956 46.0265 22.4255 46.419C21.074 47.0637 19.5652 46.9186 18.1018 46.9251C17.7488 46.9274 17.396 46.9322 17.0431 46.937C16.9358 46.9366 16.8285 46.9362 16.718 46.9357C15.9361 46.9469 15.339 47.1062 14.7538 47.6443C14.3163 48.2106 14.1152 48.6079 14.1056 49.3213C14.1037 49.4406 14.1019 49.5599 14.1 49.6828C14.099 49.8112 14.0979 49.9396 14.0968 50.0719C14.0951 50.2706 14.0951 50.2705 14.0933 50.4732C14.0913 50.7532 14.0898 51.0333 14.0887 51.3133C14.0862 51.7417 14.0799 52.17 14.0736 52.5984C14.0722 52.8705 14.071 53.1425 14.07 53.4146C14.0662 53.6068 14.0662 53.6068 14.0624 53.8028C14.062 54.5234 14.062 54.5234 14.3894 55.1494C14.8509 55.4547 15.1648 55.4345 15.704 55.3568C16.0422 55.0877 16.2275 54.8781 16.4191 54.4919C16.4344 54.1637 16.4413 53.835 16.4442 53.5064C16.4475 53.3063 16.451 53.1062 16.4545 52.9061C16.4596 52.5907 16.4637 52.2754 16.4657 51.9599C16.4679 51.6554 16.4736 51.3512 16.4799 51.0467C16.482 50.8643 16.4841 50.682 16.4863 50.4941C16.5747 49.9447 16.6927 49.7712 17.1341 49.4463C17.6257 49.3652 17.6257 49.3652 18.1352 49.4463C18.6252 49.8284 18.8274 50.0417 18.9405 50.6628C18.9404 50.8491 18.9403 51.0355 18.9402 51.2275C18.9405 51.3286 18.9409 51.4298 18.9412 51.534C18.9411 51.7476 18.9392 51.9612 18.9356 52.1748C18.9307 52.4973 18.9326 52.8193 18.9354 53.1418C18.9339 54.5094 18.7302 55.5773 18.0458 56.7714C17.2556 57.5051 16.2163 57.9848 15.132 57.9517C13.8634 57.8533 13.0812 57.3538 12.2181 56.438C11.6427 55.5456 11.6539 54.6635 11.6517 53.6337C11.6507 53.4815 11.6498 53.3294 11.6488 53.1726C11.6473 52.8513 11.6467 52.53 11.6467 52.2086C11.6461 51.7205 11.6409 51.2325 11.6355 50.7443C11.6346 50.431 11.6341 50.1177 11.6338 49.8045C11.6317 49.6601 11.6297 49.5157 11.6276 49.367C11.6369 47.8977 12.0872 46.7633 13.0885 45.6954C14.1577 44.7628 15.2756 44.5271 16.6475 44.5145C16.8914 44.5104 17.1352 44.5063 17.3791 44.5021C17.7626 44.4961 18.1461 44.4908 18.5296 44.487C18.9004 44.4831 19.2711 44.4764 19.6418 44.4694C19.7567 44.469 19.8715 44.4685 19.9899 44.468C20.6027 44.459 20.6027 44.459 21.1437 44.1988C21.3095 43.9705 21.3095 43.9705 21.2635 43.6709C21.1452 43.341 21.1452 43.341 20.7094 43.1033C20.3771 43.0384 20.043 42.9828 19.7083 42.9321C16.5881 42.3917 13.8667 40.9265 11.5567 38.7785C11.4531 38.6875 11.3495 38.5964 11.2428 38.5026C8.72743 36.1724 7.01048 32.3198 6.80777 28.9101C6.79394 28.367 6.79041 27.8251 6.79268 27.2818C6.79285 27.1863 6.79301 27.0909 6.79318 26.9925C6.79855 25.4289 6.87705 23.9704 7.42561 22.4919C7.7098 21.7393 7.7098 21.7393 7.53455 20.9883C7.36329 20.751 7.18418 20.5192 6.99882 20.2929C6.63801 19.8197 6.38756 19.3301 6.13126 18.7944C6.0875 18.7038 6.04374 18.6131 5.99865 18.5197C5.89589 18.3054 5.79444 18.0905 5.69329 17.8754C5.59891 17.8754 5.50452 17.8754 5.40727 17.8754C2.94574 22.7949 2.38015 28.1372 4.05594 33.4294C4.37843 34.3861 4.81014 35.2846 5.26426 36.1836C5.32841 36.316 5.39257 36.4483 5.45867 36.5846C5.95585 37.5634 6.57691 38.4438 7.22154 39.3281C8.57812 41.2082 8.88991 42.9666 8.69651 45.2657C8.48338 46.4119 7.95169 47.3323 7.35411 48.3178C6.44807 49.9189 6.32736 51.7459 6.78374 53.5098C7.05791 54.3911 7.42287 55.0639 7.98146 55.7893C9.09243 57.2569 10.0248 58.627 9.97745 60.5218C9.97373 60.7184 9.97023 60.915 9.96691 61.1116C9.96511 61.2137 9.96332 61.3158 9.96147 61.421C9.91576 64.4924 10.2605 66.9427 12.4572 69.2665C14.1995 70.8985 16.2456 71.4482 18.5575 71.4075C20.1999 71.332 21.5876 70.6699 22.8545 69.6286C22.9903 69.5266 22.9903 69.5266 23.1288 69.4225C24.6546 68.2206 25.5545 66.333 25.8577 64.4389C25.8904 64.0008 25.9054 63.5625 25.9203 63.1234C26.0595 59.4664 27.3699 56.8068 29.9531 54.2542C30.4271 53.7788 30.8587 53.2747 31.2921 52.762C31.4195 52.6154 31.5471 52.469 31.6748 52.3227C34.575 48.9823 37.0159 45.2585 38.8717 41.2292C38.9182 41.1284 38.9648 41.0275 39.0128 40.9236C41.9575 34.4484 43.203 26.858 40.7308 20.0378C39.1993 16.0869 36.3908 12.8018 32.8652 10.5233C32.6556 10.3875 32.6556 10.3875 32.4418 10.249C24.462 5.32131 14.6116 7.46294 8.22223 13.8463ZM9.69758 23.4976C8.63497 26.7047 9.20232 30.2856 10.6042 33.2768C11.5123 35.0467 12.8062 36.9215 14.5599 37.9136C14.5809 37.7655 14.602 37.6173 14.6236 37.4648C14.9309 35.4771 15.6405 34.1656 16.9964 32.6905C17.4914 32.153 17.4914 32.153 17.5631 31.4264C17.1922 30.8499 16.6984 30.4419 16.1855 30C15.7759 29.6327 15.386 29.2488 14.9979 28.8585C14.8939 28.7547 14.8939 28.7547 14.7878 28.6487C14.2917 28.1465 14.2917 28.1465 14.1309 27.8224C14.0365 27.8224 13.9421 27.8224 13.8449 27.8224C13.8149 27.7453 13.785 27.6683 13.7541 27.5889C13.4824 27.1115 13.1081 26.7531 12.7226 26.3695C12.6408 26.2872 12.559 26.2048 12.4747 26.1199C12.3023 25.9466 12.1296 25.7736 11.9565 25.6009C11.6905 25.3354 11.4256 25.0687 11.1609 24.8018C10.9933 24.6336 10.8256 24.4654 10.6579 24.2973C10.5782 24.2171 10.4985 24.1369 10.4164 24.0543C10.1077 23.6717 10.1077 23.6717 9.69758 23.4976ZM21.3898 31.3701C21.178 31.6329 20.968 31.8973 20.7596 32.163C20.3985 32.6104 20.018 33.0321 19.6278 33.4536C17.7772 35.4081 17.7772 35.4081 17.0715 37.9406C17.1073 38.5968 17.1889 39.0888 17.5631 39.6435C18.4683 40.2538 19.6747 40.3836 20.7286 40.5705C21.3029 40.6787 21.759 40.8 22.2585 41.1121C22.6675 41.3962 22.6675 41.3962 23.0081 41.3801C23.4216 41.1536 23.7638 40.8564 24.1148 40.5445C24.2355 40.4392 24.2355 40.4392 24.3586 40.3319C24.5312 40.1812 24.7035 40.0301 24.8754 39.8786C25.1428 39.6434 25.4118 39.4101 25.6812 39.1772C26.1326 38.7867 26.5812 38.3931 27.0285 37.9978C27.1986 37.848 27.3692 37.6989 27.5405 37.5506C28.8083 36.4767 28.8083 36.4767 29.576 35.0304C29.609 34.9391 29.642 34.8479 29.676 34.7539C30.0261 33.6276 29.8432 32.4954 29.3302 31.45C28.5958 30.1996 27.6397 29.5744 26.2868 29.1198C24.1099 28.9161 22.7859 29.7323 21.3898 31.3701Z" fill="white"/>
</svg>
