<svg width="20" height="25" viewBox="0 0 20 25" fill="none" xmlns="http://www.w3.org/2000/svg">
<path d="M19.5971 3.18733L10.4109 0.0567717C10.3 0.0189239 10.1513 0 10.0026 0C9.85396 0 9.70527 0.0189239 9.59443 0.0567717L0.408216 3.18733C0.183833 3.26303 0 3.52255 0 3.76045V16.8017C0 17.0396 0.154095 17.3532 0.340631 17.5019L9.65931 24.7633C9.75393 24.8363 9.87559 24.8741 9.99994 24.8741C10.1243 24.8741 10.2487 24.8363 10.3406 24.7633L19.6593 17.5019C19.8458 17.3559 19.9999 17.0423 19.9999 16.8017V3.76045C20.0053 3.52255 19.8215 3.26573 19.5971 3.18733ZM18.0588 16.2827L10.0026 22.56L1.94646 16.2827V4.72287L10.0026 1.9762L18.0588 4.72287V16.2827Z" fill="#2DBE3E"/>
</svg>
