<svg width="25" height="17" viewBox="0 0 25 17" fill="none" xmlns="http://www.w3.org/2000/svg">
<path d="M17.1634 8.38563C19.3 8.38563 21.0411 6.56776 21.0411 4.35588C21.0411 2.16916 19.3089 0.437012 17.1634 0.437012C15.0357 0.437012 13.2853 2.19475 13.2853 4.37294C13.2942 6.57629 15.0357 8.38563 17.1634 8.38563ZM6.82232 8.57411C8.67143 8.57411 10.1884 6.9878 10.1884 5.04158C10.1884 3.13801 8.68929 1.60329 6.82232 1.60329C4.97321 1.60329 3.44732 3.16402 3.45625 5.05864C3.46518 6.99675 4.97321 8.57411 6.82232 8.57411ZM17.1634 7.09099C15.8527 7.09099 14.7304 5.8906 14.7304 4.37294C14.7304 2.88044 15.8348 1.73207 17.1634 1.73207C18.5009 1.73207 19.596 2.86381 19.596 4.35546C19.596 5.87354 18.492 7.09099 17.1634 7.09099ZM6.82232 7.29653C5.72723 7.29653 4.79375 6.29357 4.79375 5.05864C4.79375 3.84971 5.71786 2.88087 6.82232 2.88087C7.95312 2.88087 8.85982 3.83266 8.85982 5.04158C8.85982 6.29357 7.92634 7.29653 6.82232 7.29653ZM1.83125 16.437H8.87812C8.44687 16.2055 8.11473 15.6908 8.17768 15.168H1.60714C1.42768 15.168 1.33795 15.0997 1.33795 14.9364C1.33795 12.8102 3.87812 10.821 6.81384 10.821C7.94464 10.821 8.95893 11.0781 9.82991 11.5668C10.1188 11.2174 10.4607 10.9111 10.8442 10.6581C9.68616 9.92887 8.29509 9.55191 6.81384 9.55191C3.05223 9.55191 0 12.1582 0 15.0136C0 15.9654 0.610268 16.437 1.83125 16.437ZM11.5259 16.437H22.8009C24.2906 16.437 25 16.0085 25 15.0652C25 12.8188 22.0286 9.56854 17.1634 9.56854C12.2888 9.56854 9.31786 12.8188 9.31786 15.0652C9.31786 16.0085 10.0268 16.437 11.5259 16.437ZM11.0951 15.1424C10.8616 15.1424 10.7629 15.0827 10.7629 14.9023C10.7629 13.4959 13.0429 10.864 17.1634 10.864C21.275 10.864 23.5545 13.4959 23.5545 14.9023C23.5545 15.0823 23.4652 15.1424 23.2312 15.1424H11.0951Z" fill="#75ABFE"/>
</svg>
