<svg width="26" height="26" viewBox="0 0 26 26" fill="none" xmlns="http://www.w3.org/2000/svg">
<path d="M13.0211 0.981669C13.0706 0.981774 13.1201 0.981879 13.1711 0.981987C13.8816 0.984404 14.5786 0.996615 15.2765 1.14289C15.3239 1.15256 15.3713 1.16223 15.4202 1.17219C16.9232 1.48684 19.3173 2.094 20.3245 3.38701C20.512 3.68196 20.4978 3.97578 20.4316 4.30641C20.3119 4.62375 20.0993 4.83385 19.7994 4.98778C19.3968 5.10442 19.1151 5.03658 18.7492 4.84006C18.5974 4.75243 18.4472 4.66263 18.2972 4.57202C17.0459 3.81888 15.6571 3.35968 14.2066 3.18701C14.1647 3.18161 14.1229 3.17622 14.0798 3.17066C12.1627 2.96579 10.1846 3.34113 8.46784 4.20907C8.43521 4.22524 8.40258 4.24141 8.36896 4.25807C7.38218 4.74908 6.54417 5.40156 5.74438 6.15585C5.70877 6.18942 5.67316 6.22298 5.63648 6.25756C4.01073 7.8361 3.03967 10.1126 2.77776 12.3369C2.77136 12.3873 2.76497 12.4378 2.75838 12.4897C2.55865 14.3805 2.94527 16.3399 3.79905 18.0312C3.81521 18.0639 3.83137 18.0965 3.84802 18.1302C4.33866 19.1177 4.99065 19.9563 5.74438 20.7567C5.79469 20.8102 5.79469 20.8102 5.84602 20.8647C7.64553 22.7208 10.3337 23.7449 12.8888 23.7855C15.7346 23.8019 18.2782 22.6959 20.3343 20.7567C20.3699 20.7232 20.4056 20.6896 20.4422 20.655C22.3117 18.8399 23.3034 16.1582 23.3669 13.5859C23.3734 12.6919 23.252 11.8142 23.0405 10.9473C22.9466 10.5522 22.8846 10.176 23.0183 9.78173C23.2118 9.5146 23.4221 9.32245 23.7387 9.22203C24.0853 9.17197 24.377 9.2083 24.6627 9.41671C25.2264 9.84853 25.2908 10.9066 25.3922 11.5582C25.4053 11.6406 25.4053 11.6406 25.4187 11.7248C25.4937 12.2479 25.506 12.7653 25.5048 13.2933C25.5047 13.4368 25.5058 13.5803 25.507 13.7238C25.5092 14.3755 25.4508 15.0039 25.3436 15.6464C25.3298 15.7294 25.3298 15.7294 25.3158 15.8141C24.9742 17.7176 24.1482 19.5273 22.9605 21.0487C22.9236 21.096 22.8867 21.1433 22.8486 21.1921C22.2488 21.9406 21.5776 22.6489 20.8207 23.2389C20.7752 23.2761 20.7296 23.3133 20.6827 23.3516C19.1288 24.5969 17.224 25.4004 15.2765 25.7697C15.2371 25.7777 15.1978 25.7856 15.1572 25.7938C13.6962 26.0796 12.0114 26.0263 10.5591 25.721C10.485 25.7058 10.485 25.7058 10.4094 25.6902C8.60302 25.3061 6.90747 24.5223 5.45258 23.3849C5.40531 23.3479 5.35804 23.311 5.30934 23.2729C4.56138 22.6726 3.85364 22.0009 3.26409 21.2434C3.20833 21.1751 3.20833 21.1751 3.15143 21.1054C1.90706 19.5503 1.10414 17.6441 0.735164 15.6951C0.727202 15.6557 0.71924 15.6163 0.711037 15.5757C0.445033 14.2136 0.450914 12.5756 0.735164 11.2175C0.744826 11.17 0.754488 11.1226 0.764443 11.0737C1.16169 9.17323 1.92128 7.39872 3.11819 5.86383C3.15148 5.82023 3.18477 5.77663 3.21907 5.7317C3.47526 5.40251 3.75478 5.09498 4.04222 4.7931C4.07002 4.76388 4.09783 4.73466 4.12647 4.70456C4.51548 4.29871 4.91501 3.9267 5.3666 3.59169C5.4545 3.52627 5.54142 3.45968 5.62831 3.3929C6.03718 3.08195 6.46238 2.81221 6.91025 2.56108C7.00085 2.51013 7.09073 2.45809 7.18058 2.40582C8.96057 1.40483 10.9961 0.973952 13.0211 0.981669Z" fill="black"/>
<path d="M24.9976 3.17043C25.2204 3.3118 25.3928 3.52539 25.4894 3.77101C25.5075 3.92538 25.5075 3.92538 25.5107 4.09953C25.5127 4.15649 25.5146 4.21346 25.5166 4.27215C25.4493 4.7188 25.0865 5.0224 24.7796 5.32732C24.7318 5.37531 24.6841 5.42332 24.6363 5.47136C24.5058 5.60259 24.3748 5.73337 24.2438 5.86408C24.1022 6.00538 23.9611 6.1471 23.82 6.28876C23.5437 6.56591 23.267 6.84267 22.9902 7.11929C22.7652 7.3441 22.5404 7.56905 22.3156 7.79411C22.2676 7.84219 22.2676 7.84219 22.2186 7.89124C22.1536 7.95636 22.0886 8.02147 22.0236 8.08659C21.4142 8.69682 20.8044 9.3066 20.1945 9.91622C19.6711 10.4393 19.1482 10.9628 18.6255 11.4865C18.0183 12.0949 17.4109 12.7031 16.8031 13.3109C16.7383 13.3757 16.6735 13.4405 16.6087 13.5053C16.5768 13.5372 16.545 13.5691 16.5121 13.6019C16.2875 13.8266 16.063 14.0514 15.8386 14.2764C15.5652 14.5504 15.2915 14.8242 15.0175 15.0976C14.8777 15.2371 14.738 15.3767 14.5987 15.5167C14.4711 15.6448 14.3432 15.7725 14.215 15.9C14.1468 15.9681 14.0789 16.0365 14.0111 16.1049C13.9703 16.1453 13.9296 16.1857 13.8876 16.2273C13.8527 16.2622 13.8177 16.2972 13.7818 16.3331C13.5504 16.5262 13.344 16.5928 13.0454 16.5954C12.9614 16.5977 12.9614 16.5977 12.8756 16.6C12.4527 16.5308 12.1615 16.2006 11.8707 15.9079C11.8286 15.8662 11.7866 15.8244 11.7433 15.7814C11.629 15.6678 11.515 15.5538 11.4012 15.4396C11.3058 15.3441 11.2103 15.2487 11.1147 15.1534C10.8892 14.9284 10.6641 14.703 10.4392 14.4775C10.2078 14.2452 9.97565 14.0136 9.74323 13.7824C9.54309 13.5831 9.34333 13.3836 9.14387 13.1837C9.025 13.0645 8.90599 12.9456 8.78662 12.8269C8.6536 12.6947 8.52137 12.5617 8.38921 12.4286C8.34988 12.3897 8.31054 12.3508 8.27001 12.3107C8.00048 12.0374 7.81613 11.7971 7.81128 11.3969C7.82162 11.0699 7.92539 10.7795 8.16558 10.5507C8.39735 10.3789 8.58334 10.3325 8.86601 10.3262C8.94528 10.3235 8.94528 10.3235 9.02616 10.3207C9.41761 10.3681 9.67591 10.5974 9.94307 10.8709C9.97633 10.9042 10.0096 10.9374 10.0439 10.9717C10.1527 11.0808 10.2609 11.1906 10.3691 11.3003C10.4448 11.3765 10.5206 11.4526 10.5964 11.5287C10.7951 11.7283 10.9932 11.9284 11.1912 12.1287C11.3937 12.3333 11.5966 12.5373 11.7996 12.7414C12.1972 13.1414 12.5941 13.542 12.9907 13.9429C13.1481 13.8737 13.2525 13.7902 13.3734 13.6685C13.4104 13.6314 13.4474 13.5944 13.4856 13.5563C13.5259 13.5154 13.5663 13.4745 13.6079 13.4324C13.6725 13.3675 13.6725 13.3675 13.7385 13.3013C13.8582 13.1811 13.9777 13.0607 14.097 12.9402C14.2258 12.8103 14.3549 12.6806 14.4839 12.551C14.7076 12.3263 14.931 12.1013 15.1544 11.8763C15.5076 11.5206 15.8613 11.1654 16.2151 10.8102C16.3362 10.6887 16.4572 10.5671 16.5783 10.4456C16.6085 10.4152 16.6388 10.3848 16.6699 10.3535C17.0143 10.0077 17.3586 9.66184 17.7029 9.31589C17.7344 9.28427 17.7658 9.25264 17.7982 9.22006C18.308 8.70779 18.8173 8.19516 19.3266 7.68242C19.8496 7.15589 20.3731 6.62992 20.8971 6.10443C21.2203 5.78037 21.5429 5.45586 21.865 5.13074C22.0858 4.90786 22.3072 4.68551 22.529 4.46357C22.6569 4.33558 22.7846 4.20736 22.9116 4.07849C23.0495 3.93859 23.1885 3.79985 23.3276 3.66119C23.3673 3.62054 23.407 3.57989 23.4479 3.53801C23.8954 3.09633 24.4022 2.88124 24.9976 3.17043Z" fill="#2DBE3E"/>
</svg>
