<svg id="geo" width="12" height="18" viewBox="0 0 12 18" fill="none" xmlns="http://www.w3.org/2000/svg">
<path d="M6 3.78947C6.61204 3.78947 7.19901 4.039 7.63178 4.48317C8.06456 4.92733 8.30769 5.52975 8.30769 6.1579C8.30769 6.46892 8.248 6.7769 8.13203 7.06425C8.01606 7.3516 7.84607 7.61269 7.63178 7.83262C7.4175 8.05255 7.1631 8.22701 6.88312 8.34603C6.60313 8.46506 6.30305 8.52632 6 8.52632C5.38796 8.52632 4.80099 8.27679 4.36822 7.83262C3.93544 7.38846 3.69231 6.78604 3.69231 6.1579C3.69231 5.52975 3.93544 4.92733 4.36822 4.48317C4.80099 4.039 5.38796 3.78947 6 3.78947ZM6 4.73684C5.63278 4.73684 5.28059 4.88656 5.02093 5.15306C4.76126 5.41956 4.61538 5.78101 4.61538 6.1579C4.61538 6.53478 4.76126 6.89623 5.02093 7.16273C5.28059 7.42923 5.63278 7.57895 6 7.57895C6.36722 7.57895 6.71941 7.42923 6.97907 7.16273C7.23874 6.89623 7.38462 6.53478 7.38462 6.1579C7.38462 5.78101 7.23874 5.41956 6.97907 5.15306C6.71941 4.88656 6.36722 4.73684 6 4.73684ZM1.66154 8.86737L6 16.1905L10.3385 8.86737C10.8092 8.05263 11.0769 7.15263 11.0769 6.1579C11.0769 4.77598 10.542 3.45066 9.58993 2.4735C8.63782 1.49633 7.34648 0.947368 6 0.947368C4.65352 0.947368 3.36218 1.49633 2.41007 2.4735C1.45797 3.45066 0.923077 4.77598 0.923077 6.1579C0.923077 7.15263 1.19077 8.05263 1.66154 8.86737ZM11.1231 9.36L6 18L0.876923 9.36C0.323077 8.42211 0 7.33263 0 6.1579C0 4.52472 0.632141 2.95843 1.75736 1.80361C2.88258 0.648776 4.4087 0 6 0C7.5913 0 9.11742 0.648776 10.2426 1.80361C11.3679 2.95843 12 4.52472 12 6.1579C12 7.33263 11.6769 8.42211 11.1231 9.36Z" fill="#101828"/>
</svg>
