<svg id="header-1" width="15" height="14" viewBox="0 0 15 14" fill="none" xmlns="http://www.w3.org/2000/svg">
<path d="M7.98881 0.9875V2.125H9.27701C9.50595 2.125 9.72968 2.1939 9.91883 2.32195L11.0257 3.07205C11.0531 3.09025 11.0835 3.09957 11.117 3.1H13.7926C13.9223 3.1 14.0467 3.15136 14.1385 3.24279C14.2302 3.33421 14.2818 3.45821 14.2818 3.5875C14.2818 3.71679 14.2302 3.84079 14.1385 3.93221C14.0467 4.02364 13.9223 4.075 13.7926 4.075H12.7633L14.9588 9.067C15.0027 9.16682 15.0118 9.27842 14.9846 9.38399C14.9574 9.48956 14.8955 9.58301 14.8088 9.6494C14.7436 9.6975 14.6762 9.74213 14.6066 9.7833C14.4415 9.88227 14.2692 9.96896 14.0913 10.0426C13.5013 10.2885 12.868 10.4143 12.2285 10.4125C11.5892 10.4153 10.9558 10.2897 10.3663 10.0433C10.1883 9.9694 10.0161 9.8825 9.851 9.7833C9.78162 9.74365 9.71475 9.6998 9.65076 9.652L9.64749 9.6494C9.56076 9.58301 9.49885 9.48956 9.47165 9.38399C9.44446 9.27842 9.45355 9.16682 9.49748 9.067L11.6943 4.075H11.1164C10.8874 4.075 10.6637 4.0061 10.4746 3.87805L9.36768 3.12795C9.34072 3.10976 9.30892 3.10002 9.27636 3.1H7.98881V12.525H10.9155C11.0452 12.525 11.1696 12.5764 11.2614 12.6678C11.3531 12.7592 11.4047 12.8832 11.4047 13.0125C11.4047 13.1418 11.3531 13.2658 11.2614 13.3572C11.1696 13.4486 11.0452 13.5 10.9155 13.5H4.08375C3.95401 13.5 3.82958 13.4486 3.73784 13.3572C3.6461 13.2658 3.59456 13.1418 3.59456 13.0125C3.59456 12.8832 3.6461 12.7592 3.73784 12.6678C3.82958 12.5764 3.95401 12.525 4.08375 12.525H7.01042V3.1H5.72222C5.68966 3.10002 5.65786 3.10976 5.6309 3.12795L4.52468 3.87805C4.33552 4.0061 4.1118 4.075 3.88286 4.075H3.30496L5.50176 9.067C5.54427 9.16398 5.55397 9.27212 5.52938 9.37507C5.50478 9.47803 5.44724 9.57021 5.36543 9.6377C5.31325 9.67995 5.26107 9.7196 5.16323 9.78265C4.99837 9.88926 4.82569 9.98334 4.64665 10.0641C4.0577 10.3313 3.41786 10.4687 2.77076 10.4671C2.12366 10.4687 1.48382 10.3313 0.894872 10.0641C0.715829 9.98334 0.543145 9.88926 0.378285 9.78265C0.308857 9.73797 0.241599 9.69004 0.176738 9.639C0.0954112 9.57087 0.0382006 9.47851 0.0135394 9.37552C-0.0111217 9.27254 -0.0019284 9.16438 0.039764 9.067L2.23591 4.075H1.2073C1.07756 4.075 0.953132 4.02364 0.861391 3.93221C0.76965 3.84079 0.71811 3.71679 0.71811 3.5875C0.71811 3.45821 0.76965 3.33421 0.861391 3.24279C0.953132 3.15136 1.07756 3.1 1.2073 3.1H3.88286C3.9159 3.1 3.94656 3.09068 3.97482 3.07205L5.0804 2.32195C5.26955 2.19325 5.49393 2.125 5.72287 2.125H7.01042V0.9875C7.01042 0.858207 7.06196 0.734209 7.1537 0.642785C7.24545 0.551361 7.36987 0.5 7.49962 0.5C7.62936 0.5 7.75378 0.551361 7.84553 0.642785C7.93727 0.734209 7.98881 0.858207 7.98881 0.9875ZM1.10294 9.0787C1.61616 9.3514 2.18915 9.4932 2.77076 9.49145C3.35237 9.4932 3.92536 9.3514 4.43858 9.0787L2.77076 5.2892L1.10294 9.0787ZM10.5672 9.0631C10.6207 9.0891 10.6805 9.1164 10.7465 9.145C11.0922 9.28995 11.5977 9.4375 12.2285 9.4375C12.8035 9.43903 13.3714 9.31105 13.8898 9.0631L12.2285 5.28855L10.5672 9.0631Z" fill="#155DFC"/>
</svg>
