<svg id="header-3" width="19" height="12" viewBox="0 0 19 12" fill="none" xmlns="http://www.w3.org/2000/svg">
<mask id="path-1-inside-1_58_167" fill="white">
<path d="M12.8576 5.96146C14.396 5.96146 15.6496 4.59806 15.6496 2.93915C15.6496 1.29911 14.4024 0 12.8576 0C11.3257 0 10.0654 1.3183 10.0654 2.95195C10.0718 4.60446 11.3257 5.96146 12.8576 5.96146ZM5.41207 6.10282C6.74343 6.10282 7.83564 4.91309 7.83564 3.45343C7.83564 2.02575 6.75629 0.87471 5.41207 0.87471C4.08071 0.87471 2.98207 2.04525 2.9885 3.46622C2.99493 4.91981 4.08071 6.10282 5.41207 6.10282ZM12.8576 4.99049C11.9139 4.99049 11.1059 4.09019 11.1059 2.95195C11.1059 1.83257 11.9011 0.971296 12.8576 0.971296C13.8206 0.971296 14.6091 1.8201 14.6091 2.93883C14.6091 4.0774 13.8142 4.99049 12.8576 4.99049ZM5.41207 5.14464C4.62361 5.14464 3.9515 4.39242 3.9515 3.46622C3.9515 2.55953 4.61686 1.83289 5.41207 1.83289C6.22625 1.83289 6.87907 2.54673 6.87907 3.45343C6.87907 4.39242 6.20696 5.14464 5.41207 5.14464ZM1.8185 12H6.89225C6.58175 11.8263 6.34261 11.4403 6.38793 11.0482H1.65714C1.52793 11.0482 1.46332 10.997 1.46332 10.8746C1.46332 9.27992 3.29225 7.78796 5.40596 7.78796C6.22014 7.78796 6.95043 7.98081 7.57754 8.34733C7.78555 8.08528 8.03169 7.85558 8.30782 7.66579C7.47404 7.11889 6.47246 6.83617 5.40596 6.83617C2.69761 6.83617 0.5 8.79092 0.5 10.9324C0.5 11.6463 0.939393 12 1.8185 12ZM8.79864 12H16.9166C17.9893 12 18.5 11.6786 18.5 10.9711C18.5 9.28632 16.3606 6.84865 12.8576 6.84865C9.34796 6.84865 7.20886 9.28632 7.20886 10.9711C7.20886 11.6786 7.71929 12 8.79864 12ZM8.48846 11.029C8.32036 11.029 8.24932 10.9842 8.24932 10.849C8.24932 9.7942 9.89086 7.82026 12.8576 7.82026C15.818 7.82026 17.4592 9.7942 17.4592 10.849C17.4592 10.9839 17.3949 11.029 17.2265 11.029H8.48846Z"/>
</mask>
<path d="M12.8576 5.96146C14.396 5.96146 15.6496 4.59806 15.6496 2.93915C15.6496 1.29911 14.4024 0 12.8576 0C11.3257 0 10.0654 1.3183 10.0654 2.95195C10.0718 4.60446 11.3257 5.96146 12.8576 5.96146ZM5.41207 6.10282C6.74343 6.10282 7.83564 4.91309 7.83564 3.45343C7.83564 2.02575 6.75629 0.87471 5.41207 0.87471C4.08071 0.87471 2.98207 2.04525 2.9885 3.46622C2.99493 4.91981 4.08071 6.10282 5.41207 6.10282ZM12.8576 4.99049C11.9139 4.99049 11.1059 4.09019 11.1059 2.95195C11.1059 1.83257 11.9011 0.971296 12.8576 0.971296C13.8206 0.971296 14.6091 1.8201 14.6091 2.93883C14.6091 4.0774 13.8142 4.99049 12.8576 4.99049ZM5.41207 5.14464C4.62361 5.14464 3.9515 4.39242 3.9515 3.46622C3.9515 2.55953 4.61686 1.83289 5.41207 1.83289C6.22625 1.83289 6.87907 2.54673 6.87907 3.45343C6.87907 4.39242 6.20696 5.14464 5.41207 5.14464ZM1.8185 12H6.89225C6.58175 11.8263 6.34261 11.4403 6.38793 11.0482H1.65714C1.52793 11.0482 1.46332 10.997 1.46332 10.8746C1.46332 9.27992 3.29225 7.78796 5.40596 7.78796C6.22014 7.78796 6.95043 7.98081 7.57754 8.34733C7.78555 8.08528 8.03169 7.85558 8.30782 7.66579C7.47404 7.11889 6.47246 6.83617 5.40596 6.83617C2.69761 6.83617 0.5 8.79092 0.5 10.9324C0.5 11.6463 0.939393 12 1.8185 12ZM8.79864 12H16.9166C17.9893 12 18.5 11.6786 18.5 10.9711C18.5 9.28632 16.3606 6.84865 12.8576 6.84865C9.34796 6.84865 7.20886 9.28632 7.20886 10.9711C7.20886 11.6786 7.71929 12 8.79864 12ZM8.48846 11.029C8.32036 11.029 8.24932 10.9842 8.24932 10.849C8.24932 9.7942 9.89086 7.82026 12.8576 7.82026C15.818 7.82026 17.4592 9.7942 17.4592 10.849C17.4592 10.9839 17.3949 11.029 17.2265 11.029H8.48846Z" fill="#155DFC"/>
<path d="M10.0654 2.95195H7.06537L7.06542 2.96362L10.0654 2.95195ZM2.9885 3.46622L5.98847 3.45295L5.98847 3.45265L2.9885 3.46622ZM6.89225 12V15H18.4019L8.35667 9.3817L6.89225 12ZM6.38793 11.0482L9.36809 11.3927L9.75466 8.04821H6.38793V11.0482ZM7.57754 8.34733L6.06376 10.9374L8.30975 12.2501L9.92719 10.2126L7.57754 8.34733ZM8.30782 7.66579L10.0071 10.1381L13.6889 7.60757L9.95321 5.15726L8.30782 7.66579ZM12.8576 5.96146V8.96146C16.2763 8.96146 18.6496 6.02225 18.6496 2.93915H15.6496H12.6496C12.6496 3.0102 12.6231 3.04081 12.6254 3.03833C12.628 3.03553 12.6461 3.01689 12.688 2.99755C12.7332 2.97677 12.7933 2.96146 12.8576 2.96146V5.96146ZM15.6496 2.93915H18.6496C18.6496 -0.220011 16.1937 -3 12.8576 -3V0V3C12.8188 3 12.7746 2.99099 12.7347 2.97338C12.6971 2.95677 12.6736 2.93732 12.6612 2.92423C12.6345 2.89628 12.6496 2.89003 12.6496 2.93915H15.6496ZM12.8576 0V-3C9.52289 -3 7.06539 -0.188717 7.06539 2.95195H10.0654H13.0654C13.0654 2.91539 13.0774 2.91343 13.0631 2.92849C13.0557 2.93633 13.0363 2.9538 12.9994 2.97033C12.9598 2.98799 12.9096 3 12.8576 3V0ZM10.0654 2.95195L7.06542 2.96362C7.07738 6.03806 9.45213 8.96146 12.8576 8.96146V5.96146V2.96146C12.9233 2.96146 12.9837 2.97703 13.0285 2.99759C13.0701 3.01671 13.0878 3.03499 13.09 3.03734C13.0913 3.03874 13.0656 3.00834 13.0654 2.94028L10.0654 2.95195ZM5.41207 6.10282V9.10282C8.64328 9.10282 10.8356 6.31603 10.8356 3.45343H7.83564H4.83564C4.83564 3.43254 4.84401 3.37219 4.91067 3.29939C4.98014 3.22353 5.15232 3.10282 5.41207 3.10282V6.10282ZM7.83564 3.45343H10.8356C10.8356 0.548987 8.58768 -2.12529 5.41207 -2.12529V0.87471V3.87471C5.19845 3.87471 5.02979 3.77684 4.94117 3.68247C4.85634 3.59216 4.83564 3.5023 4.83564 3.45343H7.83564ZM5.41207 0.87471V-2.12529C2.24745 -2.12529 -0.0246195 0.573096 -0.0114693 3.47979L2.9885 3.46622L5.98847 3.45265C5.9888 3.5252 5.96032 3.61135 5.8886 3.68797C5.81537 3.76617 5.65177 3.87471 5.41207 3.87471V0.87471ZM2.9885 3.46622L-0.0114707 3.47949C0.00112668 6.32791 2.18345 9.10282 5.41207 9.10282V6.10282V3.10282C5.66764 3.10282 5.84072 3.2217 5.91258 3.29992C5.98075 3.37412 5.98839 3.43453 5.98847 3.45295L2.9885 3.46622ZM12.8576 4.99049V1.99049C13.3752 1.99049 13.7256 2.23884 13.89 2.42761C14.0562 2.61843 14.1059 2.81276 14.1059 2.95195H11.1059H8.10586C8.10586 5.3447 9.88151 7.99049 12.8576 7.99049V4.99049ZM11.1059 2.95195H14.1059C14.1059 3.10578 14.0486 3.33037 13.8571 3.54408C13.6638 3.75976 13.3144 3.9713 12.8576 3.9713V0.971296V-2.0287C9.94354 -2.0287 8.10586 0.493302 8.10586 2.95195H11.1059ZM12.8576 0.971296V3.9713C12.4225 3.9713 12.0714 3.77167 11.8667 3.54471C11.6653 3.32144 11.6091 3.08845 11.6091 2.93883H14.6091H17.6091C17.6091 0.462302 15.7615 -2.0287 12.8576 -2.0287V0.971296ZM14.6091 2.93883H11.6091C11.6091 2.8151 11.6518 2.62847 11.8163 2.43697C11.9829 2.24294 12.3387 1.99049 12.8576 1.99049V4.99049V7.99049C15.8831 7.99049 17.6091 5.28981 17.6091 2.93883H14.6091ZM5.41207 5.14464V2.14464C6.0061 2.14464 6.42579 2.42872 6.64114 2.67416C6.85797 2.92128 6.9515 3.20614 6.9515 3.46622H3.9515H0.9515C0.9515 5.66868 2.6102 8.14464 5.41207 8.14464V5.14464ZM3.9515 3.46622H6.9515C6.9515 3.74839 6.84721 4.05696 6.61254 4.31747C6.3771 4.57882 5.96062 4.83289 5.41207 4.83289V1.83289V-1.16711C2.67297 -1.16711 0.9515 1.20507 0.9515 3.46622H3.9515ZM5.41207 1.83289V4.83289C4.30378 4.83289 3.87907 3.92487 3.87907 3.45343H6.87907H9.87907C9.87907 1.1686 8.14872 -1.16711 5.41207 -1.16711V1.83289ZM6.87907 3.45343H3.87907C3.87907 3.20919 3.96636 2.92644 4.18643 2.67506C4.40626 2.42397 4.82694 2.14464 5.41207 2.14464V5.14464V8.14464C8.22623 8.14464 9.87907 5.662 9.87907 3.45343H6.87907ZM1.8185 12V15H6.89225V12V9H1.8185V12ZM6.89225 12L8.35667 9.3817C8.71966 9.58472 8.96957 9.86198 9.12893 10.1487C9.29304 10.444 9.42798 10.8745 9.36809 11.3927L6.38793 11.0482L3.40777 10.7037C3.20493 12.4586 4.20822 13.9362 5.42783 14.6183L6.89225 12ZM6.38793 11.0482V8.04821H1.65714V11.0482V14.0482H6.38793V11.0482ZM1.65714 11.0482V8.04821C1.89799 8.04821 2.71789 8.08019 3.48088 8.74399C4.33402 9.48622 4.46332 10.4289 4.46332 10.8746H1.46332H-1.53668C-1.53668 11.4427 -1.37507 12.4722 -0.457324 13.2706C0.370273 13.9907 1.28708 14.0482 1.65714 14.0482V11.0482ZM1.46332 10.8746H4.46332C4.46332 11.0587 4.4096 11.1676 4.39785 11.1885C4.38857 11.2051 4.41201 11.1585 4.50646 11.0835C4.70674 10.9247 5.03776 10.788 5.40596 10.788V7.78796V4.78796C3.66045 4.78796 2.02015 5.39724 0.77754 6.383C-0.433235 7.3435 -1.53668 8.90542 -1.53668 10.8746H1.46332ZM5.40596 7.78796V10.788C5.73385 10.788 5.9339 10.8615 6.06376 10.9374L7.57754 8.34733L9.09131 5.75725C7.96696 5.10012 6.70643 4.78796 5.40596 4.78796V7.78796ZM7.57754 8.34733L9.92719 10.2126C9.94952 10.1844 9.97636 10.1593 10.0071 10.1381L8.30782 7.66579L6.60855 5.19345C6.08702 5.5519 5.62159 5.98613 5.22788 6.48209L7.57754 8.34733ZM8.30782 7.66579L9.95321 5.15726C8.58732 4.26136 7.00315 3.83617 5.40596 3.83617V6.83617V9.83617C5.94178 9.83617 6.36075 9.97643 6.66244 10.1743L8.30782 7.66579ZM5.40596 6.83617V3.83617C1.50996 3.83617 -2.5 6.7009 -2.5 10.9324H0.5H3.5C3.5 10.9137 3.51991 10.674 3.88271 10.365C4.23103 10.0683 4.76883 9.83617 5.40596 9.83617V6.83617ZM0.5 10.9324H-2.5C-2.5 11.9365 -2.16002 13.1747 -1.05659 14.0668C-0.0760679 14.8596 1.05584 15 1.8185 15V12V9C1.70205 9 2.17471 8.96358 2.71576 9.40102C3.00585 9.63556 3.22459 9.93761 3.35686 10.2592C3.48144 10.5621 3.5 10.8088 3.5 10.9324H0.5ZM8.79864 12V15H16.9166V12V9H8.79864V12ZM16.9166 12V15C17.6406 15 18.7429 14.9127 19.7363 14.2722C20.9895 13.4641 21.5 12.1728 21.5 10.9711H18.5H15.5C15.5 10.7885 15.5337 10.4626 15.7188 10.0915C15.9129 9.70224 16.1988 9.41398 16.4848 9.22956C16.7454 9.0615 16.953 9.01249 17.0077 9.00116C17.0647 8.98935 17.0459 9 16.9166 9V12ZM18.5 10.9711H21.5C21.5 8.97218 20.3348 7.17195 18.926 5.98438C17.4192 4.71406 15.3258 3.84865 12.8576 3.84865V6.84865V9.84865C13.8925 9.84865 14.6202 10.2021 15.0588 10.5718C15.2847 10.7622 15.4166 10.9422 15.4807 11.0589C15.5529 11.1906 15.5 11.165 15.5 10.9711H18.5ZM12.8576 6.84865V3.84865C10.3875 3.84865 8.29266 4.71312 6.78438 5.98363C5.3742 7.17151 4.20886 8.972 4.20886 10.9711H7.20886H10.2089C10.2089 11.1649 10.156 11.1907 10.2281 11.0593C10.292 10.9427 10.4239 10.7629 10.6499 10.5725C11.0886 10.203 11.8181 9.84865 12.8576 9.84865V6.84865ZM7.20886 10.9711H4.20886C4.20886 12.1732 4.71984 13.4663 5.97659 14.2743C6.97076 14.9135 8.0741 15 8.79864 15V12V9C8.66675 9 8.64584 8.98921 8.70105 9.0006C8.75385 9.01149 8.96077 9.05985 9.22139 9.2274C9.50766 9.41146 9.79462 9.69988 9.98951 10.0902C10.1753 10.4623 10.2089 10.7889 10.2089 10.9711H7.20886ZM8.48846 11.029V8.02902C8.50665 8.02902 9.28688 7.9956 10.0665 8.56072C11.1083 9.31584 11.2493 10.4016 11.2493 10.849H8.24932H5.24932C5.24932 11.4316 5.42588 12.6074 6.54519 13.4187C7.40237 14.0401 8.30217 14.029 8.48846 14.029V11.029ZM8.24932 10.849H11.2493C11.2493 11.0962 11.2033 11.2681 11.177 11.3488C11.1623 11.3935 11.1488 11.4253 11.1398 11.4444C11.1308 11.4638 11.1248 11.4739 11.1239 11.4755C11.1226 11.4776 11.1354 11.4563 11.1691 11.4183C11.2021 11.3811 11.2503 11.3335 11.3157 11.2812C11.5706 11.0771 12.0631 10.8203 12.8576 10.8203V7.82026V4.82026C10.6854 4.82026 8.8737 5.55041 7.56622 6.59697C6.42666 7.50912 5.24932 9.03827 5.24932 10.849H8.24932ZM12.8576 7.82026V10.8203C13.6474 10.8203 14.1379 11.0761 14.3926 11.2801C14.4578 11.3324 14.506 11.3801 14.539 11.4173C14.5727 11.4553 14.5855 11.4767 14.5843 11.4747C14.5834 11.4732 14.5775 11.4632 14.5685 11.4439C14.5596 11.4248 14.5461 11.3931 14.5315 11.3484C14.5052 11.2679 14.4592 11.0961 14.4592 10.849H17.4592H20.4592C20.4592 9.03897 19.2827 7.51005 18.1446 6.59801C16.8386 5.55144 15.0283 4.82026 12.8576 4.82026V7.82026ZM17.4592 10.849H14.4592C14.4592 10.4897 14.552 9.38863 15.5937 8.59892C16.3961 7.99059 17.219 8.02902 17.2265 8.02902V11.029V14.029C17.4024 14.029 18.3417 14.0449 19.2184 13.3803C20.3343 12.5343 20.4592 11.3432 20.4592 10.849H17.4592ZM17.2265 11.029V8.02902H8.48846V11.029V14.029H17.2265V11.029Z" fill="#155DFC" mask="url(#path-1-inside-1_58_167)"/>
</svg>
