<svg id="header-2" width="18" height="18" viewBox="0 0 18 18" fill="none" xmlns="http://www.w3.org/2000/svg">
<path d="M16.1199 5.25699L15.7399 4.59777C15.453 4.09932 15.3091 3.8501 15.0653 3.75164C14.8207 3.65164 14.5445 3.7301 13.9922 3.88702L13.0538 4.15086C12.7007 4.2324 12.3307 4.18624 12.0084 4.02086L11.7492 3.87163C11.4729 3.69445 11.2605 3.43354 11.143 3.12703L10.8861 2.36012C10.7169 1.85244 10.6323 1.5986 10.4323 1.45244C10.23 1.30783 9.96229 1.30783 9.42845 1.30783H8.57155C8.03694 1.30783 7.77002 1.30783 7.56926 1.45321C7.36772 1.59859 7.28388 1.85244 7.11465 2.36012L6.85773 3.12703C6.74029 3.43354 6.52789 3.69445 6.25159 3.87163L5.99236 4.02086C5.67015 4.18612 5.29998 4.23243 4.94699 4.15163L4.00855 3.88702C3.45625 3.7301 3.1801 3.65164 2.93549 3.75087C2.69165 3.85086 2.5478 4.09932 2.26088 4.59777L1.88089 5.25699C1.61166 5.72391 1.47705 5.95698 1.50397 6.20621C1.52936 6.45467 1.70936 6.65466 2.07012 7.05542L2.86241 7.94233C3.05702 8.18771 3.19471 8.6154 3.19471 9.00001C3.19471 9.38462 3.05626 9.8123 2.86318 10.0577L2.07012 10.9446C1.70936 11.3446 1.52936 11.5453 1.50321 11.7938C1.47705 12.0423 1.61166 12.2761 1.88089 12.743L2.26088 13.4022C2.5478 13.9007 2.69165 14.1499 2.93549 14.2484C3.1801 14.3484 3.45625 14.2699 4.00855 14.113L4.94699 13.8492C5.30083 13.7676 5.67006 13.8138 5.99313 13.9792L6.25159 14.1284C6.52773 14.3053 6.74004 14.5668 6.85773 14.873L7.11465 15.6399C7.28388 16.1476 7.36849 16.4014 7.56849 16.5476C7.77002 16.6922 8.03771 16.6922 8.57155 16.6922H9.42845C9.96306 16.6922 10.23 16.6922 10.4307 16.5468C10.6323 16.4014 10.7169 16.1483 10.8854 15.6407L11.1423 14.873C11.26 14.5661 11.4723 14.3053 11.7484 14.1284L12.0076 13.9792C12.3298 13.8139 12.7 13.7676 13.053 13.8484L13.9915 14.113C14.5438 14.2699 14.8199 14.3484 15.0645 14.2491C15.3084 14.1491 15.4522 13.9007 15.7391 13.4022L16.1191 12.743C16.3883 12.2761 16.5229 12.043 16.496 11.7938C16.4706 11.5453 16.2906 11.3454 15.9299 10.9446L15.1376 10.0577C14.943 9.81153 14.8053 9.38462 14.8053 9.00001C14.8053 8.6154 14.9437 8.18771 15.1368 7.94233L15.9299 7.05542C16.2906 6.65543 16.4706 6.45467 16.4968 6.20621C16.5229 5.95775 16.3891 5.72391 16.1199 5.25699Z" stroke="#155DFC" stroke-width="1.5" stroke-linecap="round"/>
<path d="M10.5869 8.61547L10.9715 8.23086C11.3107 7.89164 11.4807 7.72164 11.703 7.79241C11.9261 7.86241 11.9615 8.06394 12.0315 8.46701C12.0622 8.64034 12.0776 8.81803 12.0776 9.00008C12.0779 9.50404 11.9543 10.0003 11.7178 10.4454C11.4814 10.8904 11.1392 11.2705 10.7214 11.5523C10.3036 11.8342 9.82298 12.009 9.32177 12.0616C8.82056 12.1142 8.31412 12.0429 7.84693 11.8539M7.46233 9.41161L7.04387 9.83007C6.71003 10.1639 6.54234 10.3316 6.32235 10.2647C6.10158 10.1978 6.06235 10.0001 5.98389 9.60546C5.87444 9.06079 5.91449 8.49664 6.09981 7.97291C6.28513 7.44917 6.6088 6.98538 7.03645 6.63076C7.46411 6.27614 7.9798 6.04392 8.52879 5.95876C9.07779 5.8736 9.63959 5.93866 10.1546 6.14705" stroke="#155DFC" stroke-width="1.5" stroke-linecap="round" stroke-linejoin="round"/>
</svg>
