<svg id="header-4" width="18" height="16" viewBox="0 0 18 16" fill="none" xmlns="http://www.w3.org/2000/svg">
<path d="M9 14.5C7.90459 13.6914 6.63649 13.1762 5.30676 13.0028C4.36366 12.8019 3.40283 12.707 2.44054 12.7197C2.31741 12.7208 2.19529 12.6963 2.08122 12.6477C1.96716 12.599 1.86341 12.5272 1.77596 12.4363C1.68852 12.3454 1.61911 12.2372 1.57174 12.118C1.52438 11.9989 1.5 11.871 1.5 11.7419L1.51703 2.48053C1.51651 2.23204 1.60624 1.99265 1.76799 1.81104C1.92975 1.62943 2.15137 1.51921 2.38784 1.50279C3.36741 1.48237 4.34619 1.57417 5.30676 1.77656C6.63505 1.95625 7.90216 2.47023 9 3.27463M9 14.5V3.27463M9 14.5C10.0954 13.6914 11.3635 13.1762 12.6932 13.0028C13.6363 12.8019 14.5972 12.707 15.5595 12.7197C15.6826 12.7208 15.8047 12.6963 15.9188 12.6477C16.0328 12.599 16.1366 12.5272 16.224 12.4363C16.3115 12.3454 16.3809 12.2372 16.4283 12.118C16.4756 11.9989 16.5 11.871 16.5 11.7419L16.4822 2.48053C16.4827 2.23217 16.3931 1.99291 16.2315 1.81132C16.0699 1.62972 15.8485 1.51942 15.6122 1.50279C14.6326 1.48237 13.6538 1.57417 12.6932 1.77656C11.365 1.95625 10.0978 2.47023 9 3.27463" stroke="#155DFC" stroke-width="1.5" stroke-linecap="round" stroke-linejoin="round"/>
</svg>
