<svg width="53" height="53" viewBox="0 0 53 53" fill="none" xmlns="http://www.w3.org/2000/svg">
<g clip-path="url(#clip0_12_249)">
<path d="M33.2739 10.7721C33.4321 10.9071 33.5896 11.0429 33.7462 11.1797C33.8208 11.2382 33.8954 11.2968 33.9722 11.3572C35.4613 12.5702 36.4844 14.3718 37.0975 16.1678C37.1223 16.2403 37.147 16.3127 37.1725 16.3873C37.5062 17.4317 37.6073 18.4815 37.6047 19.573C37.6055 19.7503 37.6055 19.7503 37.6063 19.9311C37.6077 20.3174 37.6077 20.7037 37.6074 21.0901C37.6078 21.3604 37.6083 21.6308 37.6088 21.9011C37.6096 22.4657 37.6095 23.0303 37.609 23.5949C37.6083 24.2461 37.6096 24.8972 37.6118 25.5484C37.6139 26.1777 37.6142 26.807 37.6138 27.4363C37.6139 27.703 37.6144 27.9697 37.6154 28.2363C37.6167 28.6086 37.616 28.9809 37.6148 29.3533C37.6156 29.4629 37.6164 29.5726 37.6172 29.6856C37.6104 30.6374 37.3717 31.2061 36.7243 31.9107C36.3279 32.2983 35.9242 32.4997 35.3699 32.5071C35.2832 32.5036 35.1965 32.5002 35.1073 32.4966C33.9975 32.4471 33.9975 32.4471 32.9957 32.8346C32.7457 33.1217 32.7457 33.1217 32.5291 33.4347C32.264 33.7903 31.9815 34.0204 31.6241 34.2766C31.4688 34.3891 31.4688 34.3891 31.3104 34.5038C31.0548 34.6777 31.0548 34.6777 30.8478 34.7812C30.7803 34.9908 30.7803 34.9908 30.7442 35.1953C30.8128 35.2005 30.8813 35.2057 30.952 35.2111C31.6628 35.2697 32.3582 35.3681 33.06 35.4945C33.168 35.5138 33.2761 35.5331 33.3874 35.553C33.6142 35.5938 33.841 35.6349 34.0677 35.6762C34.4111 35.7385 34.7548 35.7987 35.0986 35.8588C37.2306 36.2408 39.0002 36.8213 40.3712 38.6113C41.1884 39.9093 41.5851 41.4365 42.0573 42.8832C42.1478 43.1594 42.2393 43.4352 42.3308 43.7111C42.4403 44.0409 42.5491 44.3709 42.6578 44.7009C42.6986 44.8244 42.7393 44.9478 42.7813 45.075C42.8184 45.1885 42.8554 45.3019 42.8936 45.4188C42.9263 45.5188 42.9591 45.6188 42.9928 45.7218C43.0626 45.9609 43.0626 45.9609 43.0626 46.1679C34.0956 46.2192 34.0956 46.2192 24.9474 46.2715C25.289 46.6131 25.6306 46.9547 25.9825 47.3066C25.867 47.7686 25.7886 47.8371 25.4391 48.1347C25.0096 48.5078 24.5875 48.8861 24.171 49.2734C23.6899 49.7189 23.2062 50.1612 22.7161 50.5969C22.5401 50.7563 22.3673 50.9191 22.1969 51.0845C20.7532 52.4673 19.3052 53.0553 17.3079 53.0435C15.3175 52.9905 13.9347 52.0053 12.5807 50.6362C12.4573 50.5132 12.3337 50.3904 12.21 50.2676C11.8773 49.9369 11.5463 49.6045 11.2156 49.2718C10.8677 48.9222 10.5185 48.5739 10.1695 48.2255C9.58408 47.6405 8.99971 47.0545 8.41596 46.4679C7.74278 45.7914 7.06796 45.1165 6.39223 44.4426C5.73974 43.7917 5.08843 43.1397 4.43764 42.4872C4.16174 42.2106 3.88545 41.9344 3.60882 41.6585C3.28278 41.3333 2.95779 41.007 2.63356 40.68C2.51499 40.5607 2.39608 40.4418 2.27678 40.3232C1.13444 39.1872 0.090052 37.8059 0.0001089 36.1269C-0.00629613 36.0331 -0.0127012 35.9393 -0.0193003 35.8427C-0.087919 34.0907 0.474062 32.5726 1.65421 31.2808C2.36226 30.5269 3.10351 29.8042 3.83666 29.0749C4.00698 28.9051 4.17729 28.7353 4.34756 28.5654C4.76142 28.1527 5.17557 27.7403 5.58995 27.3281C6.31695 27.9224 6.96914 28.5907 7.63075 29.2553C7.75733 29.3821 7.88395 29.5088 8.01058 29.6355C8.3418 29.9672 8.6727 30.2991 9.00354 30.6311C9.342 30.9706 9.68076 31.3098 10.0195 31.6491C10.6826 32.3133 11.3454 32.9778 12.0079 33.6426C11.8711 33.9471 11.725 34.1561 11.4845 34.3867C11.4206 34.4486 11.3567 34.5105 11.2908 34.5742C11.1876 34.6729 11.1876 34.6729 11.0823 34.7735C10.9372 34.9151 10.7921 35.0567 10.6471 35.1983C10.4185 35.4205 10.1895 35.6421 9.95937 35.8627C9.73707 36.0762 9.51678 36.2916 9.2967 36.5074C9.22769 36.5726 9.15868 36.6377 9.08758 36.7049C8.76776 37.0211 8.60795 37.2112 8.47828 37.651C8.48938 38.0234 8.51557 38.1208 8.77346 38.3784C8.87417 38.4821 8.87417 38.4821 8.9769 38.5879C9.05482 38.6639 9.13273 38.74 9.213 38.8183C9.30012 38.9072 9.38724 38.9961 9.47699 39.0876C9.76418 39.3797 10.0543 39.6687 10.3452 39.957C10.4467 40.0579 10.5481 40.1589 10.6495 40.2599C10.895 40.5042 11.1408 40.7483 11.3868 40.9922C11.4209 40.9092 11.4549 40.8263 11.49 40.7409C11.5355 40.6309 11.581 40.5208 11.6278 40.4075C11.6726 40.2989 11.7173 40.1904 11.7634 40.0786C12.481 38.4065 13.6152 37.125 15.3204 36.4375C16.53 36.0802 17.7737 35.8608 19.0135 35.6384C19.322 35.5829 19.6303 35.5262 19.9386 35.4694C20.1366 35.4335 20.3346 35.3977 20.5326 35.3619C20.6238 35.3451 20.715 35.3283 20.809 35.3109C21.2632 35.2302 21.6889 35.1758 22.1525 35.1953C22.1153 34.9269 22.0858 34.8111 21.8714 34.6377C21.7955 34.5932 21.7196 34.5488 21.6413 34.503C19.7818 33.3253 18.4987 31.4347 18.0118 29.2949C18.0118 29.1924 18.0118 29.0899 18.0118 28.9844C17.9286 28.9779 17.8453 28.9715 17.7595 28.9649C16.9354 28.777 16.3087 28.3376 15.838 27.6386C15.4696 26.9975 15.3049 26.4721 15.3037 25.7292C15.3032 25.6508 15.3027 25.5725 15.3022 25.4918C15.3007 25.2321 15.3 24.9724 15.2994 24.7127C15.2988 24.5312 15.2982 24.3497 15.2976 24.1682C15.2965 23.7867 15.2959 23.4052 15.2956 23.0237C15.295 22.5389 15.2925 22.0542 15.2896 21.5694C15.2876 21.1937 15.2871 20.818 15.2869 20.4423C15.2866 20.2639 15.2858 20.0855 15.2844 19.9071C15.2742 18.4756 15.4134 17.1362 15.9092 15.7796C15.9356 15.7067 15.9621 15.6337 15.9894 15.5585C17.062 12.7184 19.3149 10.5535 22.0489 9.31638C25.7091 7.7525 30.1457 8.3149 33.2739 10.7721ZM20.4962 12.4219C20.4171 12.4842 20.3379 12.5465 20.2564 12.6107C18.4558 14.1045 17.3291 16.4297 17.0802 18.7363C17.0487 19.4 17.0605 20.0648 17.0672 20.729C17.0683 20.9078 17.0692 21.0867 17.0701 21.2656C17.0723 21.6992 17.0759 22.1328 17.0802 22.5664C17.4389 22.4639 17.4389 22.4639 17.8048 22.3594C17.8048 22.0178 17.8048 21.6762 17.8048 21.3242C17.9201 21.3278 18.0354 21.3314 18.1542 21.3351C20.8779 21.3946 23.2094 20.5935 25.2579 18.7363C25.5319 18.4562 25.8023 18.1743 26.0662 17.8847C26.1411 17.8241 26.216 17.7636 26.2931 17.7011C26.7722 17.7561 27.0098 18.0905 27.3218 18.4258C28.9059 20.0601 31.133 21.2497 33.4506 21.3321C33.6851 21.3343 33.9193 21.3333 34.1538 21.3307C34.2748 21.33 34.2748 21.33 34.3982 21.3293C34.595 21.328 34.7917 21.3262 34.9884 21.3242C34.9884 21.6316 34.9884 21.9391 34.9884 22.2558C35.3822 22.4837 35.3822 22.4837 35.8165 22.5664C35.8217 22.0917 35.8254 21.617 35.8279 21.1423C35.8289 20.9815 35.8303 20.8207 35.8321 20.6599C35.8652 17.6491 35.0855 15.1224 32.9504 12.92C31.1184 11.0974 28.7082 10.3192 26.1695 10.3192C24.0438 10.3461 22.1437 11.0681 20.4962 12.4219ZM26.3966 20.082C26.3536 20.1235 26.3107 20.165 26.2664 20.2078C24.3973 21.9321 22.1381 22.6899 19.6681 23.084C19.6601 23.7964 19.6547 24.5089 19.651 25.2214C19.6495 25.4632 19.6474 25.7051 19.6447 25.9469C19.6179 28.3966 19.8534 30.3403 21.6349 32.1933C22.9473 33.4749 24.6055 34.1333 26.4354 34.2054C28.0073 34.1596 29.6258 33.6224 30.7442 32.5039C29.3095 32.5039 27.8748 32.5039 26.3966 32.5039C26.3966 31.9232 26.3966 31.3424 26.3966 30.7441C28.3437 30.7441 30.2908 30.7441 32.297 30.7441C33.2295 28.879 33.2711 27.5561 33.248 25.536C33.2465 25.2978 33.2451 25.0595 33.2438 24.8213C33.2404 24.2422 33.2352 23.6631 33.2286 23.084C33.1674 23.0729 33.1061 23.0619 33.043 23.0506C32.7608 22.9994 32.4788 22.9473 32.1967 22.8951C32.1004 22.8778 32.0041 22.8605 31.9049 22.8427C29.9786 22.4838 28.3397 21.5971 26.8107 20.3926C26.6729 20.2886 26.535 20.185 26.3966 20.082ZM17.4425 24.572C17.0965 24.9965 17.0497 25.4464 17.0802 25.9824C17.2503 26.4749 17.3771 26.5933 17.8048 26.914C17.8048 26.06 17.8048 25.206 17.8048 24.3261C17.6543 24.3143 17.6543 24.3143 17.4425 24.572ZM34.9884 24.3261C34.9884 25.2143 34.9884 26.1025 34.9884 27.0176C35.6214 26.5364 35.6214 26.5364 35.8165 25.8789C35.8248 25.2902 35.6812 24.8906 35.2989 24.4297C35.1965 24.3955 35.094 24.3613 34.9884 24.3261ZM34.8849 28.9844C34.6361 29.5103 34.3673 30.1551 34.3673 30.7441C34.9681 30.7944 34.9681 30.7944 35.4995 30.55C35.8695 30.1688 35.8277 29.9074 35.823 29.3855C35.822 29.2528 35.8211 29.1202 35.8202 28.9835C35.819 28.8813 35.8178 28.7791 35.8165 28.6738C35.433 28.6738 35.1758 28.7525 34.8849 28.9844ZM5.42134 30.0745C5.35528 30.1418 5.28923 30.209 5.22118 30.2783C5.15486 30.3456 5.08854 30.4128 5.02021 30.4821C4.96911 30.5344 4.918 30.5867 4.86534 30.6406C5.0078 30.9607 5.17088 31.1785 5.41896 31.4248C5.48941 31.4952 5.55986 31.5656 5.63244 31.6382C5.70836 31.713 5.78427 31.7879 5.86249 31.865C5.94032 31.9425 6.01814 32.0201 6.09833 32.0999C6.34676 32.3472 6.59591 32.5938 6.84508 32.8403C7.01374 33.0079 7.18236 33.1756 7.35093 33.3433C7.76405 33.7542 8.17775 34.1644 8.59191 34.5742C8.71387 34.4809 8.83437 34.3856 8.95421 34.2895C9.02146 34.2367 9.08872 34.1838 9.15801 34.1294C9.36265 33.9413 9.36265 33.9413 9.31651 33.539C9.18028 33.3421 9.18028 33.3421 8.98557 33.1594C8.91337 33.0869 8.84117 33.0144 8.76678 32.9397C8.68785 32.8626 8.60893 32.7855 8.52761 32.7061C8.44744 32.6262 8.36727 32.5464 8.28467 32.4641C8.11501 32.2956 7.94487 32.1275 7.77427 31.9599C7.51197 31.7021 7.25109 31.4431 6.99045 31.1837C6.82575 31.0203 6.66098 30.8571 6.49612 30.694C6.4174 30.616 6.33869 30.5381 6.25759 30.4578C6.18506 30.3866 6.11253 30.3154 6.0378 30.242C5.97367 30.1789 5.90954 30.1158 5.84346 30.0508C5.62927 29.8583 5.63453 29.8741 5.42134 30.0745ZM3.0797 32.3939C2.67798 32.8022 2.42046 33.2323 2.17394 33.7461C2.11202 33.8656 2.05011 33.9852 1.98631 34.1084C1.66264 35.0366 1.73636 36.3151 2.13806 37.2053C2.62361 38.1365 3.42992 38.8646 4.16361 39.6008C4.2797 39.718 4.39576 39.8353 4.51178 39.9526C4.82484 40.2688 5.13857 40.5843 5.45253 40.8996C5.64928 41.0972 5.84592 41.2949 6.04253 41.4926C6.65952 42.113 7.27695 42.7329 7.89499 43.3522C8.60519 44.0639 9.31382 44.777 10.0212 45.4915C10.5703 46.0461 11.1209 46.5992 11.6725 47.1513C12.0009 47.48 12.3287 47.8093 12.655 48.1402C12.9623 48.4516 13.2712 48.7612 13.5816 49.0695C13.6943 49.1821 13.8064 49.2953 13.9178 49.4091C14.9366 50.4492 16.0613 51.242 17.5654 51.2661C18.7567 51.2515 19.8146 50.803 20.6644 49.9592C20.7455 49.8695 20.8267 49.7799 20.9103 49.6875C20.7678 49.3674 20.6047 49.1496 20.3566 48.9033C20.2862 48.8329 20.2158 48.7625 20.1432 48.6899C20.0673 48.615 19.9913 48.5402 19.9131 48.4631C19.8353 48.3855 19.7575 48.308 19.6773 48.2281C19.4288 47.9809 19.1797 47.7343 18.9305 47.4878C18.7619 47.3201 18.5932 47.1525 18.4247 46.9847C18.0116 46.5739 17.5979 46.1637 17.1837 45.7539C17.1213 45.79 17.0588 45.8262 16.9945 45.8635C16.9117 45.9106 16.829 45.9577 16.7438 46.0062C16.6621 46.053 16.5804 46.0999 16.4963 46.1481C15.8376 46.4808 15.0425 46.4857 14.3465 46.2572C13.4892 45.8948 12.8737 45.1516 12.2319 44.5004C12.086 44.3543 11.9399 44.2084 11.7937 44.0625C11.4888 43.7575 11.1849 43.4515 10.8818 43.1447C10.4945 42.7526 10.1049 42.3629 9.71444 41.9739C9.41295 41.6731 9.1125 41.3712 8.81237 41.0691C8.66911 40.925 8.52557 40.7812 8.38175 40.6377C8.1806 40.4367 7.98085 40.2343 7.78142 40.0315C7.72259 39.9732 7.66375 39.9149 7.60314 39.8548C6.99505 39.2304 6.66942 38.6178 6.67687 37.7314C6.69258 37.0732 6.80635 36.684 7.14269 36.1269C7.18339 35.7299 7.18339 35.7299 7.00584 35.5255C6.94179 35.4621 6.87774 35.3986 6.81175 35.3333C6.73954 35.2608 6.66734 35.1883 6.59295 35.1136C6.51402 35.0365 6.4351 34.9593 6.35379 34.8799C6.27361 34.8001 6.19344 34.7202 6.11084 34.638C5.94118 34.4694 5.77104 34.3013 5.60044 34.1337C5.33815 33.876 5.07726 33.6169 4.81662 33.3575C4.65192 33.1942 4.48715 33.0309 4.32229 32.8678C4.20422 32.7509 4.20422 32.7509 4.08376 32.6316C4.01123 32.5604 3.9387 32.4892 3.86398 32.4158C3.79984 32.3527 3.73571 32.2896 3.66963 32.2246C3.39653 31.9792 3.31634 32.167 3.0797 32.3939ZM24.2228 35.7129C24.6766 36.2565 25.1553 36.7617 25.659 37.2591C25.7303 37.3299 25.8016 37.4007 25.875 37.4736C26.0486 37.6461 26.2225 37.8183 26.3966 37.9902C26.9402 37.5364 27.4454 37.0577 27.9429 36.5539C28.0136 36.4827 28.0844 36.4114 28.1574 36.338C28.3298 36.1644 28.502 35.9905 28.6739 35.8164C28.4135 35.7418 28.2685 35.7114 27.9962 35.7573C27.4884 35.8412 26.988 35.8313 26.4742 35.8293C26.3722 35.8297 26.2701 35.8301 26.1649 35.8305C25.5114 35.8297 24.8715 35.7912 24.2228 35.7129ZM22.0105 36.9495C21.8916 36.971 21.7727 36.9924 21.6502 37.0145C21.1743 37.1011 20.6984 37.188 20.2227 37.2755C19.8622 37.3418 19.5016 37.4076 19.1409 37.4725C18.7245 37.5473 18.3085 37.624 17.8925 37.7007C17.7646 37.7235 17.6367 37.7462 17.5049 37.7697C16.0602 38.0396 14.8646 38.5029 14.0022 39.7492C13.6344 40.3326 13.3924 40.936 13.166 41.5874C13.1301 41.6884 13.1301 41.6884 13.0934 41.7914C12.9715 42.1565 12.9038 42.3907 13.0431 42.7519C13.2137 42.9669 13.2137 42.9669 13.4309 43.1737C13.509 43.2513 13.5871 43.3289 13.6676 43.4088C13.7497 43.4888 13.8319 43.5688 13.9165 43.6512C14.0391 43.773 14.0391 43.773 14.1642 43.8973C14.6509 44.4248 14.6509 44.4248 15.3018 44.6447C15.7027 44.6088 15.8338 44.5082 16.1356 44.2464C16.2819 44.1201 16.2819 44.1201 16.4312 43.9913C16.9698 43.5058 17.4974 43.0083 18.0227 42.5085C18.3675 42.1821 18.7217 41.8683 19.0811 41.5581C19.212 41.4431 19.3378 41.3224 19.461 41.1992C19.8223 41.2357 19.8836 41.312 20.1413 41.5947C20.2441 41.7234 20.3466 41.8523 20.4489 41.9815C21.5595 43.3104 22.625 44.5769 24.4374 44.7404C25.2428 44.7821 26.0439 44.7616 26.8489 44.7231C27.3337 44.7033 27.8185 44.7018 28.3036 44.6981C29.217 44.6886 30.1291 44.6633 31.0419 44.6318C32.0832 44.5968 33.1246 44.58 34.1663 44.5645C36.3043 44.5322 38.4412 44.4778 40.5782 44.4082C40.4144 43.8811 40.2488 43.3547 40.0816 42.8287C40.0252 42.6501 39.9691 42.4714 39.9136 42.2926C39.6085 41.3107 39.3185 40.3895 38.715 39.5429C38.6402 39.4341 38.5655 39.3252 38.4885 39.213C37.8639 38.5883 37.2117 38.2083 36.3478 38.0133C35.8355 37.8956 35.3327 37.7646 34.8317 37.6047C32.3391 36.7368 32.3391 36.7368 29.8171 36.9865C28.4503 37.8203 27.4152 39.1846 26.5001 40.4746C26.1849 40.3338 25.9691 40.1757 25.7271 39.9305C25.6591 39.8621 25.5911 39.7937 25.521 39.7233C25.4487 39.6496 25.3764 39.576 25.302 39.5001C25.227 39.4246 25.152 39.349 25.0748 39.2712C24.8355 39.0302 24.597 38.7884 24.3586 38.5466C24.119 38.3041 23.8792 38.0618 23.6392 37.8198C23.4898 37.6692 23.3407 37.5183 23.192 37.3671C23.1249 37.2993 23.0579 37.2316 22.9888 37.1618C22.9296 37.1018 22.8704 37.0417 22.8094 36.9798C22.5683 36.7578 22.3216 36.8933 22.0105 36.9495ZM19.2597 43.7612C19.1852 43.8381 19.1108 43.9149 19.034 43.9941C18.9591 44.071 18.8841 44.1478 18.8068 44.227C18.7494 44.2868 18.692 44.3466 18.6329 44.4082C18.7754 44.7282 18.9385 44.9461 19.1865 45.1923C19.257 45.2628 19.3274 45.3332 19.4 45.4058C19.4759 45.4806 19.5519 45.5555 19.6301 45.6326C19.7079 45.7101 19.7857 45.7876 19.8659 45.8675C20.1143 46.1148 20.3635 46.3614 20.6127 46.6079C20.7813 46.7755 20.9499 46.9432 21.1185 47.1109C21.5316 47.5217 21.9453 47.932 22.3595 48.3418C22.4742 48.2474 22.5884 48.1524 22.7024 48.0571C22.766 48.0043 22.8297 47.9514 22.8953 47.897C23.0902 47.7149 23.241 47.5241 23.3946 47.3066C22.8684 46.7752 22.3414 46.2445 21.8139 45.7145C21.6343 45.5339 21.455 45.3531 21.2759 45.1722C21.0189 44.9127 20.7613 44.6539 20.5035 44.3952C20.423 44.3137 20.3426 44.2322 20.2597 44.1482C20.1478 44.0363 20.1478 44.0363 20.0337 43.9221C19.9351 43.8228 19.9351 43.8228 19.8344 43.7215C19.5784 43.5038 19.5061 43.5395 19.2597 43.7612Z" fill="#155DFC"/>
<path d="M38.2473 -0.0276982C38.4164 -0.0290227 38.4164 -0.0290227 38.5889 -0.0303739C38.7729 -0.0302332 38.7729 -0.0302332 38.9606 -0.0300896C39.0906 -0.030785 39.2206 -0.0314803 39.3546 -0.0321967C39.7105 -0.0340223 40.0664 -0.0345107 40.4223 -0.0346429C40.6449 -0.0347903 40.8676 -0.0352327 41.0902 -0.035781C41.8677 -0.0376954 42.6452 -0.038542 43.4227 -0.038379C44.1462 -0.0382547 44.8696 -0.0404379 45.593 -0.0437087C46.2152 -0.0464209 46.8373 -0.0475262 47.4595 -0.047394C47.8306 -0.0473414 48.2017 -0.0479237 48.5728 -0.0501223C48.9871 -0.0525098 49.4013 -0.0515548 49.8156 -0.0503075C49.9987 -0.0520526 49.9987 -0.0520526 50.1855 -0.053833C51.0016 -0.0475955 51.5538 0.0677388 52.1933 0.606521C52.2482 0.671105 52.303 0.735689 52.3595 0.802231C52.4157 0.865747 52.4719 0.929264 52.5298 0.994705C52.9187 1.59735 53.0389 2.16245 53.0419 2.87171C53.0426 2.94707 53.0433 3.02242 53.044 3.10007C53.0459 3.34652 53.0455 3.5929 53.0449 3.83936C53.0454 4.01233 53.0459 4.1853 53.0466 4.35827C53.0475 4.71979 53.0472 5.0813 53.0462 5.44282C53.045 5.90411 53.0471 6.36533 53.0501 6.82661C53.052 7.18354 53.052 7.54045 53.0514 7.89738C53.0514 8.06736 53.052 8.23734 53.0533 8.40732C53.0603 9.47436 53.0047 10.3303 52.3466 11.212C51.9427 11.6159 51.5019 11.9058 50.9297 12.0078C50.7339 12.0054 50.5381 11.9975 50.3426 11.986C48.4545 11.9247 47.3589 12.3419 45.8508 13.4466C45.3516 13.8038 44.8278 14.1198 44.3047 14.4404C44.1 14.5681 43.8954 14.696 43.6909 14.8242C43.2527 15.098 42.8144 15.3716 42.3759 15.645C42.2072 15.7503 42.2072 15.7503 42.0351 15.8577C41.82 15.9919 41.6049 16.126 41.3897 16.26C40.7942 16.6314 40.7942 16.6314 40.2102 17.0206C39.9571 17.1836 39.9571 17.1836 39.75 17.1836C39.8172 16.5278 39.9092 15.8818 40.0222 15.2326C40.0381 15.1397 40.054 15.0468 40.0705 14.9511C40.1208 14.6579 40.1716 14.3648 40.2223 14.0716C40.2568 13.8714 40.2912 13.6712 40.3256 13.471C40.4095 12.9832 40.4937 12.4955 40.5782 12.0078C40.4989 12.0105 40.4197 12.0132 40.338 12.016C39.9738 12.0269 39.6097 12.0335 39.2454 12.0401C39.0584 12.0467 39.0584 12.0467 38.8677 12.0533C37.9105 12.0663 37.2376 11.8974 36.4958 11.2804C36.4424 11.2151 36.389 11.1499 36.334 11.0826C36.2785 11.0176 36.223 10.9527 36.1658 10.8857C35.8343 10.3649 35.7853 9.83976 35.7847 9.23623C35.7839 9.15804 35.783 9.07985 35.7821 8.99929C35.7796 8.74214 35.7787 8.48502 35.778 8.22786C35.7771 8.04788 35.7761 7.8679 35.7752 7.68792C35.7735 7.31098 35.7727 6.93405 35.7724 6.5571C35.7718 6.07631 35.7679 5.59561 35.7632 5.11484C35.7601 4.74308 35.7594 4.37134 35.7593 3.99957C35.7588 3.82245 35.7576 3.64532 35.7554 3.46821C35.7343 1.60387 35.7343 1.60387 36.334 0.82811C36.8991 0.298015 37.4586 -0.0248972 38.2473 -0.0276982ZM37.6797 2.17381C37.532 2.46918 37.5614 2.72161 37.5595 3.0518C37.559 3.12066 37.5585 3.18953 37.558 3.26048C37.5565 3.48876 37.5557 3.71702 37.5552 3.9453C37.5546 4.10391 37.554 4.26251 37.5534 4.42111C37.5523 4.75396 37.5517 5.08682 37.5513 5.41967C37.5508 5.84573 37.5483 6.27176 37.5453 6.69781C37.5434 7.02559 37.5429 7.35336 37.5427 7.68115C37.5424 7.83818 37.5416 7.99522 37.5402 8.15225C37.5384 8.37229 37.5386 8.59224 37.5393 8.81228C37.5389 8.9374 37.5385 9.06251 37.5382 9.19141C37.5805 9.56052 37.658 9.75024 37.8867 10.041C38.1782 10.2389 38.4083 10.2736 38.7564 10.2715C38.8455 10.2715 38.9346 10.2715 39.0264 10.2715C39.1216 10.2704 39.2168 10.2694 39.3149 10.2682C39.4623 10.2678 39.4623 10.2678 39.6126 10.2674C39.9258 10.2662 40.239 10.2636 40.5523 10.261C40.7648 10.2599 40.9774 10.259 41.1899 10.2581C41.7106 10.2559 42.2313 10.2523 42.752 10.248C42.7363 10.3342 42.7206 10.4204 42.7045 10.5092C42.6464 10.8292 42.5885 11.1492 42.5308 11.4693C42.5058 11.6078 42.4807 11.7463 42.4555 11.8847C42.4193 12.0838 42.3835 12.2829 42.3476 12.4821C42.3259 12.6019 42.3043 12.7217 42.2819 12.8451C42.2263 13.1468 42.2263 13.1468 42.2344 13.457C42.7421 13.2838 43.1648 13.0017 43.6125 12.713C43.7866 12.6019 43.9607 12.4908 44.1349 12.3798C44.2281 12.3203 44.3213 12.2608 44.4173 12.1995C44.9667 11.8502 45.5189 11.5053 46.071 11.1603C46.1799 11.092 46.2889 11.0237 46.4012 10.9534C46.5027 10.8899 46.6041 10.8265 46.7086 10.7612C46.7991 10.7046 46.8896 10.648 46.9828 10.5896C47.3705 10.3529 47.608 10.3366 48.0652 10.3297C48.1972 10.3268 48.3292 10.3238 48.4652 10.3208C48.6748 10.3166 48.8844 10.3127 49.0941 10.31C49.2968 10.3071 49.4994 10.3023 49.7021 10.2974C49.8839 10.2943 49.8839 10.2943 50.0693 10.2911C50.4511 10.2431 50.7053 10.1361 51.0332 9.93748C51.1841 9.63565 51.1533 9.36811 51.1567 9.03099C51.1576 8.9591 51.1584 8.8872 51.1593 8.81313C51.1619 8.57477 51.1636 8.33643 51.1651 8.09806C51.1659 7.97597 51.1659 7.97597 51.1667 7.85142C51.1695 7.4206 51.1715 6.98978 51.173 6.55895C51.1747 6.11407 51.1793 5.66926 51.1846 5.22441C51.1881 4.88225 51.1893 4.5401 51.1899 4.19792C51.1906 4.03394 51.1922 3.86997 51.1946 3.70601C51.1979 3.47627 51.1979 3.24674 51.1971 3.01697C51.1984 2.82103 51.1984 2.82103 51.1997 2.62113C51.157 2.26854 51.157 2.26854 50.9486 1.97639C50.4538 1.651 50.0087 1.68823 49.4283 1.69442C49.3079 1.69368 49.1875 1.69294 49.0635 1.69218C48.6655 1.69043 48.2676 1.69244 47.8695 1.69465C47.593 1.69456 47.3165 1.69431 47.04 1.69389C46.4604 1.69342 45.8809 1.69506 45.3014 1.69796C44.6319 1.70128 43.9625 1.70128 43.293 1.69949C42.6483 1.69785 42.0036 1.69855 41.3588 1.70031C41.0848 1.70085 40.8107 1.7008 40.5367 1.70015C40.1538 1.69959 39.771 1.70169 39.3881 1.70453C39.2746 1.70385 39.1612 1.70318 39.0443 1.70248C38.2758 1.71077 38.2758 1.71077 37.6797 2.17381Z" fill="#6A00FF"/>
<path d="M33.5391 3.51954C33.4821 4.1456 33.3419 4.68989 33.125 5.2793C32.6428 5.22691 32.1853 5.15699 31.7146 5.03517C28.713 4.26003 25.4037 4.15275 22.3594 4.76172C22.2696 4.77949 22.1799 4.79725 22.0874 4.81555C19.1009 5.42675 16.2557 6.61542 13.7676 8.38477C13.7091 8.42599 13.6506 8.4672 13.5904 8.50967C12.9323 8.97706 12.3203 9.48265 11.7276 10.0301C11.5171 10.2234 11.3017 10.4074 11.0826 10.5909C8.12325 13.1886 6.02509 17.1239 5.07227 20.9102C5.12968 20.8746 5.18709 20.839 5.24624 20.8023C5.5064 20.6425 5.76804 20.4852 6.02979 20.3279C6.16529 20.2438 6.16529 20.2438 6.30354 20.1581C6.39094 20.106 6.47834 20.054 6.56839 20.0004C6.64862 19.9516 6.72885 19.9028 6.81151 19.8525C7.03906 19.7715 7.03906 19.7715 7.26426 19.8462C7.51676 20.0231 7.63824 20.2193 7.79602 20.4832C7.85113 20.5726 7.90624 20.662 7.96302 20.7541C8.07422 21.0137 8.07422 21.0137 8.06558 21.2128C7.9218 21.5385 7.69575 21.634 7.39207 21.8131C7.33286 21.8485 7.27365 21.884 7.21264 21.9205C7.01962 22.0357 6.82559 22.149 6.63147 22.2623C6.49898 22.3408 6.36656 22.4193 6.23421 22.498C6.03545 22.6161 5.83662 22.7342 5.63747 22.8516C5.24682 23.0823 4.85999 23.3179 4.47624 23.5599C4.34813 23.6405 4.34813 23.6405 4.21743 23.7226C4.06178 23.8209 3.90657 23.9199 3.75186 24.0197C3.57568 24.1299 3.39282 24.2293 3.20898 24.3262C2.78967 24.1864 2.74085 24.0019 2.52319 23.6214C2.48761 23.5599 2.45202 23.4983 2.41535 23.435C2.29949 23.2343 2.18491 23.033 2.07031 22.8317C1.91231 22.557 1.75372 22.2827 1.59519 22.0084C1.5561 21.9405 1.51702 21.8727 1.47674 21.8028C1.10317 21.1554 0.713642 20.5185 0.315601 19.8859C0 19.3789 0 19.3789 0 19.1504C0.215197 18.9975 0.427813 18.8591 0.653442 18.7234C0.715024 18.6848 0.776606 18.6463 0.840054 18.6065C1.30602 18.3223 1.30602 18.3223 1.65625 18.3223C1.81504 18.528 1.81504 18.528 1.98095 18.8132C2.07052 18.9659 2.07052 18.9659 2.1619 19.1217C2.22348 19.2294 2.28506 19.3371 2.34851 19.448C2.44268 19.6083 2.44268 19.6083 2.53876 19.7719C3.00195 20.5691 3.00195 20.5691 3.00195 20.8066C3.07027 20.8066 3.13859 20.8066 3.20898 20.8066C3.21953 20.6911 3.23007 20.5755 3.24093 20.4565C3.30691 19.9339 3.46002 19.4535 3.62952 18.9563C3.6617 18.8613 3.69388 18.7663 3.72704 18.6685C4.51248 16.4008 5.61095 14.2475 7.03906 12.3184C7.08453 12.2566 7.13 12.1949 7.17685 12.1313C10.9792 7.01831 16.6317 3.72823 22.9061 2.72133C23.2756 2.66865 23.6442 2.62474 24.0156 2.5879C24.1876 2.57068 24.1876 2.57068 24.363 2.55312C27.4752 2.2881 30.5404 2.66777 33.5391 3.51954Z" fill="#6A00FF"/>
<path d="M47.4102 15.8379C47.8553 15.999 48.2512 16.2236 48.6556 16.4663C48.7252 16.5077 48.7948 16.5491 48.8665 16.5917C49.0886 16.724 49.3104 16.8567 49.5322 16.9895C49.678 17.0763 49.8239 17.1631 49.9697 17.2499C50.8466 17.7723 51.7184 18.3022 52.5859 18.8398C52.438 19.2208 52.2693 19.5586 52.0554 19.9073C51.9996 19.9988 51.9439 20.0902 51.8864 20.1843C51.844 20.2531 51.8015 20.3218 51.7578 20.3926C51.3772 20.3338 51.1079 20.2338 50.7821 20.0299C50.6997 19.9788 50.6173 19.9278 50.5324 19.8752C50.4479 19.8218 50.3633 19.7683 50.2762 19.7133C50.1897 19.6594 50.1032 19.6056 50.014 19.5501C49.8012 19.4176 49.5889 19.2843 49.377 19.1504C49.3973 19.2315 49.4176 19.3125 49.4385 19.396C51.094 26.0627 50.6486 32.7987 47.0996 38.8184C46.4994 39.7861 45.8609 40.7365 45.1328 41.6133C44.712 41.4713 44.442 41.2799 44.1171 40.9792C44.0353 40.9043 43.9535 40.8293 43.8692 40.752C43.7773 40.6659 43.7773 40.6659 43.6836 40.5781C43.8392 40.107 44.1079 39.7551 44.4082 39.3683C45.0549 38.5085 45.573 37.6 46.0645 36.6445C46.1053 36.5655 46.1462 36.4865 46.1882 36.4051C48.8591 31.1769 49.0853 25.3591 47.5137 19.7715C47.4454 19.7715 47.377 19.7715 47.3066 19.7715C47.1591 19.969 47.1591 19.969 47.0147 20.2244C46.9593 20.3178 46.9039 20.4112 46.8469 20.5074C46.7894 20.6062 46.7319 20.7049 46.6726 20.8066C46.6143 20.9054 46.556 21.0041 46.4959 21.1059C46.3514 21.3508 46.2076 21.5961 46.0645 21.8418C45.6397 21.715 45.3021 21.5646 44.9387 21.3113C44.8579 21.2555 44.777 21.1997 44.6937 21.1423C44.6336 21.0998 44.5736 21.0574 44.5117 21.0137C44.5718 20.5632 44.7357 20.2579 44.9739 19.8734C45.0101 19.8145 45.0462 19.7555 45.0835 19.6948C45.2006 19.5043 45.3187 19.3144 45.4369 19.1245C45.5575 18.9287 45.6779 18.7328 45.7982 18.5368C45.878 18.4069 45.9578 18.2772 46.0378 18.1474C46.366 17.6143 46.6867 17.0771 47.0026 16.5366C47.0663 16.4277 47.0663 16.4277 47.1313 16.3165C47.2245 16.1571 47.3173 15.9975 47.4102 15.8379Z" fill="#6A00FF"/>
<path d="M39.2324 3.41602C42.6484 3.41602 46.0645 3.41602 49.584 3.41602C49.584 3.99674 49.584 4.57746 49.584 5.17578C46.168 5.17578 42.752 5.17578 39.2324 5.17578C39.2324 4.59506 39.2324 4.01434 39.2324 3.41602Z" fill="#6A00FF"/>
<path d="M39.2324 6.83203C41.5212 6.83203 43.8099 6.83203 46.168 6.83203C46.168 7.41275 46.168 7.99348 46.168 8.5918C43.8792 8.5918 41.5905 8.5918 39.2324 8.5918C39.2324 8.01107 39.2324 7.43035 39.2324 6.83203Z" fill="#6A00FF"/>
<path d="M47.7207 6.83203C48.3356 6.83203 48.9505 6.83203 49.584 6.83203C49.584 7.41275 49.584 7.99348 49.584 8.5918C48.9691 8.5918 48.3542 8.5918 47.7207 8.5918C47.7207 8.01107 47.7207 7.43035 47.7207 6.83203Z" fill="#6A00FF"/>
</g>
<defs>
<clipPath id="clip0_12_249">
<rect width="53" height="53" fill="white"/>
</clipPath>
</defs>
</svg>
