<svg width="54" height="53" viewBox="0 0 54 53" fill="none" xmlns="http://www.w3.org/2000/svg">
<path d="M37.5679 2.35785C37.6508 2.39283 37.7336 2.42782 37.8189 2.46386C38.4739 2.75705 39.0873 3.1451 39.4724 3.76735C39.5977 4.36888 39.6092 4.90206 39.408 5.48608C39.0815 5.967 38.7228 6.30516 38.1622 6.49287C37.3526 6.59384 36.7859 6.38706 36.0716 6.02543C34.2065 5.13597 32.2902 4.54683 30.2579 4.19164C30.1185 4.16568 29.9791 4.13973 29.8355 4.11298C24.403 3.2604 18.4854 4.71394 13.9777 7.86057C8.7055 11.7425 5.39845 17.0829 4.39714 23.5961C3.76613 28.1917 4.69339 33.0328 6.88871 37.0992C6.92978 37.1769 6.97085 37.2547 7.01316 37.3347C7.57786 38.4014 8.19748 39.3749 8.9507 40.3209C9.02379 40.4178 9.09689 40.5147 9.1722 40.6144C12.7757 45.2639 18.2538 48.1508 24.0299 48.9079C28.3426 49.3853 32.6565 48.6782 36.5584 46.7644C36.64 46.7248 36.7217 46.6852 36.8058 46.6444C40.6197 44.7744 43.7594 41.7635 45.9519 38.1348C45.9949 38.0644 46.0379 37.994 46.0821 37.9215C47.8682 34.968 48.9336 31.4893 49.1035 28.0395C49.1079 27.9522 49.1123 27.8649 49.1168 27.775C49.1377 27.3402 49.1546 26.9056 49.1656 26.4704C49.1945 25.6034 49.2261 24.868 49.8468 24.2123C50.4238 23.7708 51.0963 23.7731 51.7942 23.8672C52.3041 24.1186 52.6177 24.4355 52.9398 24.9027C54.2374 28.8128 52.0531 34.8466 50.3414 38.3479C49.2062 40.5812 47.8204 42.5675 46.1157 44.3922C45.8926 44.6335 45.6803 44.8777 45.4722 45.132C45.1003 45.572 44.672 45.9327 44.2336 46.3041C44.0726 46.4465 44.0726 46.4465 43.9083 46.5918C38.6469 51.217 31.6933 53.3784 24.7534 52.9458C22.546 52.7741 20.3143 52.3497 18.2296 51.597C18.0991 51.552 18.0991 51.552 17.966 51.506C14.6941 50.3738 11.7493 48.6289 9.17981 46.3041C9.11771 46.2487 9.05562 46.1933 8.99164 46.1362C3.81849 41.5091 0.800532 34.9293 0.359084 28.0094C0.0472326 20.6324 2.56654 13.7691 7.50601 8.33405C11.7771 3.70926 17.63 0.899156 23.8428 0.164486C23.9657 0.149357 24.0885 0.134229 24.2151 0.118641C28.8137 -0.335881 33.3464 0.537823 37.5679 2.35785Z" fill="#6A00FF"/>
<path d="M49.2911 7.32801C49.7051 7.61028 50.01 7.94166 50.2368 8.39521C50.2625 8.65356 50.2625 8.65356 50.2705 8.96258C50.2746 9.06344 50.2786 9.1643 50.2828 9.26821C50.1641 10.0827 49.4028 10.6639 48.847 11.2148C48.7538 11.308 48.6605 11.4012 48.5644 11.4973C48.3673 11.694 48.17 11.8905 47.9725 12.0867C47.6721 12.3851 47.3726 12.6844 47.0732 12.9838C46.881 13.1754 46.6888 13.367 46.4965 13.5585C46.4078 13.6471 46.319 13.7358 46.2276 13.8271C45.8482 14.2034 45.4677 14.5727 45.0617 14.9204C44.5394 15.3706 44.0567 15.86 43.5714 16.3493C43.4007 16.5214 43.2296 16.6932 43.0584 16.8649C42.6951 17.2294 42.3322 17.5944 41.9694 17.9595C41.5483 18.3831 41.1271 18.8065 40.7054 19.2294C40.5383 19.3972 40.3715 19.5654 40.2048 19.7335C39.7118 20.2291 39.2127 20.7084 38.6819 21.1632C38.2403 21.557 37.8278 21.9813 37.4114 22.4012C37.2407 22.5734 37.0696 22.7451 36.8984 22.9168C36.5351 23.2814 36.1722 23.6464 35.8093 24.0114C35.3883 24.435 34.9671 24.8584 34.5454 25.2814C34.3783 25.4492 34.2115 25.6173 34.0448 25.7855C33.5513 26.2815 33.0518 26.7614 32.5204 27.2166C32.0863 27.6035 31.6807 28.0204 31.2714 28.4332C31.1043 28.6017 30.9368 28.7698 30.7693 28.9379C30.4137 29.2947 30.0585 29.652 29.7034 30.0093C29.2912 30.424 28.8789 30.8385 28.4662 31.2525C28.3027 31.4167 28.1395 31.5813 27.9763 31.7458C27.418 32.3071 26.8498 32.8483 26.2451 33.3595C26.0946 33.4899 26.0946 33.4899 25.9411 33.6229C25.4419 33.8677 24.9533 33.896 24.4079 33.7918C23.9008 33.4867 23.4803 33.1253 23.0532 32.7208C22.9844 32.656 22.9155 32.5913 22.8446 32.5246C21.815 31.5488 20.8209 30.5363 19.8216 29.5298C19.4214 29.1266 19.0207 28.7237 18.6198 28.3211C18.53 28.2305 18.4403 28.1399 18.3479 28.0465C17.8978 27.5946 17.4396 27.1632 16.9562 26.7474C16.5165 26.3574 16.1046 25.9384 15.6888 25.5231C15.5439 25.3787 15.5439 25.3787 15.396 25.2315C15.1934 25.0293 14.9908 24.8271 14.7884 24.6247C14.5296 24.3658 14.2699 24.1076 14.0101 23.8496C13.7609 23.6019 13.5125 23.3534 13.264 23.105C13.1709 23.0127 13.0778 22.9204 12.9819 22.8253C12.896 22.7391 12.8101 22.6528 12.7215 22.564C12.6459 22.4885 12.5703 22.413 12.4924 22.3353C12.0818 21.8665 12.0466 21.4799 12.0608 20.874C12.1125 20.3632 12.3019 20.0631 12.6687 19.7156C13.2007 19.361 13.6051 19.2448 14.2493 19.3103C15.0008 19.6173 15.4821 20.0545 16.0426 20.6329C16.1708 20.7625 16.1708 20.7625 16.3016 20.8946C16.5731 21.1693 16.8432 21.4454 17.1131 21.7217C17.3833 21.9965 17.6539 22.271 17.9247 22.5453C18.0925 22.7154 18.26 22.886 18.427 23.057C18.784 23.4204 19.1427 23.7735 19.5295 24.1052C20.0977 24.5941 20.6207 25.128 21.1489 25.6591C21.2591 25.7695 21.3693 25.8798 21.4796 25.9902C21.7669 26.2779 22.0539 26.566 22.3408 26.8542C22.6348 27.1492 22.9291 27.444 23.2233 27.7388C23.7986 28.3152 24.3735 28.892 24.9482 29.469C25.6051 28.93 26.2013 28.3367 26.799 27.7344C26.9811 27.5509 27.1635 27.3678 27.3461 27.1848C27.7991 26.7303 28.2516 26.2752 28.7041 25.8201C29.0874 25.4347 29.4709 25.0495 29.8547 24.6646C30.033 24.4855 30.211 24.3062 30.3891 24.1268C31.2878 23.2237 31.2878 23.2237 31.7555 22.8239C32.304 22.3547 32.8067 21.8387 33.3147 21.3268C33.5 21.1401 33.6856 20.9538 33.8713 20.7676C34.2654 20.3722 34.6592 19.9764 35.0528 19.5805C35.5096 19.1212 35.9665 18.6621 36.4239 18.2034C36.6054 18.0212 36.7865 17.8387 36.9677 17.6562C37.4822 17.1393 38.0008 16.6359 38.5555 16.1617C39.0182 15.7487 39.4503 15.3027 39.887 14.8625C40.0686 14.6795 40.2506 14.4968 40.4327 14.3143C40.8191 13.9266 41.2052 13.5385 41.5911 13.1503C42.0389 12.6999 42.4869 12.2497 42.9354 11.8C43.1133 11.6214 43.2908 11.4425 43.4684 11.2636C43.9925 10.7369 44.5211 10.2225 45.0863 9.7394C45.329 9.52892 45.553 9.30319 45.7763 9.07234C45.8633 8.9836 45.9502 8.89485 46.0397 8.80343C46.2183 8.62005 46.3964 8.43627 46.5742 8.2521C47.3958 7.41596 48.1125 6.92001 49.2911 7.32801Z" fill="#155DFC"/>
</svg>
