<svg id="ico-2" width="56" height="56" viewBox="0 0 56 56" fill="none" xmlns="http://www.w3.org/2000/svg">
<g clip-path="url(#clip0_12_237)">
<path d="M17.8676 4.60218C19.2427 5.5456 20.1062 6.69102 20.4323 8.3418C20.4444 8.50402 20.4444 8.50402 20.4566 8.66952C20.5702 9.10239 20.7631 9.20324 21.1306 9.44959C23.2466 10.9429 24.3572 13.067 24.887 15.5613C25.0401 16.5373 24.9768 17.5666 24.85 18.5402C24.8048 19.0325 24.8321 19.2761 25.1387 19.6681C25.197 19.7278 25.2553 19.7875 25.3154 19.849C25.8682 20.5221 25.7632 21.4911 25.696 22.3066C25.5448 22.9753 25.1888 23.4472 24.6616 23.8777C24.2137 24.1374 23.7348 24.1943 23.2253 24.2402C23.2186 24.3554 23.212 24.4707 23.2051 24.5894C22.997 26.2086 21.9075 27.7625 20.7546 28.8594C20.5751 28.9872 20.3939 29.1128 20.2108 29.2354C19.9053 29.4553 19.8039 29.552 19.7039 29.9198C19.6768 30.2147 19.667 30.4973 19.6804 30.793C19.7612 30.8196 19.8421 30.8463 19.9255 30.8737C20.2495 31.0226 20.3747 31.1564 20.5926 31.4346C21.9522 33.0387 23.4221 33.7216 25.348 34.4817C25.4343 34.5158 25.5206 34.5499 25.6095 34.5851C25.7361 34.635 25.7361 34.635 25.8651 34.6859C27.2792 35.259 28.3403 36.1954 29.0261 37.5606C29.2917 38.2129 29.4694 38.866 29.4691 39.5736C29.4692 39.671 29.4693 39.7684 29.4694 39.8688C29.4685 40.025 29.4685 40.025 29.4676 40.1844C29.4671 40.3485 29.4671 40.3485 29.4666 40.5159C29.4599 41.6515 29.4206 42.785 29.3731 43.9194C29.3642 44.1362 29.3554 44.3529 29.3465 44.5697C29.328 45.018 29.3091 45.4662 29.2899 45.9144C29.2654 46.4883 29.2428 47.0622 29.2206 47.6362C29.2031 48.0812 29.1842 48.5261 29.165 48.971C29.1561 49.1828 29.1476 49.3946 29.1397 49.6064C29.1286 49.9007 29.1156 50.1948 29.1021 50.489C29.0992 50.5756 29.0964 50.6622 29.0934 50.7514C29.0689 51.2359 29.0055 51.5692 28.7038 51.9551C28.3717 52.1211 28.1028 52.094 27.737 52.0625C27.5001 51.9128 27.5001 51.9128 27.3073 51.6328C27.2464 51.2738 27.26 50.92 27.2704 50.5569C27.272 50.4449 27.2737 50.3329 27.2754 50.2175C27.3065 48.549 27.3911 46.8812 27.4684 45.2144C27.5941 42.6876 27.5941 42.6876 27.6497 40.1588C27.6505 40.0765 27.6512 39.9941 27.652 39.9093C27.6493 39.3038 27.5524 38.7594 27.3073 38.2051C26.1173 39.3689 24.9161 40.6746 24.4069 42.2871C24.387 42.3484 24.3671 42.4097 24.3466 42.4728C24.2765 42.8357 24.284 43.1975 24.2843 43.5657C24.2839 43.6508 24.2835 43.7359 24.2831 43.8236C24.2823 44.0081 24.2818 44.1926 24.2814 44.3771C24.2806 44.6693 24.2789 44.9614 24.2769 45.2535C24.2713 46.084 24.2661 46.9145 24.2645 47.745C24.2634 48.2533 24.2603 48.7615 24.2558 49.2698C24.2544 49.4633 24.2539 49.6569 24.2541 49.8504C24.2544 50.1212 24.252 50.3919 24.249 50.6626C24.2497 50.7424 24.2504 50.8222 24.2512 50.9043C24.2418 51.4258 24.1363 51.698 23.7624 52.0625C23.5475 52.1338 23.5475 52.1338 23.3327 52.1296C23.2618 52.131 23.1909 52.1324 23.1179 52.1338C22.7768 52.0206 22.6661 51.8238 22.4733 51.5254C22.4323 51.2288 22.4155 50.9756 22.4194 50.6797C22.4186 50.5543 22.4186 50.5543 22.4177 50.4264C22.4163 50.1505 22.4181 49.8748 22.42 49.5989C22.42 49.4058 22.4199 49.2127 22.4196 49.0196C22.4194 48.6144 22.4208 48.2092 22.4232 47.8041C22.4262 47.2887 22.426 46.7734 22.4246 46.258C22.4238 45.8586 22.4247 45.4593 22.426 45.0599C22.4265 44.8702 22.4265 44.6805 22.4261 44.4907C22.4228 41.6904 23.3049 39.9536 25.1415 37.8716C25.4685 37.4985 25.7519 37.12 26.0183 36.7012C25.9273 36.6725 25.8363 36.6437 25.7425 36.6142C25.3603 36.4817 24.998 36.3263 24.6293 36.1599C24.5611 36.1292 24.4929 36.0985 24.4226 36.0669C24.2068 35.9698 23.9913 35.8722 23.7758 35.7747C23.6287 35.7083 23.4815 35.642 23.3344 35.5758C22.9756 35.4141 22.617 35.2521 22.2585 35.0898C21.9899 35.4161 21.7487 35.7395 21.5351 36.1041C21.4827 36.1927 21.4303 36.2814 21.3763 36.3728C21.3218 36.4657 21.2673 36.5585 21.2111 36.6542C19.5561 39.4355 19.5561 39.4355 18.7203 39.7023C17.7165 39.7228 17.106 39.13 16.3893 38.5151C16.3216 38.457 16.254 38.399 16.1842 38.3392C16.1327 38.2949 16.0811 38.2507 16.028 38.2051C16.0276 38.3065 16.0276 38.3065 16.0272 38.4099C16.0209 40.0551 16.0128 41.7003 16.0027 43.3455C15.9979 44.1411 15.9936 44.9367 15.9908 45.7323C15.9883 46.4258 15.9847 47.1193 15.9798 47.8127C15.9772 48.1799 15.9752 48.547 15.9746 48.9142C15.9735 49.3242 15.9705 49.7341 15.967 50.1441C15.9672 50.2657 15.9673 50.3873 15.9675 50.5126C15.9662 50.6246 15.9648 50.7365 15.9634 50.8518C15.9627 50.9972 15.9627 50.9972 15.9619 51.1455C15.9067 51.5097 15.7529 51.8005 15.4909 52.0625C14.7105 52.1265 14.7105 52.1265 14.406 51.8799C14.1607 51.5831 14.1476 51.4516 14.1461 51.0714C14.1446 50.9578 14.1431 50.8442 14.1416 50.7272C14.1421 50.6032 14.1426 50.4792 14.1432 50.3514C14.1421 50.2204 14.141 50.0894 14.1398 49.9543C14.1372 49.5955 14.1365 49.2367 14.1366 48.8778C14.1362 48.5026 14.1335 48.1274 14.131 47.7522C14.1266 47.0419 14.1245 46.3317 14.1231 45.6214C14.1213 44.8127 14.1172 44.004 14.1129 43.1953C14.104 41.5319 14.0982 39.8685 14.0944 38.2051C13.9996 38.2875 13.9048 38.3699 13.8071 38.4548C13.6809 38.5634 13.5547 38.6719 13.4285 38.7804C13.3351 38.8618 13.3351 38.8618 13.2398 38.9449C12.7123 39.3964 12.2222 39.7429 11.4999 39.693C10.8841 39.5715 10.4806 39.2714 10.1163 38.7549C10.0467 38.6373 9.97709 38.5197 9.90539 38.3985C9.86714 38.3347 9.8289 38.2708 9.78949 38.205C9.66811 38.0019 9.54815 37.7981 9.42828 37.5941C9.30854 37.3922 9.18849 37.1906 9.06822 36.989C8.95854 36.8049 8.84963 36.6203 8.74077 36.4357C8.46101 35.9792 8.16095 35.5353 7.86395 35.0898C6.05604 35.8875 6.05604 35.8875 4.21161 36.7012C4.31164 37.1013 4.34444 37.1973 4.60101 37.48C4.68761 37.577 4.68761 37.577 4.77597 37.676C4.83787 37.7443 4.89978 37.8125 4.96356 37.8828C6.97154 40.1542 7.66579 41.9964 7.66715 45.0079C7.6675 45.1883 7.66786 45.3687 7.66824 45.549C7.66888 45.9253 7.66908 46.3017 7.66901 46.678C7.669 47.1597 7.67048 47.6414 7.67232 48.1231C7.67351 48.4949 7.67373 48.8667 7.67368 49.2384C7.6738 49.4161 7.67428 49.5937 7.67511 49.7714C7.67616 50.0194 7.67585 50.2674 7.6752 50.5155C7.67536 50.6564 7.67551 50.7973 7.67567 50.9425C7.64993 51.2991 7.60389 51.5348 7.43427 51.8477C7.03459 52.1141 6.83292 52.1123 6.36005 52.0625C6.12474 51.8951 6.12474 51.8951 5.93036 51.6328C5.88812 51.3514 5.87183 51.1148 5.87513 50.8336C5.87436 50.7537 5.8736 50.6739 5.87281 50.5915C5.87074 50.3275 5.87163 50.0636 5.87245 49.7995C5.87139 49.6151 5.8701 49.4307 5.86861 49.2463C5.86513 48.7602 5.86402 48.2741 5.86358 47.788C5.86264 47.0128 5.85879 46.2375 5.85368 45.4623C5.85234 45.1929 5.85241 44.9236 5.85263 44.6543C5.84735 42.5505 5.38884 41.2046 3.99676 39.6016C3.89861 39.483 3.80085 39.3641 3.70345 39.2449C3.65495 39.1857 3.60645 39.1265 3.55648 39.0655C3.50902 39.0076 3.46156 38.9496 3.41266 38.8899C3.10659 38.49 3.10659 38.49 2.7077 38.2051C2.42757 38.948 2.46235 39.6925 2.46936 40.4769C2.46969 40.5513 2.47002 40.6257 2.47036 40.7023C2.47837 42.4961 2.55792 44.2869 2.64225 46.0785C2.67368 46.7487 2.70391 47.419 2.73385 48.0893C2.74423 48.3183 2.75508 48.5474 2.76599 48.7764C2.78491 49.1914 2.80057 49.6063 2.81512 50.0215C2.82474 50.2297 2.82474 50.2297 2.83456 50.4422C2.83846 50.5754 2.84236 50.7086 2.84639 50.8458C2.85291 51.0229 2.85291 51.0229 2.85956 51.2035C2.80431 51.6037 2.66541 51.7773 2.38544 52.0625C2.17059 52.1338 2.17059 52.1338 1.95575 52.1296C1.88485 52.131 1.81395 52.1324 1.74091 52.1338C1.40389 52.0219 1.29028 51.8171 1.09637 51.5254C1.03128 51.1797 1.03128 51.1797 1.01497 50.781C1.01139 50.7073 1.0078 50.6337 1.00411 50.5578C0.992641 50.3119 0.984068 50.066 0.975524 49.8201C0.968019 49.6444 0.96034 49.4688 0.952498 49.2931C0.935886 48.9139 0.920496 48.5346 0.905868 48.1553C0.881531 47.5344 0.851503 46.9138 0.821105 46.2932C0.730875 44.4229 0.646426 42.551 0.628822 40.6783C0.627245 40.5278 0.624983 40.3774 0.621938 40.2269C0.590095 38.525 1.03866 37.234 2.14206 35.9467C2.93828 35.1681 4.08528 34.7299 5.10371 34.3223C7.06873 33.5336 8.439 32.7422 9.81923 31.0859C10.029 30.8845 10.1578 30.8333 10.4421 30.793C10.4813 30.0379 10.4813 30.0379 10.1425 29.3957C9.88927 29.2086 9.62952 29.0344 9.36786 28.8594C8.18828 27.879 7.14295 26.25 6.93073 24.7169C6.83519 24.3372 6.83519 24.3372 6.5686 24.2465C6.38073 24.1965 6.19195 24.1498 6.00253 24.106C5.45189 23.9514 5.05843 23.638 4.7076 23.192C4.39749 22.6391 4.38335 22.0602 4.37274 21.4406C4.36973 21.3188 4.36973 21.3188 4.36666 21.1946C4.37347 20.5918 4.52046 20.1247 4.85614 19.6211C4.93812 19.5524 5.02009 19.4837 5.10455 19.413C5.33488 19.1845 5.33488 19.1845 5.24554 18.7718C5.23416 18.6852 5.22278 18.5986 5.21106 18.5093C5.03319 16.9582 5.10067 15.4066 5.60809 13.9277C5.66459 13.7603 5.66459 13.7603 5.72223 13.5895C6.39165 11.8183 7.56642 10.457 9.04559 9.3086C9.16295 9.21492 9.16295 9.21492 9.28268 9.11935C9.47528 8.98633 9.47528 8.98633 9.69012 8.98633C9.68126 8.87112 9.6724 8.75591 9.66327 8.63721C9.66697 7.59189 10.1503 6.68589 10.7643 5.8711C10.8264 5.77804 10.8884 5.68499 10.9523 5.58911C12.7106 3.73314 15.6709 3.3519 17.8676 4.60218ZM12.2682 6.73047C12.0199 7.03457 11.7869 7.33889 11.6237 7.69727C11.6592 7.80362 11.6946 7.90996 11.7311 8.01953C11.8443 7.98976 11.9574 7.95999 12.074 7.92932C14.278 7.36742 16.3098 7.43943 18.4987 8.01953C18.2686 7.19609 17.7487 6.57802 17.0296 6.11615C15.4377 5.30485 13.5765 5.45853 12.2682 6.73047ZM9.30743 11.3899C9.22103 11.4829 9.13462 11.576 9.04559 11.6719C8.98065 11.7388 8.9157 11.8056 8.84879 11.8746C7.89917 12.8859 7.33981 13.9815 7.00458 15.3242C6.98367 15.4044 6.96276 15.4846 6.94122 15.5672C6.87364 16.0183 6.87735 16.4666 6.87701 16.9221C6.8757 17.0159 6.87438 17.1096 6.87303 17.2062C6.87177 17.7634 6.88619 18.2476 7.112 18.7617C7.38667 18.9651 7.38667 18.9651 7.71625 19.0773C7.82398 19.1203 7.93171 19.1634 8.04271 19.2078C8.16692 19.2528 8.16692 19.2528 8.29364 19.2988C8.35969 19.2193 8.35969 19.2193 8.42708 19.1381C8.48496 19.0693 8.54284 19.0005 8.60248 18.9296C8.65981 18.861 8.71713 18.7925 8.7762 18.7219C9.02755 18.4503 9.1439 18.4401 9.52228 18.4126C9.90497 18.4395 9.90497 18.4395 10.1131 18.5536C10.3036 18.901 10.2849 19.1226 10.2272 19.5137C9.89617 20.1419 9.35949 20.6983 8.72333 21.0176C8.29462 21.1203 7.93373 21.1209 7.54714 20.8955C7.42054 20.7996 7.29553 20.7016 7.17242 20.6013C6.99788 20.4574 6.99788 20.4574 6.70917 20.4268C6.41121 20.493 6.32827 20.5598 6.1452 20.8027C6.08996 21.1067 6.08996 21.1067 6.09821 21.4406C6.09613 21.5523 6.09405 21.6641 6.09191 21.7792C6.15819 22.168 6.26003 22.2891 6.57489 22.5215C6.83252 22.6025 6.83252 22.6025 7.10529 22.6289C7.58613 22.6884 7.8474 22.8126 8.18622 23.166C8.32299 23.4589 8.40774 23.7617 8.49506 24.0724C9.10252 26.0289 10.1069 27.557 11.946 28.5371C12.0252 28.5798 12.1044 28.6224 12.186 28.6664C13.7345 29.4237 15.4031 29.4801 17.0372 28.9941C18.1448 28.6089 18.9645 28.0811 19.7878 27.2481C19.9022 27.1371 19.9022 27.1371 20.019 27.024C20.8553 26.1604 21.3272 25.117 21.6207 23.965C21.8279 23.1931 21.8279 23.1931 22.1041 22.931C22.5248 22.7092 22.9228 22.6009 23.3877 22.5076C23.7166 22.3925 23.8132 22.2894 23.9772 21.9844C24.0637 21.4981 24.0643 21.0564 23.8094 20.6282C23.3446 20.366 22.9143 20.458 22.4062 20.5543C21.9687 20.5948 21.85 20.5298 21.5065 20.2656C21.4192 20.1742 21.3318 20.0828 21.2418 19.9887C20.7758 19.6013 20.2606 19.6582 19.6804 19.6614C16.0615 19.5919 12.3398 18.8237 9.69012 16.1836C9.62103 16.117 9.55193 16.0504 9.48074 15.9818C9.16195 15.6496 9.0535 15.4994 8.9986 15.0288C9.04559 14.6797 9.04559 14.6797 9.15302 14.3574C9.58371 14.2946 9.96082 14.259 10.3414 14.4946C10.5632 14.6918 10.772 14.8969 10.9792 15.1094C13.4427 17.5202 16.9347 18.0196 20.2418 18.0465C20.9693 18.0639 21.4547 18.1054 22.0436 18.5469C22.099 18.6111 22.1544 18.6754 22.2115 18.7416C22.2624 18.7837 22.3134 18.8258 22.3659 18.8691C22.7042 18.8441 22.7042 18.8441 23.0104 18.7617C23.5598 16.8389 23.1722 14.9283 22.2501 13.1963C21.9396 12.6807 21.5861 12.2264 21.1843 11.7793C21.1286 11.7137 21.0729 11.648 21.0156 11.5804C19.6105 10.0341 17.3698 9.21098 15.3281 9.09375C13.0639 9.09375 10.9719 9.84718 9.30743 11.3899ZM12.1608 30.4707C12.0618 31.0755 11.9614 31.7297 12.2754 32.2844C12.6471 32.7701 13.1037 33.1721 13.5573 33.5792C13.6922 33.7061 13.8268 33.8333 13.961 33.9609C14.2879 34.2702 14.6193 34.5739 14.9538 34.875C15.5736 34.6144 16.0392 34.0901 16.5174 33.631C16.6379 33.5167 16.76 33.4041 16.8837 33.2933C17.6855 32.5981 17.6855 32.5981 18.0403 31.6366C18.0528 31.2433 18.0184 30.8601 17.9616 30.4707C17.8241 30.5062 17.8241 30.5062 17.6838 30.5425C15.9343 30.9946 14.3357 31.0389 12.5905 30.5781C12.4473 30.5422 12.3041 30.5063 12.1608 30.4707ZM10.1861 33.1764C10.0403 33.3259 10.0403 33.3259 9.89154 33.4785C9.79378 33.5782 9.69602 33.6779 9.59529 33.7806C9.52024 33.8582 9.44519 33.9357 9.36786 34.0156C9.82865 34.8878 10.3315 35.7265 10.8583 36.5602C10.9323 36.6778 11.0062 36.7955 11.0824 36.9166C11.2625 37.2031 11.443 37.4893 11.6237 37.7754C12.0973 37.6005 12.3882 37.3839 12.7584 37.0369C12.8582 36.9441 12.958 36.8513 13.0609 36.7557C13.3013 36.5257 13.5374 36.2923 13.7722 36.0566C13.3331 35.6123 12.8934 35.1687 12.453 34.7257C12.3032 34.5748 12.1535 34.4237 12.0041 34.2724C11.7897 34.0554 11.5746 33.8391 11.3594 33.6229C11.2923 33.5547 11.2253 33.4866 11.1562 33.4164C10.9938 33.2539 10.8259 33.0971 10.6569 32.9414C10.4105 32.9172 10.4105 32.9172 10.1861 33.1764ZM19.1552 33.2274C19.0239 33.3587 18.8933 33.4905 18.7631 33.6229C18.6942 33.692 18.6254 33.7612 18.5545 33.8324C18.334 34.0541 18.1142 34.2766 17.8945 34.499C17.7454 34.6492 17.5963 34.7992 17.4472 34.9493C17.081 35.3178 16.7155 35.6871 16.3503 36.0566C16.6621 36.4567 16.9739 36.7733 17.3708 37.0906C17.4716 37.1717 17.5724 37.2529 17.6763 37.3365C17.9124 37.5219 18.1508 37.7032 18.3913 37.8828C18.6445 37.4802 18.8973 37.0773 19.15 36.6743C19.2205 36.5622 19.2911 36.45 19.3638 36.3344C19.8428 35.5698 20.3047 34.7977 20.7546 34.0156C20.5807 33.836 20.406 33.6571 20.2309 33.4785C20.1337 33.3788 20.0365 33.2791 19.9363 33.1764C19.558 32.8291 19.5369 32.8756 19.1552 33.2274Z" fill="#6A00FF"/>
<path d="M39.9094 3.90393C40.1187 3.90133 40.1187 3.90133 40.3322 3.89868C42.7501 3.89748 45.1252 4.6028 46.8805 6.31672C48.4135 7.88188 49.2337 9.90492 49.2358 12.1062C49.2359 12.176 49.236 12.2458 49.2361 12.3177C49.2362 12.4645 49.236 12.6114 49.2356 12.7583C49.235 12.9787 49.2356 13.199 49.2362 13.4194C49.2364 14.189 49.2108 14.9445 49.1175 15.7091C49.1121 16.1265 49.275 16.3049 49.5438 16.6133C49.8109 17.4145 49.7997 18.6504 49.4767 19.4398C49.1014 20.1128 48.542 20.4346 47.8251 20.6953C47.6465 20.7333 47.4675 20.7696 47.288 20.8027C47.2592 20.9094 47.2304 21.016 47.2007 21.1258C46.8669 22.304 46.4423 23.5401 45.5155 24.3879C45.1702 24.7531 45.1815 25.1849 45.1731 25.6636C45.171 25.7399 45.1689 25.8163 45.1668 25.8949C45.1662 26.1438 45.1662 26.1438 45.2469 26.4961C45.4232 26.608 45.6027 26.715 45.7841 26.8184C45.9898 27.0253 45.9898 27.0253 46.1886 27.2585C47.3844 28.5967 48.4889 29.2624 50.1834 29.8237C50.6886 29.9934 51.1838 30.1863 51.6788 30.3834C51.7668 30.4183 51.8549 30.4532 51.9455 30.4892C53.6069 31.164 54.6929 32.142 55.4319 33.7806C55.7285 34.5769 55.6896 35.3722 55.6891 36.2115C55.6891 36.293 55.6892 36.3746 55.6892 36.4587C55.6864 39.1463 55.5586 41.832 55.4459 44.5168C55.421 45.1137 55.3978 45.7106 55.3749 46.3076C55.3499 46.9607 55.3231 47.6138 55.2958 48.2668C55.2845 48.5419 55.2736 48.817 55.2633 49.0921C55.2488 49.4731 55.2325 49.8541 55.2156 50.235C55.2118 50.3476 55.2079 50.4601 55.2039 50.576C55.1579 51.5381 55.1579 51.5381 54.8075 51.9551C54.4754 52.1211 54.2065 52.094 53.8407 52.0625C53.604 51.9108 53.604 51.9108 53.411 51.6328C53.3469 51.285 53.3613 50.9417 53.3707 50.5892C53.3723 50.4746 53.3738 50.36 53.3754 50.2419C53.4174 47.9536 53.5396 45.6657 53.6415 43.3795C53.6774 42.5744 53.7127 41.7692 53.7467 40.9641C53.7514 40.8533 53.7561 40.7426 53.7609 40.6286C53.8393 38.7456 53.8685 36.8668 53.8407 34.9824C53.4816 35.3281 53.1244 35.6757 52.7687 36.0249C52.6478 36.1431 52.5265 36.2608 52.4046 36.378C51.2085 37.5293 50.5252 38.5735 50.4836 40.2879C50.4824 40.4982 50.4823 40.7084 50.4832 40.9187C50.4828 41.0345 50.4824 41.1502 50.482 41.2695C50.4813 41.5189 50.481 41.7683 50.4811 42.0177C50.4812 42.4123 50.4798 42.8068 50.478 43.2014C50.4731 44.3226 50.4704 45.4438 50.4697 46.565C50.4692 47.2523 50.4666 47.9396 50.4627 48.6269C50.4616 48.8886 50.4614 49.1503 50.462 49.412C50.4627 49.7769 50.4609 50.1416 50.4584 50.5065C50.4597 50.6689 50.4597 50.6689 50.4611 50.8346C50.4524 51.5615 50.4524 51.5615 50.2084 51.9151C49.864 52.1312 49.6195 52.1122 49.2216 52.0625C48.9494 51.9193 48.8238 51.8386 48.7281 51.5441C48.6822 51.2983 48.6706 51.0731 48.6701 50.823C48.6694 50.6772 48.6694 50.6772 48.6687 50.5283C48.6687 50.4224 48.6688 50.3165 48.6688 50.2074C48.6685 50.0952 48.6681 49.983 48.6677 49.8674C48.6667 49.4958 48.6665 49.1242 48.6664 48.7526C48.6661 48.4937 48.6657 48.2349 48.6653 47.9761C48.6647 47.4328 48.6645 46.8896 48.6645 46.3463C48.6646 45.6526 48.6631 44.9589 48.6612 44.2652C48.66 43.7301 48.6598 43.195 48.6599 42.6599C48.6598 42.4043 48.6593 42.1488 48.6584 41.8932C48.6574 41.5341 48.6577 41.175 48.6584 40.8159C48.6577 40.7118 48.6571 40.6076 48.6565 40.5002C48.6609 39.5343 48.755 38.5449 49.1343 37.6478C49.1735 37.551 49.2127 37.4542 49.253 37.3545C49.8361 36.3017 50.7291 35.4897 51.5781 34.6534C51.7041 34.5285 51.8301 34.4035 51.956 34.2785C52.2614 33.9755 52.5675 33.6731 52.8739 33.3711C52.583 32.6614 51.832 32.3971 51.1615 32.1127C50.7658 31.9505 50.3671 31.7967 49.967 31.6457C49.716 31.5507 49.4661 31.4534 49.2161 31.3559C49.056 31.2947 48.8958 31.2336 48.7356 31.1727C48.6613 31.1436 48.587 31.1146 48.5105 31.0846C48.1302 30.9432 47.884 30.8522 47.5028 31.0078C47.3326 31.1888 47.3326 31.1888 47.1898 31.4239C47.1032 31.5563 47.1032 31.5563 47.0148 31.6913C46.9536 31.7874 46.8924 31.8836 46.8293 31.9826C46.7328 32.1303 46.7328 32.1303 46.6343 32.2809C46.428 32.5966 46.2233 32.9132 46.019 33.2301C45.7511 33.6454 45.4816 34.0597 45.2113 34.4734C45.1507 34.5684 45.0902 34.6635 45.0278 34.7614C44.5743 35.4552 44.0461 36.1601 43.2059 36.3789C42.8828 36.4037 42.8828 36.4037 42.548 36.399C42.4369 36.3984 42.3259 36.3977 42.2114 36.3969C41.9169 36.3789 41.9169 36.3789 41.5946 36.2715C41.6453 38.2493 41.7159 40.2256 41.8065 42.2019C41.8136 42.3562 41.8136 42.3562 41.8208 42.5136C41.8646 43.4712 41.9091 44.4288 41.954 45.3864C41.979 45.9178 42.0034 46.4491 42.0275 46.9805C42.0366 47.1787 42.0459 47.3769 42.0554 47.5751C42.0859 48.2114 42.1112 48.8477 42.1317 49.4844C42.1352 49.5824 42.1388 49.6804 42.1424 49.7813C42.1521 50.0773 42.1586 50.3732 42.1642 50.6692C42.1675 50.7596 42.1707 50.85 42.1741 50.9432C42.1808 51.5671 42.1808 51.5671 41.9285 51.9045C41.5466 52.1709 41.3003 52.1134 40.8426 52.0625C40.5554 51.8679 40.5248 51.7534 40.413 51.418C40.392 51.152 40.3762 50.888 40.3647 50.6216C40.3609 50.5404 40.357 50.4591 40.353 50.3754C40.3403 50.1046 40.3281 49.8337 40.316 49.5628C40.3072 49.3718 40.2983 49.1808 40.2893 48.9898C40.2655 48.479 40.2423 47.9681 40.2192 47.4573C40.1954 46.9331 40.1711 46.4088 40.1468 45.8846C40.0155 43.0385 39.8874 40.1923 39.7684 37.3457C39.2721 37.3103 38.7759 37.2748 38.2645 37.2383C38.2566 37.5116 38.2566 37.5116 38.2486 37.7904C38.1772 40.1696 38.0766 42.5473 37.9713 44.9253C37.9468 45.4791 37.9227 46.0329 37.8987 46.5868C37.8799 47.0198 37.8609 47.4529 37.8418 47.8859C37.8328 48.0902 37.8239 48.2946 37.8151 48.4989C37.7917 49.038 37.7667 49.577 37.7387 50.116C37.7283 50.3266 37.7202 50.5373 37.7124 50.748C37.7034 50.9201 37.7034 50.9201 37.6943 51.0956C37.6902 51.1909 37.6861 51.2862 37.6819 51.3844C37.6 51.713 37.4479 51.8493 37.1903 52.0625C36.8926 52.1468 36.6319 52.1297 36.3309 52.0625C36.0624 51.8745 36.0624 51.8745 35.9012 51.5254C35.8838 51.253 35.8838 51.253 35.8881 50.9367C35.8896 50.8216 35.891 50.7064 35.8926 50.5878C35.9057 50.0558 35.9256 49.5246 35.9505 48.9931C35.9558 48.8762 35.961 48.7594 35.9664 48.639C35.9777 48.3875 35.9892 48.1361 36.0007 47.8846C36.0191 47.4852 36.037 47.0857 36.0549 46.6862C36.0993 45.6941 36.1442 44.702 36.1894 43.7099C36.2276 42.8704 36.2655 42.0309 36.3029 41.1914C36.3205 40.8006 36.3385 40.4098 36.3565 40.019C36.4129 38.7688 36.457 37.5231 36.4384 36.2715C36.332 36.3069 36.2257 36.3424 36.1161 36.3789C35.3127 36.4515 34.6226 36.4521 33.9677 35.9492C33.1842 35.1113 32.5737 34.1061 31.942 33.1535C31.7636 32.8848 31.5842 32.6168 31.4046 32.3489C31.291 32.1783 31.1774 32.0077 31.0639 31.837C31.0102 31.7569 30.9565 31.6768 30.9012 31.5942C30.5302 31.0325 30.5302 31.0325 30.5302 30.793C28.0523 31.6502 28.0523 31.6502 25.6756 32.7471C25.3366 32.8987 25.0783 32.82 24.7294 32.7266C24.3825 32.4317 24.3074 32.2739 24.2661 31.8202C24.4936 31.2028 25.048 30.9482 25.627 30.6723C25.8871 30.564 26.1488 30.4633 26.4129 30.3654C26.508 30.3289 26.6031 30.2924 26.7011 30.2549C27.0013 30.1399 27.302 30.0266 27.6029 29.9135C27.9052 29.7989 28.2074 29.684 28.5093 29.5686C28.6962 29.4972 28.8833 29.4264 29.0706 29.3562C29.76 29.0943 30.2797 28.8172 30.7991 28.2816C30.8875 28.1915 30.976 28.1014 31.0671 28.0086C31.158 27.9149 31.2489 27.8212 31.3425 27.7247C31.5234 27.5383 31.7048 27.3524 31.8868 27.1671C31.9666 27.0847 32.0464 27.0024 32.1287 26.9176C32.3414 26.7244 32.5233 26.6079 32.786 26.4961C32.8804 25.5777 32.945 24.8644 32.3429 24.106C32.2548 24.0038 32.1668 23.9016 32.076 23.7963C31.3856 22.9683 30.8524 21.785 30.8524 20.6953C30.7926 20.6938 30.7328 20.6923 30.6711 20.6907C30.0099 20.6494 29.5266 20.4956 29.0262 20.0508C28.3126 19.1583 28.3166 18.2552 28.3817 17.1504C28.4943 16.6024 28.7368 16.1508 29.1337 15.7539C29.3108 15.6777 29.4897 15.6054 29.6708 15.5391C29.6583 15.4796 29.6459 15.4201 29.633 15.3589C29.5757 15.0834 29.5192 14.8077 29.4626 14.532C29.4333 14.3918 29.4333 14.3918 29.4033 14.2487C28.9886 12.2132 28.7632 9.86208 29.7983 7.98596C30.4844 6.99358 31.3928 6.49477 32.5175 6.15307C32.9732 6.00745 33.3171 5.77877 33.7075 5.50686C35.5656 4.27209 37.7178 3.89854 39.9094 3.90393ZM33.9744 7.44885C33.5553 7.76528 33.1671 7.82776 32.661 7.94148C31.9793 8.11611 31.6185 8.52521 31.2066 9.06228C30.8495 9.69355 30.8142 10.3348 30.8188 11.0408C30.8191 11.1331 30.8194 11.2254 30.8197 11.3205C30.8407 12.6506 30.9988 14.0486 31.3895 15.3242C31.6895 15.5394 31.8772 15.6659 32.251 15.6196C32.5024 15.5244 32.5967 15.4162 32.7659 15.2101C33.0367 14.9234 33.0864 14.8975 33.5044 14.8408C33.8602 14.8945 33.8602 14.8945 34.1825 15.1094C34.2966 15.4451 34.2966 15.4451 34.2899 15.8613C33.9564 16.5146 33.3489 17.1574 32.6773 17.4638C32.2924 17.5848 32.0641 17.591 31.6849 17.4525C31.3895 17.2578 31.3895 17.2578 31.1747 17.0698C30.9545 16.9042 30.9545 16.9042 30.6241 16.949C30.2834 17.017 30.2834 17.017 30.1005 17.3652C30.0342 17.8701 30.004 18.3672 30.2482 18.8221C30.6058 19.018 30.9467 19.0642 31.3459 19.1335C31.7129 19.2157 31.8951 19.3374 32.1415 19.6211C32.271 19.9113 32.371 20.1787 32.4637 20.4805C33.0704 22.4276 34.0397 23.9213 35.8396 24.9548C37.5227 25.836 39.2792 26.0045 41.1003 25.4563C42.7402 24.8551 44.1948 23.7353 45.0023 22.1606C45.2641 21.5715 45.4776 20.9929 45.6296 20.3663C45.7521 19.8765 45.908 19.6112 46.3212 19.2988C46.7043 19.0812 47.07 19.0137 47.5003 18.9401C47.7579 18.8808 47.7579 18.8808 47.9325 18.5469C47.9995 18.0367 48.0197 17.5438 47.7915 17.0765C47.3924 16.8816 47.0493 16.9237 46.6111 16.9418C46.237 16.9337 45.992 16.8074 45.6766 16.6133C45.6057 16.6133 45.5348 16.6133 45.4618 16.6133C45.4374 16.5313 45.413 16.4493 45.3879 16.3649C45.1952 15.8234 44.9525 15.3077 44.7098 14.7871C44.6107 14.8014 44.5115 14.8156 44.4094 14.8303C40.8339 15.3144 37.0772 15.3404 34.0751 13.0684C33.0287 12.1431 33.0287 12.1431 32.9673 11.5779C33.0009 11.2422 33.0009 11.2422 33.1754 10.9871C33.4305 10.8125 33.4305 10.8125 33.726 10.7386C34.2587 10.8513 34.5465 11.1979 34.9344 11.5645C37.1228 13.4949 39.9072 13.5442 42.6688 13.3906C43.2192 13.3365 43.7587 13.2493 44.3003 13.1389C45.3915 12.951 45.3915 12.951 45.8164 13.2316C46.0536 13.5779 46.1974 13.9311 46.3413 14.3239C46.4896 14.8061 46.4896 14.8061 46.7509 15.2168C46.9657 15.2212 47.1806 15.2214 47.3954 15.2168C47.8001 12.9762 47.6813 10.4063 46.4286 8.44922C45.2677 6.92694 43.7622 6.03912 41.872 5.7066C39.2691 5.39045 36.0127 5.58397 33.9744 7.44885ZM34.6122 26.2812C34.4862 27.1604 34.4862 27.1604 34.8098 27.9517C35.091 28.2018 35.3813 28.4243 35.6864 28.6445C35.8776 28.7978 36.0678 28.9522 36.2571 29.1078C36.3546 29.1866 36.4521 29.2654 36.5525 29.3465C36.972 29.6985 37.3725 30.069 37.7714 30.444C38.1399 30.7897 38.5181 31.1173 38.9091 31.4375C39.8604 31.0112 40.6404 30.1531 41.3948 29.4463C41.8657 29.0074 42.354 28.5989 42.8576 28.1976C42.9371 28.1324 43.0166 28.0672 43.0985 28C43.1621 27.9529 43.2256 27.9058 43.2911 27.8573C43.4979 27.5709 43.4512 27.305 43.4409 26.9594C43.438 26.8326 43.4351 26.7059 43.4321 26.5754C43.4265 26.4298 43.4265 26.4298 43.4208 26.2812C43.349 26.3101 43.2773 26.3389 43.2034 26.3685C43.0979 26.4106 42.9924 26.4527 42.8837 26.4961C42.756 26.5471 42.6283 26.598 42.4968 26.6505C40.3036 27.5104 38.0591 27.6813 35.8408 26.7579C35.7432 26.7135 35.6456 26.669 35.545 26.6232C35.2392 26.4884 34.9304 26.3827 34.6122 26.2812ZM33.0009 28.5371C32.818 28.7055 32.6371 28.876 32.457 29.0474C32.3561 29.1421 32.2551 29.2368 32.1511 29.3344C32.077 29.4258 32.003 29.5172 31.9266 29.6113C31.9651 29.9605 32.1223 30.2109 32.3104 30.5023C32.3971 30.6372 32.3971 30.6372 32.4855 30.7748C32.5798 30.919 32.5798 30.919 32.6761 31.0661C32.7733 31.2151 32.7733 31.2151 32.8725 31.367C33.0099 31.5766 33.1478 31.786 33.2859 31.9951C33.4967 32.3156 33.7043 32.638 33.9118 32.9605C34.0458 33.1639 34.1799 33.3672 34.3143 33.5704C34.3758 33.6672 34.4374 33.764 34.5008 33.8637C34.863 34.4033 34.863 34.4033 35.4323 34.6936C35.8701 34.6531 35.9914 34.564 36.2902 34.2477C36.375 34.1601 36.4599 34.0725 36.5472 33.9823C36.6332 33.8891 36.7191 33.796 36.8076 33.7001C36.8964 33.6074 36.9853 33.5147 37.0768 33.4191C37.2957 33.1901 37.5124 32.9593 37.7274 32.7266C37.4388 32.3434 37.145 32.0478 36.7673 31.753C36.2991 31.3784 35.855 30.9884 35.4178 30.5781C34.8128 30.0117 34.187 29.4827 33.538 28.9668C33.3589 28.8236 33.1799 28.6803 33.0009 28.5371ZM44.119 29.2823C43.6637 29.7165 43.208 30.1383 42.7158 30.5311C41.8673 31.2109 41.0721 31.9561 40.3055 32.7266C40.6117 33.0515 40.9215 33.3727 41.2321 33.6934C41.3189 33.7856 41.4057 33.8778 41.4952 33.9728C41.6229 34.1037 41.6229 34.1037 41.7532 34.2372C41.8309 34.3182 41.9085 34.3992 41.9885 34.4827C42.3129 34.7124 42.4942 34.721 42.8837 34.6602C43.077 34.5228 43.077 34.5228 43.2164 34.3014C43.2793 34.2131 43.3422 34.1247 43.407 34.0337C43.4824 33.9214 43.5579 33.8091 43.6356 33.6934C43.736 33.5459 43.8364 33.3985 43.9369 33.251C44.2854 32.7362 44.6287 32.2179 44.9717 31.6993C45.0924 31.5174 45.2132 31.3355 45.334 31.1536C45.6277 30.7114 45.9208 30.2689 46.2137 29.8262C46.1113 29.7063 46.0087 29.5864 45.9062 29.4666C45.8491 29.3998 45.792 29.3331 45.7332 29.2643C45.5438 29.0447 45.3594 28.8341 45.1395 28.6445C44.6595 28.6445 44.445 28.9644 44.119 29.2823ZM38.6271 34.1096C38.2585 34.5946 38.332 34.9204 38.3719 35.5195C38.8328 35.5195 39.2936 35.5195 39.7684 35.5195C39.7562 34.7544 39.7562 34.7544 39.3992 34.1096C39.0294 33.8391 39.0001 33.8431 38.6271 34.1096Z" fill="#155DFC"/>
<path d="M32.7375 39.2535C32.9787 39.2525 33.2198 39.2491 33.461 39.2457C33.6149 39.245 33.7688 39.2445 33.9228 39.2441C34.1325 39.2426 34.1325 39.2426 34.3465 39.241C34.7421 39.2816 34.9433 39.362 35.2567 39.6016C35.41 39.9081 35.3975 40.1209 35.3641 40.4609C35.2 40.7464 35.2 40.7464 34.9344 40.9981C34.6308 41.0528 34.3923 41.0736 34.0889 41.0694C34.0074 41.0699 33.9258 41.0704 33.8417 41.0709C33.6696 41.0713 33.4974 41.0703 33.3252 41.0681C33.0624 41.0652 32.8001 41.068 32.5374 41.0715C32.3697 41.0711 32.2021 41.0704 32.0345 41.0694C31.9564 41.0705 31.8782 41.0716 31.7977 41.0727C31.3769 41.063 31.1898 41.01 30.8562 40.7456C30.6376 40.4609 30.6376 40.4609 30.5771 40.132C30.6503 39.7501 30.7666 39.6255 31.0673 39.3867C31.5478 39.1465 32.2029 39.2549 32.7375 39.2535Z" fill="#155DFC"/>
<path d="M10.8583 42.7974C10.9753 42.7951 11.0923 42.7929 11.2129 42.7906C11.326 42.7901 11.4392 42.7895 11.5557 42.789C11.7104 42.7875 11.7104 42.7875 11.8683 42.7859C12.2148 42.8313 12.4151 42.9448 12.6979 43.1465C12.907 43.4221 12.9136 43.5559 12.8993 43.9051C12.7873 44.2813 12.711 44.3507 12.3757 44.543C11.8769 44.611 11.3747 44.5927 10.8717 44.59C10.7338 44.5921 10.5959 44.5943 10.4538 44.5965C10.3214 44.5964 10.189 44.5963 10.0527 44.5963C9.93163 44.5965 9.8106 44.5967 9.68591 44.5969C9.29785 44.5311 9.17098 44.426 8.93815 44.1133C8.88775 43.7101 8.88107 43.4646 9.07914 43.1062C9.53562 42.6666 10.2677 42.8001 10.8583 42.7974Z" fill="#6A00FF"/>
</g>
<defs>
<clipPath id="clip0_12_237">
<rect width="55" height="55" fill="white" transform="translate(0.666748 0.5)"/>
</clipPath>
</defs>
</svg>
