<svg width="53" height="54" viewBox="0 0 53 54" fill="none" xmlns="http://www.w3.org/2000/svg">
<g clip-path="url(#clip0_12_210)">
<path d="M12.3406 0.459894C12.4555 0.459336 12.5703 0.458779 12.6887 0.458205C13.0726 0.456727 13.4564 0.457462 13.8403 0.458199C14.116 0.457609 14.3917 0.456898 14.6673 0.456046C15.3378 0.454269 16.0083 0.45418 16.6788 0.454723C17.224 0.455142 17.7692 0.454991 18.3145 0.454438C18.431 0.454322 18.431 0.454322 18.5499 0.454203C18.7078 0.454045 18.8657 0.453886 19.0235 0.453726C20.5031 0.452306 21.9826 0.452867 23.4621 0.454055C24.8142 0.455083 26.1662 0.453745 27.5182 0.451267C28.908 0.44874 30.2978 0.447748 31.6876 0.448436C32.4672 0.448797 33.2468 0.44857 34.0265 0.446754C34.6903 0.445227 35.3541 0.445168 36.0179 0.446968C36.3562 0.447847 36.6945 0.447851 37.0328 0.446487C37.4005 0.445118 37.768 0.446317 38.1357 0.448142C38.2414 0.447148 38.347 0.446154 38.4559 0.445129C39.6021 0.456793 40.4646 0.805507 41.2862 1.60109C42.1128 2.50543 42.3849 3.44945 42.3814 4.65369C42.3823 4.76623 42.3832 4.87876 42.3841 4.99471C42.3865 5.36463 42.3866 5.7345 42.3865 6.10443C42.3872 6.36219 42.388 6.61994 42.3889 6.8777C42.3902 7.41684 42.3904 7.95596 42.3898 8.49509C42.3893 9.04895 42.3907 9.60275 42.394 10.1566C42.3981 10.8261 42.3996 11.4955 42.3991 12.165C42.3993 12.42 42.4003 12.6751 42.4022 12.9301C42.4044 13.286 42.4035 13.6417 42.4016 13.9976C42.403 14.1032 42.4044 14.2088 42.4058 14.3177C42.3973 15.0292 42.3973 15.0292 42.095 15.3682C41.7594 15.5412 41.5717 15.5732 41.1993 15.5098C40.9609 15.3165 40.8185 15.1623 40.6817 14.8887C40.6718 14.7424 40.6683 14.5956 40.6681 14.4489C40.6675 14.3105 40.6675 14.3105 40.6668 14.1692C40.6669 14.0677 40.6669 13.9662 40.667 13.8616C40.6665 13.7015 40.6665 13.7015 40.6659 13.5381C40.6651 13.3057 40.6646 13.0733 40.6642 12.8409C40.6635 12.4727 40.6619 12.1046 40.6599 11.7365C40.6545 10.6896 40.6496 9.64277 40.6479 8.59588C40.6469 7.95598 40.6439 7.31612 40.6395 6.67624C40.6383 6.4325 40.6377 6.18876 40.638 5.94502C40.6382 5.60331 40.6359 5.2617 40.633 4.92001C40.6337 4.81974 40.6344 4.71948 40.6351 4.61617C40.6256 3.92544 40.5031 3.34147 40.0143 2.82663C39.2198 2.13543 38.4226 2.14086 37.4153 2.14383C37.3053 2.14374 37.1953 2.14365 37.082 2.14356C36.7134 2.14339 36.3448 2.14396 35.9762 2.14452C35.712 2.14455 35.4478 2.14454 35.1835 2.14448C34.6147 2.14445 34.0458 2.14475 33.477 2.14533C32.6545 2.14617 31.8321 2.14644 31.0096 2.14657C29.6752 2.1468 28.3407 2.14749 27.0063 2.14847C25.7102 2.14942 24.414 2.15015 23.1179 2.15059C23.038 2.15062 22.9581 2.15064 22.8757 2.15067C22.4748 2.15081 22.0738 2.15094 21.6729 2.15107C18.3477 2.15214 15.0225 2.15396 11.6973 2.15627C11.6982 2.24865 11.6992 2.34102 11.7001 2.43619C11.7084 3.31026 11.7147 4.18433 11.7188 5.05843C11.7209 5.50773 11.7238 5.957 11.7285 6.40628C11.7331 6.84054 11.7355 7.27477 11.7366 7.70905C11.7374 7.87404 11.7388 8.03903 11.7411 8.20401C11.7556 9.31363 11.7187 10.2759 10.9533 11.1492C10.2937 11.8138 9.48746 11.9308 8.58979 11.9348C8.34662 11.9336 8.10352 11.9304 7.86036 11.9272C7.68995 11.9264 7.51954 11.9258 7.34913 11.9254C6.90341 11.9238 6.45776 11.9198 6.01207 11.9152C5.55615 11.9109 5.10023 11.909 4.6443 11.907C3.75179 11.9025 2.85932 11.8955 1.96684 11.8867C1.95973 16.7106 1.95426 21.5345 1.95098 26.3584C1.9506 26.9278 1.95019 27.4973 1.94978 28.0667C1.94966 28.2368 1.94966 28.2368 1.94954 28.4103C1.94818 30.2461 1.94574 32.082 1.94288 33.9178C1.93998 35.8014 1.93825 37.6851 1.93762 39.5687C1.9372 40.7311 1.93585 41.8934 1.93333 43.0558C1.93169 43.8528 1.93119 44.6498 1.93159 45.4468C1.93179 45.9067 1.93149 46.3665 1.92982 46.8264C1.92831 47.2477 1.92824 47.6689 1.9293 48.0902C1.92943 48.2424 1.92904 48.3945 1.92806 48.5467C1.92237 49.4885 1.96063 50.2807 2.45207 51.0998C3.10773 51.72 3.87004 51.8565 4.75151 51.8571C4.87195 51.8574 4.99239 51.8578 5.11648 51.8581C5.24782 51.8579 5.37917 51.8578 5.5145 51.8576C5.6562 51.8578 5.79791 51.858 5.93961 51.8583C6.32845 51.859 6.71728 51.8589 7.10612 51.8588C7.5257 51.8588 7.94527 51.8594 8.36485 51.8599C9.18664 51.8607 10.0084 51.861 10.8302 51.8611C11.4982 51.8611 12.1662 51.8613 12.8341 51.8617C14.7281 51.8626 16.622 51.863 18.5159 51.863C18.618 51.863 18.7201 51.863 18.8253 51.863C18.9275 51.863 19.0297 51.8629 19.135 51.8629C20.7918 51.8629 22.4486 51.8639 24.1054 51.8654C25.8067 51.8668 27.508 51.8676 29.2093 51.8675C30.1644 51.8674 31.1195 51.8677 32.0746 51.8688C32.8877 51.8698 33.7008 51.87 34.514 51.8693C34.9288 51.869 35.3435 51.8689 35.7583 51.8699C36.1382 51.8707 36.5182 51.8705 36.8981 51.8696C37.1002 51.8694 37.3023 51.8702 37.5044 51.871C38.4362 51.8673 39.2002 51.8248 39.9571 51.2227C40.5764 50.5517 40.6119 49.9424 40.6277 49.0735C40.6447 48.6041 40.6921 48.2937 40.9922 47.9102C41.3123 47.7502 41.5713 47.7763 41.9239 47.8067C42.1511 47.947 42.1511 47.947 42.3379 48.2207C42.4006 48.5881 42.3956 48.9488 42.3897 49.3206C42.3913 49.4187 42.3929 49.5167 42.3946 49.6178C42.3883 50.7625 41.9561 51.683 41.1863 52.5231C40.5008 53.1909 39.6689 53.5121 38.7243 53.5142C38.5984 53.5147 38.4725 53.5153 38.3428 53.5158C38.2029 53.5159 38.0629 53.5159 37.923 53.516C37.7745 53.5164 37.6261 53.5168 37.4776 53.5173C37.069 53.5186 36.6604 53.5192 36.2519 53.5196C35.8114 53.5202 35.3709 53.5214 34.9304 53.5226C33.8663 53.5251 32.8022 53.5266 31.7382 53.5279C31.4376 53.5283 31.137 53.5287 30.8364 53.5292C28.9693 53.5318 27.1023 53.5341 25.2352 53.5353C24.8028 53.5356 24.3703 53.536 23.9379 53.5363C23.8304 53.5363 23.7229 53.5364 23.6122 53.5365C21.8716 53.5378 20.1311 53.5412 18.3905 53.5456C16.6032 53.55 14.8158 53.5524 13.0284 53.5529C12.025 53.5533 11.0217 53.5545 10.0183 53.5579C9.1636 53.5608 8.30895 53.5619 7.45428 53.5608C7.01846 53.5603 6.58268 53.5606 6.14687 53.5631C5.74723 53.5655 5.34766 53.5654 4.94802 53.5634C4.80409 53.5631 4.66016 53.5637 4.51624 53.5653C3.25836 53.578 2.17615 53.3032 1.24668 52.4143C0.527295 51.5299 0.195004 50.5468 0.193182 49.4148C0.192721 49.2813 0.19226 49.1479 0.191784 49.0104C0.191794 48.863 0.191813 48.7156 0.191842 48.5683C0.1915 48.4111 0.191115 48.254 0.190689 48.0969C0.189654 47.6654 0.189267 47.2338 0.188992 46.8023C0.188587 46.3368 0.187596 45.8713 0.186693 45.4058C0.184649 44.2817 0.183605 43.1577 0.182684 42.0337C0.18223 41.504 0.181674 40.9744 0.181132 40.4448C0.179371 38.6838 0.177871 36.9228 0.177121 35.1618C0.176923 34.705 0.176725 34.2482 0.176522 33.7914C0.176472 33.6779 0.176422 33.5644 0.176371 33.4474C0.175512 31.6086 0.172889 29.7697 0.169527 27.9308C0.166101 26.042 0.164239 24.1532 0.163908 22.2644C0.163684 21.2043 0.162781 20.1442 0.160134 19.084C0.157884 18.1811 0.157055 17.2783 0.15806 16.3754C0.15853 15.915 0.158339 15.4547 0.156325 14.9943C0.154494 14.5722 0.154607 14.15 0.15621 13.7279C0.156456 13.5759 0.156014 13.4239 0.154779 13.2719C0.137813 11.0427 1.02745 9.8345 2.52442 8.31277C2.89177 7.94143 3.26028 7.57126 3.62916 7.20145C3.7081 7.12222 3.78703 7.04299 3.86837 6.96135C4.28542 6.54276 4.70276 6.12446 5.12035 5.70641C5.54925 5.27694 5.97718 4.84652 6.40489 4.41587C6.73642 4.0824 7.06866 3.74964 7.40108 3.41706C7.5591 3.25873 7.71687 3.10013 7.87436 2.94127C10.3474 0.448236 10.3474 0.448236 12.3406 0.459894ZM9.80491 3.51934C9.72074 3.60433 9.72074 3.60433 9.63486 3.69104C9.5394 3.78701 9.5394 3.78701 9.44202 3.88492C9.37269 3.9551 9.30337 4.02529 9.23194 4.0976C9.12482 4.20531 9.12482 4.20531 9.01554 4.31519C8.709 4.62342 8.40305 4.93225 8.09708 5.24105C7.87391 5.46611 7.6504 5.69086 7.42689 5.91559C7.35903 5.98431 7.29117 6.05302 7.22126 6.12382C6.82121 6.52595 6.40888 6.90645 5.97945 7.27701C5.62682 7.58334 5.29909 7.91432 4.9688 8.24429C4.86331 8.34787 4.86331 8.34787 4.7557 8.45354C4.68938 8.51966 4.62306 8.58578 4.55473 8.6539C4.49495 8.71326 4.43517 8.77261 4.37358 8.83377C4.22203 8.98117 4.22203 8.98117 4.24419 9.19534C4.09047 9.24658 4.09047 9.24658 3.93364 9.29885C3.93364 9.36717 3.93364 9.43549 3.93364 9.50588C3.86532 9.50588 3.797 9.50588 3.72661 9.50588C3.58429 9.67488 3.44645 9.84772 3.31255 10.0235C3.21006 10.1259 3.21006 10.1259 3.10551 10.2305C3.90457 10.2425 4.70362 10.2517 5.50275 10.2573C5.87387 10.26 6.24492 10.2637 6.616 10.2695C6.97442 10.2752 7.33278 10.2783 7.69124 10.2796C7.89389 10.281 8.09651 10.2851 8.29913 10.2891C9.05314 10.3076 9.05314 10.3076 9.70924 9.98796C10.0377 9.59227 10.0539 9.31394 10.0528 8.81597C10.0528 8.6958 10.0528 8.57561 10.0528 8.45179C10.0523 8.32207 10.0517 8.19234 10.0512 8.05869C10.051 7.92586 10.0509 7.79304 10.0507 7.65619C10.0503 7.30341 10.0493 6.95064 10.0482 6.59786C10.0471 6.23774 10.0466 5.87762 10.0461 5.5175C10.045 4.81115 10.0432 4.10481 10.0411 3.39846C9.92039 3.38684 9.92039 3.38684 9.80491 3.51934Z" fill="#155DFC"/>
<path d="M43.2897 17.9278C43.6982 18.2203 43.9956 18.5285 44.3046 18.9258C44.6409 19.1427 44.8975 19.1531 45.2925 19.1385C45.4593 19.1347 45.4593 19.1347 45.6295 19.1308C45.8614 19.1236 46.0932 19.1155 46.325 19.1065C47.3722 19.0853 48.1132 19.3402 48.8812 20.0608C49.4482 20.7059 49.6405 21.4122 49.7234 22.2528C49.8449 22.7853 50.0794 23.0895 50.537 23.3826C50.6609 23.4463 50.7854 23.5091 50.9102 23.571C51.8209 24.0633 52.3006 24.5126 52.6312 25.5055C52.9124 26.5601 52.7759 27.4103 52.2559 28.3651C52.2203 28.4242 52.1847 28.4833 52.148 28.5442C51.9803 28.9978 52.0312 29.387 52.2005 29.8313C52.2856 29.999 52.2856 29.999 52.3724 30.1702C52.8464 31.1137 52.8966 31.9074 52.5956 32.9234C52.2309 33.8493 51.5722 34.3094 50.7226 34.7637C50.2872 35.0151 50.0232 35.24 49.791 35.6953C49.7288 35.9827 49.7288 35.9827 49.7004 36.2841C49.5575 37.2221 49.2192 37.9431 48.4723 38.5448C48.047 38.8217 47.5143 39.1113 46.996 39.1113C46.9971 39.2493 46.9971 39.2493 46.9981 39.3901C47.0044 40.2582 47.0091 41.1263 47.0121 41.9944C47.0137 42.4407 47.0159 42.887 47.0195 43.3333C47.0228 43.7642 47.0247 44.1951 47.0255 44.626C47.0261 44.7902 47.0272 44.9543 47.0289 45.1185C47.0311 45.3489 47.0314 45.5793 47.0313 45.8098C47.0323 46.0063 47.0323 46.0063 47.0334 46.2068C46.9855 46.6654 46.8423 47.0136 46.5302 47.3558C46.1267 47.67 45.8299 47.8219 45.3204 47.839C45.2463 47.8429 45.1723 47.8467 45.096 47.8507C44.1946 47.7056 43.3438 46.9949 42.5889 46.5141C42.4959 46.4556 42.4029 46.3971 42.3071 46.3368C42.2235 46.2836 42.1398 46.2304 42.0537 46.1756C41.8241 46.049 41.6672 45.9648 41.4062 45.9434C41.1644 46.0443 41.1644 46.0443 40.923 46.2094C40.7842 46.2975 40.7842 46.2975 40.6426 46.3873C40.5466 46.4501 40.4505 46.5128 40.3516 46.5774C39.2178 47.3048 39.2178 47.3048 38.7293 47.5883C38.6591 47.6292 38.5888 47.67 38.5163 47.7121C38.1036 47.893 37.7024 47.8937 37.2656 47.8066C36.8164 47.627 36.5243 47.4339 36.2734 47.0154C36.1053 46.6168 36.0894 46.3354 36.0916 45.9038C36.0916 45.7931 36.0916 45.7931 36.0915 45.6802C36.0917 45.4382 36.0941 45.1963 36.0966 44.9543C36.0971 44.7858 36.0976 44.6172 36.0979 44.4487C36.0991 44.0066 36.1021 43.5645 36.1056 43.1224C36.1088 42.6706 36.1102 42.2189 36.1117 41.7672C36.1151 40.8819 36.1203 39.9966 36.1269 39.1113C36.0625 39.0979 35.9982 39.0845 35.9319 39.0706C35.8056 39.0436 35.8056 39.0436 35.6767 39.016C35.5932 38.9983 35.5096 38.9806 35.4235 38.9623C34.7299 38.786 34.1377 38.1356 33.746 37.5586C33.5084 37.1064 33.4179 36.6496 33.3384 36.1482C33.251 35.6566 33.1734 35.3382 32.8144 34.9707C32.5081 34.8057 32.1957 34.6587 31.8807 34.5109C31.0983 34.1018 30.6345 33.4377 30.3733 32.6048C30.1735 31.5798 30.3597 30.7125 30.848 29.8099C31.0807 29.3539 31.0619 29.0575 30.9317 28.5814C30.8213 28.2719 30.6842 27.9847 30.5269 27.6963C30.1766 27.0259 30.236 26.0928 30.4271 25.3761C30.8337 24.3549 31.6617 23.786 32.626 23.3426C32.9646 23.1423 33.0721 23.0109 33.2285 22.6523C33.2817 22.4059 33.3264 22.1576 33.3643 21.9083C33.543 20.9056 33.9161 20.1764 34.748 19.5732C35.6708 19.0745 36.424 19.1132 37.452 19.1813C38.0467 19.2015 38.4146 19.1924 38.8737 18.7899C38.9945 18.6638 39.1141 18.5366 39.2324 18.4082C40.4031 17.4055 41.9159 17.0772 43.2897 17.9278ZM39.9194 20.1417C39.1405 20.8074 38.3872 20.8382 37.395 20.7955C37.167 20.7867 36.9389 20.7792 36.7108 20.7733C36.5611 20.7669 36.5611 20.7669 36.4084 20.7604C35.9514 20.8069 35.6789 21.04 35.3376 21.3325C35.0187 21.7276 34.9851 22.1973 34.9005 22.6852C34.7581 23.4694 34.5073 24.0428 33.8754 24.5415C33.5757 24.7476 33.2648 24.9209 32.9438 25.0914C32.4918 25.333 32.2174 25.6061 31.9863 26.0684C31.8899 26.7979 32.1334 27.2788 32.4614 27.9264C32.8266 28.7165 32.7534 29.4517 32.497 30.2628C32.4059 30.5048 32.2987 30.7205 32.1739 30.9465C31.9448 31.3852 31.9227 31.6827 31.9863 32.1758C32.2648 32.7676 32.6838 33.0019 33.2285 33.3145C34.0755 33.8199 34.5785 34.2494 34.8524 35.2166C34.9226 35.4965 34.9841 35.7718 35.0274 36.0572C35.119 36.6289 35.2858 36.8855 35.7484 37.2383C36.2705 37.5831 36.8656 37.4691 37.4597 37.3904C38.4609 37.2878 39.2618 37.5753 40.0605 38.1797C40.2186 38.3475 40.2186 38.3475 40.3452 38.5096C40.6152 38.8472 40.7885 38.9771 41.1992 39.1113C41.6331 39.1525 41.9817 39.1103 42.3455 38.8602C42.5561 38.6736 42.7568 38.4789 42.9589 38.2832C43.1013 38.1663 43.2457 38.0518 43.3924 37.9403C43.4558 37.8916 43.5192 37.8429 43.5845 37.7927C44.3278 37.3135 45.2179 37.2895 46.0644 37.4551C46.547 37.5025 46.8947 37.5029 47.3389 37.2933C47.8713 36.8105 48.0331 36.3961 48.1347 35.7018C48.2753 34.7532 48.5905 34.2271 49.3239 33.6052C49.5856 33.4168 49.8416 33.2814 50.1339 33.1462C50.5884 32.9345 50.8173 32.7486 51.0331 32.2793C51.1918 31.6975 51.0877 31.3501 50.8261 30.8301C50.3967 29.9637 50.2232 29.1105 50.4949 28.1589C50.6225 27.8349 50.77 27.5256 50.9264 27.2147C51.1474 26.7532 51.1678 26.4587 51.0331 25.9648C50.7485 25.4509 50.4951 25.2395 49.9656 24.9944C49.0551 24.5279 48.5653 23.9907 48.2132 23.0304C48.1305 22.7411 48.0821 22.4581 48.0377 22.1606C47.9514 21.6208 47.8104 21.3678 47.4101 20.9961C47.0711 20.7818 46.8193 20.7687 46.4223 20.7834C46.2554 20.7872 46.2554 20.7872 46.0852 20.7911C45.8534 20.7983 45.6215 20.8064 45.3897 20.8153C44.3582 20.8363 43.6687 20.5999 42.9064 19.9043C42.7773 19.7787 42.651 19.6502 42.5255 19.521C42.2125 19.2189 42.011 19.1409 41.5744 19.1005C40.7929 19.1678 40.4187 19.5796 39.9194 20.1417ZM37.7831 38.9043C37.7831 41.2955 37.7831 43.6867 37.7831 46.1504C38.941 45.4908 38.941 45.4908 40.0864 44.8112C40.8054 44.3758 41.2703 44.1208 42.1308 44.2871C42.6767 44.5244 43.1747 44.8584 43.6729 45.1814C43.9421 45.3556 44.2147 45.5238 44.4881 45.6912C44.6572 45.795 44.8255 45.9003 44.9937 46.0056C45.204 46.1592 45.204 46.1592 45.3398 46.1504C45.3398 43.7592 45.3398 41.368 45.3398 38.9043C44.6045 39.0268 44.2504 39.2519 43.7547 39.7842C43.1919 40.367 42.4081 40.6721 41.6003 40.6899C40.6577 40.6745 39.9299 40.3561 39.2324 39.7324C39.1448 39.6406 39.0573 39.5488 38.9671 39.4542C38.639 39.1429 38.2517 38.9043 37.7831 38.9043Z" fill="#6A00FF"/>
<path d="M18.3905 5.7516C18.4584 5.75113 18.5264 5.75066 18.5963 5.75018C18.8231 5.74887 19.0499 5.74904 19.2767 5.74921C19.4396 5.74859 19.6025 5.74789 19.7654 5.7471C20.2075 5.74528 20.6496 5.74479 21.0917 5.74466C21.3681 5.74451 21.6445 5.74407 21.9209 5.74352C22.8857 5.7416 23.8504 5.74076 24.8152 5.74092C25.7136 5.74104 26.612 5.73886 27.5104 5.73559C28.2825 5.73288 29.0545 5.73177 29.8266 5.73191C30.2874 5.73196 30.7482 5.73137 31.209 5.72918C31.6425 5.72717 32.0761 5.72716 32.5097 5.72866C32.6684 5.72888 32.8272 5.72839 32.9859 5.72714C33.813 5.72103 34.4876 5.72095 35.1953 6.19335C35.8467 6.84476 35.845 7.58121 35.8498 8.45512C35.8495 8.52467 35.8493 8.59421 35.8491 8.66587C35.8487 8.87738 35.8512 9.08874 35.8538 9.30023C35.8545 10.7643 35.8545 10.7643 35.3279 11.3651C35.2671 11.4134 35.2062 11.4617 35.1435 11.5115C35.0827 11.5614 35.0218 11.6113 34.9592 11.6627C34.6403 11.8786 34.3614 11.9 33.9881 11.9019C33.8394 11.9031 33.8394 11.9031 33.6878 11.9042C33.5792 11.9045 33.4706 11.9047 33.3587 11.905C33.187 11.906 33.187 11.906 33.0118 11.9071C32.6324 11.9091 32.2529 11.9103 31.8735 11.9114C31.6794 11.912 31.6794 11.912 31.4814 11.9127C30.8676 11.9146 30.2537 11.9161 29.6399 11.917C28.9314 11.918 28.2229 11.9207 27.5144 11.9249C26.9006 11.9284 26.2868 11.9296 25.673 11.93C25.4119 11.9305 25.1508 11.9317 24.8897 11.9336C24.5248 11.9362 24.1601 11.9361 23.7953 11.9354C23.6869 11.9367 23.5785 11.938 23.4669 11.9394C22.7351 11.9341 22.7351 11.9341 22.3982 11.6892C22.2487 11.4618 22.1688 11.3303 22.1523 11.0586C22.264 10.6422 22.4105 10.4562 22.7734 10.2305C23.0006 10.1906 23.0006 10.1906 23.2516 10.1892C23.3471 10.1879 23.4426 10.1866 23.541 10.1852C23.645 10.1854 23.749 10.1855 23.8562 10.1857C23.9663 10.1846 24.0764 10.1836 24.1899 10.1825C24.5539 10.1794 24.918 10.1784 25.2821 10.1775C25.5344 10.1757 25.7868 10.1739 26.0392 10.1719C26.7036 10.1669 27.3679 10.1638 28.0323 10.1611C28.7102 10.1581 29.3881 10.1532 30.066 10.1486C31.3962 10.1397 32.7264 10.1329 34.0566 10.1269C34.0566 9.27294 34.0566 8.41893 34.0566 7.53905C28.7618 7.53905 23.467 7.53905 18.0117 7.53905C17.9775 8.42721 17.9434 9.31538 17.9082 10.2305C18.4641 10.2142 18.4641 10.2142 19.0198 10.1932C19.4195 10.1873 19.627 10.2065 19.9801 10.4132C20.196 10.6563 20.2543 10.7401 20.2438 11.0586C20.244 11.1611 20.244 11.1611 20.2442 11.2656C20.1518 11.5918 20.0557 11.6943 19.7715 11.8867C19.3998 11.9516 19.0351 11.9491 18.6587 11.9449C18.509 11.9486 18.509 11.9486 18.3562 11.9524C17.672 11.951 17.1726 11.8488 16.666 11.3691C16.1137 10.7423 16.1922 9.88879 16.2036 9.10308C16.2067 8.87839 16.2058 8.65395 16.2044 8.42924C16.2111 6.9234 16.2111 6.9234 16.7105 6.32719C17.2731 5.89684 17.6838 5.75362 18.3905 5.7516Z" fill="#155DFC"/>
<path d="M45.5065 23.8151C46.8876 24.9383 47.8483 26.4212 48.0813 28.2139C48.229 30.3813 47.6565 32.0557 46.3046 33.7378C45.1756 34.9763 43.4692 35.5914 41.834 35.7183C40.0568 35.7726 38.4478 35.1525 37.0957 34.0164C35.8487 32.8383 35.0582 31.3272 34.9672 29.6036C34.9299 27.624 35.4522 25.8725 36.8515 24.4121C39.1727 22.1881 42.9197 21.8354 45.5065 23.8151ZM37.5761 26.1719C36.8221 27.2775 36.5405 28.4673 36.6445 29.7949C36.9118 31.1193 37.5411 32.2675 38.6113 33.1074C39.901 33.8896 41.1496 34.2539 42.6484 33.9161C43.9162 33.5643 44.9735 32.9057 45.6891 31.7746C46.4102 30.451 46.6355 29.2331 46.271 27.7574C45.8948 26.5048 45.122 25.5203 44.007 24.8262C41.7366 23.6155 39.2072 24.221 37.5761 26.1719Z" fill="#6A00FF"/>
<path d="M7.46246 19.1845C7.58823 19.1836 7.58823 19.1836 7.71654 19.1827C7.99725 19.1813 8.27785 19.1829 8.55856 19.1844C8.75989 19.184 8.96123 19.1835 9.16256 19.1827C9.70922 19.1813 10.2558 19.1824 10.8025 19.1841C11.3743 19.1856 11.946 19.1849 12.5178 19.1845C13.4779 19.1843 14.438 19.1857 15.3981 19.1881C16.5086 19.1908 17.6192 19.191 18.7298 19.1898C19.7976 19.1887 20.8653 19.1893 21.9331 19.1908C22.3878 19.1914 22.8425 19.1914 23.2972 19.1909C23.8324 19.1904 24.3676 19.1914 24.9028 19.1937C25.0994 19.1942 25.2961 19.1943 25.4927 19.1938C25.7607 19.1931 26.0286 19.1944 26.2966 19.1962C26.3748 19.1956 26.4529 19.195 26.5335 19.1943C26.8562 19.1983 27.087 19.218 27.3735 19.3723C27.6325 19.6522 27.6321 19.8989 27.6386 20.2715C27.4993 20.5766 27.4227 20.7418 27.121 20.8926C26.8536 20.9034 26.5889 20.9079 26.3215 20.9078C26.1962 20.9084 26.1962 20.9084 26.0684 20.909C25.787 20.9101 25.5056 20.9105 25.2242 20.9109C25.0231 20.9116 24.822 20.9123 24.6209 20.913C24.0733 20.9148 23.5258 20.9159 22.9783 20.9167C22.6364 20.9173 22.2946 20.9179 21.9528 20.9185C20.8839 20.9205 19.815 20.922 18.7461 20.9229C17.511 20.9239 16.2759 20.9266 15.0408 20.9308C14.087 20.9339 13.1331 20.9354 12.1793 20.9358C11.6092 20.936 11.0392 20.9369 10.4691 20.9395C9.93287 20.9419 9.39668 20.9424 8.86046 20.9413C8.66354 20.9413 8.46662 20.9419 8.2697 20.9434C8.00104 20.9452 7.73251 20.9445 7.46385 20.9431C7.38575 20.9442 7.30765 20.9454 7.22718 20.9465C6.84821 20.9419 6.63998 20.9023 6.31797 20.6954C6.10732 20.4785 6.10732 20.4785 6.03857 20.2715C6.03991 20.2032 6.04124 20.1349 6.04262 20.0645C6.04128 19.9962 6.03995 19.9278 6.03857 19.8574C6.25474 19.2064 6.8723 19.1769 7.46246 19.1845Z" fill="#155DFC"/>
<path d="M7.45864 35.5282C7.54206 35.5276 7.62548 35.527 7.71144 35.5264C7.99073 35.5251 8.26987 35.5274 8.54916 35.5298C8.74948 35.5296 8.94979 35.5292 9.1501 35.5285C9.69399 35.5275 10.2378 35.5297 10.7817 35.5325C11.3506 35.535 11.9194 35.5347 12.4883 35.5347C13.4435 35.5352 14.3987 35.5376 15.354 35.5414C16.4589 35.5457 17.5638 35.5475 18.6687 35.5479C19.8444 35.5482 21.02 35.5502 22.1957 35.5527C22.5348 35.5534 22.8739 35.5538 23.213 35.5541C23.7455 35.5547 24.2779 35.5564 24.8104 35.5589C25.006 35.5597 25.2017 35.5601 25.3973 35.5602C25.6639 35.5603 25.9305 35.5617 26.1971 35.5634C26.2749 35.5632 26.3527 35.5629 26.4328 35.5627C26.815 35.5666 27.1111 35.579 27.4316 35.7988C27.6471 36.0759 27.6382 36.2251 27.6257 36.5817C27.5352 36.9375 27.5352 36.9375 27.374 37.1125C27.0197 37.3024 26.6888 37.2913 26.2967 37.2882C26.1711 37.289 26.1711 37.289 26.0431 37.2899C25.7623 37.2914 25.4816 37.2906 25.2008 37.2899C24.9997 37.2905 24.7985 37.2912 24.5974 37.292C24.0507 37.2939 23.5041 37.2938 22.9574 37.2932C22.5013 37.2929 22.0452 37.2935 21.5891 37.2941C20.5132 37.2956 19.4373 37.2954 18.3614 37.2942C17.2509 37.293 16.1404 37.2945 15.0299 37.2973C14.0769 37.2996 13.124 37.3003 12.171 37.2996C11.6016 37.2993 11.0322 37.2995 10.4629 37.3013C9.92749 37.3029 9.39215 37.3025 8.85678 37.3006C8.66019 37.3002 8.4636 37.3005 8.26702 37.3016C7.99882 37.303 7.73076 37.3018 7.46257 37.2999C7.34563 37.3014 7.34563 37.3014 7.22633 37.303C6.85402 37.2977 6.63811 37.2561 6.31791 37.06C6.10742 36.834 6.10742 36.834 6.04272 36.4782C6.18441 35.6705 6.7174 35.5151 7.45864 35.5282Z" fill="#155DFC"/>
<path d="M7.34995 24.6694C7.43406 24.6687 7.51817 24.668 7.60483 24.6672C7.88704 24.6653 8.16916 24.6664 8.45137 24.6675C8.65355 24.6667 8.85572 24.6658 9.05789 24.6647C9.60733 24.6624 10.1568 24.6627 10.7062 24.6636C11.1646 24.6642 11.6231 24.6634 12.0815 24.6627C13.1628 24.6609 14.2442 24.6613 15.3255 24.663C16.4417 24.6648 17.5578 24.6631 18.674 24.6598C19.6318 24.657 20.5896 24.6563 21.5474 24.6571C22.1197 24.6576 22.6919 24.6574 23.2642 24.6553C23.8023 24.6534 24.3403 24.654 24.8784 24.6566C25.076 24.6571 25.2736 24.6567 25.4712 24.6554C25.7408 24.6538 26.0101 24.6553 26.2797 24.6576C26.3581 24.6564 26.4364 24.6552 26.5172 24.6539C26.923 24.6611 27.1071 24.7118 27.4326 24.9621C27.6388 25.2402 27.6388 25.2402 27.6388 25.6155C27.5409 25.9458 27.4976 26.0789 27.2247 26.2754C26.9072 26.4342 26.5745 26.3939 26.226 26.3935C26.1434 26.3938 26.0607 26.3941 25.9755 26.3944C25.697 26.3953 25.4185 26.3954 25.1399 26.3956C24.9409 26.3961 24.7418 26.3966 24.5427 26.3972C24.0007 26.3985 23.4588 26.3992 22.9168 26.3996C22.5784 26.3999 22.24 26.4004 21.9017 26.4008C20.8436 26.4023 19.7856 26.4033 18.7275 26.4037C17.505 26.4041 16.2824 26.4059 15.0599 26.4089C14.1157 26.4112 13.1715 26.4122 12.2273 26.4123C11.663 26.4125 11.0988 26.4131 10.5345 26.4149C10.0037 26.4166 9.47295 26.4168 8.94217 26.4159C8.74726 26.4159 8.55234 26.4163 8.35742 26.4173C8.0915 26.4186 7.82565 26.418 7.55973 26.417C7.44379 26.4182 7.44379 26.4182 7.32551 26.4195C6.8678 26.4151 6.57483 26.3512 6.21105 26.0684C6.05103 25.7483 6.07715 25.4893 6.10754 25.1367C6.43844 24.6588 6.81028 24.6635 7.34995 24.6694Z" fill="#155DFC"/>
<path d="M7.62832 30.0909C7.75118 30.0904 7.75118 30.0904 7.87652 30.09C8.15188 30.0891 8.42722 30.0889 8.70258 30.0888C8.89963 30.0883 9.09669 30.0878 9.29375 30.0872C9.82972 30.0859 10.3657 30.0852 10.9017 30.0847C11.2363 30.0844 11.571 30.084 11.9057 30.0835C12.9524 30.0821 13.999 30.0811 15.0457 30.0807C16.2548 30.0803 17.464 30.0784 18.6731 30.0754C19.6072 30.0732 20.5412 30.0722 21.4753 30.072C22.0335 30.0719 22.5916 30.0713 23.1498 30.0695C23.6747 30.0677 24.1996 30.0675 24.7245 30.0684C24.9172 30.0685 25.11 30.0681 25.3027 30.067C25.5657 30.0657 25.8286 30.0663 26.0916 30.0674C26.168 30.0666 26.2444 30.0657 26.3231 30.0649C26.7799 30.0693 27.0699 30.133 27.4317 30.416C27.6387 30.7265 27.6387 30.7265 27.6193 31.0888C27.5071 31.5721 27.5071 31.5721 27.2246 31.7617C26.9433 31.7924 26.6856 31.804 26.4041 31.8018C26.2773 31.8027 26.2773 31.8027 26.148 31.8035C25.8638 31.805 25.5797 31.8043 25.2955 31.8035C25.0921 31.8041 24.8888 31.8048 24.6855 31.8057C24.1324 31.8075 23.5793 31.8074 23.0262 31.8068C22.565 31.8065 22.1037 31.8071 21.6424 31.8078C20.5545 31.8092 19.4666 31.809 18.3786 31.8079C17.2552 31.8067 16.1319 31.8081 15.0085 31.8109C14.0449 31.8132 13.0813 31.8139 12.1177 31.8133C11.5418 31.8129 10.9659 31.8132 10.3899 31.815C9.84845 31.8166 9.307 31.8162 8.76552 31.8142C8.56655 31.8138 8.36758 31.8142 8.16861 31.8152C7.89743 31.8166 7.62637 31.8154 7.3552 31.8136C7.27606 31.8146 7.19692 31.8156 7.11539 31.8166C6.75865 31.8116 6.55687 31.7876 6.26562 31.5741C6.03375 31.2421 6.05104 31.0179 6.10746 30.623C6.52553 30.0752 6.98584 30.0902 7.62832 30.0909Z" fill="#155DFC"/>
<path d="M7.15544 43.548C7.24222 43.5474 7.329 43.5468 7.41841 43.5462C7.56071 43.546 7.56071 43.546 7.70588 43.5458C7.80606 43.5453 7.90624 43.5448 8.00945 43.5443C8.34134 43.5427 8.67323 43.542 9.00513 43.5415C9.23553 43.5409 9.46593 43.5403 9.69633 43.5397C10.1796 43.5386 10.6629 43.538 11.1463 43.5376C11.7658 43.5371 12.3852 43.5346 13.0047 43.5316C13.4807 43.5297 13.9567 43.5292 14.4327 43.529C14.6611 43.5287 14.8895 43.5279 15.1179 43.5265C15.4373 43.5247 15.7567 43.5249 16.0761 43.5256C16.1705 43.5246 16.265 43.5237 16.3623 43.5227C16.8577 43.526 17.1979 43.5455 17.5977 43.873C17.7454 44.1684 17.7334 44.3735 17.7013 44.7012C17.5565 44.9765 17.5565 44.9765 17.2872 45.2187C16.9451 45.2968 16.6081 45.2884 16.2585 45.2841C16.1541 45.2848 16.0497 45.2856 15.9421 45.2863C15.5968 45.2881 15.2516 45.2861 14.9063 45.2838C14.6665 45.2839 14.4268 45.2842 14.187 45.2846C13.6843 45.2849 13.1818 45.2834 12.6791 45.2805C12.0344 45.277 11.3898 45.2776 10.7451 45.2796C10.2499 45.2807 9.75479 45.2797 9.25962 45.2782C9.0219 45.2776 8.78417 45.2777 8.54644 45.2783C8.21433 45.2789 7.88235 45.2768 7.55025 45.274C7.45172 45.2746 7.3532 45.2753 7.25168 45.276C6.58966 45.2664 6.58966 45.2664 6.25307 45.0309C6.03995 44.6997 6.05934 44.4653 6.1075 44.0801C6.36187 43.6198 6.65198 43.55 7.15544 43.548Z" fill="#155DFC"/>
</g>
<defs>
<clipPath id="clip0_12_210">
<rect width="53" height="53" fill="white" transform="translate(0 0.5)"/>
</clipPath>
</defs>
</svg>
