<svg id="kolyaska-white" width="76" height="76" viewBox="0 0 76 76" fill="none" xmlns="http://www.w3.org/2000/svg">
<path d="M4.5652 0.975436C4.75184 0.97398 4.75184 0.97398 4.94225 0.972494C5.35299 0.969752 5.7637 0.969184 6.17446 0.968873C6.46125 0.967944 6.74805 0.966971 7.03485 0.965958C7.63625 0.964227 8.23764 0.963691 8.83904 0.963862C9.60638 0.963892 10.3736 0.959953 11.141 0.954967C11.7337 0.951738 12.3264 0.951167 12.9191 0.95132C13.2018 0.950981 13.4845 0.949713 13.7671 0.947466C15.8575 0.932414 17.4604 1.02011 19.0349 2.5446C20.3056 3.93097 20.5581 5.11905 20.5464 6.95559C20.5464 7.12913 20.5464 7.30267 20.5465 7.48147C20.5463 7.95472 20.5449 8.42794 20.5428 8.90118C20.541 9.39672 20.5409 9.89226 20.5405 10.3878C20.5396 11.325 20.5373 12.2622 20.5344 13.1994C20.5311 14.2669 20.5295 15.3344 20.5281 16.4018C20.5251 18.5966 20.5199 20.7914 20.5135 22.9862C21.229 22.9385 21.9444 22.8908 22.6815 22.8416C22.7501 22.6091 22.8186 22.3766 22.8893 22.1371C23.4039 20.7289 24.5194 19.6035 25.8612 18.9393C26.7124 18.6395 27.4842 18.6074 28.3822 18.6082C28.5306 18.6073 28.679 18.6063 28.832 18.6053C29.3209 18.6026 29.8098 18.602 30.2988 18.6017C30.6402 18.6008 30.9817 18.5998 31.3232 18.5988C32.0385 18.597 32.7538 18.5965 33.4692 18.5967C34.383 18.5967 35.2967 18.5928 36.2105 18.5878C36.9158 18.5846 37.6211 18.584 38.3264 18.5841C38.6631 18.5838 38.9998 18.5825 39.3366 18.5803C39.809 18.5774 40.2813 18.5783 40.7537 18.58C40.891 18.5784 41.0283 18.5768 41.1698 18.5751C42.7339 18.5896 43.9326 19.095 45.0511 20.178C45.6852 20.87 46.1749 21.5396 46.4117 22.4532C46.4949 22.7461 46.4949 22.7461 46.6737 22.9862C47.0514 23.164 47.4326 23.2744 47.8322 23.3949C49.0274 23.8643 50.0136 25.0296 50.576 26.1659C50.9087 27.0783 50.9042 27.9334 50.8979 28.8978C50.898 29.0685 50.898 29.2393 50.898 29.4151C50.8979 29.8806 50.8964 30.3461 50.8944 30.8116C50.8926 31.299 50.8924 31.7864 50.8921 32.2739C50.8912 33.1957 50.8888 34.1176 50.8859 35.0394C50.8827 36.0894 50.8811 37.1394 50.8796 38.1894C50.8766 40.3482 50.8715 42.507 50.8651 44.6659C51.0268 44.6621 51.1884 44.6583 51.355 44.6544C51.9627 44.6412 52.5703 44.633 53.1781 44.6262C53.4397 44.6226 53.7012 44.6177 53.9627 44.6113C55.8573 44.5668 57.3771 44.6728 58.9318 45.8853C60.4805 47.3943 60.827 49.5278 61.2166 51.5593C61.2732 51.8435 61.3301 52.1276 61.3872 52.4117C61.5355 53.1528 61.6802 53.8945 61.8242 54.6364C61.9427 55.2437 62.0638 55.8505 62.1851 56.4574C62.3298 57.1822 62.4734 57.9072 62.6167 58.6323C62.644 58.7702 62.6713 58.908 62.6994 59.05C62.7761 59.4389 62.8519 59.828 62.9275 60.2172C62.9502 60.3322 62.973 60.4472 62.9964 60.5657C63.0916 61.06 63.1503 61.5041 63.1503 62.0096C63.2672 62.0083 63.3841 62.007 63.5046 62.0057C64.6103 61.9941 65.7159 61.9853 66.8216 61.9797C67.3899 61.9767 67.9582 61.9726 68.5266 61.966C69.0757 61.9597 69.6248 61.9563 70.174 61.9548C70.3829 61.9537 70.5917 61.9516 70.8005 61.9485C72.1 61.9298 73.1092 61.9523 74.138 62.8401C74.2025 62.9208 74.2669 63.0014 74.3334 63.0846C74.4001 63.1649 74.4668 63.2452 74.5355 63.3279C75.1227 64.2275 75.1014 65.1593 75.0018 66.201C74.7598 67.0965 74.1796 67.7234 73.412 68.2245C72.8178 68.5136 72.3298 68.5508 71.6722 68.5532C71.5229 68.5543 71.5229 68.5543 71.3707 68.5555C71.0435 68.5575 70.7164 68.5573 70.3892 68.557C70.1612 68.5576 69.9332 68.5582 69.7052 68.5589C69.2283 68.5599 68.7513 68.5599 68.2743 68.5591C67.6628 68.5583 67.0512 68.5608 66.4397 68.5641C65.9692 68.5662 65.4988 68.5664 65.0284 68.5659C64.8029 68.566 64.5773 68.5667 64.3518 68.5682C64.0369 68.57 63.7222 68.569 63.4073 68.5673C63.2282 68.5674 63.049 68.5675 62.8645 68.5676C62.4276 68.5135 62.4276 68.5135 62.1617 68.3397C61.948 68.0087 61.8783 67.7243 61.7994 67.3378C61.7672 67.1839 61.735 67.03 61.7018 66.8714C61.6682 66.7023 61.6346 66.5333 61.5999 66.3591C61.5632 66.1811 61.5265 66.003 61.4887 65.8196C61.3874 65.3282 61.2882 64.8363 61.1895 64.3444C61.1049 63.9241 61.019 63.5041 60.9332 63.0841C60.6848 61.869 60.4401 60.6532 60.1969 59.437C60.0818 58.8615 59.966 58.2863 59.8499 57.711C59.7595 57.2623 59.6696 56.8134 59.5799 56.3645C59.5373 56.152 59.4946 55.9394 59.4516 55.727C59.3923 55.4334 59.3338 55.1397 59.2754 54.846C59.242 54.6798 59.2087 54.5135 59.1744 54.3422C59.1034 53.9159 59.1034 53.9159 59.1034 53.3377C56.3848 53.3377 53.6661 53.3377 50.8651 53.3377C50.8651 54.6255 50.8651 55.9133 50.8651 57.2401C50.4315 57.6737 50.4315 57.6737 50.1199 57.7313C50.0081 57.7301 49.8963 57.729 49.7811 57.7279C49.6693 57.729 49.5575 57.7301 49.4424 57.7313C49.0395 57.6568 48.938 57.5718 48.6971 57.2401C48.645 56.7929 48.645 56.7929 48.6479 56.2356C48.6478 56.134 48.6478 56.0325 48.6477 55.9278C48.648 55.5923 48.6514 55.2569 48.6548 54.9214C48.6556 54.6887 48.6562 54.456 48.6566 54.2233C48.6583 53.611 48.6626 52.9987 48.6674 52.3864C48.6726 51.6516 48.6746 50.9169 48.6771 50.1821C48.6813 49.066 48.6896 47.95 48.6971 46.8338C46.1216 46.8338 43.546 46.8338 40.8924 46.8338C41.1309 47.5493 41.3694 48.2647 41.6151 49.0018C42.0352 50.8023 42.2279 52.4879 42.2294 54.3314C42.2295 54.4386 42.2296 54.5459 42.2297 54.6564C42.2274 56.2367 42.1609 57.7272 41.7596 59.2635C41.727 59.4036 41.727 59.4036 41.6938 59.5465C41.0579 62.2765 39.7639 64.893 38.0018 67.0682C37.9393 67.1474 37.8767 67.2266 37.8123 67.3082C34.3766 71.6436 29.4654 74.3196 23.9823 75.0174C23.2179 75.0521 22.4529 75.0529 21.6879 75.0536C21.5806 75.0536 21.4733 75.0537 21.3628 75.0538C19.7825 75.0516 18.2921 74.9851 16.7557 74.5838C16.6623 74.5621 16.5689 74.5404 16.4727 74.518C11.4489 73.3477 6.93506 70.0154 4.17247 65.6861C2.03523 62.2092 0.935346 58.5452 0.956652 54.4579C0.957047 54.3002 0.957047 54.3002 0.95745 54.1394C0.964042 52.5771 1.03879 51.0984 1.43541 49.5799C1.45714 49.4865 1.47887 49.3932 1.50126 49.2969C2.67155 44.2731 6.00387 39.7593 10.3331 36.9967C12.7744 35.496 15.3644 34.4348 18.201 33.9706C18.2078 30.4126 18.2129 26.8546 18.216 23.2966C18.2175 21.6445 18.2195 19.9924 18.2228 18.3403C18.2257 16.9002 18.2276 15.46 18.2282 14.0199C18.2286 13.2575 18.2295 12.4952 18.2316 11.7328C18.2336 11.0147 18.2342 10.2967 18.2337 9.57863C18.2338 9.31557 18.2344 9.05252 18.2355 8.78948C18.2369 8.42916 18.2366 8.06888 18.2358 7.70856C18.2371 7.55397 18.2371 7.55397 18.2383 7.39626C18.2317 6.26315 18.0648 5.23962 17.3338 4.34165C16.162 3.28701 14.9632 3.30548 13.4496 3.24863C13.2949 3.24239 13.1403 3.23615 12.981 3.22971C12.6012 3.21446 12.2214 3.19986 11.8417 3.1854C11.8417 3.90083 11.8417 4.61625 11.8417 5.35336C12.1183 5.34833 12.395 5.3433 12.6801 5.33812C13.0419 5.33405 13.4038 5.33011 13.7657 5.32626C13.9482 5.32263 14.1307 5.319 14.3187 5.31526C14.4934 5.31386 14.6681 5.31246 14.848 5.31102C15.0092 5.30875 15.1705 5.30648 15.3366 5.30414C15.744 5.35336 15.744 5.35336 15.9827 5.50781C16.2744 5.92565 16.2384 6.34226 16.2346 6.83384C16.2359 6.9949 16.2359 6.99491 16.2373 7.15923C16.2397 7.52007 16.239 7.88084 16.2383 8.24169C16.2394 8.49998 16.2406 8.75826 16.242 9.01654C16.2452 9.71889 16.2456 10.4212 16.2454 11.1236C16.2453 11.7094 16.2466 12.2952 16.2478 12.8811C16.2506 14.2629 16.251 15.6447 16.25 17.0265C16.249 18.4531 16.2524 19.8797 16.2577 21.3064C16.2621 22.5303 16.2638 23.7542 16.2632 24.9781C16.2629 25.7095 16.2637 26.4408 16.2673 27.1723C16.2705 27.86 16.2702 28.5476 16.2673 29.2353C16.2668 29.488 16.2675 29.7406 16.2696 29.9932C16.2722 30.3377 16.2704 30.6819 16.2674 31.0264C16.2692 31.1268 16.271 31.2272 16.2729 31.3306C16.2632 31.8553 16.2076 32.0597 15.8434 32.4479C15.4549 32.6698 15.4549 32.6698 14.931 32.6607C14.2829 32.4807 14.2829 32.4807 14.0096 32.0916C13.9563 31.6546 13.9563 31.6546 13.9575 31.1067C13.9571 31.006 13.9567 30.9053 13.9564 30.8016C13.9557 30.4633 13.958 30.1252 13.9604 29.7869C13.9605 29.5448 13.9605 29.3027 13.9602 29.0605C13.9601 28.4024 13.9626 27.7443 13.9657 27.0862C13.9684 26.3987 13.9686 25.7113 13.9691 25.0238C13.9705 23.7216 13.9741 22.4194 13.9784 21.1172C13.9832 19.6349 13.9856 18.1525 13.9878 16.6702C13.9923 13.6206 14 10.5709 14.0096 7.52133C13.8125 7.52326 13.8125 7.52326 13.6114 7.52522C12.3696 7.53683 11.1279 7.54562 9.88605 7.55129C9.2477 7.5543 8.6094 7.55838 7.97108 7.56495C7.35444 7.57125 6.73785 7.57469 6.12118 7.57618C5.88655 7.57725 5.65191 7.57932 5.4173 7.58246C2.92058 7.61446 2.92058 7.61446 1.86562 6.68576C1.80115 6.60379 1.73669 6.52181 1.67027 6.43735C1.60358 6.35537 1.53688 6.2734 1.46816 6.18893C0.849779 5.29091 0.907453 4.39541 1.00182 3.32993C1.23733 2.43302 1.82495 1.807 2.59166 1.30649C3.23764 0.977198 3.85575 0.974639 4.5652 0.975436ZM3.31432 3.76352C3.24087 4.44023 3.24087 4.44023 3.49498 5.04624C4.11792 5.4467 4.83746 5.37216 5.55229 5.36748C5.67017 5.36727 5.78805 5.36707 5.9095 5.36686C6.28501 5.36605 6.6605 5.36424 7.036 5.3624C7.291 5.36167 7.546 5.36101 7.801 5.36042C8.42523 5.35883 9.04946 5.35634 9.67369 5.35336C9.67369 4.63793 9.67369 3.9225 9.67369 3.1854C8.92534 3.17824 8.177 3.173 7.42862 3.16952C7.17419 3.16807 6.91975 3.16609 6.66532 3.16359C6.29901 3.16007 5.93273 3.15844 5.56641 3.15717C5.45316 3.15567 5.33992 3.15418 5.22325 3.15265C4.44442 3.15249 3.87675 3.20109 3.31432 3.76352ZM25.5992 22.128C25.2655 22.53 25.2655 22.53 25.1385 22.9862C31.3866 22.9862 37.6347 22.9862 44.0721 22.9862C43.6985 22.1932 43.6985 22.1932 43.1417 21.6493C43.0584 21.58 42.9752 21.5106 42.8893 21.4392C41.9465 20.7661 40.8799 20.7966 39.762 20.7972C39.6384 20.7967 39.5149 20.7962 39.3876 20.7957C38.9818 20.7944 38.5759 20.7941 38.1701 20.7939C37.8862 20.7935 37.6024 20.793 37.3186 20.7925C36.7245 20.7916 36.1304 20.7913 35.5363 20.7914C34.7774 20.7914 34.0185 20.7895 33.2596 20.787C32.6736 20.7854 32.0876 20.7851 31.5016 20.7852C31.2219 20.785 30.9422 20.7844 30.6625 20.7832C30.2704 20.7818 29.8783 20.7822 29.4861 20.7831C29.3721 20.7823 29.2581 20.7815 29.1406 20.7806C27.7344 20.7885 26.5591 21.0259 25.5992 22.128ZM20.5135 25.1541C20.5135 26.585 20.5135 28.0159 20.5135 29.4901C29.8141 29.4901 39.1147 29.4901 48.6971 29.4901C48.5838 27.36 48.5838 27.36 47.3873 25.8949C46.4441 25.2126 45.6218 25.1359 44.4639 25.1368C44.3096 25.1366 44.3096 25.1366 44.1523 25.1364C43.8094 25.1362 43.4666 25.1369 43.1237 25.1377C42.8772 25.1378 42.6308 25.1378 42.3843 25.1377C41.7164 25.1376 41.0484 25.1385 40.3805 25.1395C39.682 25.1404 38.9836 25.1405 38.2851 25.1407C36.963 25.1411 35.6408 25.1423 34.3187 25.1437C32.8133 25.1454 31.3078 25.1461 29.8024 25.1469C26.7061 25.1484 23.6098 25.151 20.5135 25.1541ZM20.5135 31.6581C20.5135 32.3735 20.5135 33.0889 20.5135 33.826C20.7354 33.8314 20.9573 33.8368 21.1859 33.8424C24.725 33.9466 27.8934 34.5223 31.0643 36.1385C31.202 36.2067 31.3397 36.2749 31.4815 36.3452C34.9822 38.1543 37.9709 41.1354 39.7362 44.6659C42.6933 44.6659 45.6504 44.6659 48.6971 44.6659C48.6971 40.3733 48.6971 36.0807 48.6971 31.6581C39.3965 31.6581 30.096 31.6581 20.5135 31.6581ZM9.67369 40.4745C9.55203 40.5769 9.43037 40.6794 9.30503 40.785C5.98658 43.6441 3.82532 47.8402 3.31432 52.1815C3.27251 52.9167 3.26599 53.6493 3.26915 54.3856C3.26946 54.4845 3.26977 54.5834 3.2701 54.6853C3.27755 56.1605 3.33995 57.5474 3.74791 58.9745C3.77509 59.0738 3.80227 59.1731 3.83027 59.2754C4.54833 61.8483 5.7698 64.1722 7.50572 66.201C7.6272 66.346 7.74867 66.4909 7.87383 66.6403C11.0289 70.3051 15.6157 72.4217 20.4024 72.8016C25.1865 73.0868 29.9176 71.5421 33.5213 68.369C33.643 68.2665 33.7647 68.164 33.89 68.0585C37.1994 65.2072 39.3731 60.9932 39.8807 56.662C39.9225 55.9267 39.9291 55.1941 39.9259 54.4579C39.9256 54.359 39.9253 54.2601 39.9249 54.1582C39.9175 52.6829 39.8551 51.2961 39.4471 49.869C39.4064 49.72 39.4064 49.72 39.3648 49.5681C38.6467 46.9951 37.4252 44.6712 35.6893 42.6424C35.5678 42.4975 35.4464 42.3525 35.3212 42.2032C32.1661 38.5383 27.5794 36.4218 22.7926 36.0418C18.0085 35.7567 13.2775 37.3014 9.67369 40.4745ZM50.8651 46.8338C50.8651 48.2647 50.8651 49.6956 50.8651 51.1698C53.4406 51.1698 56.0162 51.1698 58.6698 51.1698C58.2742 48.94 58.2742 48.94 56.9625 47.3487C55.6821 46.7211 54.3453 46.7987 52.9518 46.8158C52.2632 46.8217 51.5746 46.8277 50.8651 46.8338ZM63.5839 64.1776C63.7269 64.893 63.87 65.6084 64.0174 66.3456C65.0951 66.3527 66.1728 66.3579 67.2505 66.3614C67.6171 66.3629 67.9837 66.3649 68.3503 66.3674C68.8773 66.3709 69.4043 66.3725 69.9314 66.3738C70.1771 66.376 70.1771 66.376 70.4278 66.3783C70.6578 66.3783 70.6578 66.3783 70.8924 66.3784C71.0269 66.379 71.1613 66.3797 71.2999 66.3803C71.8797 66.327 72.2767 66.18 72.6893 65.7674C72.7628 65.0907 72.7628 65.0907 72.5087 64.4847C71.9934 64.1535 71.4684 64.1598 70.869 64.1612C70.707 64.1612 70.545 64.1612 70.3781 64.1612C70.204 64.162 70.03 64.1627 69.8506 64.1635C69.5824 64.1638 69.5824 64.1638 69.3087 64.1641C68.8345 64.1648 68.3602 64.1661 67.8859 64.1677C67.4015 64.1691 66.9171 64.1698 66.4327 64.1705C65.4831 64.1721 64.5335 64.1746 63.5839 64.1776Z" fill="white"/>
<path d="M21.534 38.1078C21.6325 38.1078 21.731 38.1078 21.8326 38.1079C23.4309 38.1128 24.9108 38.251 26.439 38.7401C26.6031 38.7925 26.7673 38.8448 26.9364 38.8987C31.1768 40.4041 34.5295 43.4604 36.4658 47.5023C37.494 49.7375 37.9145 51.9042 37.9112 54.3585C37.9111 54.4571 37.911 54.5558 37.9109 54.6574C37.9051 56.2494 37.7892 57.7462 37.2788 59.2635C37.2471 59.3579 37.2153 59.4523 37.1826 59.5496C35.6698 63.8869 32.6754 67.2785 28.5618 69.2814C24.7143 71.0729 20.0126 71.3021 16.0237 69.8595C11.7605 68.21 8.49322 65.1776 6.58453 61.0281C5.64001 58.8897 5.28009 56.814 5.28322 54.485C5.2833 54.3863 5.28338 54.2877 5.28346 54.1861C5.28928 52.5941 5.40514 51.0973 5.91555 49.5799C5.94729 49.4856 5.97903 49.3912 6.01174 49.2939C7.48189 45.0791 10.3713 41.6903 14.3624 39.7041C16.692 38.5881 18.954 38.1045 21.534 38.1078ZM11.1486 45.069C10.6678 45.5643 10.6678 45.5643 10.2515 46.1112C10.2497 46.4031 10.2497 46.4031 10.396 46.6893C10.7109 46.9334 10.7109 46.9334 11.1142 47.1376C11.2642 47.2196 11.4142 47.3017 11.5688 47.3862C11.7303 47.4722 11.8918 47.5582 12.0581 47.6468C12.39 47.8279 12.7218 48.0091 13.0535 48.1905C13.2167 48.2793 13.38 48.368 13.5483 48.4595C14.1577 48.7943 14.7576 49.1434 15.3552 49.4986C15.4524 49.5559 15.5496 49.6132 15.6498 49.6722C16.0964 49.9359 16.5404 50.2031 16.9812 50.4765C17.2137 50.6185 17.2137 50.6185 17.4509 50.7633C17.583 50.8458 17.7151 50.9284 17.8512 51.0134C18.2295 51.2258 18.2295 51.2258 18.7788 51.0253C19.3512 50.7391 19.9235 50.4529 20.5132 50.1581C20.5132 46.9625 20.5132 43.7669 20.5132 40.4745C16.8024 40.4745 13.6788 42.5423 11.1486 45.069ZM22.6812 40.4745C22.6812 43.6701 22.6812 46.8656 22.6812 50.1581C24.1908 50.9913 24.1908 50.9913 24.9937 51.1698C25.389 51.0101 25.389 51.0101 25.8033 50.7543C25.9649 50.6605 26.1266 50.5667 26.2931 50.4701C26.4683 50.3662 26.6433 50.2622 26.8184 50.1581C26.998 50.0528 27.1777 49.9476 27.3574 49.8426C27.636 49.6798 27.9144 49.5169 28.1923 49.3532C28.8367 48.9741 29.4859 48.605 30.1386 48.2408C30.3127 48.143 30.4868 48.0451 30.6608 47.9472C30.9914 47.7615 31.3226 47.577 31.6546 47.3939C31.8773 47.2676 31.8773 47.2676 32.1045 47.1387C32.2354 47.0656 32.3663 46.9926 32.5012 46.9173C32.815 46.7135 32.815 46.7135 32.9317 46.3966C32.974 46.0695 32.974 46.0695 32.66 45.7211C32.5246 45.5751 32.3868 45.4313 32.2473 45.2892C32.1744 45.2128 32.1014 45.1365 32.0262 45.0578C31.8043 44.8282 31.5794 44.602 31.353 44.3768C31.2336 44.2574 31.1142 44.138 30.9912 44.0149C28.8144 41.9529 25.7161 40.4745 22.6812 40.4745ZM8.80617 48.5682C7.29222 52.1706 7.12785 56.0409 8.55324 59.7062C8.63567 59.8967 8.71912 60.0868 8.80617 60.2753C9.3562 60.1913 9.74947 60.0347 10.2261 59.7502C10.3611 59.6704 10.4961 59.5907 10.6353 59.5085C10.7799 59.4217 10.9245 59.3349 11.0735 59.2455C11.3834 59.0619 11.6933 58.8784 12.0034 58.695C12.1651 58.5991 12.3267 58.5032 12.4933 58.4043C13.007 58.1007 13.5238 57.8028 14.0415 57.506C14.1268 57.4571 14.2121 57.4081 14.3 57.3577C14.7145 57.12 15.1292 56.8828 15.5442 56.6458C15.6942 56.5597 15.8443 56.4735 15.9989 56.3848C16.1312 56.3091 16.2635 56.2334 16.3998 56.1554C16.7323 55.9533 17.0418 55.7635 17.3335 55.5057C17.4531 55.0093 17.4531 55.0093 17.4509 54.4488C17.4608 54.2616 17.4707 54.0744 17.4809 53.8814C17.291 53.181 17.0335 53.0422 16.4261 52.6853C16.2963 52.6144 16.1665 52.5436 16.0327 52.4706C15.8987 52.3935 15.7648 52.3164 15.6267 52.2369C15.1862 51.9852 14.7428 51.7397 14.2984 51.495C10.9831 49.6549 10.9831 49.6549 9.5627 48.7461C9.23791 48.5334 9.23791 48.5334 8.80617 48.5682ZM33.2224 48.9662C33.0733 49.053 32.9243 49.1398 32.7708 49.2292C32.61 49.3241 32.4491 49.419 32.2835 49.5167C32.1166 49.6143 31.9496 49.7119 31.7826 49.8093C31.522 49.9614 31.2614 50.1136 31.0011 50.2662C30.3801 50.63 29.7571 50.9899 29.1326 51.3476C28.961 51.446 28.7893 51.5445 28.6177 51.6429C28.2904 51.8304 27.9631 52.0178 27.6356 52.205C27.487 52.2904 27.3384 52.3758 27.1854 52.4638C27.0549 52.5385 26.9244 52.6133 26.7899 52.6903C26.4593 52.8918 26.1513 53.0813 25.8609 53.3378C25.7413 53.8342 25.7413 53.8342 25.7434 54.3946C25.7336 54.5819 25.7237 54.7691 25.7135 54.962C25.9035 55.6632 26.1635 55.8029 26.7715 56.1601C26.9002 56.2303 27.029 56.3006 27.1616 56.3729C27.2918 56.4477 27.4219 56.5225 27.556 56.5996C27.9854 56.8445 28.4177 57.0834 28.8508 57.3214C30.2407 58.0903 31.6133 58.8825 32.9692 59.7099C33.0928 59.7843 33.2164 59.8587 33.3437 59.9354C33.5057 60.0341 33.5057 60.0341 33.6708 60.1349C33.9666 60.3073 33.9666 60.3073 34.3882 60.2753C35.9022 56.6729 36.0665 52.8026 34.6411 49.1373C34.5587 48.9468 34.4753 48.7567 34.3882 48.5682C33.8668 48.5682 33.6696 48.7038 33.2224 48.9662ZM19.9351 53.0487C19.5005 53.6735 19.409 54.1745 19.5015 54.9276C19.7531 55.6404 20.1454 56.0882 20.8232 56.422C21.3663 56.6153 21.8281 56.6153 22.3712 56.422C23.05 56.0877 23.4393 55.6404 23.6929 54.9276C23.7945 54.2163 23.6872 53.7272 23.3067 53.1322C22.8385 52.5759 22.3126 52.3603 21.6062 52.2447C20.9238 52.3525 20.4583 52.6009 19.9351 53.0487ZM17.3809 58.0943C17.2178 58.1888 17.0547 58.2834 16.8866 58.3808C16.7104 58.4853 16.5341 58.5898 16.3579 58.6944C16.1774 58.7999 15.9967 58.9052 15.816 59.0104C15.4448 59.2267 15.0742 59.4441 14.7041 59.6623C14.1808 59.9708 13.6558 60.2762 13.1303 60.5807C12.5344 60.9264 11.9387 61.2724 11.3439 61.6201C11.2266 61.6886 11.1094 61.7572 10.9885 61.8278C10.7384 61.9776 10.4941 62.137 10.2515 62.2987C10.3739 63.1576 11.1258 63.7204 11.6968 64.3221C11.7827 64.4157 11.8686 64.5092 11.9571 64.6055C14.1695 66.9394 17.3856 68.1084 20.5132 68.369C20.5132 65.1734 20.5132 61.9778 20.5132 58.6854C18.8703 57.6673 18.8703 57.6673 17.3809 58.0943ZM24 58.017C23.5537 58.3163 23.1991 58.4782 22.6812 58.6854C22.6812 61.881 22.6812 65.0766 22.6812 68.369C26.8607 68.0207 30.0046 66.0825 32.7842 63.0061C32.9709 62.7441 32.9709 62.7441 32.9192 62.4509C32.7546 62.0468 32.5604 61.9636 32.179 61.7578C32.0472 61.6853 31.9154 61.6127 31.7796 61.5379C31.6358 61.4611 31.4921 61.3842 31.344 61.305C31.0411 61.1387 30.7383 60.9722 30.4356 60.8054C30.278 60.719 30.1203 60.6326 29.9579 60.5436C29.1629 60.1026 28.3792 59.6425 27.5952 59.1822C27.1833 58.9409 26.7713 58.6995 26.3588 58.4589C26.1374 58.3292 25.9168 58.1983 25.6971 58.0656C24.9974 57.6482 24.6811 57.5585 24 58.017Z" fill="white"/>
<path d="M54.1542 61.0622C55.8272 62.2222 56.9371 63.9046 57.3689 65.9119C57.5804 68.5302 57.1159 70.4235 55.6074 72.5784C54.4886 73.8363 52.6843 74.9055 50.9819 75.043C48.3973 75.1098 46.2954 74.7591 44.3108 72.9567C42.5829 71.1348 42.1195 69.0923 42.153 66.6769C42.2189 64.8177 43.157 62.9996 44.5056 61.7205C47.2935 59.4073 51.0958 59.0982 54.1542 61.0622ZM46.2852 63.2652C45.0619 64.4884 44.4708 65.6957 44.4424 67.4114C44.4492 68.4082 44.5714 69.2292 45.0838 70.1033C45.1434 70.2051 45.203 70.3068 45.2644 70.4116C46.0961 71.6544 47.4128 72.4537 48.8574 72.7721C50.5072 73.0324 51.9022 72.457 53.2769 71.5938C54.5001 70.3706 55.0913 69.1633 55.1196 67.4476C55.1129 66.4508 54.9906 65.6298 54.4783 64.7557C54.4187 64.654 54.359 64.5522 54.2976 64.4474C53.4659 63.2046 52.1493 62.4053 50.7047 62.0869C49.0548 61.8266 47.6598 62.4021 46.2852 63.2652Z" fill="white"/>
<path d="M51.3623 64.4035C52.1748 64.8879 52.7445 65.5918 53.0334 66.4901C53.1544 67.5891 53.1557 68.6263 52.4553 69.5253C51.8251 70.1928 51.2122 70.6275 50.28 70.7301C49.1292 70.7439 48.2836 70.6798 47.4334 69.8601C46.5823 68.911 46.4385 68.1562 46.4747 66.882C46.5717 65.9325 46.9953 65.3963 47.6858 64.7738C48.7397 64.0273 50.163 63.864 51.3623 64.4035ZM48.9956 66.6437C48.7533 67.0856 48.7892 67.4427 48.842 67.9355C48.9745 68.2366 48.9745 68.2366 49.2756 68.369C49.7684 68.4218 50.1255 68.4578 50.5674 68.2155C50.8097 67.7736 50.7737 67.4165 50.7209 66.9237C50.5884 66.6226 50.5884 66.6226 50.2873 66.4901C49.7946 66.4373 49.4374 66.4014 48.9956 66.6437Z" fill="white"/>
</svg>
