<svg width="50" height="50" viewBox="0 0 50 50" fill="none" xmlns="http://www.w3.org/2000/svg">
<rect x="8" y="8" width="33" height="33" fill="white"/>
<path fill-rule="evenodd" clip-rule="evenodd" d="M11.2339 0.0597084C10.4852 0.113736 9.78342 0.255589 9.23086 0.464912C8.76307 0.6421 8.01816 0.879845 7.57547 0.993148C7.08438 1.119 6.56728 1.36302 6.24906 1.6192C5.96222 1.85016 5.45716 2.1948 5.1269 2.38518C3.59253 3.26907 1.39559 6.12304 0.914996 7.85651C0.773493 8.36721 0.603178 8.88687 0.536589 9.01131C0.469871 9.13588 0.327601 9.57373 0.220417 9.98431C-0.0734724 11.1093 -0.0734724 38.9025 0.220417 40.0275C0.327601 40.4381 0.469871 40.8759 0.536589 41.0005C0.603178 41.1249 0.773493 41.6446 0.914996 42.1553C1.39559 43.8888 3.59253 46.7427 5.1269 47.6266C5.45716 47.817 5.95927 48.1592 6.24266 48.3872C6.58137 48.66 7.10294 48.8945 7.76653 49.0722C8.32127 49.2208 8.87717 49.397 9.00164 49.4637C9.12624 49.5302 9.56419 49.6725 9.97487 49.7796C11.1001 50.0735 38.8999 50.0735 40.0251 49.7796C40.4358 49.6725 40.8738 49.5302 40.9984 49.4637C41.1228 49.397 41.6787 49.2208 42.2335 49.0722C42.8971 48.8945 43.4186 48.66 43.7573 48.3872C44.0407 48.1592 44.5428 47.817 44.8731 47.6266C46.4075 46.7427 48.6044 43.8888 49.085 42.1553C49.2265 41.6446 49.3968 41.1249 49.4634 41.0005C49.5301 40.8759 49.6724 40.4381 49.7796 40.0275C50.0735 38.9025 50.0735 11.1093 49.7796 9.98431C49.6724 9.57373 49.5301 9.13588 49.4634 9.01131C49.3968 8.88687 49.2265 8.36721 49.085 7.85651C48.6044 6.12304 46.4075 3.26907 44.8731 2.38518C44.5428 2.1948 44.0378 1.85016 43.7509 1.6192C43.4327 1.36302 42.9156 1.119 42.4245 0.993148C41.9818 0.879845 41.2369 0.641716 40.7691 0.464144C40.2202 0.255845 39.5554 0.120265 38.8941 0.081857C37.2701 -0.0124984 12.5119 -0.0323426 11.2339 0.0597084ZM26.1382 12.6407C26.3689 12.811 26.8842 13.0809 27.2835 13.2405C27.6827 13.4002 28.1822 13.6598 28.3935 13.8174C28.6048 13.9751 29.1042 14.2261 29.5034 14.3751C29.9025 14.5243 30.3733 14.7597 30.5496 14.8982C30.7258 15.0369 31.2833 15.3185 31.7885 15.524C32.2937 15.7295 32.8079 15.989 32.9312 16.1005C33.0545 16.212 33.5219 16.447 33.9701 16.6226C34.4182 16.7981 34.989 17.0808 35.2388 17.2507C35.4885 17.4206 36.0048 17.6505 36.3863 17.7615C37.7336 18.1534 37.9178 18.7446 36.9662 19.6216C36.4326 20.1134 35.2549 20.7768 34.9103 20.7797C34.8321 20.7805 34.5439 20.9354 34.27 21.124C33.996 21.3127 33.3814 21.6277 32.9043 21.8241C32.4272 22.0205 31.8509 22.3198 31.6237 22.4894C31.3966 22.659 30.9861 22.8698 30.7116 22.9577C30.0666 23.1646 27.6892 24.3621 27.6892 24.4802C27.6892 24.8366 28.0773 24.8637 32.0946 24.7879C35.7559 24.7186 36.2494 24.7332 36.612 24.9206C37.4306 25.3438 37.2457 25.9633 36.1611 26.4312C35.8554 26.5632 35.3655 26.8382 35.0727 27.0422C34.7798 27.2462 34.2266 27.5136 33.8432 27.6363C33.4598 27.7591 32.8844 28.0254 32.5646 28.2282C32.2447 28.431 31.7517 28.6582 31.4688 28.7333C31.186 28.8083 30.6953 29.0262 30.3784 29.2176C30.0614 29.409 29.4751 29.6968 29.0753 29.8573C28.3059 30.1661 28.0959 30.4217 28.3551 30.7339C28.4898 30.8961 28.8933 30.912 31.0785 30.841C36.8299 30.654 37.1654 30.6804 37.1654 31.3196C37.1654 31.7393 35.5234 33.1507 34.824 33.3322C34.527 33.4092 33.9672 33.6627 33.5798 33.8954C33.1924 34.128 32.6682 34.3851 32.4149 34.4667C32.1616 34.5481 31.6774 34.7903 31.3389 35.005C31.0003 35.2196 30.4297 35.5097 30.0707 35.6498C29.7117 35.7898 29.2163 36.0411 28.9698 36.2082C28.7232 36.3753 28.2105 36.6334 27.8304 36.7818C27.4504 36.93 26.882 37.2363 26.5675 37.462C26.0706 37.8189 25.8915 37.8725 25.1986 37.8725C24.4978 37.8725 24.3178 37.817 23.7083 37.4127C23.3271 37.1598 22.7846 36.8796 22.5029 36.7901C22.2212 36.7006 21.7025 36.4376 21.3504 36.2058C20.9982 35.9739 20.4796 35.7129 20.1979 35.6256C19.9162 35.5384 19.4386 35.2983 19.1368 35.0921C18.8348 34.886 18.3165 34.6248 17.9848 34.5117C17.6531 34.3988 17.1222 34.1415 16.805 33.9398C16.4877 33.7383 15.9223 33.4842 15.5485 33.3752C14.6998 33.1279 13.2188 31.8227 13.2188 31.322C13.2188 30.7059 13.6537 30.6548 17.7589 30.7888C19.7981 30.8553 21.5989 30.8765 21.7607 30.836C21.9398 30.791 22.0547 30.6661 22.0547 30.5159C22.0547 30.3294 21.705 30.0975 20.6141 29.5612C19.8218 29.1716 18.9141 28.7628 18.5972 28.6527C18.2802 28.5428 17.7978 28.3055 17.5253 28.1255C17.2527 27.9456 16.6765 27.6833 16.2448 27.5426C15.813 27.4018 15.3608 27.1982 15.2398 27.0903C15.1188 26.9824 14.6629 26.714 14.2267 26.4941C13.3299 26.0419 13.1459 25.8258 13.2623 25.3619C13.4175 24.7437 13.7682 24.7027 18.1971 24.7859C20.4302 24.8278 22.3353 24.8139 22.4307 24.7548C22.5262 24.6959 22.5727 24.5654 22.534 24.4646C22.4614 24.2756 20.6768 23.3606 19.5701 22.9451C19.2249 22.8154 18.7325 22.5638 18.4759 22.3861C18.2193 22.2083 17.6521 21.9228 17.2153 21.7517C16.7786 21.5807 16.2744 21.325 16.0947 21.1838C15.915 21.0425 15.3718 20.7755 14.8874 20.5905C13.7879 20.1703 12.8346 19.3379 12.8346 18.7978C12.8346 18.2909 13.1516 17.9912 13.9249 17.7664C14.2885 17.6608 14.7771 17.4333 15.0107 17.2609C15.2444 17.0886 15.7039 16.8586 16.0317 16.7496C16.3596 16.6408 16.9414 16.3495 17.3244 16.1026C17.7074 15.8555 18.2226 15.5988 18.4691 15.5319C18.7156 15.4651 19.2343 15.2054 19.6216 14.9547C20.009 14.704 20.47 14.4656 20.6461 14.425C20.8222 14.3843 21.341 14.1289 21.7992 13.8575C22.2573 13.5861 22.8335 13.294 23.0798 13.2083C23.3259 13.1226 23.7836 12.8903 24.0967 12.6919C24.8316 12.2263 25.5518 12.2083 26.1382 12.6407Z" fill="#155DFC"/>
</svg>
