<svg id="book-black" width="17" height="16" viewBox="0 0 17 16" fill="none" xmlns="http://www.w3.org/2000/svg">
<path d="M8.5 14.5C7.40459 13.6914 6.13649 13.1762 4.80676 13.0028C3.86366 12.8019 2.90283 12.707 1.94054 12.7197C1.81741 12.7208 1.69529 12.6963 1.58122 12.6477C1.46716 12.599 1.36341 12.5272 1.27596 12.4363C1.18852 12.3454 1.11911 12.2372 1.07174 12.118C1.02438 11.9989 0.999995 11.871 1 11.7419L1.01703 2.48053C1.01651 2.23204 1.10624 1.99265 1.26799 1.81104C1.42975 1.62943 1.65137 1.51921 1.88784 1.50279C2.86741 1.48237 3.84619 1.57417 4.80676 1.77656C6.13505 1.95625 7.40216 2.47023 8.5 3.27463M8.5 14.5V3.27463M8.5 14.5C9.59541 13.6914 10.8635 13.1762 12.1932 13.0028C13.1363 12.8019 14.0972 12.707 15.0595 12.7197C15.1826 12.7208 15.3047 12.6963 15.4188 12.6477C15.5328 12.599 15.6366 12.5272 15.724 12.4363C15.8115 12.3454 15.8809 12.2372 15.9283 12.118C15.9756 11.9989 16 11.871 16 11.7419L15.9822 2.48053C15.9827 2.23217 15.8931 1.99291 15.7315 1.81132C15.5699 1.62972 15.3485 1.51942 15.1122 1.50279C14.1326 1.48237 13.1538 1.57417 12.1932 1.77656C10.865 1.95625 9.59784 2.47023 8.5 3.27463" stroke="#101828" stroke-width="1.5" stroke-linecap="round" stroke-linejoin="round"/>
</svg>
