<svg width="84" height="84" viewBox="0 0 84 84" fill="none" xmlns="http://www.w3.org/2000/svg">
<path d="M25.2638 4.62594C25.5445 4.62425 25.8252 4.6223 26.106 4.6201C26.865 4.61505 27.624 4.61418 28.3831 4.61438C29.0178 4.61425 29.6526 4.61225 30.2873 4.61031C31.7849 4.60586 33.2825 4.60498 34.7801 4.6062C36.3233 4.60738 37.8664 4.60193 39.4095 4.59332C40.7367 4.58618 42.0638 4.58345 43.3909 4.58419C44.1826 4.58457 44.9743 4.58322 45.766 4.5775C46.5103 4.57229 47.2544 4.57259 47.9987 4.57708C48.2713 4.57781 48.5438 4.5766 48.8164 4.57328C51.1289 4.54701 51.1289 4.54701 51.9225 5.22499C52.1119 5.43186 52.2965 5.64324 52.4757 5.85903C52.6683 6.04807 52.8625 6.23541 53.0584 6.42101C53.2572 6.61886 53.4556 6.81714 53.6536 7.0158C53.7632 7.12514 53.8728 7.23447 53.9858 7.34713C54.3434 7.70408 54.7005 8.06162 55.0575 8.41921C55.3074 8.66897 55.5573 8.91872 55.8072 9.16843C56.3285 9.68946 56.8495 10.2108 57.3702 10.7323C58.0387 11.4017 58.708 12.0704 59.3774 12.7389C59.8924 13.2533 60.407 13.7681 60.9215 14.283C61.1683 14.5299 61.4152 14.7767 61.6622 15.0233C62.0059 15.3666 62.3491 15.7104 62.6922 16.0544C62.7947 16.1566 62.8972 16.2588 63.0029 16.3641C63.8746 17.2402 63.8746 17.2402 63.905 17.7803C63.9046 17.9244 63.9043 18.0684 63.9039 18.2169C63.9039 18.38 63.9039 18.5431 63.9039 18.7112C63.903 18.8878 63.9022 19.0644 63.9013 19.2463C63.901 19.517 63.901 19.517 63.9006 19.7931C63.8997 20.3711 63.8977 20.949 63.8956 21.527C63.8948 21.9181 63.894 22.3093 63.8934 22.7004C63.8916 23.6608 63.8888 24.6211 63.8854 25.5815C63.9818 25.58 64.0783 25.5786 64.1776 25.5771C65.1878 25.5626 66.1979 25.5528 67.2082 25.5457C67.5844 25.5424 67.9607 25.538 68.3369 25.5323C68.8799 25.5243 69.4228 25.5207 69.9659 25.5178C70.2153 25.5128 70.2153 25.5128 70.4698 25.5076C71.9739 25.5072 73.2795 25.8894 74.3935 26.9351C75.5847 28.2539 75.8348 29.6736 75.8233 31.3994C75.8237 31.6307 75.8237 31.6307 75.8241 31.8667C75.8247 32.3807 75.8229 32.8947 75.8211 33.4088C75.821 33.7783 75.821 34.1479 75.8212 34.5174C75.8213 35.5188 75.8194 36.5203 75.8171 37.5217C75.8151 38.5689 75.8149 39.6162 75.8145 40.6634C75.8136 42.4205 75.8116 44.1776 75.8087 45.9348C75.8057 47.7442 75.8034 49.5536 75.802 51.363C75.8019 51.4746 75.8018 51.5862 75.8017 51.7013C75.8013 52.2613 75.8009 52.8214 75.8005 53.3815C75.7971 58.0238 75.7913 62.6661 75.7841 67.3084C75.9412 67.3008 76.0984 67.2932 76.2603 67.2854C76.4662 67.2796 76.6721 67.2737 76.8843 67.2676C77.0885 67.2601 77.2928 67.2525 77.5032 67.2447C78.066 67.3084 78.066 67.3084 78.4606 67.6004C78.8347 68.1235 78.8114 68.6249 78.8046 69.2446C78.8052 69.3696 78.8058 69.4947 78.8065 69.6236C78.8069 69.8884 78.8057 70.1532 78.803 70.4181C78.7995 70.8177 78.803 71.2169 78.8071 71.6166C78.8115 73.8832 78.4073 75.5883 76.7621 77.2511C75.0775 78.6668 73.3379 78.7901 71.2257 78.7812C70.9609 78.7819 70.696 78.7828 70.4311 78.7839C69.7056 78.7863 68.9802 78.7856 68.2548 78.7844C67.4714 78.7836 66.6881 78.7856 65.9048 78.7873C64.3711 78.7901 62.8375 78.7902 61.3038 78.7894C60.057 78.7887 58.8103 78.789 57.5636 78.7898C57.2973 78.79 57.2973 78.79 57.0256 78.7902C56.665 78.7905 56.3044 78.7907 55.9437 78.791C52.5625 78.7932 49.1813 78.7923 45.8 78.7904C42.7078 78.7888 39.6156 78.7909 36.5234 78.7948C33.347 78.7988 30.1706 78.8004 26.9943 78.7993C25.2115 78.7987 23.4287 78.7991 21.6459 78.8019C20.1283 78.8043 18.6106 78.8044 17.093 78.8016C16.3189 78.8002 15.5449 78.7999 14.7709 78.8024C14.0617 78.8046 13.3525 78.8038 12.6433 78.8007C12.3874 78.8001 12.1315 78.8006 11.8756 78.8023C9.89256 78.8145 8.24541 78.5671 6.68541 77.2587C5.13249 75.7234 4.66374 74.1596 4.64368 72.0382C4.64335 71.7743 4.6439 71.5103 4.6453 71.2463C4.6467 70.8414 4.64197 70.4368 4.63682 70.0319C4.63656 69.7733 4.63665 69.5146 4.63714 69.256C4.63531 69.1357 4.63348 69.0153 4.63159 68.8912C4.63868 68.3685 4.66776 68.0307 4.97525 67.6001C5.51751 67.1993 5.88555 67.2429 6.5517 67.2676C6.75761 67.2735 6.96352 67.2794 7.17567 67.2854C7.33283 67.293 7.49 67.3006 7.65192 67.3084C7.65147 67.1167 7.65102 66.925 7.65056 66.7274C7.63996 62.173 7.6319 57.6185 7.62695 53.064C7.62634 52.5029 7.62571 51.9419 7.62506 51.3809C7.62493 51.2692 7.6248 51.1575 7.62467 51.0424C7.62255 49.2359 7.61869 47.4294 7.6142 45.6228C7.60962 43.7681 7.60694 41.9133 7.60591 40.0585C7.60528 39.0172 7.60378 37.9759 7.60022 36.9345C7.5969 35.9539 7.59588 34.9733 7.59661 33.9926C7.59648 33.6332 7.59551 33.2738 7.59363 32.9144C7.59119 32.4224 7.59179 31.9306 7.59312 31.4386C7.5917 31.2975 7.59027 31.1564 7.5888 31.011C7.60114 29.3157 8.07954 27.9344 9.28188 26.7225C10.5715 25.7017 11.8007 25.5337 13.4064 25.5497C13.5823 25.5501 13.7582 25.5506 13.9394 25.5511C14.4991 25.5529 15.0587 25.557 15.6183 25.5611C15.9987 25.5628 16.379 25.5642 16.7593 25.5656C17.6897 25.5692 18.6202 25.5746 19.5506 25.5815C19.5501 25.4911 19.5497 25.4008 19.5492 25.3077C19.5384 23.105 19.5304 20.9023 19.5253 18.6997C19.5227 17.6344 19.5193 16.5692 19.5137 15.504C19.5084 14.4757 19.5055 13.4474 19.5042 12.4191C19.5033 12.0271 19.5015 11.6351 19.4989 11.2431C19.4953 10.6934 19.4949 10.1437 19.4951 9.59392C19.4933 9.43248 19.4916 9.27104 19.4898 9.1047C19.4957 7.76932 19.7609 6.62687 20.719 5.64092C21.9959 4.48246 23.6501 4.62212 25.2638 4.62594ZM22.1585 7.97797C22.1087 8.34717 22.1087 8.34717 22.1166 8.78202C22.1155 8.95307 22.1145 9.12412 22.1134 9.30035C22.1139 9.48974 22.1144 9.67913 22.1149 9.87426C22.1142 10.0743 22.1135 10.2744 22.1127 10.4805C22.111 11.0376 22.1108 11.5946 22.1111 12.1517C22.1112 12.7518 22.1094 13.3519 22.1079 13.952C22.1051 15.1285 22.1043 16.3049 22.1041 17.4814C22.1039 18.4375 22.1032 19.3936 22.1022 20.3496C22.0993 23.0585 22.0978 25.7674 22.0981 28.4763C22.0981 28.6225 22.0981 28.7686 22.0981 28.9192C22.0981 29.0655 22.0981 29.2119 22.0982 29.3626C22.0983 31.7341 22.0952 34.1056 22.0906 36.4771C22.0859 38.9104 22.0836 41.3437 22.0839 43.777C22.084 45.1438 22.0831 46.5106 22.0796 47.8774C22.0767 49.0412 22.076 50.205 22.0782 51.3688C22.0792 51.9628 22.0792 52.5567 22.0764 53.1507C22.0734 53.7943 22.0754 54.4377 22.0779 55.0813C22.0763 55.2696 22.0746 55.4579 22.0729 55.6519C22.0791 56.3702 22.0972 56.9041 22.3952 57.5631C23.0217 58.0029 23.5709 57.9675 24.3201 57.9581C24.4746 57.9594 24.6292 57.9607 24.7884 57.962C25.3075 57.9652 25.8264 57.9626 26.3455 57.9601C26.7171 57.9612 27.0887 57.9626 27.4603 57.9644C28.4706 57.9681 29.4808 57.9667 30.4911 57.9641C31.5472 57.962 32.6032 57.9639 33.6593 57.9652C35.5466 57.9668 37.4339 57.9643 39.3212 57.9601C41.0328 57.9565 42.7443 57.9571 44.4558 57.9609C46.443 57.9652 48.43 57.9669 50.4172 57.9644C51.4692 57.9632 52.5213 57.963 53.5733 57.9657C54.5623 57.9681 55.5512 57.9664 56.5401 57.9617C56.9036 57.9606 57.2671 57.961 57.6306 57.9627C58.1258 57.965 58.6207 57.9622 59.1159 57.9581C59.3331 57.9608 59.3331 57.9608 59.5546 57.9636C60.1972 57.9533 60.5207 57.9348 61.0409 57.5369C61.3705 56.8442 61.3658 56.2583 61.3559 55.4999C61.3567 55.2662 61.3567 55.2662 61.3576 55.0278C61.3586 54.5054 61.3551 53.9832 61.3515 53.4609C61.3513 53.0866 61.3514 52.7123 61.3518 52.338C61.352 51.3214 61.3481 50.3048 61.3436 49.2882C61.3395 48.2259 61.3391 47.1637 61.3383 46.1014C61.3366 44.3184 61.3325 42.5353 61.3267 40.7522C61.3207 38.9158 61.3161 37.0793 61.3133 35.2428C61.3131 35.1296 61.3129 35.0164 61.3128 34.8997C61.3119 34.3317 61.3111 33.7637 61.3103 33.1956C61.3035 28.4843 61.2915 23.773 61.2775 19.0617C57.4585 19.0079 53.6395 18.9541 49.7048 18.8987C49.5196 18.3432 49.5158 17.9077 49.5083 17.3218C49.5067 17.212 49.5051 17.1022 49.5034 16.9891C49.4983 16.6267 49.4943 16.2642 49.4902 15.9017C49.4869 15.6503 49.4834 15.3988 49.48 15.1474C49.471 14.4858 49.4629 13.8242 49.455 13.1626C49.4468 12.4874 49.4378 11.8122 49.4288 11.137C49.4113 9.81232 49.3947 8.48766 49.3788 7.163C45.9926 7.15158 42.6063 7.14295 39.2201 7.13766C37.6478 7.13514 36.0755 7.1317 34.5033 7.12611C33.133 7.12123 31.7627 7.11808 30.3924 7.11699C29.6667 7.11635 28.9411 7.11485 28.2154 7.11129C27.5325 7.10798 26.8495 7.10695 26.1666 7.10769C25.9159 7.10755 25.6652 7.10658 25.4145 7.10471C25.0722 7.10227 24.7299 7.10286 24.3876 7.10419C24.196 7.10374 24.0044 7.10329 23.8071 7.10283C23.0849 7.18844 22.6656 7.47089 22.1585 7.97797ZM51.9867 9.28194C51.9867 11.7024 51.9867 14.1229 51.9867 16.6167C54.4072 16.6167 56.8277 16.6167 59.3215 16.6167C58.5146 15.6723 58.5146 15.6723 57.6665 14.7777C57.5431 14.6537 57.4197 14.5298 57.2926 14.4022C57.1627 14.2726 57.0327 14.143 56.8989 14.0094C56.7632 13.8736 56.6275 13.7377 56.4876 13.5977C56.2028 13.3128 55.9177 13.028 55.6324 12.7434C55.1937 12.3055 54.7558 11.8668 54.318 11.4279C54.0408 11.1508 53.7635 10.8737 53.4862 10.5967C53.3546 10.4648 53.223 10.3329 53.0874 10.197C52.9666 10.0767 52.8458 9.95638 52.7213 9.83241C52.6146 9.72582 52.5078 9.61922 52.3979 9.5094C52.1858 9.26358 52.1858 9.26358 51.9867 9.28194ZM10.759 29.0146C10.2141 29.7907 10.2372 30.3563 10.2403 31.2818C10.2401 31.4352 10.24 31.5885 10.2398 31.7466C10.2396 32.2636 10.2405 32.7807 10.2413 33.2978C10.2414 33.6672 10.2414 34.0365 10.2413 34.4059C10.2412 35.4115 10.2422 36.417 10.2433 37.4226C10.2443 38.4724 10.2444 39.5222 10.2446 40.5721C10.2451 42.335 10.2461 44.098 10.2476 45.861C10.2491 47.6771 10.2502 49.4932 10.2509 51.3093C10.2509 51.4211 10.251 51.533 10.251 51.6483C10.2512 52.2096 10.2514 52.771 10.2516 53.3323C10.2533 57.991 10.2562 62.6497 10.2599 67.3084C11.0667 67.3084 11.8735 67.3084 12.7048 67.3084C12.705 67.1242 12.7053 66.94 12.7055 66.7502C12.7115 62.272 12.7212 57.7939 12.7348 53.3158C12.7413 51.1503 12.7465 48.9847 12.749 46.8192C12.7511 44.9321 12.7555 43.045 12.7626 41.1579C12.7663 40.1584 12.7688 39.1588 12.7687 38.1592C12.7685 37.219 12.7714 36.2788 12.7767 35.3385C12.7781 34.9929 12.7784 34.6473 12.7774 34.3017C12.7764 33.8307 12.7793 33.36 12.7832 32.8891C12.7819 32.7515 12.7807 32.6138 12.7794 32.472C12.788 31.886 12.8154 31.523 13.1598 31.0389C13.7085 30.6707 14.2638 30.699 14.9027 30.698C15.0356 30.6953 15.1686 30.6926 15.3055 30.6899C15.729 30.682 16.1524 30.6785 16.5759 30.6751C16.8635 30.6705 17.1511 30.6656 17.4387 30.6605C18.1427 30.6479 18.8464 30.6413 19.5506 30.6344C19.5506 29.7737 19.5506 28.9131 19.5506 28.0264C18.5763 28.0143 17.6021 28.0054 16.6277 27.9996C16.2967 27.9971 15.9657 27.9938 15.6346 27.9895C15.1572 27.9836 14.6798 27.9808 14.2023 27.9787C14.0557 27.9762 13.9091 27.9736 13.7581 27.971C12.6157 27.9707 11.5433 28.0968 10.759 29.0146ZM63.8854 28.0264C63.8854 28.887 63.8854 29.7477 63.8854 30.6344C64.3132 30.6386 64.741 30.6428 65.1817 30.6471C65.5966 30.6534 66.0114 30.6607 66.4262 30.6682C66.7143 30.6728 67.0023 30.6762 67.2904 30.6785C67.7048 30.682 68.119 30.6896 68.5333 30.698C68.6619 30.6982 68.7904 30.6984 68.9229 30.6986C69.4516 30.7127 69.8314 30.7404 70.2762 31.0389C70.6967 31.63 70.6592 32.19 70.6528 32.8891C70.654 33.0361 70.6553 33.1831 70.6565 33.3345C70.6598 33.8281 70.6585 34.3215 70.6572 34.8151C70.6586 35.1685 70.6603 35.5219 70.6623 35.8752C70.6669 36.8356 70.6674 37.796 70.6672 38.7564C70.6677 39.7597 70.6719 40.763 70.6757 41.7663C70.6823 43.6666 70.6856 45.5669 70.6878 47.4673C70.6904 49.6306 70.6966 51.7938 70.7032 53.9571C70.7166 58.4075 70.7254 62.8579 70.7312 67.3084C71.538 67.3084 72.3449 67.3084 73.1762 67.3084C73.191 62.5491 73.2026 57.7899 73.2094 53.0307C73.2103 52.4688 73.2111 51.9069 73.212 51.3451C73.2122 51.1773 73.2122 51.1773 73.2125 51.0061C73.2153 49.1949 73.2205 47.3837 73.2265 45.5725C73.2326 43.7141 73.2361 41.8556 73.2375 39.9972C73.2383 38.9533 73.2403 37.9095 73.2451 36.8656C73.2495 35.8833 73.2509 34.9011 73.2499 33.9189C73.2501 33.5581 73.2514 33.1974 73.2539 32.8367C73.2571 32.3445 73.2563 31.8524 73.2546 31.3602C73.2574 31.1457 73.2574 31.1457 73.2603 30.9268C73.2517 30.0444 73.114 29.5396 72.5242 28.8414C71.7396 28.2366 71.1537 28.0051 70.1768 28.0079C70.0365 28.0079 69.8963 28.008 69.7517 28.008C69.6018 28.0088 69.4519 28.0096 69.2974 28.0105C69.1427 28.0107 68.9881 28.011 68.8287 28.0112C68.3355 28.0121 67.8423 28.0142 67.3491 28.0162C67.0144 28.0171 66.6797 28.0178 66.345 28.0185C65.5251 28.0203 64.7053 28.0231 63.8854 28.0264ZM15.3127 33.0793C15.3127 44.3749 15.3127 55.6705 15.3127 67.3084C21.5058 67.3297 21.5058 67.3297 27.6989 67.3422C28.8962 67.3489 28.8962 67.3489 29.4565 67.353C29.8482 67.3552 30.2399 67.3557 30.6316 67.355C31.2247 67.3542 31.8175 67.3585 32.4105 67.3639C32.5853 67.3625 32.7601 67.3611 32.9402 67.3596C34.1179 67.378 34.1179 67.378 34.6423 67.8564C34.7182 67.9983 34.794 68.1402 34.8722 68.2863C34.9619 68.4401 35.0516 68.5939 35.1441 68.7524C35.2258 68.9079 35.3075 69.0634 35.3917 69.2236C35.6535 69.7675 35.6535 69.7675 36.0132 70.2423C36.3628 70.2662 36.7132 70.2787 37.0635 70.2867C37.1733 70.2893 37.283 70.2919 37.3961 70.2947C38.4102 70.3176 39.4245 70.3303 40.4388 70.3401C41.1205 70.3468 41.8018 70.3566 42.4833 70.3742C43.1419 70.3911 43.8002 70.4 44.4591 70.4033C44.7099 70.4059 44.9607 70.4113 45.2114 70.4196C45.9706 70.4436 46.6838 70.4447 47.4228 70.2423C47.9216 69.7575 48.1497 69.2524 48.4008 68.6123C48.5206 68.4151 48.6455 68.2207 48.7778 68.0317C48.8685 67.9006 48.9593 67.7694 49.0528 67.6344C49.314 67.3732 49.5914 67.4483 49.9532 67.4456C50.1917 67.4432 50.1917 67.4432 50.435 67.4407C50.6115 67.4398 50.7881 67.4389 50.97 67.4379C51.1574 67.4363 51.3448 67.4346 51.5379 67.4329C52.1479 67.4278 52.7578 67.4238 53.3677 67.4198C53.743 67.4168 54.1183 67.4137 54.4936 67.4106C55.8889 67.3994 57.2843 67.3896 58.6797 67.3797C61.7961 67.3561 64.9125 67.3326 68.1233 67.3084C68.1233 56.0128 68.1233 44.7172 68.1233 33.0793C66.7248 33.0793 65.3263 33.0793 63.8854 33.0793C63.8844 33.3783 63.8835 33.6772 63.8825 33.9852C63.8732 36.8032 63.8613 39.6212 63.847 42.4392C63.8397 43.8879 63.8332 45.3366 63.8289 46.7854C63.8252 48.0485 63.8197 49.3116 63.8123 50.5746C63.8084 51.2431 63.8053 51.9115 63.8043 52.58C63.8033 53.21 63.8 53.84 63.7951 54.47C63.7936 54.7004 63.793 54.9308 63.7933 55.1612C63.7946 56.6195 63.7069 57.8363 62.9787 59.1178C61.908 60.1062 60.7297 60.421 59.3061 60.403C59.1488 60.4043 58.9914 60.4056 58.8293 60.4069C58.3066 60.4101 57.784 60.4076 57.2612 60.405C56.8846 60.4061 56.508 60.4076 56.1314 60.4093C55.1117 60.413 54.092 60.4116 53.0723 60.409C52.0036 60.407 50.935 60.4089 49.8664 60.4102C47.9571 60.4119 46.0479 60.4092 44.1387 60.4051C42.41 60.4014 40.6814 60.4021 38.9528 60.4058C36.942 60.4102 34.9313 60.4118 32.9205 60.4094C31.8573 60.4081 30.7941 60.4079 29.731 60.4106C28.7313 60.413 27.7317 60.4113 26.732 60.4066C26.3658 60.4056 25.9995 60.4059 25.6333 60.4077C25.1321 60.4099 24.6311 60.4071 24.1299 60.403C23.9861 60.4049 23.8423 60.4067 23.6941 60.4086C22.5308 60.3904 21.4078 60.0497 20.5745 59.1985C19.5622 57.9192 19.6639 56.4117 19.6616 54.8587C19.6601 54.6208 19.6585 54.383 19.6567 54.1452C19.6522 53.502 19.6497 52.8589 19.6476 52.2157C19.6451 51.5427 19.6407 50.8696 19.6365 50.1966C19.6289 48.9232 19.6229 47.6498 19.6175 46.3764C19.6113 44.9261 19.6032 43.4759 19.595 42.0257C19.5782 39.0436 19.5637 36.0615 19.5506 33.0793C18.1521 33.0793 16.7536 33.0793 15.3127 33.0793ZM7.16294 69.7533C7.1496 70.239 7.13997 70.7243 7.13237 71.2101C7.12828 71.3455 7.12418 71.4809 7.11996 71.6204C7.10248 73.1178 7.46094 74.2563 8.49428 75.3505C9.42324 76.1924 10.4508 76.2933 11.6544 76.2945C11.7601 76.2949 11.8657 76.2952 11.9745 76.2956C12.3289 76.2965 12.6833 76.2963 13.0378 76.296C13.2943 76.2964 13.5507 76.2969 13.8072 76.2975C14.5125 76.2988 15.2177 76.2991 15.9229 76.2992C16.6834 76.2995 17.4438 76.3007 18.2043 76.3018C19.8672 76.3041 21.5302 76.305 23.1931 76.3058C24.2314 76.3062 25.2697 76.3069 26.308 76.3076C29.1825 76.3096 32.057 76.3113 34.9315 76.3119C35.2075 76.3119 35.2075 76.3119 35.489 76.312C35.6734 76.312 35.8579 76.312 36.0479 76.3121C36.4215 76.3121 36.7952 76.3122 37.1689 76.3123C37.447 76.3123 37.447 76.3123 37.7306 76.3124C40.7346 76.313 43.7385 76.3159 46.7425 76.3197C49.8264 76.3235 52.9102 76.3256 55.9941 76.3258C57.7257 76.3259 59.4573 76.3269 61.1889 76.3298C62.6633 76.3323 64.1376 76.3332 65.612 76.3318C66.3642 76.3312 67.1163 76.3313 67.8685 76.3336C68.5575 76.3357 69.2464 76.3355 69.9353 76.3335C70.1842 76.3332 70.4331 76.3337 70.6819 76.3351C72.5232 76.345 73.9679 76.2474 75.3505 74.9418C76.3298 73.8611 76.2965 72.6218 76.2833 71.2508C76.2822 71.0348 76.2822 71.0348 76.281 70.8144C76.2791 70.4607 76.2762 70.107 76.2731 69.7533C72.9534 69.7152 69.6339 69.6865 66.3141 69.6688C64.7726 69.6604 63.2313 69.649 61.6899 69.6303C60.3464 69.6141 59.003 69.6036 57.6594 69.5999C56.9479 69.5978 56.2368 69.5928 55.5254 69.581C54.8556 69.5699 54.1861 69.5665 53.5162 69.5689C53.2706 69.5685 53.0249 69.5653 52.7794 69.559C52.0567 69.5415 51.3826 69.5461 50.6828 69.7533C50.1911 70.2385 49.9627 70.7508 49.7048 71.3833C49.6166 71.5286 49.5283 71.674 49.4374 71.8238C49.1881 72.1725 49.1881 72.1725 49.2158 72.5242C48.5083 72.6976 47.8184 72.7124 47.0943 72.7135C46.9651 72.7143 46.836 72.7151 46.7029 72.7159C46.2773 72.7183 45.8517 72.7194 45.4262 72.7203C45.1296 72.7213 44.8331 72.7222 44.5365 72.7231C43.9156 72.7249 43.2946 72.7258 42.6737 72.7264C41.8784 72.7273 41.0832 72.7312 40.2879 72.7358C39.6757 72.7389 39.0635 72.7397 38.4513 72.74C38.1581 72.7405 37.8649 72.7418 37.5717 72.7439C37.1617 72.7467 36.7517 72.7464 36.3417 72.7453C36.1605 72.7476 36.1605 72.7476 35.9757 72.7499C35.2524 72.744 34.7917 72.649 34.2202 72.1982C33.9635 71.8114 33.7419 71.445 33.5275 71.0369C33.1968 70.3531 33.1968 70.3531 32.7532 69.7533C32.4232 69.7375 32.0926 69.7334 31.7621 69.7337C31.6575 69.7336 31.5529 69.7334 31.445 69.7333C31.0919 69.733 30.7388 69.7339 30.3856 69.7348C30.1335 69.7348 29.8813 69.7348 29.6292 69.7347C28.9426 69.7347 28.2559 69.7356 27.5693 69.7368C26.8525 69.7378 26.1357 69.7379 25.4189 69.7381C24.0606 69.7386 22.7023 69.7399 21.344 69.7416C19.7981 69.7434 18.2521 69.7443 16.7061 69.7451C13.5251 69.7468 10.344 69.7497 7.16294 69.7533Z" fill="white"/>
<path d="M41.5062 44.439C41.7265 44.437 41.7265 44.437 41.9512 44.4349C42.4384 44.431 42.9256 44.4296 43.4129 44.4285C43.7507 44.427 44.0885 44.4256 44.4264 44.424C45.1353 44.4213 45.8443 44.4201 46.5532 44.4196C47.4624 44.4187 48.3715 44.4126 49.2806 44.4052C49.9787 44.4003 50.6767 44.3991 51.3747 44.399C51.7099 44.3983 52.0451 44.3962 52.3803 44.3929C52.8491 44.3885 53.3175 44.3892 53.7863 44.3913C53.9251 44.3889 54.064 44.3865 54.2071 44.384C54.8821 44.3924 55.1472 44.3992 55.6639 44.8657C55.986 45.4672 55.9271 45.7987 55.7356 46.4449C55.3227 46.904 55.0691 46.9354 54.4465 46.9971C54.1838 47.0005 53.9211 47.0012 53.6584 46.9998C53.4428 47.0015 53.4428 47.0015 53.2228 47.0032C52.7479 47.0062 52.2731 47.0055 51.7982 47.0046C51.4682 47.0053 51.1381 47.0062 50.8081 47.0072C50.1164 47.0086 49.4247 47.0082 48.7331 47.0066C47.8462 47.0047 46.9594 47.008 46.0726 47.0128C45.391 47.0158 44.7095 47.0157 44.028 47.0148C43.701 47.0148 43.374 47.0158 43.047 47.0178C42.59 47.0202 42.1332 47.0185 41.6763 47.0157C41.4733 47.0181 41.4733 47.0181 41.2662 47.0205C40.6702 47.0128 40.3253 46.9909 39.8449 46.6226C39.5863 46.2643 39.4627 46.0703 39.436 45.63C39.807 44.4314 40.3546 44.4399 41.5062 44.439Z" fill="white"/>
<path d="M41.6753 35.4795C41.8209 35.4786 41.9664 35.4778 42.1164 35.4769C42.5982 35.4747 43.08 35.4748 43.5619 35.4752C43.8962 35.4746 44.2305 35.4739 44.5649 35.4731C45.2659 35.4719 45.9669 35.4719 46.6679 35.4728C47.5673 35.4737 48.4668 35.471 49.3662 35.4672C50.0567 35.4648 50.7472 35.4646 51.4376 35.4651C51.7693 35.4651 52.101 35.4642 52.4327 35.4626C52.896 35.4606 53.3591 35.4617 53.8223 35.4635C53.96 35.4623 54.0977 35.4611 54.2396 35.4598C55.1764 35.4683 55.1764 35.4683 55.5212 35.7432C55.8451 36.1511 55.878 36.476 55.8986 36.9912C55.7131 37.3705 55.5451 37.6706 55.2466 37.9692C54.7838 37.9873 54.3249 37.9948 53.8619 37.9954C53.7167 37.9962 53.5714 37.997 53.4218 37.9979C52.939 38.0003 52.4562 38.0014 51.9733 38.0023C51.6389 38.0032 51.3045 38.0041 50.9701 38.0051C50.2678 38.0068 49.5656 38.0078 48.8633 38.0083C47.9627 38.0092 47.0622 38.0131 46.1617 38.0178C45.4705 38.0208 44.7793 38.0217 44.0881 38.0219C43.7561 38.0224 43.4241 38.0237 43.0921 38.0258C42.6277 38.0286 42.1634 38.0283 41.699 38.0273C41.5614 38.0288 41.4238 38.0303 41.282 38.0318C40.7336 38.0279 40.3294 38.0122 39.8434 37.7452C39.5123 37.3861 39.4592 37.1513 39.436 36.6652C39.7779 35.4402 40.5518 35.4762 41.6753 35.4795Z" fill="white"/>
<path d="M41.6393 26.5332C41.7829 26.5324 41.9266 26.5316 42.0746 26.5308C42.5513 26.5284 43.0279 26.5273 43.5046 26.5264C43.8351 26.5254 44.1656 26.5245 44.4961 26.5235C45.1897 26.5218 45.8833 26.5209 46.577 26.5203C47.4664 26.5194 48.3558 26.5155 49.2452 26.5109C49.9281 26.5078 50.611 26.507 51.2939 26.5067C51.6219 26.5062 51.9498 26.5049 52.2777 26.5028C52.7362 26.5 53.1947 26.5003 53.6532 26.5014C53.789 26.4999 53.9249 26.4984 54.0648 26.4968C54.6031 26.5007 55.008 26.5196 55.4888 26.7732C55.8908 27.2215 55.8986 27.6 55.8986 28.1894C55.6637 28.6276 55.6637 28.6276 55.2466 29.0044C54.7611 29.1242 54.2868 29.1124 53.7888 29.1047C53.6417 29.1056 53.4945 29.1065 53.3429 29.1074C52.8566 29.1094 52.3705 29.1054 51.8842 29.1012C51.5464 29.1009 51.2087 29.1009 50.8709 29.1012C50.1632 29.1009 49.4555 29.0979 48.7478 29.0927C47.8398 29.0863 46.9318 29.0856 46.0237 29.0868C45.3264 29.0873 44.6291 29.0853 43.9317 29.0825C43.5969 29.0814 43.262 29.0809 42.9271 29.081C42.4596 29.0807 41.9922 29.0772 41.5247 29.0729C41.3163 29.0736 41.3163 29.0736 41.1036 29.0743C40.1566 29.0605 40.1566 29.0605 39.8131 28.7795C39.5152 28.4119 39.458 28.1736 39.436 27.7004C39.9318 26.4729 40.4129 26.5348 41.6393 26.5332Z" fill="white"/>
<path d="M35.5243 42.533C35.8977 42.7905 35.9955 42.975 36.1559 43.3989C36.1925 44.1847 35.7815 44.7075 35.2779 45.2825C35.1183 45.4431 34.9574 45.6024 34.7953 45.7605C34.7099 45.8455 34.6246 45.9306 34.5366 46.0182C34.3573 46.1964 34.1774 46.3741 33.997 46.5511C33.7203 46.8227 33.4454 47.0961 33.1708 47.3697C32.9959 47.5431 32.8209 47.7164 32.6458 47.8896C32.5223 48.0121 32.5223 48.0121 32.3963 48.1371C31.8613 48.6611 31.611 48.8674 30.8579 48.972C30.0781 48.9609 29.7055 48.6112 29.1697 48.0765C29.0648 47.965 28.9598 47.8535 28.8517 47.7387C28.6877 47.5781 28.6877 47.5781 28.5203 47.4143C27.8698 46.7467 27.528 46.2789 27.5375 45.304C27.7719 44.8252 27.7719 44.8252 28.1895 44.489C28.7455 44.3778 28.9718 44.3351 29.4935 44.489C29.9792 44.8227 30.3902 45.2053 30.7975 45.63C31.7001 44.8952 32.5113 44.0881 33.3186 43.2514C34.0732 42.4807 34.4636 42.2679 35.5243 42.533Z" fill="white"/>
<path d="M35.3611 24.6035C35.8341 24.84 35.9731 24.9838 36.1557 25.4796C36.1914 26.2277 35.9232 26.6367 35.4422 27.2014C35.2733 27.3768 35.103 27.5507 34.9314 27.7234C34.8405 27.8159 34.7496 27.9084 34.6559 28.0037C34.4638 28.1983 34.271 28.3923 34.0776 28.5856C33.7833 28.881 33.4932 29.18 33.203 29.4794C33.0153 29.6685 32.8274 29.8574 32.6392 30.046C32.5535 30.1353 32.4677 30.2246 32.3793 30.3167C31.7726 30.9125 31.3198 31.1025 30.4713 31.1233C30.1262 30.9412 30.1262 30.9412 29.8397 30.6547C29.7323 30.5495 29.6249 30.4442 29.5143 30.3357C29.3998 30.2191 29.2853 30.1025 29.1673 29.9824C29.0343 29.8607 28.9013 29.7391 28.7643 29.6137C27.593 28.5204 27.593 28.5204 27.5374 27.5374C27.8846 26.7933 27.8846 26.7933 28.3523 26.5595C28.8719 26.478 28.8719 26.478 29.4933 26.5595C29.9271 26.8958 30.282 27.2807 30.6343 27.7004C31.1625 27.4691 31.5077 27.1898 31.9089 26.7779C32.023 26.662 32.1371 26.5461 32.2547 26.4267C32.3721 26.3058 32.4896 26.1849 32.6106 26.0603C32.845 25.8203 33.0797 25.5807 33.3148 25.3415C33.4182 25.2351 33.5216 25.1288 33.6281 25.0192C34.1669 24.5075 34.6385 24.5537 35.3611 24.6035Z" fill="white"/>
<path d="M35.5243 33.5683C35.9252 33.814 35.9907 33.9974 36.1559 34.4342C36.1922 35.2143 35.7827 35.7391 35.2882 36.3152C35.1329 36.4748 34.9762 36.633 34.8182 36.79C34.7344 36.8747 34.6506 36.9593 34.5642 37.0466C34.3877 37.2241 34.2106 37.4011 34.0328 37.5774C33.7624 37.8465 33.4952 38.1184 33.2281 38.3907C33.0554 38.5636 32.8825 38.7364 32.7095 38.9089C32.6305 38.9898 32.5515 39.0706 32.4701 39.1538C31.9508 39.6628 31.5065 39.9246 30.7975 40.0881C29.9505 39.9283 29.3899 39.2593 28.8008 38.6721C28.697 38.5743 28.5932 38.4765 28.4862 38.3757C27.9761 37.8704 27.7254 37.573 27.5356 36.8651C27.5376 36.3392 27.5376 36.3392 27.7719 35.8604C28.2346 35.4879 28.5538 35.3885 29.1503 35.4198C29.808 35.6199 30.2111 36.1466 30.6345 36.6652C31.1627 36.4339 31.5079 36.1545 31.9091 35.7426C32.0232 35.6267 32.1373 35.5109 32.2549 35.3915C32.3723 35.2706 32.4898 35.1496 32.6108 35.0251C32.8452 34.7851 33.0799 34.5455 33.315 34.3062C33.4184 34.1999 33.5218 34.0936 33.6283 33.984C34.1812 33.4588 34.7979 33.4864 35.5243 33.5683Z" fill="white"/>
</svg>
