<svg width="16" height="19" viewBox="0 0 16 19" fill="none" xmlns="http://www.w3.org/2000/svg">
<path d="M7.56993 2.25C7.27446 2.25 6.98188 2.3082 6.7089 2.42127C6.43591 2.53434 6.18788 2.70008 5.97894 2.90901C5.77001 3.11794 5.60428 3.36598 5.49121 3.63896C5.37813 3.91194 5.31993 4.20453 5.31993 4.5C5.31993 4.79547 5.37813 5.08806 5.49121 5.36104C5.60428 5.63402 5.77001 5.88206 5.97894 6.09099C6.18788 6.29992 6.43591 6.46566 6.7089 6.57873C6.98188 6.6918 7.27446 6.75 7.56993 6.75C8.16667 6.75 8.73897 6.51295 9.16092 6.09099C9.58288 5.66903 9.81993 5.09674 9.81993 4.5C9.81993 3.90326 9.58288 3.33097 9.16092 2.90901C8.73897 2.48705 8.16667 2.25 7.56993 2.25ZM3.81993 4.5C3.81993 3.50544 4.21502 2.55161 4.91828 1.84835C5.62154 1.14509 6.57537 0.75 7.56993 0.75C8.5645 0.75 9.51832 1.14509 10.2216 1.84835C10.9248 2.55161 11.3199 3.50544 11.3199 4.5C11.3199 5.49456 10.9248 6.44839 10.2216 7.15165C9.51832 7.85491 8.5645 8.25 7.56993 8.25C6.57537 8.25 5.62154 7.85491 4.91828 7.15165C4.21502 6.44839 3.81993 5.49456 3.81993 4.5ZM4.88393 10.319C5.01593 10.417 5.18593 10.532 5.38893 10.646C5.90193 10.936 6.65393 11.236 7.56893 11.236C8.48393 11.236 9.23693 10.936 9.74993 10.646C9.95293 10.532 10.1229 10.417 10.2549 10.319C10.4429 10.369 10.6293 10.4243 10.8139 10.485L11.7739 10.8C12.4939 11.037 13.0379 11.612 13.2319 12.323L13.6289 15.187C13.7039 15.731 13.4189 16.126 13.0229 16.22C11.9759 16.47 10.2109 16.75 7.56993 16.75C4.92893 16.75 3.16293 16.47 2.11593 16.22C1.72093 16.126 1.43593 15.731 1.50993 15.187L1.90693 12.323C2.00558 11.9685 2.19043 11.6439 2.445 11.3781C2.69958 11.1124 3.01596 10.9138 3.36593 10.8L4.32593 10.485C4.50993 10.425 4.69593 10.3697 4.88393 10.319ZM5.59393 8.964L5.30293 8.677L4.90093 8.769C4.55027 8.849 4.20227 8.946 3.85693 9.06L2.89693 9.375C2.30055 9.56886 1.76286 9.91034 1.33382 10.3677C0.904779 10.8251 0.598324 11.3835 0.442934 11.991L0.432934 12.031L0.0249339 14.981C-0.136066 16.145 0.486934 17.374 1.76893 17.679C2.93893 17.958 4.82093 18.25 7.56893 18.25C10.3179 18.25 12.1999 17.958 13.3699 17.68C14.6519 17.374 15.2759 16.145 15.1149 14.982L14.7059 12.032L14.6959 11.992C14.5406 11.3842 14.2341 10.8255 13.8048 10.3679C13.3756 9.91037 12.8376 9.56881 12.2409 9.375L11.2819 9.06C10.9373 8.94667 10.5893 8.85 10.2379 8.77L9.83593 8.677L9.54593 8.963L9.54493 8.964C9.50627 8.99922 9.46624 9.03292 9.42493 9.065C9.29602 9.16743 9.15889 9.25907 9.01493 9.339C8.57529 9.59309 8.07768 9.7298 7.56993 9.736C7.06219 9.7298 6.56458 9.59309 6.12493 9.339C5.93601 9.23229 5.75743 9.10664 5.59393 8.964Z" fill="#155DFC"/>
</svg>
