<svg id="person-ico" width="15" height="10" viewBox="0 0 15 10" fill="none" xmlns="http://www.w3.org/2000/svg">
<path d="M10.298 4.96788C11.58 4.96788 12.6246 3.83172 12.6246 2.4493C12.6246 1.08259 11.5854 0 10.298 0C9.02143 0 7.97116 1.09859 7.97116 2.45996C7.97652 3.83705 9.02143 4.96788 10.298 4.96788ZM4.09339 5.08569C5.20286 5.08569 6.11304 4.09424 6.11304 2.87786C6.11304 1.68812 5.21357 0.728925 4.09339 0.728925C2.98393 0.728925 2.06839 1.70438 2.07375 2.88852C2.07911 4.09984 2.98393 5.08569 4.09339 5.08569ZM10.298 4.15874C9.51161 4.15874 8.83821 3.40849 8.83821 2.45996C8.83821 1.52715 9.50089 0.809413 10.298 0.809413C11.1005 0.809413 11.7576 1.51675 11.7576 2.44903C11.7576 3.39783 11.0952 4.15874 10.298 4.15874ZM4.09339 4.2872C3.43634 4.2872 2.87625 3.66035 2.87625 2.88852C2.87625 2.13294 3.43071 1.52741 4.09339 1.52741C4.77187 1.52741 5.31589 2.12228 5.31589 2.87786C5.31589 3.66035 4.7558 4.2872 4.09339 4.2872ZM1.09875 10H5.32687C5.06812 9.85528 4.86884 9.5336 4.90661 9.20685H0.964286C0.856607 9.20685 0.802768 9.1642 0.802768 9.06213C0.802768 7.73327 2.32687 6.48997 4.0883 6.48997C4.76679 6.48997 5.37536 6.65068 5.89795 6.95611C6.07129 6.73774 6.27641 6.54631 6.50652 6.38816C5.8117 5.93241 4.97705 5.69681 4.0883 5.69681C1.83134 5.69681 0 7.32577 0 9.11037C0 9.70523 0.366161 10 1.09875 10ZM6.91554 10H13.6805C14.5744 10 15 9.73215 15 9.14261C15 7.7386 13.2171 5.7072 10.298 5.7072C7.3733 5.7072 5.59071 7.7386 5.59071 9.14261C5.59071 9.73215 6.01607 10 6.91554 10ZM6.65705 9.19085C6.51696 9.19085 6.45777 9.15354 6.45777 9.0408C6.45777 8.16183 7.82571 6.51688 10.298 6.51688C12.765 6.51688 14.1327 8.16183 14.1327 9.0408C14.1327 9.15327 14.0791 9.19085 13.9387 9.19085H6.65705Z" fill="white"/>
</svg>
