<svg width="74" height="66" viewBox="0 0 74 66" fill="none" xmlns="http://www.w3.org/2000/svg">
<path d="M70.0436 2.53693C70.418 2.86395 70.7677 3.20368 71.1146 3.55962C71.2702 3.708 71.2702 3.708 71.4289 3.85938C73.4063 5.87129 74.0106 8.49952 73.9999 11.2294C73.9749 12.4229 73.893 13.6487 73.3497 14.7353C73.3355 14.9584 73.3306 15.1821 73.3303 15.4057C73.3295 15.6186 73.3295 15.6186 73.3287 15.8359C73.3288 15.9929 73.329 16.15 73.3292 16.3118C73.3287 16.4778 73.3283 16.6438 73.3279 16.8148C73.3266 17.375 73.3264 17.9351 73.3262 18.4953C73.3255 18.8954 73.3248 19.2955 73.3239 19.6957C73.3222 20.5596 73.321 21.4235 73.32 22.2874C73.3185 23.6544 73.3154 25.0215 73.3121 26.3885C73.311 26.8563 73.3099 27.3241 73.3088 27.792C73.3084 27.9674 73.3084 27.9674 73.308 28.1463C73.3048 29.4784 73.302 30.8104 73.2994 32.1425C73.2991 32.2643 73.2989 32.3861 73.2986 32.5116C73.2947 34.481 73.2919 36.4505 73.2895 38.4199C73.2868 40.4434 73.2825 42.4669 73.2768 44.4903C73.2733 45.7373 73.2712 46.9843 73.271 48.2312C73.2706 49.0877 73.2687 49.944 73.2655 50.8005C73.2637 51.2936 73.2629 51.7866 73.2635 52.2797C73.2677 56.0725 72.9068 59.4419 70.1274 62.2971C67.4093 64.9813 64.0716 65.472 60.4191 65.4578C60.1413 65.4581 59.8634 65.4585 59.5856 65.4591C59.0072 65.4597 58.4288 65.4588 57.8503 65.4567C57.1163 65.4541 56.3824 65.4556 55.6484 65.4583C55.0757 65.4599 54.5031 65.4594 53.9305 65.4582C53.6602 65.4579 53.3899 65.4583 53.1195 65.4593C49.9382 65.469 46.844 65.0944 44.293 63.0143C44.1693 62.9148 44.0456 62.8153 43.9181 62.7127C42.5584 61.5574 41.6091 60.2782 40.903 58.6557C40.3278 57.3448 39.5144 56.3489 38.5867 55.2704C38.1599 54.7621 37.7631 54.2314 37.364 53.7012C36.7131 52.8425 36.0504 51.9951 35.371 51.1587C35.2949 51.0648 35.2187 50.9709 35.1402 50.8741C34.9147 50.598 34.6871 50.3239 34.4584 50.0505C34.3879 49.9651 34.3174 49.8797 34.2448 49.7917C33.3223 48.7034 32.2866 47.7189 31.2733 46.7164C30.893 46.34 30.5131 45.9632 30.1336 45.586C30.0028 45.457 30.0028 45.457 29.8693 45.3254C29.1154 44.5762 29.1154 44.5762 29.0475 43.9783C29.1051 43.379 29.3467 43.085 29.6901 42.6C28.2666 40.7553 28.2666 40.7553 26.3904 39.5225C25.7509 39.5201 25.1963 39.8113 24.6238 40.0668C22.8041 40.3088 21.0639 39.7169 19.5574 38.7258C17.5072 37.0607 15.6862 35.0638 13.8144 33.2058C13.1904 32.5863 12.5652 31.9681 11.9372 31.3527C11.3261 30.7538 10.718 30.152 10.1118 29.5481C9.88132 29.3194 9.64979 29.0917 9.41722 28.8652C9.09268 28.5486 8.77208 28.2284 8.45216 27.9072C8.3561 27.8152 8.26006 27.7232 8.16109 27.6284C7.56357 27.0182 7.41332 26.6168 7.37425 25.7686C7.31858 25.2916 7.0845 25.0703 6.74543 24.7448C6.61956 24.621 6.4937 24.4971 6.36402 24.3695C6.22697 24.2405 6.08992 24.1115 5.94872 23.9785C5.7344 23.7689 5.52007 23.5593 5.30583 23.3497C5.00622 23.0578 4.70398 22.7688 4.40167 22.4798C3.87425 21.9751 3.34962 21.4674 2.82714 20.9576C2.54935 20.687 2.26997 20.4181 1.9888 20.151C0.860393 19.057 0.120486 18.0733 0 16.4768C0.0585973 15.6125 0.187117 15.0278 0.81955 14.4053C1.72484 13.6603 2.4122 13.1893 3.61347 13.2452C3.62759 13.0911 3.62759 13.0911 3.64199 12.9338C3.78918 11.8043 4.12087 11.0529 4.95455 10.265C5.6816 9.73756 6.30342 9.59514 7.18969 9.66899C7.1774 9.52147 7.1651 9.37395 7.15244 9.22197C7.15828 8.25561 7.64955 7.53882 8.29794 6.85645C8.89837 6.29681 9.31033 6.10141 10.1419 6.07415C10.2987 6.08029 10.4554 6.08644 10.6169 6.09277C10.619 6.00979 10.6211 5.92682 10.6233 5.84132C10.6902 4.77156 11.003 4.01508 11.8096 3.29187C12.6202 2.66488 13.1838 2.48976 14.2211 2.46999C14.4106 2.46442 14.6002 2.45885 14.7956 2.45311C16.2797 2.61281 17.0996 3.56839 18.0807 4.59977C18.2226 4.74578 18.3647 4.89156 18.507 5.03714C19.1068 5.65143 19.7031 6.26905 20.2968 6.8893C20.6618 7.27031 21.0296 7.64831 21.3994 8.02466C21.6061 8.23682 21.8094 8.45227 22.0127 8.66777C22.7888 9.49148 22.7888 9.49148 23.8383 9.77627C23.9471 9.77701 24.0559 9.77774 24.1679 9.77849C24.7535 9.8539 25.079 10.2973 25.4526 10.7214C25.5318 10.806 25.6111 10.8906 25.6927 10.9778C25.8856 11.1846 26.0747 11.395 26.2629 11.6061C26.2649 11.3741 26.2649 11.3741 26.2671 11.1373C26.2731 10.5568 26.2829 9.97648 26.2938 9.39608C26.298 9.14609 26.3011 8.89609 26.3032 8.64608C26.3304 5.61085 26.3304 5.61085 27.2902 4.39372C28.4418 3.47198 29.3985 3.10554 30.8821 3.2616C31.8383 3.47354 32.5754 3.94207 33.1714 4.71822C33.8933 5.91762 33.7878 7.13385 33.7468 8.48447C33.7346 8.91469 33.7287 9.34459 33.7245 9.77496C33.7124 10.9974 33.6949 12.2195 33.6597 13.4415C33.3441 17.1838 33.3441 17.1838 34.6998 20.4749C35.1038 20.8306 35.5196 21.1305 35.9796 21.4092C36.9512 22.0664 37.3622 23.4744 37.5875 24.5699C37.7468 25.4118 37.8232 26.1482 37.5456 26.9686C37.2193 27.9886 37.2193 27.9886 37.2895 29.0402C38.0141 30.1638 39.092 31.034 40.1207 31.8714C40.21 31.826 40.2993 31.7807 40.3914 31.734C41.4141 31.229 41.4141 31.229 41.9477 31.3546C42.5295 31.6664 42.929 32.1033 43.3826 32.5774C43.5859 32.7849 43.7893 32.9924 43.9926 33.1999C44.3079 33.5243 44.6226 33.8492 44.9367 34.1746C46.3335 35.6177 47.7655 36.8995 49.3893 38.0824C49.7393 38.3388 50.0817 38.6043 50.4233 38.8719C50.5263 38.9522 50.6294 39.0326 50.7356 39.1154C50.8346 39.1927 50.9336 39.2701 51.0356 39.3497C51.998 40.1001 52.9635 40.8461 53.9326 41.5878C54.2766 41.855 54.2766 41.855 54.4256 42.004C54.4395 38.504 54.45 35.0041 54.4565 31.5042C54.4595 29.8789 54.4637 28.2537 54.4705 26.6285C54.4765 25.2112 54.4803 23.7939 54.4817 22.3767C54.4824 21.6269 54.4842 20.8771 54.4886 20.1273C54.4927 19.4202 54.4939 18.713 54.493 18.0058C54.4931 17.7477 54.4943 17.4895 54.4966 17.2314C54.5086 15.819 54.4276 14.6096 53.9721 13.2605C53.2222 10.8285 53.76 8.17196 54.8726 5.94377C56.1446 3.57873 58.1692 1.94184 60.684 1.02646C63.8674 0.0714323 67.3599 0.498089 70.0436 2.53693ZM58.0018 5.64575C56.6691 7.24219 55.8131 9.28558 55.8796 11.3878C56.0912 13.5412 56.9878 15.5676 58.6572 16.9734C60.5286 18.4185 62.5557 19.074 64.9133 18.847C67.0024 18.5041 68.7326 17.4868 70.0936 15.8709C71.4492 13.952 71.929 11.9824 71.7106 9.66899C71.2753 7.45485 70.1109 5.6612 68.2927 4.32329C65.0112 2.15604 60.6841 2.8349 58.0018 5.64575ZM13.4574 4.96589C13.1163 5.38963 13.0232 5.67762 13.0593 6.22352C13.1695 6.60771 13.3273 6.79864 13.5968 7.09277C13.6915 7.19639 13.7863 7.30002 13.8839 7.40679C14.4145 7.96462 14.9548 8.51175 15.501 9.05433C15.6219 9.17502 15.7428 9.29571 15.8674 9.42005C16.2496 9.8014 16.6323 10.1822 17.015 10.563C17.2759 10.8232 17.5367 11.0834 17.7976 11.3436C18.4335 11.9779 19.0698 12.6117 19.7065 13.2452C20.1645 12.8846 20.5732 12.5401 20.9451 12.0904C21.0595 11.9532 21.0595 11.9532 21.1762 11.8133C21.2321 11.7449 21.288 11.6766 21.3456 11.6061C21.1276 11.1063 20.8502 10.7721 20.4694 10.384C20.3505 10.2622 20.2316 10.1404 20.1091 10.0149C19.9802 9.88481 19.8514 9.75471 19.7187 9.62068C19.586 9.48627 19.4533 9.35187 19.3165 9.21339C19.0355 8.92952 18.7541 8.64607 18.4721 8.36309C18.112 8.00133 17.7548 7.6369 17.3981 7.27175C17.056 6.92278 16.7108 6.57698 16.366 6.23072C16.175 6.03423 16.175 6.03423 15.9802 5.83377C15.2751 5.09752 15.2751 5.09752 14.3547 4.72968C13.8829 4.72187 13.8829 4.72187 13.4574 4.96589ZM29.12 5.95948C28.8864 6.33637 28.8785 6.61887 28.8554 7.06133C28.8458 7.23424 28.8361 7.40715 28.8262 7.5853C28.8163 7.78119 28.8063 7.97708 28.796 8.1789C28.7801 8.40037 28.7637 8.62181 28.7469 8.84322C28.3833 12.0055 28.3833 12.0055 29.3222 14.8994C29.8642 15.4895 30.4725 15.9943 31.1802 16.3744C31.2293 16.3744 31.2785 16.3744 31.3292 16.3744C31.343 15.0441 31.3536 13.7139 31.36 12.3836C31.3632 11.7659 31.3674 11.1482 31.3741 10.5305C31.3806 9.9344 31.3842 9.33832 31.3857 8.74217C31.3868 8.51474 31.389 8.28732 31.3922 8.05991C31.3965 7.7413 31.3971 7.42289 31.3968 7.10426C31.3982 6.92293 31.3995 6.7416 31.4008 6.55478C31.3151 6.00207 31.1758 5.82823 30.7331 5.49674C30.0829 5.36951 29.612 5.49844 29.12 5.95948ZM9.80666 8.58868C9.50024 9.01707 9.50024 9.01707 9.42482 9.51998C9.74932 10.5932 10.464 11.2318 11.2519 12.0013C11.3869 12.1355 11.5219 12.2696 11.6609 12.4078C12.0178 12.7619 12.3759 13.1146 12.7346 13.4667C13.1013 13.8273 13.4662 14.1895 13.8314 14.5517C14.5464 15.2602 15.2632 15.9669 15.9812 16.6724C16.5226 16.4197 16.8672 16.1154 17.2851 15.6852C17.4041 15.5635 17.5232 15.4417 17.6459 15.3162C17.7358 15.2229 17.8257 15.1295 17.9183 15.0333C17.7015 14.5348 17.4277 14.2077 17.0441 13.8248C16.9257 13.706 16.8074 13.5872 16.6855 13.4648C16.5576 13.338 16.4296 13.2112 16.2979 13.0805C16.1667 12.9494 16.0355 12.8183 15.9004 12.6832C15.5522 12.3356 15.2034 11.9887 14.8542 11.642C14.5691 11.3585 14.2847 11.0741 14.0004 10.7897C13.6615 10.4508 13.3219 10.1126 12.9824 9.77435C12.8545 9.64661 12.7266 9.51887 12.5948 9.38727C12.4765 9.26987 12.3581 9.15247 12.2362 9.03152C12.0797 8.87589 12.0797 8.87589 11.9201 8.71711C11.4633 8.29535 11.0808 8.27758 10.4638 8.28542C10.1363 8.3097 10.1363 8.3097 9.80666 8.58868ZM6.39808 11.9041C6.08927 12.2701 6.03085 12.6077 5.9656 13.0764C6.03678 13.783 6.55868 14.2902 7.04253 14.771C7.16183 14.8903 7.28113 15.0095 7.40404 15.1324C7.53211 15.259 7.66018 15.3855 7.79213 15.5159C7.92379 15.6471 8.05546 15.7783 8.19111 15.9136C8.53966 16.2607 8.88883 16.6072 9.23834 16.9534C9.59547 17.3075 9.95175 17.6624 10.3081 18.0173C11.0063 18.7122 11.7053 19.4062 12.405 20.0996C12.9464 19.8469 13.2909 19.5426 13.7088 19.1124C13.8279 18.9907 13.947 18.8689 14.0697 18.7434C14.1596 18.6501 14.2495 18.5567 14.3421 18.4605C13.6551 17.6363 12.9247 16.8723 12.1652 16.1148C12.0448 15.9943 11.9244 15.8737 11.8003 15.7495C11.5476 15.4966 11.2946 15.2439 11.0414 14.9914C10.6528 14.6035 10.2649 14.2149 9.87709 13.8261C9.63092 13.58 9.38471 13.334 9.13845 13.0881C8.96407 12.9132 8.96407 12.9132 8.78616 12.7349C8.67869 12.6278 8.57122 12.5208 8.46049 12.4106C8.3659 12.3161 8.27132 12.2217 8.17386 12.1243C7.83756 11.8146 7.67012 11.758 7.20831 11.7179C6.75175 11.7292 6.75175 11.7292 6.39808 11.9041ZM23.6486 12.7119C23.4988 12.8619 23.4988 12.8619 23.346 13.0149C23.2317 13.129 23.1174 13.2431 22.9996 13.3607C22.8734 13.4875 22.7471 13.6143 22.617 13.7449C22.4848 13.8772 22.3525 14.0094 22.2162 14.1457C21.8523 14.5096 21.4888 14.8739 21.1255 15.2383C20.7461 15.6186 20.3663 15.9985 19.9865 16.3784C19.2669 17.0985 18.5477 17.8189 17.8287 18.5395C17.0102 19.3596 16.1914 20.1793 15.3725 20.9989C13.6875 22.6855 12.003 24.3726 10.3189 26.06C10.8957 26.7489 11.493 27.4058 12.1275 28.0417C12.2142 28.1291 12.3008 28.2164 12.3901 28.3064C12.6734 28.592 12.9574 28.877 13.2414 29.1618C13.3392 29.26 13.437 29.3582 13.5378 29.4594C14.0548 29.9787 14.5723 30.4976 15.0902 31.0161C15.6223 31.549 16.1529 32.0832 16.6833 32.6178C17.094 33.0314 17.5058 33.4439 17.9178 33.8562C18.1138 34.0526 18.3095 34.2494 18.5047 34.4466C20.7635 36.7546 20.7635 36.7546 23.7856 37.5989C25.1798 37.5633 26.0414 37.181 27.0079 36.1926C26.9315 36.1175 26.8551 36.0424 26.7763 35.965C26.0514 35.2522 25.328 34.5378 24.6062 33.8218C24.2352 33.4539 23.8637 33.0866 23.4908 32.7205C23.0608 32.2983 22.6333 31.8736 22.2058 31.4488C22.0736 31.3196 21.9413 31.1904 21.805 31.0572C20.4287 29.6814 19.5699 28.3654 19.5016 26.386C19.5276 24.9423 19.9385 23.9322 20.9294 22.8842C22.1083 21.7747 23.3466 21.6553 24.8909 21.6927C26.9627 21.8037 28.2132 23.3678 29.5876 24.7509C29.7149 24.8784 29.8422 25.006 29.9734 25.1373C30.376 25.5408 30.7781 25.9447 31.1802 26.3487C31.4547 26.624 31.7292 26.8992 32.0038 27.1744C32.6734 27.8456 33.3425 28.5172 34.0113 29.1892C34.9993 28.2145 35.4301 27.4222 35.5055 26.0193C35.4807 23.5473 33.6124 22.0014 31.9782 20.3872C31.7492 20.1589 31.5203 19.9305 31.2915 19.702C30.8143 19.226 30.3362 18.7509 29.8573 18.2766C29.242 17.6672 28.6284 17.0562 28.0153 16.4446C27.4307 15.8615 26.8454 15.2792 26.2599 14.6969C26.1478 14.5853 26.0358 14.4737 25.9203 14.3587C25.6053 14.0455 25.2899 13.7328 24.9743 13.4203C24.833 13.2796 24.833 13.2796 24.6888 13.1361C24.214 12.5158 24.214 12.5158 23.6486 12.7119ZM2.88705 15.648C2.54296 16.0489 2.54296 16.0489 2.48659 16.5141C2.69679 17.6585 3.70317 18.4402 4.49588 19.223C4.62403 19.3508 4.75218 19.4785 4.8842 19.6101C5.2919 20.0161 5.70062 20.4211 6.10937 20.8261C6.3867 21.1019 6.66396 21.3778 6.94115 21.6537C7.61925 22.3286 8.29819 23.0025 8.9778 23.6758C9.51915 23.4232 9.86373 23.1189 10.2816 22.6887C10.4007 22.5669 10.5198 22.4451 10.6425 22.3196C10.7324 22.2263 10.8223 22.1329 10.9149 22.0368C10.7005 21.547 10.4356 21.2218 10.0591 20.8443C9.94466 20.729 9.83026 20.6136 9.71239 20.4948C9.52683 20.3101 9.52683 20.3101 9.33751 20.1217C9.21036 19.9943 9.08321 19.8669 8.9522 19.7356C8.68326 19.4664 8.41394 19.1977 8.14428 18.9292C7.73144 18.518 7.32022 18.1052 6.90913 17.6922C6.64769 17.431 6.38615 17.1698 6.12451 16.9087C6.0014 16.785 5.8783 16.6613 5.75146 16.5339C5.63612 16.4195 5.52078 16.3051 5.40194 16.1872C5.30093 16.0864 5.19991 15.9856 5.09584 15.8818C4.66778 15.5096 4.3324 15.3496 3.77179 15.2661C3.28934 15.2982 3.28934 15.2982 2.88705 15.648ZM56.8097 18.4605C56.7679 21.7039 56.7364 24.9471 56.7171 28.1907C56.7079 29.6968 56.6953 31.2027 56.6748 32.7087C56.657 34.0215 56.6455 35.3341 56.6415 36.6471C56.6391 37.3422 56.6337 38.0369 56.6207 38.7319C56.6085 39.3866 56.6048 40.0408 56.6075 40.6956C56.607 40.9354 56.6034 41.1753 56.5966 41.415C56.5769 42.1372 56.5869 42.7984 56.8097 43.4941C57.3431 44.0382 57.9189 44.353 58.5978 44.6861C60.8111 46.2167 62.1425 48.9637 62.6211 51.5406C62.6405 51.6437 62.6599 51.7468 62.6799 51.8531C62.7251 52.1471 62.7518 52.4357 62.7701 52.7326C62.778 52.8602 62.7858 52.9877 62.7939 53.1191C62.9056 56.7321 61.3804 59.6233 59.0449 62.2692C58.8967 62.4191 58.7479 62.5683 58.5978 62.7162C59.3475 62.7312 60.0971 62.7419 60.847 62.749C61.1012 62.7519 61.3553 62.756 61.6095 62.7612C64.2101 62.8131 66.5075 62.3685 68.479 60.5183C70.1779 58.6852 70.842 56.6441 70.8345 54.1911C70.8346 54.0382 70.8347 53.8853 70.8349 53.7278C70.8351 53.2157 70.8343 52.7037 70.8335 52.1917C70.8334 51.8245 70.8335 51.4574 70.8335 51.0902C70.8336 50.2999 70.8332 49.5096 70.8323 48.7193C70.8311 47.5767 70.8307 46.434 70.8305 45.2914C70.8302 43.4374 70.8292 41.5834 70.8278 39.7295C70.8264 37.9287 70.8254 36.128 70.8248 34.3273C70.8247 34.1608 70.8247 34.1608 70.8246 33.9908C70.8244 33.4338 70.8243 32.8767 70.8241 32.3197C70.8225 27.7 70.8199 23.0802 70.8166 18.4605C70.7243 18.522 70.6321 18.5835 70.5371 18.6469C70.4161 18.7275 70.2952 18.8081 70.1707 18.8912C70.0508 18.9711 69.9309 19.0511 69.8073 19.1334C67.3225 20.7894 64.5364 21.4816 61.5576 20.8918C59.9357 20.4541 58.4941 19.7314 57.2038 18.6573C56.9917 18.445 56.9917 18.445 56.8097 18.4605ZM22.2489 24.8772C21.8858 25.3944 21.7666 25.776 21.746 26.3953C21.7404 26.5036 21.7349 26.6119 21.7291 26.7236C21.886 27.662 22.5343 28.3457 23.1925 28.9884C23.3065 29.101 23.3065 29.101 23.4229 29.2159C23.6638 29.4533 23.9062 29.6892 24.1488 29.9249C24.467 30.2361 24.7845 30.548 25.1016 30.8603C25.2162 30.9729 25.2161 30.9729 25.333 31.0878C25.8416 31.5911 26.3201 32.1111 26.7837 32.6557C27.1338 33.0597 27.5114 33.4341 27.8926 33.8085C27.9661 33.8813 28.0396 33.9541 28.1153 34.0291C28.2922 34.2042 28.4695 34.3789 28.647 34.5535C29.1694 34.3298 29.5092 34.0277 29.9101 33.628C30.0346 33.5039 30.159 33.3799 30.2873 33.252C30.4803 33.0572 30.4803 33.0572 30.6772 32.8585C30.8071 32.7298 30.9369 32.6011 31.0707 32.4686C31.1948 32.3441 31.3189 32.2196 31.4467 32.0914C31.56 31.9778 31.6733 31.8642 31.7899 31.7472C32.0547 31.4465 32.2029 31.1868 32.3722 30.8283C31.5372 29.9794 30.7005 29.1321 29.8617 28.2869C29.4722 27.8943 29.0833 27.5012 28.6957 27.1068C28.3212 26.7258 27.9452 26.3463 27.5682 25.9677C27.425 25.8235 27.2824 25.6787 27.1403 25.5334C25.9348 24.2967 25.9348 24.2967 24.335 23.7597C23.4919 23.8801 22.8079 24.2294 22.2489 24.8772ZM35.3977 31.3452C35.2994 31.445 35.2011 31.5449 35.0998 31.6478C34.9399 31.8092 34.9399 31.8092 34.7767 31.9738C34.6099 32.1444 34.6099 32.1444 34.4397 32.3184C34.3274 32.4321 34.215 32.5458 34.0992 32.663C33.8209 32.9448 33.5433 33.2273 33.2663 33.5105C33.8508 34.2113 34.4599 34.8728 35.1103 35.5128C35.1915 35.5933 35.2728 35.6739 35.3565 35.7569C35.5535 35.9522 35.7509 36.147 35.9484 36.3416C36.9037 35.5562 37.7643 34.6889 38.6306 33.8085C38.0704 33.1082 37.4625 32.4885 36.8052 31.8807C36.7261 31.8067 36.6469 31.7326 36.5653 31.6564C36.0217 31.0845 36.0217 31.0845 35.3977 31.3452ZM40.8475 34.8512C40.7602 34.939 40.673 35.0268 40.5831 35.1172C40.4915 35.2088 40.3999 35.3004 40.3056 35.3947C40.0013 35.6991 39.6975 36.0041 39.3937 36.309C39.1835 36.5195 38.9732 36.73 38.7629 36.9404C38.2082 37.4957 37.654 38.0514 37.0998 38.6072C36.5348 39.1738 35.9693 39.7399 35.4039 40.3061C34.2936 41.418 33.1838 42.5304 32.0742 43.6431C32.309 44.1385 32.5632 44.465 32.9555 44.8514C33.0688 44.9638 33.1821 45.0762 33.2989 45.1919C33.4172 45.3078 33.5355 45.4236 33.6574 45.5429C33.8366 45.7201 33.8366 45.7201 34.0195 45.9009C34.3141 46.192 34.6094 46.4825 34.9054 46.7723C35.5812 46.2065 36.2256 45.6223 36.8465 44.997C36.9295 44.9141 37.0125 44.8311 37.098 44.7456C37.3685 44.4751 37.6384 44.204 37.9083 43.9329C38.0972 43.7438 38.2861 43.5546 38.4751 43.3655C38.9695 42.8705 39.4635 42.3751 39.9573 41.8795C40.4625 41.3728 40.9681 40.8665 41.4737 40.3602C42.4635 39.3688 43.4529 38.3769 44.442 37.3847C44.2079 36.8915 43.9547 36.5628 43.566 36.1763C43.4533 36.0639 43.3406 35.9516 43.2246 35.8358C43.1069 35.72 42.9893 35.6042 42.8681 35.4848C42.7498 35.3667 42.6316 35.2486 42.5098 35.1269C41.7076 34.1815 41.7076 34.1815 40.8475 34.8512ZM31.0765 35.6664C30.9781 35.7663 30.8798 35.8662 30.7785 35.9691C30.6186 36.1305 30.6186 36.1305 30.4555 36.2951C30.2887 36.4656 30.2887 36.4656 30.1185 36.6396C30.0061 36.7534 29.8937 36.8671 29.778 36.9842C29.4996 37.2661 29.222 37.5486 28.945 37.8317C29.1527 38.3014 29.3957 38.6158 29.7611 38.9749C29.9109 39.1233 29.9109 39.1233 30.0637 39.2747C30.1679 39.3763 30.272 39.4779 30.3792 39.5826C30.4845 39.6865 30.5898 39.7904 30.6982 39.8975C30.9575 40.1533 31.2175 40.4084 31.4782 40.6629C31.9317 40.4605 32.2416 40.2331 32.5888 39.8794C32.681 39.7863 32.7732 39.6931 32.8681 39.5971C32.9627 39.5001 33.0572 39.4031 33.1545 39.3032C33.2513 39.205 33.3481 39.1069 33.4479 39.0057C33.6861 38.7641 33.9235 38.5217 34.1603 38.2787C33.9537 37.8139 33.713 37.4952 33.3548 37.1356C33.2562 37.0366 33.1577 36.9377 33.0562 36.8358C32.9534 36.7342 32.8506 36.6326 32.7447 36.5279C32.642 36.424 32.5392 36.3201 32.4333 36.213C32.3348 36.1148 32.2363 36.0167 32.1347 35.9156C32.0446 35.8257 31.9544 35.7359 31.8615 35.6433C31.5226 35.3602 31.4078 35.3794 31.0765 35.6664ZM45.5878 39.48C45.4556 39.6137 45.4556 39.6137 45.3208 39.7502C45.1812 39.8897 45.1812 39.8897 45.0388 40.0321C44.7301 40.341 44.4225 40.6509 44.1148 40.9609C43.9015 41.1748 43.6881 41.3886 43.4747 41.6023C42.9121 42.1661 42.3503 42.7307 41.7888 43.2956C41.216 43.8714 40.6424 44.4464 40.0689 45.0214C38.9429 46.1506 37.8179 47.2807 36.6935 48.4114C36.9472 48.8382 37.1966 49.2497 37.5061 49.6384C37.5733 49.7233 37.6406 49.8083 37.7099 49.8958C37.8153 50.0277 37.8153 50.0277 37.9228 50.1622C38.0689 50.3465 38.215 50.5308 38.3611 50.7152C38.4322 50.8046 38.5033 50.8941 38.5765 50.9863C38.8544 51.337 39.1292 51.69 39.4036 52.0435C39.5266 52.2019 39.5266 52.2019 39.6521 52.3636C39.7084 52.4362 39.7647 52.5088 39.8227 52.5836C40.1593 52.0787 40.2606 51.6092 40.3908 51.0283C41.138 47.9077 42.8917 45.3658 45.634 43.6431C47.1989 42.7677 48.7846 42.3826 50.5513 42.153C50.0006 41.5794 49.42 41.0833 48.7912 40.5977C48.6994 40.5264 48.6076 40.4551 48.5131 40.3816C48.3316 40.2408 48.1499 40.1003 47.968 39.96C47.7546 39.7954 47.542 39.6297 47.3296 39.4638C46.4847 38.8127 46.3558 38.7159 45.5878 39.48ZM44.74 47.5173C44.6449 47.6072 44.5498 47.6971 44.4519 47.7897C43.8608 48.3952 43.4889 49.0602 43.1288 49.8176C43.0639 49.9537 43.0639 49.9537 42.9977 50.0924C42.0999 52.0885 42.0185 54.5574 42.765 56.6098C42.8575 56.8296 42.8575 56.8296 42.9519 57.0539C43.0467 57.2806 43.0467 57.2806 43.1434 57.512C44.0849 59.5602 45.5728 61.2041 47.6911 62.0655C50.0291 62.9161 52.5348 63.1184 54.8726 62.1202C55.0032 62.068 55.1338 62.0157 55.2684 61.9619C56.2961 61.5051 57.0618 60.8225 57.8528 60.0341C57.9607 59.9296 58.0687 59.8251 58.1799 59.7174C59.8176 58.0237 60.4653 55.7138 60.4488 53.4035C60.3636 50.8948 59.3398 48.8076 57.5548 47.0703C55.5488 45.2417 53.4439 44.5732 50.7911 44.6396C48.3634 44.7611 46.4337 45.8323 44.74 47.5173Z" fill="white"/>
<path d="M67.5038 23.8435C68.3008 24.5134 68.7592 25.3626 69.0283 26.358C69.0718 26.8682 69.0705 27.3764 69.0692 27.8882C69.07 28.0402 69.0707 28.1922 69.0715 28.3489C69.0736 28.8504 69.0734 29.3518 69.0731 29.8533C69.0737 30.203 69.0743 30.5526 69.075 30.9022C69.0761 31.6349 69.0761 32.3675 69.0753 33.1001C69.0745 34.0371 69.077 34.974 69.0804 35.9109C69.0826 36.6331 69.0828 37.3552 69.0823 38.0774C69.0824 38.4227 69.0832 38.768 69.0847 39.1134C69.0865 39.5973 69.0855 40.0811 69.0838 40.565C69.0855 40.7772 69.0855 40.7772 69.0872 40.9937C69.0765 42.3666 68.7704 43.4205 67.8222 44.4289C66.8637 45.297 65.8856 45.4945 64.622 45.4818C63.4808 45.3687 62.6339 44.8197 61.9137 43.9469C61.2976 42.9451 61.2144 42.1428 61.2196 40.9846C61.2186 40.8252 61.2176 40.6659 61.2165 40.5018C61.2138 39.9769 61.2144 39.4521 61.2152 38.9272C61.2145 38.561 61.2137 38.1949 61.2128 37.8288C61.2115 37.062 61.2119 36.2952 61.2133 35.5283C61.2151 34.5475 61.212 33.5666 61.2077 32.5858C61.205 31.8297 61.205 31.0737 61.2059 30.3177C61.2059 29.9562 61.205 29.5946 61.2031 29.2331C61.2009 28.7267 61.2025 28.2204 61.205 27.714C61.2036 27.5658 61.2022 27.4176 61.2007 27.2649C61.2123 26.1546 61.4687 25.2789 62.1256 24.3755C63.6565 22.9067 65.7044 22.6534 67.5038 23.8435ZM63.813 26.358C63.6431 26.6978 63.6445 26.8864 63.643 27.2639C63.6422 27.3911 63.6413 27.5183 63.6404 27.6494C63.6403 27.7893 63.6401 27.9292 63.6399 28.0733C63.6392 28.2204 63.6385 28.3674 63.6377 28.519C63.6355 29.0072 63.6345 29.4955 63.6337 29.9837C63.6328 30.3223 63.632 30.6608 63.6311 30.9994C63.6295 31.71 63.6287 32.4206 63.6282 33.1313C63.6273 34.0422 63.6238 34.9532 63.6195 35.8641C63.6167 36.5638 63.616 37.2634 63.6157 37.963C63.6153 38.2988 63.6141 38.6347 63.6121 38.9705C63.6096 39.4403 63.6099 39.9101 63.6108 40.3799C63.6088 40.5884 63.6088 40.5884 63.6067 40.801C63.6113 41.5234 63.6368 42.0159 64.111 42.6C64.5358 42.9444 64.7538 43.047 65.3031 43.047C65.893 42.8504 66.1152 42.6489 66.4951 42.153C66.6044 41.6501 66.5954 41.1569 66.5892 40.644C66.5902 40.4925 66.5913 40.341 66.5924 40.1848C66.5949 39.6845 66.592 39.1843 66.5888 38.6839C66.589 38.3359 66.5893 37.988 66.5899 37.6401C66.5904 36.911 66.5882 36.1821 66.5841 35.453C66.579 34.5185 66.5799 33.5841 66.5827 32.6496C66.5843 31.9311 66.5829 31.2128 66.5807 30.4943C66.5799 30.1498 66.58 29.8052 66.5809 29.4606C66.5817 28.979 66.5787 28.4976 66.5746 28.016C66.5756 27.8736 66.5766 27.7311 66.5776 27.5844C66.5684 26.9481 66.553 26.6001 66.2108 26.0495C65.844 25.7112 65.6855 25.6245 65.1913 25.5571C64.517 25.6349 64.2947 25.8875 63.813 26.358Z" fill="white"/>
<path d="M55.8399 48.1267C57.1606 49.1327 57.9255 50.5325 58.2997 52.1366C58.5144 54.3287 58.2429 56.1282 56.9586 57.9479C56.8756 58.0739 56.7927 58.1999 56.7072 58.3298C55.5839 59.5138 54.003 60.4154 52.3585 60.5166C50.0459 60.5733 48.2212 60.1635 46.4954 58.5288C44.9697 56.9177 44.5094 55.1849 44.5443 53.0085C44.6921 51.187 45.4542 49.6199 46.826 48.4113C49.5042 46.1578 52.9867 46.2124 55.8399 48.1267ZM48.1671 50.4975C47.1491 51.6266 46.902 52.6392 46.929 54.1523C47.0404 55.4052 47.6871 56.3735 48.6141 57.2029C49.8697 58.0448 50.9788 58.2591 52.4883 58.0969C53.7423 57.6868 54.8104 56.9829 55.5093 55.8531C56.058 54.7615 56.2119 53.593 55.9062 52.4067C55.4727 51.1725 54.588 50.2077 53.5314 49.4544C51.5967 48.5282 49.6537 49.0706 48.1671 50.4975Z" fill="white"/>
<path d="M66.1692 7.49207C67.1526 8.21563 67.7538 9.06036 67.9852 10.265C68.1526 11.4343 67.8515 12.5973 67.1645 13.5601C66.4202 14.3684 65.5981 14.8107 64.508 14.946C63.1483 15.0021 62.1555 14.7723 61.1215 13.8715C60.3146 13.031 59.9397 12.1137 59.8735 10.9542C59.9188 9.87652 60.2745 8.83768 61.0097 8.03921C62.4581 6.76808 64.475 6.50009 66.1692 7.49207ZM62.4719 10.116C62.3616 10.585 62.3697 10.9871 62.4719 11.4571C62.7392 11.8848 62.9163 12.1264 63.3659 12.3512C64.1105 12.4074 64.5566 12.365 65.154 11.9041C65.5201 11.355 65.5565 10.9028 65.4521 10.265C65.1848 9.84631 65.0022 9.59309 64.558 9.37098C63.5806 9.27324 63.1079 9.33691 62.4719 10.116Z" fill="white"/>
</svg>
