<svg id="sert-ico1" width="20" height="26" viewBox="0 0 20 26" fill="none" xmlns="http://www.w3.org/2000/svg">
<path d="M19.5971 3.75032L10.4109 0.61976C10.3 0.581912 10.1513 0.562988 10.0026 0.562988C9.85396 0.562988 9.70527 0.581912 9.59443 0.61976L0.408216 3.75032C0.183833 3.82601 0 4.08554 0 4.32344V17.3647C0 17.6026 0.154095 17.9162 0.340631 18.0649L9.65931 25.3263C9.75393 25.3993 9.87559 25.4371 9.99994 25.4371C10.1243 25.4371 10.2487 25.3993 10.3406 25.3263L19.6593 18.0649C19.8458 17.9189 19.9999 17.6053 19.9999 17.3647V4.32344C20.0053 4.08554 19.8215 3.82872 19.5971 3.75032ZM18.0588 16.8457L10.0026 23.123L1.94646 16.8457V5.28586L10.0026 2.53919L18.0588 5.28586V16.8457Z" fill="#155DFC"/>
<path d="M7.08842 11.4118C7.00732 11.301 6.87756 11.2334 6.73698 11.2334H5.24469C5.06897 11.2334 4.96624 11.4334 5.06897 11.5767L8.48609 16.2807C8.5265 16.336 8.57938 16.3809 8.64045 16.412C8.70152 16.443 8.76904 16.4591 8.83753 16.4591C8.90603 16.4591 8.97355 16.443 9.03462 16.412C9.09569 16.3809 9.14857 16.336 9.18898 16.2807L14.9364 8.36775C15.0392 8.22447 14.9364 8.02441 14.7607 8.02441H13.2684C13.1306 8.02441 12.9981 8.092 12.917 8.20284L8.83753 13.8205L7.08842 11.4118Z" fill="#155DFC"/>
</svg>
