<svg id="shoes" width="74" height="74" viewBox="0 0 74 74" fill="none" xmlns="http://www.w3.org/2000/svg">
<path d="M42.7697 0.543991C43.0248 0.719832 43.0248 0.719832 43.229 1.00343C43.288 1.40876 43.288 1.40876 43.2913 1.90376C43.2943 2.08938 43.2973 2.275 43.3004 2.46624C43.3011 2.56587 43.3019 2.66549 43.3027 2.76814C43.3077 3.3105 43.322 3.8526 43.3367 4.39477C43.3397 4.5078 43.3428 4.62083 43.3459 4.73729C43.3802 5.88273 43.4686 7.02199 43.5736 8.16299C43.583 8.26688 43.5923 8.37077 43.602 8.47781C43.7184 9.76135 43.8497 11.043 43.9893 12.3243C44.8312 20.0701 45.1475 27.7349 42.7721 35.2728C42.6951 35.5177 42.6951 35.5177 42.6166 35.7675C42.5791 35.8688 42.5416 35.97 42.5031 36.0743C42.4267 36.3886 42.4267 36.3886 42.6414 36.625C42.7263 36.7047 42.8113 36.7844 42.8989 36.8665C43.4763 37.4928 43.5396 38.0321 43.6119 38.8592C43.8135 40.4869 44.2774 41.909 45.5313 43.0396C46.1108 43.4867 46.7149 43.8521 47.3634 44.1905C47.4933 44.2585 47.6232 44.3264 47.757 44.3963C50.5605 45.7064 54.8289 46.3102 57.8344 45.4109C59.0828 44.9488 59.7744 44.4695 60.3789 43.2717C60.9326 42.1833 61.603 41.3752 62.7619 40.9075C63.3045 40.8187 63.8115 40.8155 64.3602 40.8213C64.3509 40.7325 64.3416 40.6437 64.3321 40.5522C64.0705 37.8915 64.0168 35.2333 64.008 32.5612C64.0067 32.1839 64.0047 31.8067 64.0018 31.4294C63.977 27.8234 64.3155 24.3344 65.0588 20.8071C65.1115 20.5499 65.1641 20.2927 65.2166 20.0354C65.5122 18.5937 65.821 17.1547 66.1319 15.7162C67.3727 10.0481 67.3727 10.0481 68.1661 4.30384C68.1764 4.1968 68.1867 4.08977 68.1973 3.97949C68.2458 3.46493 68.2903 2.95059 68.33 2.43524C68.3452 2.25413 68.3604 2.07301 68.3761 1.88641C68.388 1.72655 68.4 1.5667 68.4123 1.402C68.5037 0.958718 68.5887 0.804625 68.9539 0.543991C69.4857 0.464774 69.7579 0.466885 70.2082 0.769523C70.6129 1.3352 70.5367 1.85194 70.4851 2.51574C70.4759 2.65664 70.4666 2.79753 70.457 2.94269C70.107 7.68411 69.0941 12.3122 68.0962 16.9497C67.9609 17.5783 67.8257 18.2068 67.6906 18.8353C67.6575 18.9891 67.6245 19.1429 67.5904 19.3013C66.8459 22.7719 66.1761 26.2049 66.1719 29.7679C66.1713 29.9354 66.1707 30.1029 66.1701 30.2755C66.1686 30.814 66.1686 31.3525 66.1689 31.891C66.1688 32.0741 66.1687 32.2572 66.1686 32.4458C66.1688 35.4011 66.255 38.3358 66.5039 41.2808C66.605 41.2808 66.706 41.2808 66.8102 41.2808C66.803 41.1124 66.7959 40.944 66.7886 40.7705C66.7014 37.8548 66.7014 37.8548 67.6984 36.6631C68.4648 35.9352 69.1737 35.6659 70.2267 35.5665C71.609 35.6837 72.6155 36.0967 73.5476 37.1458C74.2372 38.3153 74.0121 39.7211 73.7007 40.9745C72.9516 43.3339 71.3995 45.0791 69.4133 46.4877C69.4587 47.6704 69.9347 48.5196 70.4851 49.5506C71.2482 50.9954 71.9393 52.3917 72.3226 53.9919C72.3741 54.2054 72.3741 54.2054 72.4267 54.4232C72.6815 55.7342 72.6367 57.0366 72.624 58.3667C72.6159 59.7419 72.7279 61.0575 72.9351 62.4149C72.9976 62.8315 73.0597 63.2482 73.1209 63.665C73.1615 63.9387 73.2033 64.2122 73.2466 64.4855C73.6427 67.101 73.0872 69.3817 71.5749 71.5594C70.7672 72.5438 69.75 73.1871 68.4945 73.4414C68.1819 73.4556 67.8689 73.4612 67.5559 73.4615C67.2653 73.4624 67.2653 73.4624 66.9688 73.4633C66.7533 73.4632 66.5378 73.463 66.3224 73.4629C66.0938 73.4633 65.8652 73.4638 65.6366 73.4643C65.0076 73.4655 64.3785 73.4658 63.7494 73.4659C63.0712 73.4662 62.393 73.4673 61.7148 73.4684C60.2309 73.4705 58.7471 73.4714 57.2632 73.472C56.3361 73.4725 55.409 73.4731 54.4819 73.4738C51.9137 73.4757 49.3456 73.4773 46.7774 73.4778C46.613 73.4778 46.4486 73.4778 46.2792 73.4779C46.1143 73.4779 45.9495 73.4779 45.7797 73.478C45.4458 73.478 45.1118 73.4781 44.7778 73.4782C44.5293 73.4782 44.5293 73.4782 44.2758 73.4783C41.5952 73.4789 38.9146 73.4816 36.234 73.4851C33.4802 73.4888 30.7263 73.4907 27.9725 73.4908C26.4271 73.491 24.8816 73.4919 23.3362 73.4946C22.0193 73.497 20.7024 73.4978 19.3854 73.4965C18.7143 73.4959 18.0432 73.4961 17.3721 73.4982C16.7559 73.5002 16.1397 73.5 15.5235 73.4981C15.3024 73.4978 15.0812 73.4983 14.86 73.4996C12.7007 73.512 10.5924 73.2112 8.54646 72.5034C8.41243 72.4574 8.27841 72.4115 8.14032 72.3641C5.22767 71.3272 2.58942 69.7207 0.966818 67.0093C0.201254 65.3564 0.0169002 64.0378 0.00979251 62.233C0.00663433 62.0355 0.00347615 61.838 0.000222261 61.6345C-0.00428956 60.5306 0.0563734 59.6006 0.507446 58.5862C0.567451 58.4473 0.627457 58.3083 0.68928 58.1651C1.50134 57.1569 2.70954 56.8672 3.91445 56.5666C9.59946 55.0524 14.9864 52.5814 20.2604 50.0101C20.4504 49.9176 20.6404 49.8251 20.8304 49.7326C22.1725 49.0787 23.5123 48.4203 24.8504 47.7584C25.3095 47.5313 25.7691 47.3054 26.2292 47.0803C26.7799 46.8109 27.3292 46.5389 27.8778 46.2651C28.082 46.1636 28.2866 46.063 28.4916 45.9633C31.0214 44.7317 32.6611 43.1308 33.6546 40.5031C34.2796 38.8649 35.0221 37.0392 36.6351 36.1695C37.879 35.6319 38.9781 35.5741 40.3197 35.6144C43.0282 28.3254 42.7487 20.592 41.8907 12.9985C41.7856 12.0573 41.6897 11.1151 41.5925 10.173C41.5644 9.90027 41.5644 9.90027 41.5356 9.62199C41.487 9.14848 41.4391 8.67491 41.3916 8.20128C41.3803 8.091 41.3691 7.98072 41.3575 7.8671C41.2253 6.52175 41.2201 5.17058 41.2118 3.81987C41.2104 3.60913 41.2087 3.3984 41.2065 3.18767C41.2037 2.88972 41.2034 2.59176 41.2031 2.2938C41.2025 2.11915 41.2019 1.9445 41.2012 1.76456C41.2377 1.31884 41.298 1.06605 41.5447 0.697137C41.9732 0.482833 42.2958 0.505299 42.7697 0.543991ZM36.8457 38.5911C36.2341 39.347 35.8788 40.2108 35.5728 41.1276C35.5318 41.249 35.4907 41.3704 35.4484 41.4955C35.3751 41.9097 35.3751 41.9097 35.6694 42.2304C35.8534 42.397 35.8534 42.397 36.0412 42.567C36.1729 42.6909 36.3047 42.8149 36.4404 42.9426C36.7224 43.1994 37.0048 43.4559 37.2874 43.712C38.422 44.7814 38.422 44.7814 38.4493 45.4121C38.3291 45.8751 38.3291 45.8751 37.8697 46.1814C37.2525 46.1721 36.9991 46.0692 36.5251 45.6664C36.3843 45.5177 36.2456 45.3671 36.1088 45.2147C35.5523 44.6158 35.0377 44.1582 34.3479 43.7311C34.294 43.8071 34.2401 43.8831 34.1846 43.9614C33.1853 45.3366 32.1371 46.229 30.6729 47.1003C30.8024 47.2488 30.9318 47.3972 31.0653 47.5502C31.2407 47.7576 31.4162 47.965 31.5916 48.1723C31.6923 48.2864 31.793 48.4005 31.8967 48.5181C32.6612 49.424 32.6612 49.424 32.6731 50.0867C32.5104 50.4695 32.5104 50.4695 32.2041 50.6227C31.7848 50.6873 31.7848 50.6873 31.2854 50.6227C30.9277 50.3365 30.6435 50.0753 30.3379 49.7421C30.2583 49.6596 30.1786 49.577 30.0966 49.492C29.6961 49.0725 29.3237 48.647 28.9885 48.1723C28.3757 48.2667 27.8959 48.4621 27.3442 48.7424C27.1809 48.8249 27.0175 48.9073 26.8493 48.9922C26.6804 49.0786 26.5115 49.1649 26.3376 49.2539C26.1657 49.3409 25.9939 49.4278 25.8169 49.5174C25.3935 49.7319 24.9705 49.9472 24.5479 50.1632C24.7616 50.7316 24.9529 51.0786 25.3997 51.4937C26.0674 52.1199 26.0674 52.1199 26.1079 52.7667C26.0792 53.2261 26.0792 53.2261 25.7729 53.5324C25.2848 53.6186 25.2848 53.6186 24.701 53.5324C24.2816 53.2277 23.9678 52.8504 23.6292 52.4604C23.5345 52.3522 23.4399 52.244 23.3424 52.1326C23.0807 51.8335 22.819 51.5344 22.5573 51.2352C21.0751 51.8945 19.5982 52.5626 18.132 53.2568C14.132 55.1493 10.0334 56.9682 5.76211 58.1567C5.66366 58.1842 5.5652 58.2116 5.46376 58.2399C4.98391 58.3729 4.50337 58.5019 4.02126 58.6264C3.84903 58.6726 3.6768 58.7188 3.49935 58.7663C3.27007 58.8253 3.27007 58.8253 3.03616 58.8855C2.58655 59.0726 2.43578 59.2423 2.19181 59.6583C2.01008 60.2035 2.02385 60.6442 2.02912 61.2184C2.0305 61.4133 2.03188 61.6081 2.0333 61.8089C2.03508 61.9583 2.03686 62.1078 2.03869 62.2617C5.93357 64.0624 9.85408 64.3236 14.0959 64.3048C14.5113 64.3044 14.9267 64.3047 15.342 64.305C16.2289 64.3052 17.1157 64.3038 18.0026 64.3012C19.2848 64.2975 20.567 64.2963 21.8492 64.2957C23.9305 64.2947 26.0118 64.2917 28.0931 64.2873C30.1125 64.2831 32.1318 64.2798 34.1512 64.2779C34.2761 64.2778 34.401 64.2776 34.5297 64.2775C35.1564 64.2769 35.7831 64.2763 36.4097 64.2758C41.5922 64.271 46.7747 64.2629 51.9571 64.2526C52.0534 64.012 52.1496 63.7713 52.2459 63.5307C52.2995 63.3966 52.3531 63.2626 52.4083 63.1245C52.5126 62.8638 52.6167 62.603 52.7208 62.3422C54.9767 56.694 58.6851 52.154 64.3602 49.7038C65.4229 49.2713 66.4973 48.87 67.5758 48.4786C67.1941 45.4212 67.1941 45.4212 65.5852 42.9654C65.1753 42.7604 64.8464 42.7807 64.3889 42.7739C64.23 42.77 64.0711 42.766 63.9074 42.762C63.3566 42.8214 63.1068 42.9236 62.6758 43.2717C62.4371 43.6256 62.2329 43.9595 62.0346 44.3341C61.9822 44.4292 61.9298 44.5242 61.8758 44.6222C61.6688 44.9996 61.4685 45.3743 61.2995 45.7705C61.0948 46.1111 60.8942 46.1792 60.5321 46.3346C60.4174 46.4055 60.3027 46.4763 60.1845 46.5493C57.2297 48.3334 53.5168 47.8535 50.2728 47.2535C50.1606 47.233 50.0485 47.2124 49.9329 47.1913C47.3671 46.6984 44.8034 45.505 43.1333 43.4314C42.2341 42.0951 41.7346 40.7765 41.65 39.175C41.5995 38.5055 41.5995 38.5055 41.1906 37.969C39.7596 37.2367 37.9688 37.4267 36.8457 38.5911ZM69.2601 38.0647C68.8336 38.7667 68.7457 39.2779 68.7625 40.0939C68.7642 40.1977 68.7658 40.3016 68.7676 40.4086C68.7939 41.6705 68.8723 42.9312 68.9539 44.1905C70.4474 43.0016 71.649 41.5327 71.9314 39.5854C71.9566 38.9568 71.9484 38.5201 71.6336 37.969C70.8135 37.5179 69.9965 37.4124 69.2601 38.0647ZM58.9913 55.6382C56.6892 58.0251 55.0095 61.0719 54.1009 64.2526C59.7098 64.2526 65.3187 64.2526 71.0976 64.2526C70.946 62.9639 70.946 62.9639 70.7914 61.6492C70.6604 60.4497 70.6347 59.2937 70.6574 58.0885C70.6799 55.2242 69.9911 52.8493 68.6476 50.3164C65.2848 50.3164 61.2509 53.4824 58.9913 55.6382ZM2.19181 64.5589C2.98584 66.9216 4.60301 68.4322 6.77424 69.5667C7.66024 70.006 8.56763 70.3574 9.50348 70.6752C9.62996 70.7184 9.75643 70.7617 9.88674 70.8062C11.6934 71.3863 13.5015 71.496 15.3875 71.4914C15.6157 71.492 15.8439 71.4927 16.0722 71.4936C16.6938 71.4954 17.3155 71.4954 17.9371 71.495C18.6096 71.495 19.2821 71.4967 19.9546 71.4981C21.2697 71.5006 22.5848 71.5015 23.8998 71.5017C24.9686 71.5018 26.0374 71.5024 27.1062 71.5034C30.1387 71.5061 33.1712 71.5075 36.2037 71.5073C36.3669 71.5073 36.5301 71.5073 36.6983 71.5072C36.9434 71.5072 36.9434 71.5072 37.1935 71.5072C39.8452 71.5071 42.4969 71.51 45.1487 71.5143C47.8737 71.5187 50.5986 71.5209 53.3236 71.5206C54.8527 71.5205 56.3817 71.5213 57.9107 71.5246C59.2116 71.5274 60.5124 71.5281 61.8132 71.526C62.4767 71.525 63.1402 71.525 63.8037 71.5276C64.4113 71.53 65.0189 71.5296 65.6264 71.5269C65.846 71.5265 66.0655 71.527 66.2851 71.5287C67.6031 71.5383 68.6424 71.5219 69.6703 70.6098C70.6124 69.6665 71.2219 68.2888 71.3388 66.9751C71.3576 66.7693 71.3576 66.7693 71.3768 66.5593C71.3857 66.4551 71.3947 66.3509 71.4039 66.2435C71.2106 66.2433 71.2106 66.2433 71.0134 66.2431C63.3643 66.2341 55.7151 66.2228 48.066 66.2085C47.1461 66.2067 46.2262 66.205 45.3062 66.2033C45.1231 66.203 44.94 66.2027 44.7513 66.2023C41.7922 66.1969 38.833 66.1931 35.8739 66.1899C32.834 66.1865 29.7942 66.1815 26.7543 66.1748C24.8809 66.1708 23.0075 66.1681 21.1341 66.1671C19.8468 66.1663 18.5594 66.1638 17.272 66.16C16.531 66.1578 15.79 66.1564 15.049 66.157C7.44441 66.1619 7.44441 66.1619 4.3834 65.1524C4.12447 65.072 3.86548 64.9918 3.60641 64.9119C3.49304 64.8761 3.37966 64.8403 3.26286 64.8035C2.90945 64.6977 2.5556 64.6197 2.19181 64.5589Z" fill="white"/>
</svg>
