<svg id="sistem" width="18" height="18" viewBox="0 0 18 18" fill="none" xmlns="http://www.w3.org/2000/svg">
<path d="M16.1199 5.25678L15.7399 4.59756C15.453 4.09911 15.3091 3.84988 15.0653 3.75142C14.8207 3.65142 14.5445 3.72988 13.9922 3.8868L13.0538 4.15065C12.7007 4.23218 12.3307 4.18603 12.0084 4.02065L11.7492 3.87142C11.4729 3.69424 11.2605 3.43332 11.143 3.12682L10.8861 2.35991C10.7169 1.85222 10.6323 1.59838 10.4323 1.45223C10.23 1.30762 9.96229 1.30762 9.42845 1.30762H8.57155C8.03694 1.30762 7.77002 1.30762 7.56926 1.453C7.36772 1.59838 7.28388 1.85222 7.11465 2.35991L6.85773 3.12682C6.74029 3.43332 6.52789 3.69424 6.25159 3.87142L5.99236 4.02065C5.67015 4.18591 5.29998 4.23221 4.94699 4.15141L4.00855 3.8868C3.45625 3.72988 3.1801 3.65142 2.93549 3.75065C2.69165 3.85065 2.5478 4.09911 2.26088 4.59756L1.88089 5.25678C1.61166 5.7237 1.47705 5.95677 1.50397 6.20599C1.52936 6.45445 1.70936 6.65445 2.07012 7.05521L2.86241 7.94212C3.05702 8.1875 3.19471 8.61518 3.19471 8.99979C3.19471 9.3844 3.05626 9.81209 2.86318 10.0575L2.07012 10.9444C1.70936 11.3444 1.52936 11.5451 1.50321 11.7936C1.47705 12.042 1.61166 12.2759 1.88089 12.7428L2.26088 13.402C2.5478 13.9005 2.69165 14.1497 2.93549 14.2482C3.1801 14.3482 3.45625 14.2697 4.00855 14.1128L4.94699 13.8489C5.30083 13.7674 5.67006 13.8136 5.99313 13.9789L6.25159 14.1282C6.52773 14.3051 6.74004 14.5666 6.85773 14.8728L7.11465 15.6397C7.28388 16.1474 7.36849 16.4012 7.56849 16.5474C7.77002 16.692 8.03771 16.692 8.57155 16.692H9.42845C9.96306 16.692 10.23 16.692 10.4307 16.5466C10.6323 16.4012 10.7169 16.1481 10.8854 15.6404L11.1423 14.8728C11.26 14.5659 11.4723 14.3051 11.7484 14.1282L12.0076 13.9789C12.3298 13.8137 12.7 13.7674 13.053 13.8482L13.9915 14.1128C14.5438 14.2697 14.8199 14.3482 15.0645 14.2489C15.3084 14.1489 15.4522 13.9005 15.7391 13.402L16.1191 12.7428C16.3883 12.2759 16.5229 12.0428 16.496 11.7936C16.4706 11.5451 16.2906 11.3451 15.9299 10.9444L15.1376 10.0575C14.943 9.81132 14.8053 9.3844 14.8053 8.99979C14.8053 8.61518 14.9437 8.1875 15.1368 7.94212L15.9299 7.05521C16.2906 6.65522 16.4706 6.45445 16.4968 6.20599C16.5229 5.95754 16.3891 5.7237 16.1199 5.25678Z" stroke="white" stroke-width="1.5" stroke-linecap="round"/>
<path d="M10.5869 8.61544L10.9715 8.23083C11.3107 7.89161 11.4807 7.72161 11.703 7.79238C11.9261 7.86238 11.9615 8.06391 12.0315 8.46698C12.0622 8.64031 12.0776 8.818 12.0776 9.00005C12.0779 9.50401 11.9543 10.0003 11.7178 10.4453C11.4814 10.8904 11.1392 11.2705 10.7214 11.5523C10.3036 11.8341 9.82298 12.009 9.32177 12.0616C8.82056 12.1142 8.31412 12.0428 7.84693 11.8538M7.46233 9.41158L7.04387 9.83004C6.71003 10.1639 6.54234 10.3316 6.32235 10.2646C6.10158 10.1977 6.06235 10 5.98389 9.60543C5.87444 9.06076 5.91449 8.49661 6.09981 7.97288C6.28513 7.44914 6.6088 6.98535 7.03645 6.63073C7.46411 6.27611 7.9798 6.04389 8.52879 5.95873C9.07779 5.87357 9.63959 5.93863 10.1546 6.14702" stroke="white" stroke-width="1.5" stroke-linecap="round" stroke-linejoin="round"/>
</svg>
