
<svg xmlns="http://www.w3.org/2000/svg" style="display: none;">

  
  <symbol id="check" viewBox="0 0 36 34">
    <path d="M0.461426 6.15234H27.6002V33.2911H0.461426V6.15234Z" fill="url(#paint0_linear_761_619)"/>
    <path d="M14.1383 29.2411L13.9661 28.9479C11.3277 24.4533 4.31828 14.9159 4.24782 14.82L4.14697 14.6831L6.53451 12.324L14.0941 17.6026C18.8541 11.4257 23.2945 7.18371 26.191 4.70609C29.3592 1.99617 31.4218 0.748939 31.4426 0.736862L31.4893 0.708862H35.5383L35.1527 1.05232C25.2015 9.91586 14.4142 28.7565 14.3065 28.9458L14.1383 29.2411Z" fill="url(#paint1_linear_761_619)"/>
    <defs>
      <linearGradient id="paint0_linear_761_619" x1="14.0308" y1="6.15234" x2="14.0308" y2="33.2911" gradientUnits="userSpaceOnUse">
        <stop stop-color="#00588C"/>
        <stop offset="1" stop-color="#0074B7"/>
      </linearGradient>
      <linearGradient id="paint1_linear_761_619" x1="19.8426" y1="0.708862" x2="19.8426" y2="29.2411" gradientUnits="userSpaceOnUse">
        <stop stop-color="#F37021"/>
        <stop offset="1" stop-color="#F89C3C"/>
      </linearGradient>
    </defs>
  </symbol>

  
  <symbol id="checkbox" viewBox="0 0 38 38">
    <path d="M19 5.09375C11.3319 5.09375 5.09375 11.3319 5.09375 19C5.09375 26.6681 11.3319 32.9062 19 32.9062C26.6681 32.9062 32.9062 26.6681 32.9062 19C32.9062 11.3319 26.6681 5.09375 19 5.09375ZM26.9944 14.5775L16.5131 25.0594C16.4696 25.1029 16.4179 25.1375 16.361 25.1611C16.3041 25.1846 16.2431 25.1968 16.1816 25.1968C16.12 25.1968 16.059 25.1846 16.0021 25.1611C15.9452 25.1375 15.8935 25.1029 15.85 25.0594L11.0056 20.2156C10.9621 20.1721 10.9275 20.1204 10.9039 20.0635C10.8804 20.0066 10.8682 19.9456 10.8682 19.8841C10.8682 19.8225 10.8804 19.7615 10.9039 19.7046C10.9275 19.6477 10.9621 19.596 11.0056 19.5525L12.7731 17.785C12.861 17.6972 12.9802 17.6479 13.1044 17.6479C13.2286 17.6479 13.3477 17.6972 13.4356 17.785L16.1812 20.5294L24.5638 12.1475C24.6516 12.0597 24.7708 12.0104 24.895 12.0104C25.0192 12.0104 25.1384 12.0597 25.2263 12.1475L26.9944 13.915C27.0822 14.0029 27.1315 14.122 27.1315 14.2462C27.1315 14.3705 27.0822 14.4896 26.9944 14.5775Z" fill="url(#paint0_linear_578_465)"/>
    <path d="M19 0.40625C8.7475 0.40625 0.40625 8.7475 0.40625 19C0.40625 29.2525 8.7475 37.5938 19 37.5938C29.2525 37.5938 37.5938 29.2525 37.5938 19C37.5938 8.7475 29.2525 0.40625 19 0.40625ZM19 33.8438C10.815 33.8438 4.15625 27.185 4.15625 19C4.15625 10.815 10.815 4.15625 19 4.15625C27.185 4.15625 33.8438 10.815 33.8438 19C33.8438 27.185 27.185 33.8438 19 33.8438Z" fill="url(#paint1_linear_578_465)"/>
    <defs>
      <linearGradient id="paint0_linear_578_465" x1="19" y1="5.09375" x2="19" y2="32.9062" gradientUnits="userSpaceOnUse">
        <stop stop-color="#00588C"/>
        <stop offset="1" stop-color="#0074B7"/>
      </linearGradient>
      <linearGradient id="paint1_linear_578_465" x1="19" y1="0.40625" x2="19" y2="37.5938" gradientUnits="userSpaceOnUse">
        <stop stop-color="#F37021"/>
        <stop offset="1" stop-color="#F89C3C"/>
      </linearGradient>
    </defs>
  </symbol>

  
  <symbol id="danse" viewBox="0 0 34 36">
    <path d="M23.8688 11.7893L26.3331 7.34059C26.5263 6.99648 26.5748 6.58974 26.468 6.20986C26.3612 5.82998 26.1079 5.50808 25.7638 5.31497C25.4197 5.12186 25.0129 5.07336 24.633 5.18014C24.2532 5.28691 23.9313 5.54023 23.7381 5.88434L21.8094 9.25122C21.6788 9.48079 21.5029 9.68136 21.2923 9.84071C21.0817 10.0001 20.8408 10.1149 20.5844 10.1781L15.83 11.3662L12.0475 7.89434C11.8435 7.70426 11.7101 7.45045 11.6694 7.17459C11.6286 6.89873 11.6828 6.6172 11.8231 6.37622L12.9369 4.45372C13.1351 4.10145 13.1947 3.68791 13.1041 3.29401C13.0134 2.90012 12.7791 2.5542 12.4469 2.32394C12.1147 2.09368 11.7086 1.99564 11.308 2.049C10.9073 2.10236 10.541 2.30329 10.2806 2.61247L8.32065 5.00122C7.86143 5.56344 7.61112 6.26735 7.61226 6.99327C7.6134 7.7192 7.86592 8.42232 8.3269 8.98309L12.0906 13.5562C12.3433 13.8607 12.4682 14.2511 12.4394 14.6456L12.2463 17.1712C12.2279 17.3866 12.1648 17.5959 12.061 17.7855C11.9571 17.9751 11.8148 18.141 11.6431 18.2725L7.89127 21.1162C7.53314 21.3922 7.23579 21.7391 7.01781 22.1352C6.79984 22.5313 6.66593 22.9681 6.62445 23.4183C6.58298 23.8685 6.63484 24.3225 6.77678 24.7517C6.91872 25.181 7.1477 25.5763 7.4494 25.9131L10.4669 29.2418C10.7116 29.5119 11.0465 29.6833 11.4086 29.7237C11.7708 29.7641 12.1353 29.6708 12.4334 29.4613C12.7316 29.2518 12.943 28.9406 13.0278 28.5862C13.1125 28.2318 13.0649 27.8586 12.8938 27.5368L11.4813 24.8868C11.4084 24.748 11.3652 24.5955 11.3544 24.439C11.3436 24.2826 11.3656 24.1256 11.4188 23.9781C11.4697 23.8295 11.5515 23.6934 11.6588 23.5787C11.7661 23.464 11.8964 23.3733 12.0413 23.3125L14.3056 22.3481C14.377 22.3183 14.4547 22.3071 14.5315 22.3157C14.6084 22.3243 14.6817 22.3524 14.7447 22.3973C14.8076 22.4421 14.8581 22.5023 14.8913 22.5721C14.9245 22.6419 14.9393 22.7191 14.9344 22.7962L14.7106 26.8525C14.5694 27.9125 15.6238 32.8112 15.7619 33.9275C15.84 34.3322 16.0696 34.6919 16.4038 34.9332C16.738 35.1745 17.1517 35.2791 17.5605 35.2259C17.9692 35.1726 18.3422 34.9654 18.6035 34.6466C18.8647 34.3277 18.9945 33.9212 18.9663 33.51L18.5181 28.315C18.3044 27.08 19.445 24.4325 19.7563 23.2437C19.9596 22.614 20.0317 21.9493 19.9681 21.2906L19.3456 14.67L22.9731 12.6856C23.3512 12.4785 23.662 12.1675 23.8688 11.7893Z" fill="url(#paint0_linear_589_401)"/>
    <path d="M17.3793 8.80313C21.2524 8.68001 21.2512 3.05188 17.3793 2.92938C13.498 3.05063 13.4987 8.68188 17.3793 8.80313ZM7.04492 16.2131L6.0118 13.7681C5.96278 13.6503 5.87847 13.5506 5.77047 13.4827C5.66247 13.4147 5.53608 13.3819 5.40867 13.3888C5.28074 13.3964 5.15814 13.4427 5.05705 13.5215C4.95596 13.6003 4.88112 13.7078 4.84242 13.83L4.01492 16.5119C2.77242 15.3981 0.233674 15.8856 0.0142993 17.6819C-0.140076 18.8769 0.959299 19.8944 2.13555 20.0088C2.68042 20.1038 3.24127 19.9994 3.7155 19.7148C4.18972 19.4301 4.54561 18.9843 4.71805 18.4588L5.53305 15.8275L5.89367 16.6988C5.96117 16.8467 6.0837 16.9626 6.23523 17.0217C6.38677 17.0808 6.55537 17.0785 6.70523 17.0153C6.85509 16.952 6.9744 16.8329 7.03783 16.6831C7.10126 16.5333 7.1038 16.3647 7.04492 16.2131ZM33.5812 5.08876C33.2137 4.60568 32.7034 4.25068 32.1226 4.07419C31.5419 3.89771 30.9203 3.90871 30.3462 4.10563L30.6262 0.944383C30.6361 0.817824 30.6072 0.69125 30.5434 0.581504C30.4796 0.471757 30.3839 0.384042 30.269 0.330028C30.1541 0.276014 30.0255 0.258264 29.9003 0.279138C29.7751 0.300013 29.6592 0.358523 29.568 0.446883L27.5149 2.50001C27.4026 2.61719 27.3406 2.77372 27.3424 2.93604C27.3441 3.09836 27.4093 3.25354 27.5241 3.36832C27.6389 3.48311 27.7941 3.54835 27.9564 3.55007C28.1187 3.55178 28.2752 3.48984 28.3924 3.37751L29.2387 2.53751L28.9649 5.68563L28.9462 5.86626C28.8168 7.60376 31.1149 8.92751 32.7474 8.15563C33.033 8.04059 33.288 7.86098 33.4925 7.63087C33.6971 7.40077 33.8455 7.12643 33.9263 6.82935C34.0071 6.53227 34.0179 6.22052 33.9581 5.91854C33.8982 5.61656 33.7692 5.33254 33.5812 5.08876ZM27.628 23.7863C27.5369 23.6983 27.4212 23.6401 27.2962 23.6193C27.1713 23.5985 27.043 23.6161 26.9283 23.6697C26.8135 23.7233 26.7177 23.8105 26.6535 23.9197C26.5893 24.0288 26.5597 24.1549 26.5687 24.2813L26.8462 27.4431C24.183 26.4488 21.5499 30.0013 24.4474 31.4944C26.0012 32.2106 28.258 31.1044 28.2555 29.3169C28.2556 29.2797 28.2535 29.2426 28.2493 29.2056L27.9574 25.8744L28.7993 26.7156C28.9174 26.8249 29.0733 26.8841 29.2342 26.881C29.3951 26.8778 29.5485 26.8124 29.6623 26.6986C29.776 26.5848 29.8413 26.4313 29.8443 26.2704C29.8474 26.1095 29.788 25.9537 29.6787 25.8356L27.628 23.7863Z" fill="url(#paint1_linear_589_401)"/>
    <defs>
      <linearGradient id="paint0_linear_589_401" x1="16.567" y1="2.03479" x2="16.567" y2="35.2395" gradientUnits="userSpaceOnUse">
        <stop stop-color="#00588C"/>
        <stop offset="1" stop-color="#0074B7"/>
      </linearGradient>
      <linearGradient id="paint1_linear_589_401" x1="16.9979" y1="0.27063" x2="16.9979" y2="31.7151" gradientUnits="userSpaceOnUse">
        <stop stop-color="#F37021"/>
        <stop offset="1" stop-color="#F89C3C"/>
      </linearGradient>
    </defs>
  </symbol>

  
  <symbol id="email-icon" viewBox="0 0 32 26">
    <path fill-rule="evenodd" clip-rule="evenodd" d="M3.33317.334106H28.6665c1.749 0 3.1667 1.417764 3.1667 3.166664V22.5008c0 1.7489-1.4177 3.1666-3.1667 3.1666H3.33317c-1.7489 0-3.166666-1.4177-3.166666-3.1666V3.50077c0-1.7489 1.417766-3.166664 3.166666-3.166664ZM18.6123 18.4633l10.0542-7.0459V8.09244L17.029 16.2466c-.6189.4296-1.4394.4296-2.0583 0L3.33317 8.09244v3.32496l10.05413 7.0459c1.5691 1.0967 3.656 1.0967 5.225 0Z" fill="#fff"/>
  </symbol>

  
  <symbol id="experience" viewBox="0 0 34 36">
    <path d="M5.76266 14.8749L11.2552 15.1887C11.3125 15.1939 11.367 15.216 11.4118 15.2521C11.4566 15.2883 11.4898 15.3369 11.507 15.3918L12.2514 17.9505C12.2667 18.0091 12.263 18.0711 12.2409 18.1275C12.2188 18.1838 12.1794 18.2318 12.1283 18.2643L9.18829 20.0543C8.52846 20.454 7.9999 21.038 7.66765 21.7342C7.3354 22.4305 7.21396 23.2087 7.31829 23.973L7.68079 28.3093C7.74178 29.021 8.07918 29.6805 8.62065 30.1464C9.16212 30.6123 9.86456 30.8476 10.5774 30.8017C11.2903 30.7558 11.9568 30.4325 12.4341 29.9011C12.9114 29.3696 13.1615 28.6723 13.1308 27.9587L12.9464 24.7724C12.942 24.6483 12.9733 24.5255 13.0365 24.4186C13.0998 24.3117 13.1923 24.2252 13.3033 24.1693C14.252 23.5537 16.1889 22.3093 17.1295 21.7024C18.6133 23.3099 22.4689 27.4605 24.0002 29.1212C26.3333 31.4068 29.897 28.3524 28.072 25.7006C27.1283 24.5462 22.7158 19.2899 21.6752 18.0368C21.6454 18.0015 21.6247 17.9595 21.615 17.9144C21.6053 17.8693 21.6069 17.8224 21.6195 17.778L22.3083 15.3793C22.3249 15.3244 22.3581 15.276 22.4033 15.2408C22.4485 15.2055 22.5035 15.1851 22.5608 15.1824L28.2133 14.918C31.2245 14.7655 31.3814 10.1949 28.4039 9.7943L20.3158 8.78555C19.948 8.74313 19.5758 8.8094 19.2452 8.97617C18.6786 9.31639 18.0383 9.51474 17.3787 9.55435C16.719 9.59396 16.0596 9.47366 15.4564 9.20367C14.9789 8.90388 14.4191 8.76176 13.8564 8.79742L5.55329 9.98493C4.95479 10.0779 4.41154 10.3882 4.02739 10.8564C3.64325 11.3247 3.44516 11.9181 3.47099 12.5233C3.49682 13.1284 3.74477 13.7028 4.16742 14.1366C4.59007 14.5705 5.15779 14.8333 5.76204 14.8749H5.76266Z" fill="url(#paint0_linear_613_605)"/>
    <path d="M14.392 7.56122C16.8595 9.80122 21.0845 7.88997 21.017 4.51685C21.0176 3.84354 20.8489 3.18088 20.5262 2.58988C20.2036 1.99889 19.7375 1.49855 19.1709 1.13492C18.6042 0.771298 17.9551 0.556073 17.2835 0.509063C16.6118 0.462053 15.9391 0.584769 15.3273 0.865912C14.7155 1.14706 14.1842 1.57759 13.7824 2.11789C13.3806 2.65818 13.1212 3.29087 13.0281 3.95771C12.9349 4.62455 13.011 5.30411 13.2494 5.93382C13.4877 6.56354 13.8806 7.12318 14.392 7.56122ZM28.847 24.6925C31.9995 28.5443 26.7282 33.43 23.1263 29.9881C22.7107 29.5418 17.1826 23.5762 16.9263 23.2956C16.2757 23.7137 14.8576 24.6343 14.1951 25.055L14.3551 27.8843C14.4087 28.9236 14.0513 29.9422 13.36 30.7201C12.6687 31.4979 11.6991 31.9725 10.6607 32.0412C9.62233 32.1099 8.59863 31.7673 7.81084 31.0873C7.02306 30.4074 6.53449 29.4447 6.45071 28.4075C6.38196 27.555 6.17946 25.1556 6.11321 24.3356C2.66821 25.4981 0.527588 27.2143 0.527588 29.1643C0.921963 37.615 33.0863 37.6087 33.4726 29.1643C33.4726 27.405 31.7251 25.8362 28.847 24.6925Z" fill="url(#paint1_linear_613_605)"/>
    <defs>
      <linearGradient id="paint0_linear_613_605" x1="17.0125" y1="8.77307" x2="17.0125" y2="30.8073" gradientUnits="userSpaceOnUse">
        <stop stop-color="#00588C"/>
        <stop offset="1" stop-color="#0074B7"/>
      </linearGradient>
      <linearGradient id="paint1_linear_613_605" x1="17.0001" y1="0.499268" x2="17.0001" y2="35.5" gradientUnits="userSpaceOnUse">
        <stop stop-color="#F37021"/>
        <stop offset="1" stop-color="#F89C3C"/>
      </linearGradient>
    </defs>
  </symbol>

  
  <symbol id="kids" viewBox="0 0 36 34">
    <path d="M34.783 20.3494C33.8849 19.8269 32.4005 20.4388 31.7636 20.7507C33.3374 12.5244 30.0286 7.31007 23.7699 4.8007C24.009 5.77546 24.0248 6.79165 23.8161 7.77338C23.6074 8.75511 23.1796 9.67699 22.5647 10.4702C21.9497 11.2634 21.1635 11.9074 20.2647 12.3541C19.366 12.8009 18.3779 13.0388 17.3743 13.0501C12.8743 13.1201 9.88365 8.10757 12.9411 4.55945C6.2474 6.8507 2.59365 12.2394 4.23365 20.7507C2.99303 20.0894 0.4574 19.4657 0.50115 21.9357C0.43865 24.2688 2.93428 26.8482 5.27178 25.5601C5.33428 27.9176 8.97927 33.2051 17.9986 33.8026C18.7952 33.8007 19.5893 33.7152 20.368 33.5476C29.4705 31.5538 30.5855 26.7701 30.7255 25.5726C32.9205 26.8413 35.613 24.2938 35.4962 21.9482C35.5326 21.6422 35.4855 21.332 35.36 21.0505C35.2344 20.7691 35.0351 20.5268 34.783 20.3494Z" fill="url(#paint0_linear_577_378)"/>
    <path d="M17.68 7.75007C16.5475 7.34569 17.2419 6.13882 16.1513 6.22757C16.0688 6.24128 15.9899 6.27112 15.9191 6.31538C15.8482 6.35964 15.7868 6.41745 15.7383 6.4855C15.6898 6.55355 15.6552 6.6305 15.6365 6.71193C15.6179 6.79337 15.6154 6.87769 15.6294 6.96007C15.8263 8.51694 17.7706 9.87257 19.33 8.45069C20.87 7.02694 19.84 4.32569 17.8588 3.95382C14.8881 3.12194 11.7975 6.76757 13.3938 9.50819C13.8555 10.3104 14.5511 10.9526 15.3877 11.3487C16.2242 11.7449 17.1618 11.8762 18.075 11.7251C22.2656 11.2626 24.225 5.83132 21.2663 2.81319C19.82 1.26632 17.6363 0.784443 14.6544 1.20194C14.5703 1.21257 14.4891 1.23987 14.4157 1.28225C14.3422 1.32463 14.278 1.38123 14.2267 1.44874C14.1754 1.51625 14.1381 1.59332 14.1169 1.67543C14.0958 1.75754 14.0912 1.84304 14.1035 1.92693C14.1158 2.01083 14.1448 2.09142 14.1886 2.164C14.2324 2.23658 14.2903 2.29968 14.3588 2.34962C14.4274 2.39956 14.5052 2.43532 14.5877 2.45482C14.6702 2.47433 14.7558 2.47717 14.8394 2.46319C17.28 2.13632 19.5563 2.30882 20.8456 4.34194C22.395 6.68569 20.6881 10.1938 17.9094 10.4632C17.252 10.5785 16.5752 10.491 15.9687 10.2124C15.3623 9.93371 14.855 9.47709 14.5144 8.90319C13.6488 7.55132 14.8931 5.48444 16.4769 5.17694C17.4756 4.95069 18.665 5.38319 18.795 6.54569C18.8283 6.703 18.8234 6.86601 18.7806 7.02101C18.7378 7.17602 18.6585 7.3185 18.5493 7.4365C18.44 7.55449 18.3041 7.64455 18.1528 7.69911C18.0016 7.75368 17.8394 7.77115 17.68 7.75007Z" fill="url(#paint1_linear_577_378)"/>
    <path d="M5.48859 8.08127C7.48551 5.61109 10.2418 3.86892 13.3298 3.12502C14.1223 3.06877 13.0948 2.59189 12.8967 2.32314C11.7785 1.40859 10.4655 0.762512 9.05865 0.43455C7.65178 0.106587 6.18846 0.105465 4.78109 0.431269C4.75516 0.437795 4.73118 0.450456 4.71117 0.468185C4.69115 0.485914 4.67569 0.508192 4.66609 0.533144C4.64734 0.577519 3.16921 4.87689 5.27734 8.35502C5.34796 8.25939 5.41796 8.17064 5.48796 8.08127H5.48859ZM23.4061 3.33564C26.3153 4.18493 28.8772 5.94107 30.7186 8.34814C32.8211 4.87064 31.3436 0.577519 31.3242 0.533144C27.9098 -0.513106 24.6967 1.22752 23.1198 3.18314C23.1573 3.30814 23.3005 3.28877 23.4061 3.33564Z" fill="url(#paint2_linear_577_378)"/>
    <defs>
      <linearGradient id="paint0_linear_577_378" x1="18.0041" y1="4.55945" x2="18.0041" y2="33.8026" gradientUnits="userSpaceOnUse">
        <stop stop-color="#F37021"/>
        <stop offset="1" stop-color="#F89C3C"/>
      </linearGradient>
      <linearGradient id="paint1_linear_577_378" x1="17.8219" y1="1.05859" x2="17.8219" y2="11.7861" gradientUnits="userSpaceOnUse">
        <stop stop-color="#00588C"/>
        <stop offset="1" stop-color="#0074B7"/>
      </linearGradient>
      <linearGradient id="paint2_linear_577_378" x1="17.9958" y1="0.187744" x2="17.9958" y2="8.35502" gradientUnits="userSpaceOnUse">
        <stop stop-color="#00588C"/>
        <stop offset="1" stop-color="#0074B7"/>
      </linearGradient>
    </defs>
  </symbol>

  
  <symbol id="list" viewBox="0 0 28 36">
    <path d="M17.1544 31.955H0.561279V32.955C0.562601 33.6296 0.831158 34.2761 1.30815 34.7531C1.78515 35.2301 2.43171 35.4987 3.10628 35.5H17.7482C16.9657 34.6656 17.1757 33.0125 17.1544 31.955ZM26.2507 5.68313V3.16563C26.2487 2.45829 25.9664 1.78058 25.4657 1.28095C24.965 0.781315 24.2867 0.500493 23.5794 0.5H22.8157V7.44188H24.4919C24.9582 7.44138 25.4053 7.25592 25.735 6.9262C26.0647 6.59648 26.2502 6.14942 26.2507 5.68313ZM26.3275 10.9925C26.0495 10.8273 25.7401 10.7218 25.419 10.6826C25.098 10.6435 24.7723 10.6716 24.4627 10.7651C24.1531 10.8586 23.8663 11.0155 23.6207 11.2259C23.375 11.4362 23.1758 11.6954 23.0357 11.9869L25.2888 13.3444C25.411 13.4216 25.4981 13.5437 25.5314 13.6845C25.5646 13.8252 25.5413 13.9734 25.4666 14.0971C25.3918 14.2209 25.2715 14.3104 25.1314 14.3465C24.9914 14.3826 24.8428 14.3623 24.7175 14.29C24.0957 13.9337 23.0825 13.2856 22.4694 12.9325L16.3519 23.0562C16.6575 23.2369 17.4407 23.7137 17.7369 23.8919C17.8592 23.9691 17.9463 24.0912 17.9795 24.232C18.0127 24.3727 17.9895 24.5209 17.9147 24.6446C17.8399 24.7684 17.7196 24.8579 17.5796 24.894C17.4395 24.9301 17.2909 24.9098 17.1657 24.8375C17.0482 24.7731 16.3113 24.3175 16.2144 24.26L16.7644 26.7337C16.7644 26.7794 16.8119 26.7919 16.8469 26.7887L19.9688 25.9419C19.9772 25.9396 19.9849 25.9356 19.9915 25.9299C19.9981 25.9243 20.0034 25.9173 20.0069 25.9094C21.6657 23.1719 25.34 17.0769 27.1082 14.1531C27.4233 13.6304 27.5181 13.0039 27.3717 12.4113C27.2254 11.8187 26.8498 11.3084 26.3275 10.9925Z" fill="url(#paint0_linear_612_592)"/>
    <path d="M20.2763 26.9975L17.3413 27.6956C17.1561 27.7385 16.9643 27.7443 16.7768 27.7127C16.5894 27.6811 16.41 27.6127 16.2491 27.5115C16.0882 27.4103 15.9489 27.2783 15.8392 27.123C15.7295 26.9678 15.6517 26.7924 15.6101 26.6069L14.8901 23.3862C14.9882 23.2006 21.7163 12.0475 21.7163 12.0475V0.5H6.25632C5.26255 0.501158 4.30981 0.8964 3.60705 1.59904C2.90429 2.30168 2.50889 3.25436 2.50757 4.24812V30.8563H17.7051C17.7775 30.8554 17.8494 30.8691 17.9165 30.8964C17.9836 30.9238 18.0446 30.9642 18.0958 31.0155C18.1471 31.0667 18.1876 31.1277 18.2149 31.1948C18.2423 31.2619 18.2559 31.3338 18.2551 31.4062V33.775C18.2551 34.2342 18.4375 34.6745 18.7621 34.9992C19.0868 35.3238 19.5272 35.5062 19.9863 35.5062C20.4455 35.5062 20.8858 35.3238 21.2105 34.9992C21.5352 34.6745 21.7176 34.2342 21.7176 33.775V25.2062L20.7276 26.8438L20.2763 26.9975ZM16.1263 18.7638H10.9938C10.8526 18.757 10.7195 18.6962 10.622 18.5939C10.5244 18.4916 10.47 18.3557 10.47 18.2144C10.47 18.073 10.5244 17.9371 10.622 17.8348C10.7195 17.7326 10.8526 17.6717 10.9938 17.665H16.1276C16.2687 17.6717 16.4019 17.7326 16.4994 17.8348C16.5969 17.9371 16.6514 18.073 16.6514 18.2144C16.6514 18.3557 16.5969 18.4916 16.4994 18.5939C16.4019 18.6962 16.2687 18.757 16.1276 18.7638H16.1263ZM13.3457 22.815C13.3459 22.8873 13.3319 22.9589 13.3043 23.0257C13.2768 23.0925 13.2362 23.1532 13.1851 23.2042C13.134 23.2553 13.0733 23.2958 13.0064 23.3232C12.9396 23.3507 12.868 23.3647 12.7957 23.3644H10.9938C10.9201 23.3669 10.8466 23.3545 10.7777 23.328C10.7089 23.3015 10.646 23.2614 10.593 23.2101C10.5399 23.1588 10.4977 23.0974 10.4689 23.0294C10.4401 22.9615 10.4253 22.8885 10.4253 22.8147C10.4253 22.7409 10.4401 22.6679 10.4689 22.5999C10.4977 22.532 10.5399 22.4706 10.593 22.4193C10.646 22.368 10.7089 22.3279 10.7777 22.3014C10.8466 22.2749 10.9201 22.2625 10.9938 22.265H12.7969C12.9426 22.2655 13.0821 22.3236 13.1851 22.4267C13.288 22.5297 13.3454 22.6693 13.3457 22.815ZM18.7813 14.1637H10.9938C10.9201 14.1662 10.8466 14.1539 10.7777 14.1274C10.7089 14.1009 10.646 14.0608 10.593 14.0095C10.5399 13.9582 10.4977 13.8967 10.4689 13.8288C10.4401 13.7609 10.4253 13.6878 10.4253 13.6141C10.4253 13.5403 10.4401 13.4672 10.4689 13.3993C10.4977 13.3314 10.5399 13.2699 10.593 13.2187C10.646 13.1674 10.7089 13.1273 10.7777 13.1008C10.8466 13.0743 10.9201 13.0619 10.9938 13.0644H18.7813C18.9239 13.0692 19.059 13.1292 19.1582 13.2318C19.2573 13.3343 19.3128 13.4714 19.3128 13.6141C19.3128 13.7567 19.2573 13.8938 19.1582 13.9964C19.059 14.0989 18.9239 14.1589 18.7813 14.1637ZM19.3313 9.01375C19.3316 9.08607 19.3176 9.15774 19.2901 9.22462C19.2626 9.2915 19.2221 9.35226 19.171 9.4034C19.1198 9.45453 19.0591 9.49504 18.9922 9.52256C18.9253 9.55008 18.8536 9.56408 18.7813 9.56375H10.9938C10.8479 9.56375 10.7081 9.5058 10.6049 9.40266C10.5018 9.29951 10.4438 9.15962 10.4438 9.01375C10.4438 8.86788 10.5018 8.72799 10.6049 8.62484C10.7081 8.5217 10.8479 8.46375 10.9938 8.46375H18.7813C18.8538 8.46291 18.9257 8.47657 18.9928 8.50391C19.0599 8.53125 19.1209 8.57173 19.1721 8.62297C19.2233 8.67421 19.2638 8.73518 19.2912 8.80229C19.3185 8.86939 19.3322 8.94129 19.3313 9.01375ZM6.77757 4.52875H17.4401C17.5826 4.53356 17.7178 4.59358 17.8169 4.69614C17.9161 4.7987 17.9715 4.93578 17.9715 5.07844C17.9715 5.2211 17.9161 5.35817 17.8169 5.46074C17.7178 5.5633 17.5826 5.62332 17.4401 5.62813H6.77757C6.63499 5.62332 6.49986 5.5633 6.4007 5.46074C6.30154 5.35817 6.24611 5.2211 6.24611 5.07844C6.24611 4.93578 6.30154 4.7987 6.4007 4.69614C6.49986 4.59358 6.63499 4.53356 6.77757 4.52875ZM7.58569 27.97H5.43694C5.29577 27.9633 5.16261 27.9024 5.06509 27.8002C4.96756 27.6979 4.91316 27.562 4.91316 27.4206C4.91316 27.2793 4.96756 27.1434 5.06509 27.0411C5.16261 26.9388 5.29577 26.878 5.43694 26.8713H7.58569C7.72686 26.878 7.86002 26.9388 7.95755 27.0411C8.05507 27.1434 8.10948 27.2793 8.10948 27.4206C8.10948 27.562 8.05507 27.6979 7.95755 27.8002C7.86002 27.9024 7.72686 27.9633 7.58569 27.97ZM7.58569 23.3644H5.43694C5.29436 23.3596 5.15923 23.2995 5.06007 23.197C4.96091 23.0944 4.90548 22.9573 4.90548 22.8147C4.90548 22.672 4.96091 22.535 5.06007 22.4324C5.15923 22.3298 5.29436 22.2698 5.43694 22.265H7.58569C7.72827 22.2698 7.8634 22.3298 7.96256 22.4324C8.06172 22.535 8.11715 22.672 8.11715 22.8147C8.11715 22.9573 8.06172 23.0944 7.96256 23.197C7.8634 23.2995 7.72827 23.3596 7.58569 23.3644ZM7.58569 18.7644H5.43694C5.29107 18.7644 5.15118 18.7064 5.04803 18.6033C4.94489 18.5001 4.88694 18.3602 4.88694 18.2144C4.88694 18.0685 4.94489 17.9286 5.04803 17.8255C5.15118 17.7223 5.29107 17.6644 5.43694 17.6644H7.58569C7.73156 17.6644 7.87146 17.7223 7.9746 17.8255C8.07775 17.9286 8.13569 18.0685 8.13569 18.2144C8.13569 18.3602 8.07775 18.5001 7.9746 18.6033C7.87146 18.7064 7.73156 18.7644 7.58569 18.7644ZM7.58569 14.1637H5.43694C5.29436 14.1589 5.15923 14.0989 5.06007 13.9964C4.96091 13.8938 4.90548 13.7567 4.90548 13.6141C4.90548 13.4714 4.96091 13.3343 5.06007 13.2318C5.15923 13.1292 5.29436 13.0692 5.43694 13.0644H7.58569C7.72827 13.0692 7.8634 13.1292 7.96256 13.2318C8.06172 13.3343 8.11715 13.4714 8.11715 13.6141C8.11715 13.7567 8.06172 13.8938 7.96256 13.9964C7.8634 14.0989 7.72827 14.1589 7.58569 14.1637ZM7.58569 9.56375H5.43694C5.29107 9.56375 5.15118 9.5058 5.04803 9.40266C4.94489 9.29951 4.88694 9.15962 4.88694 9.01375C4.88694 8.86788 4.94489 8.72799 5.04803 8.62484C5.15118 8.5217 5.29107 8.46375 5.43694 8.46375H7.58569C7.73156 8.46375 7.87146 8.5217 7.9746 8.62484C8.07775 8.72799 8.13569 8.86788 8.13569 9.01375C8.13569 9.15962 8.07775 9.29951 7.9746 9.40266C7.87146 9.5058 7.73156 9.56375 7.58569 9.56375ZM13.9888 27.97H10.9932C10.852 27.9633 10.7189 27.9024 10.6213 27.8002C10.5238 27.6979 10.4694 27.562 10.4694 27.4206C10.4694 27.2793 10.5238 27.1434 10.6213 27.0411C10.7189 26.9388 10.852 26.878 10.9932 26.8713H13.9888C14.13 26.878 14.2631 26.9388 14.3607 27.0411C14.4582 27.1434 14.5126 27.2793 14.5126 27.4206C14.5126 27.562 14.4582 27.6979 14.3607 27.8002C14.2631 27.9024 14.13 27.9633 13.9888 27.97Z" fill="url(#paint1_linear_612_592)"/>
    <defs>
      <linearGradient id="paint0_linear_612_592" x1="14.0001" y1="0.5" x2="14.0001" y2="35.5" gradientUnits="userSpaceOnUse">
        <stop stop-color="#F37021"/>
        <stop offset="1" stop-color="#F89C3C"/>
      </linearGradient>
      <linearGradient id="paint1_linear_612_592" x1="12.1126" y1="0.5" x2="12.1126" y2="35.5062" gradientUnits="userSpaceOnUse">
        <stop stop-color="#00588C"/>
        <stop offset="1" stop-color="#0074B7"/>
      </linearGradient>
    </defs>
  </symbol>

  
  <symbol id="pain" viewBox="0 0 26 36">
    <path d="M22.7968 10.1363L7.8062 0.791883C7.40221 0.538893 6.91833 0.445828 6.44932 0.530914C5.98031 0.616 5.55995 0.873106 5.27058 1.25188L0.549952 7.41563C0.26731 7.78485 0.128362 8.24415 0.158941 8.70813C0.189521 9.17211 0.387547 9.6092 0.716202 9.93813C2.26808 11.4838 5.80683 14.5113 12.0787 17.36C12.2307 17.4308 12.3501 17.5566 12.413 17.7121C12.4758 17.8675 12.4774 18.041 12.4175 18.1975C11.7981 19.73 11.0893 21.9206 11.2175 23.6644C11.4352 26.4481 11.1362 29.2481 10.3356 31.9231C10.2474 32.1948 10.2205 32.4827 10.2569 32.766C10.2932 33.0493 10.3919 33.3211 10.5458 33.5617C10.6996 33.8024 10.9049 34.0059 11.1468 34.1578C11.3888 34.3097 11.6613 34.406 11.945 34.44C11.945 34.44 20.6381 35.5 20.715 35.5C21.159 35.4992 21.5892 35.3449 21.9325 35.0632C22.2758 34.7815 22.5112 34.3898 22.5987 33.9544L25.805 17.75C26.2431 12.73 22.9487 10.2031 22.7968 10.1363ZM12.36 14.62C10.4131 14.2294 10.1012 12.7169 10.265 11.8544L4.59995 7.90688C4.46925 7.80637 4.38238 7.65929 4.35745 7.4963C4.33253 7.33331 4.37147 7.16699 4.46616 7.03201C4.56085 6.89703 4.70398 6.8038 4.86572 6.77175C5.02746 6.73971 5.19532 6.77132 5.33433 6.86001L11.1018 10.8838C11.2865 11.0424 11.422 11.2505 11.4922 11.4837C11.5624 11.7168 11.5645 11.9651 11.4981 12.1994C11.3606 13.5613 13.9781 13.9706 13.8675 12.0013C13.9281 11.1469 14.5756 11.6181 15.0875 10.7556C15.1883 10.5453 15.2256 10.31 15.1946 10.0788C15.1636 9.8476 15.0658 9.63046 14.9131 9.45408C14.7604 9.27769 14.5595 9.14975 14.3351 9.08596C14.1107 9.02217 13.8726 9.02532 13.65 9.09501C13.402 9.23804 13.1214 9.3149 12.8352 9.31818C12.549 9.32146 12.2667 9.25107 12.0156 9.11376L6.22808 5.32001C6.15674 5.27425 6.09518 5.21481 6.04695 5.14512C5.99873 5.07543 5.96479 4.99687 5.94712 4.91398C5.92944 4.83109 5.92837 4.74552 5.94397 4.66222C5.95956 4.57892 5.99152 4.49953 6.03799 4.42865C6.08445 4.35778 6.14451 4.29681 6.21468 4.24929C6.28485 4.20176 6.36375 4.16862 6.44681 4.15178C6.52987 4.13493 6.61545 4.13472 6.69859 4.15115C6.78173 4.16758 6.86079 4.20033 6.9312 4.24751L12.6925 8.03501C12.7943 8.09251 13.005 7.99001 13.0562 7.95813C13.6229 7.7382 14.2493 7.72668 14.8237 7.92562C15.3981 8.12457 15.8832 8.52105 16.1925 9.04438C16.4968 9.63158 16.5561 10.3155 16.3573 10.9463C16.1585 11.5771 15.7179 12.1034 15.1318 12.41C15.1041 12.7408 15.0092 13.0624 14.8528 13.3552C14.6964 13.648 14.4819 13.9057 14.2224 14.1126C13.9628 14.3195 13.6638 14.4713 13.3435 14.5585C13.0233 14.6458 12.6886 14.6667 12.36 14.62ZM20.4018 24.4631C20.3312 24.4956 20.2712 24.4713 20.2099 24.5206L18.875 31.8656C18.8399 32.0273 18.7436 32.1692 18.6062 32.2614C18.4688 32.3535 18.301 32.3888 18.1381 32.3599C17.9752 32.3309 17.8299 32.2399 17.7327 32.106C17.6355 31.9721 17.5939 31.8057 17.6168 31.6419L18.9775 24.1688C19.0494 23.9258 19.1891 23.7084 19.3803 23.5421C19.5715 23.3758 19.8062 23.2675 20.0568 23.23C20.3607 23.108 20.6048 22.8721 20.7372 22.5726C20.8696 22.2731 20.8798 21.9338 20.7656 21.6269C20.709 21.4271 20.6057 21.2435 20.4644 21.0914C20.323 20.9392 20.1475 20.8228 19.9524 20.7517C19.7572 20.6806 19.548 20.6569 19.3419 20.6825C19.1358 20.708 18.9387 20.7822 18.7668 20.8988C17.9256 21.205 18.1106 20.3606 17.0231 20.26C16.7609 20.2542 16.5028 20.3253 16.2806 20.4644C16.0583 20.6036 15.8816 20.8047 15.7723 21.043C15.6629 21.2813 15.6256 21.5464 15.6651 21.8057C15.7046 22.0649 15.819 22.3069 15.9943 22.5019C16.2415 22.6744 16.4397 22.9081 16.5696 23.1801C16.6995 23.4521 16.7567 23.7531 16.7356 24.0538L15.5981 31.4313C15.5727 31.5981 15.4821 31.748 15.3462 31.8481C15.2103 31.9481 15.0402 31.9901 14.8734 31.9647C14.7066 31.9393 14.5566 31.8487 14.4566 31.7128C14.3565 31.5769 14.3146 31.4068 14.34 31.24L15.465 23.8819C15.49 23.7025 15.215 23.5113 15.2087 23.5113C14.7498 23.0616 14.4653 22.4637 14.4058 21.824C14.3463 21.1842 14.5156 20.5441 14.8837 20.0175C15.0994 19.7433 15.367 19.5144 15.6713 19.3438C15.9756 19.1732 16.3105 19.0643 16.657 19.0234C17.0034 18.9824 17.3545 19.0103 17.6902 19.1052C18.0258 19.2002 18.3395 19.3605 18.6131 19.5769C20.3212 18.8656 21.7249 20.29 21.9856 21.2694C22.1988 21.9029 22.1517 22.5952 21.8547 23.1941C21.5578 23.7929 21.0352 24.2494 20.4018 24.4631ZM22.4074 16.7406C22.2547 16.9539 22.0486 17.1234 21.8099 17.2321C21.5711 17.3408 21.308 17.3849 21.0468 17.36L18.5556 17.1238C18.296 17.0967 18.0481 17.0023 17.8362 16.85C17.6243 16.6977 17.4559 16.4927 17.3475 16.2554C17.2392 16.018 17.1947 15.7564 17.2185 15.4965C17.2423 15.2367 17.3335 14.9875 17.4831 14.7738L18.9331 12.73C19.0869 12.5191 19.293 12.352 19.5311 12.2451C19.7692 12.1381 20.0311 12.0951 20.2909 12.1202C20.5507 12.1453 20.7995 12.2377 21.0127 12.3883C21.2259 12.5388 21.3962 12.7423 21.5068 12.9788L22.5481 15.2588C22.6558 15.4966 22.6995 15.7585 22.6748 16.0184C22.6502 16.2783 22.558 16.5273 22.4074 16.7406Z" fill="url(#paint0_linear_577_387)"/>
    <path d="M20.3436 13.5088C20.3293 13.4734 20.3055 13.4425 20.2749 13.4196C20.2444 13.3967 20.2081 13.3825 20.1701 13.3786C20.1321 13.3746 20.0937 13.3811 20.0591 13.3974C20.0245 13.4136 19.9949 13.4389 19.9736 13.4707L18.5236 15.5144C18.5014 15.545 18.4876 15.5809 18.4838 15.6186C18.4799 15.6562 18.4861 15.6942 18.5018 15.7286C18.5174 15.763 18.5419 15.7927 18.5728 15.8146C18.6036 15.8365 18.6397 15.8498 18.6774 15.8532L21.168 16.0894C21.2056 16.0942 21.2438 16.0887 21.2785 16.0737C21.3133 16.0586 21.3434 16.0345 21.3656 16.0038C21.3879 15.9732 21.4014 15.9371 21.4049 15.8993C21.4084 15.8616 21.4017 15.8236 21.3855 15.7894L20.3436 13.5088Z" fill="url(#paint1_linear_577_387)"/>
    <defs>
      <linearGradient id="paint0_linear_577_387" x1="12.9999" y1="0.500183" x2="12.9999" y2="35.5" gradientUnits="userSpaceOnUse">
        <stop stop-color="#F37021"/>
        <stop offset="1" stop-color="#F89C3C"/>
      </linearGradient>
      <linearGradient id="paint1_linear_577_387" x1="19.9443" y1="13.3774" x2="19.9443" y2="16.0911" gradientUnits="userSpaceOnUse">
        <stop stop-color="#00588C"/>
        <stop offset="1" stop-color="#0074B7"/>
      </linearGradient>
    </defs>
  </symbol>

  
  <symbol id="plan" viewBox="0 0 36 32">
    <path d="M33.1606 8.64876V5.11251C33.1605 4.48068 32.9094 3.87478 32.4626 3.42801C32.0159 2.98124 31.41 2.73018 30.7781 2.73001C30.7781 2.73001 26.8669 2.73188 26.3862 2.73001C26.2417 1.99903 25.8481 1.34082 25.2726 0.867603C24.697 0.394387 23.9751 0.135472 23.23 0.13501C18.5031 0.39751 19.2737 7.27501 23.9387 6.48939C24.097 6.45585 24.262 6.48514 24.399 6.57106C24.536 6.65698 24.6343 6.7928 24.673 6.94982C24.7117 7.10685 24.6878 7.27276 24.6064 7.41252C24.5251 7.55228 24.3925 7.65492 24.2369 7.69876C23.5324 7.85583 22.8005 7.84045 22.1033 7.6539C21.4061 7.46735 20.7643 7.11517 20.2324 6.6273C19.7005 6.13944 19.2944 5.53033 19.0485 4.85179C18.8026 4.17325 18.7242 3.44535 18.82 2.73001H10.8856C10.7412 1.99898 10.3477 1.3407 9.77207 0.867461C9.19648 0.394225 8.47453 0.135353 7.72938 0.13501C3.09188 0.36751 3.70938 7.13751 8.32312 6.51126C8.48297 6.48526 8.64666 6.52238 8.77965 6.61479C8.91264 6.70719 9.00453 6.84766 9.03591 7.00653C9.0673 7.1654 9.03573 7.33025 8.94786 7.46629C8.86 7.60232 8.72272 7.6989 8.565 7.73563C7.9725 7.84582 7.36384 7.83515 6.77556 7.70428C6.18728 7.5734 5.63151 7.32502 5.1416 6.97404C4.65169 6.62305 4.23775 6.1767 3.92462 5.66178C3.61149 5.14685 3.40562 4.57397 3.31937 3.97751C3.25086 3.5645 3.25086 3.14302 3.31937 2.73001C2.97379 2.67746 2.62097 2.69944 2.28458 2.79446C1.94818 2.88948 1.636 3.05534 1.36898 3.28093C1.10196 3.50651 0.886279 3.7866 0.736402 4.10239C0.586524 4.41818 0.505921 4.76238 0.5 5.11189V8.64938L33.1606 8.64876ZM21.365 2.72938C21.4955 2.33709 21.7461 1.99583 22.0815 1.75398C22.4168 1.51214 22.8197 1.38199 23.2331 1.38199C23.6466 1.38199 24.0495 1.51214 24.3848 1.75398C24.7201 1.99583 24.9708 2.33709 25.1012 2.72938H21.365ZM5.865 2.72938C5.99562 2.33732 6.24631 1.99629 6.58155 1.75463C6.91678 1.51297 7.31956 1.38293 7.73281 1.38293C8.14607 1.38293 8.54885 1.51297 8.88408 1.75463C9.21931 1.99629 9.47 2.33732 9.60063 2.72938H5.865ZM33.0794 19.7894C28.7356 16.0281 21.7688 19.2475 21.8144 25.0169C21.8188 26.8318 22.5417 28.5711 23.825 29.8545C25.1083 31.1379 26.8476 31.861 28.6625 31.8656C35.0331 31.8625 37.9094 23.8244 33.0794 19.7894ZM28.6631 19.7394C28.7867 19.7439 28.9037 19.7961 28.9895 19.8851C29.0754 19.9741 29.1234 20.0929 29.1234 20.2166C29.1234 20.3402 29.0754 20.459 28.9895 20.548C28.9037 20.6371 28.7867 20.6893 28.6631 20.6938C28.5396 20.6893 28.4225 20.6371 28.3367 20.548C28.2509 20.459 28.2029 20.3402 28.2029 20.2166C28.2029 20.0929 28.2509 19.9741 28.3367 19.8851C28.4225 19.7961 28.5396 19.7439 28.6631 19.7394ZM24.0975 22.3781C24.1619 22.2722 24.2652 22.1956 24.3853 22.1648C24.5054 22.134 24.6328 22.1514 24.7403 22.2133C24.8477 22.2751 24.9268 22.3765 24.9605 22.4959C24.9942 22.6152 24.9799 22.743 24.9206 22.8519C24.8562 22.9578 24.7529 23.0344 24.6328 23.0652C24.5127 23.096 24.3853 23.0786 24.2778 23.0168C24.1704 22.9549 24.0914 22.8535 24.0577 22.7342C24.024 22.6148 24.0383 22.4871 24.0975 22.3781ZM24.9831 27.4431C24.9748 27.5437 24.935 27.6392 24.8693 27.7158C24.8036 27.7924 24.7154 27.8463 24.6172 27.8699C24.5191 27.8935 24.416 27.8854 24.3227 27.8469C24.2293 27.8085 24.1505 27.7415 24.0975 27.6556C24.0614 27.5918 24.0406 27.5204 24.0367 27.4471C24.0329 27.3739 24.0461 27.3007 24.0754 27.2334C24.1046 27.1661 24.1491 27.1066 24.2053 27.0594C24.2616 27.0122 24.3279 26.9788 24.3993 26.9617C24.4706 26.9446 24.545 26.9442 24.6165 26.9608C24.688 26.9773 24.7546 27.0102 24.8112 27.0569C24.8678 27.1035 24.9128 27.1627 24.9427 27.2298C24.9725 27.2968 24.9863 27.3698 24.9831 27.4431ZM28.6631 30.2869C28.5409 30.2806 28.4257 30.2276 28.3414 30.1389C28.2571 30.0502 28.21 29.9324 28.21 29.81C28.21 29.6876 28.2571 29.5699 28.3414 29.4811C28.4257 29.3924 28.5409 29.3394 28.6631 29.3331C28.7867 29.3376 28.9037 29.3898 28.9895 29.4788C29.0754 29.5678 29.1234 29.6867 29.1234 29.8103C29.1234 29.934 29.0754 30.0528 28.9895 30.1418C28.9037 30.2308 28.7867 30.2824 28.6631 30.2869ZM31.2519 27.6619C31.1969 27.7162 31.1318 27.7589 31.0601 27.7878C30.9885 27.8166 30.9118 27.8308 30.8346 27.8296C30.7574 27.8285 30.6811 27.8119 30.6104 27.781C30.5396 27.75 30.4758 27.7053 30.4225 27.6494L28.2394 25.4281C28.1321 25.3177 28.0717 25.1702 28.0706 25.0163V22.2413C28.0706 22.0841 28.133 21.9334 28.2442 21.8223C28.3553 21.7112 28.506 21.6488 28.6631 21.6488C28.8203 21.6488 28.971 21.7112 29.0821 21.8223C29.1932 21.9334 29.2556 22.0841 29.2556 22.2413V24.7731L31.2644 26.8256C31.3735 26.9381 31.4334 27.0893 31.4311 27.246C31.4287 27.4027 31.3643 27.5527 31.2519 27.6619ZM33.2294 27.6556C33.164 27.7616 33.0598 27.8379 32.9389 27.868C32.8181 27.8982 32.6903 27.8799 32.5828 27.817C32.4753 27.7542 32.3966 27.6517 32.3636 27.5317C32.3306 27.4116 32.3459 27.2833 32.4062 27.1744C32.4716 27.0684 32.5759 26.9922 32.6967 26.962C32.8175 26.9318 32.9453 26.9502 33.0528 27.013C33.1604 27.0759 33.239 27.1783 33.272 27.2984C33.305 27.4185 33.2897 27.5467 33.2294 27.6556ZM33.0544 23.0269C32.9451 23.0897 32.8154 23.1066 32.6938 23.0737C32.5721 23.0409 32.4684 22.9611 32.4056 22.8519C32.3428 22.7426 32.3259 22.6129 32.3588 22.4913C32.3916 22.3696 32.4714 22.266 32.5806 22.2031C32.6899 22.1403 32.8196 22.1235 32.9412 22.1563C33.0629 22.1891 33.1666 22.2689 33.2294 22.3781C33.2922 22.4874 33.3091 22.6171 33.2762 22.7388C33.2434 22.8604 33.1636 22.9641 33.0544 23.0269Z" fill="url(#paint0_linear_607_527)"/>
    <path d="M20.5669 25.0162C20.4812 18.6344 27.9275 14.6781 33.1606 18.2862V9.89624H0.5V26.8131C0.5 27.126 0.561646 27.4359 0.681417 27.725C0.801188 28.0141 0.976737 28.2768 1.19804 28.498C1.41934 28.7193 1.68206 28.8947 1.97119 29.0144C2.26032 29.1341 2.5702 29.1957 2.88313 29.1956H21.7331C20.9657 27.937 20.562 26.4904 20.5669 25.0162ZM10.4181 14.6H23.2431C23.4086 14.6 23.5672 14.6657 23.6842 14.7827C23.8012 14.8997 23.8669 15.0583 23.8669 15.2237C23.8669 15.3892 23.8012 15.5478 23.6842 15.6648C23.5672 15.7818 23.4086 15.8475 23.2431 15.8475H10.4181C10.2527 15.8475 10.094 15.7818 9.97707 15.6648C9.86009 15.5478 9.79438 15.3892 9.79438 15.2237C9.79438 15.0583 9.86009 14.8997 9.97707 14.7827C10.094 14.6657 10.2527 14.6 10.4181 14.6ZM19.0513 24.4937H6.7C6.53449 24.4937 6.37576 24.428 6.25872 24.311C6.14169 24.1939 6.07594 24.0352 6.07594 23.8697C6.07594 23.7042 6.14169 23.5454 6.25872 23.4284C6.37576 23.3114 6.53449 23.2456 6.7 23.2456H19.0513C19.2167 23.2456 19.3753 23.3113 19.4923 23.4283C19.6093 23.5453 19.675 23.7039 19.675 23.8694C19.675 24.0348 19.6093 24.1934 19.4923 24.3104C19.3753 24.4274 19.2167 24.4937 19.0513 24.4937ZM19.0513 20.1706H6.7C6.53457 20.1706 6.37592 20.1049 6.25894 19.9879C6.14197 19.8709 6.07625 19.7123 6.07625 19.5469C6.07625 19.3814 6.14197 19.2228 6.25894 19.1058C6.37592 18.9888 6.53457 18.9231 6.7 18.9231H19.0513C19.2167 18.9231 19.3753 18.9888 19.4923 19.1058C19.6093 19.2228 19.675 19.3814 19.675 19.5469C19.675 19.7123 19.6093 19.8709 19.4923 19.9879C19.3753 20.1049 19.2167 20.1706 19.0513 20.1706Z" fill="url(#paint1_linear_607_527)"/>
    <defs>
      <linearGradient id="paint0_linear_607_527" x1="17.9996" y1="0.13501" x2="17.9996" y2="31.8656" gradientUnits="userSpaceOnUse">
        <stop stop-color="#F37021"/>
        <stop offset="1" stop-color="#F89C3C"/>
      </linearGradient>
      <linearGradient id="paint1_linear_607_527" x1="16.8303" y1="9.89624" x2="16.8303" y2="29.1956" gradientUnits="userSpaceOnUse">
        <stop stop-color="#00588C"/>
        <stop offset="1" stop-color="#0074B7"/>
      </linearGradient>
    </defs>
  </symbol>

  
  <symbol id="protection" viewBox="0 0 32 36">
    <path d="M30.9874 7.90626C30.9694 7.60806 30.8477 7.32555 30.6434 7.10757C30.4391 6.88959 30.1651 6.74985 29.8687 6.71251C26.5124 6.31876 25.2062 2.90001 24.7937 1.44376C24.7186 1.17182 24.5561 0.932126 24.3314 0.761591C24.1066 0.591057 23.8321 0.499143 23.5499 0.500006H8.44369C8.1628 0.501131 7.88995 0.593909 7.6666 0.764246C7.44324 0.934582 7.28159 1.17317 7.20619 1.44376C6.79369 2.90001 5.48744 6.31876 2.1312 6.71251C1.8348 6.74985 1.56076 6.88959 1.35648 7.10757C1.1522 7.32555 1.0305 7.60806 1.01245 7.90626C0.812445 10.9688 0.549945 26.6625 15.3437 35.3188C15.5419 35.437 15.7683 35.5 15.9991 35.5011C16.2299 35.5022 16.4568 35.4414 16.6562 35.325C31.4499 26.6625 31.1874 10.9688 30.9874 7.90626ZM16.3437 32.2313C16.2411 32.297 16.1218 32.332 15.9999 32.332C15.8781 32.332 15.7588 32.297 15.6562 32.2313C5.09995 25.2688 3.82494 14.1438 3.76244 9.68751C3.76124 9.5597 3.79883 9.43452 3.87024 9.32852C3.94166 9.22251 4.04354 9.14066 4.16245 9.09376C5.36262 8.5766 6.44776 7.82555 7.35452 6.88446C8.26128 5.94336 8.97149 4.83107 9.4437 3.61251C9.49215 3.50046 9.57251 3.40516 9.67476 3.33848C9.77701 3.27179 9.89663 3.23668 10.0187 3.23751H21.9812C22.1033 3.23668 22.2229 3.27179 22.3251 3.33848C22.4274 3.40516 22.5077 3.50046 22.5562 3.61251C23.0296 4.83136 23.741 5.94376 24.6488 6.88483C25.5566 7.8259 26.6427 8.57681 27.8437 9.09376C27.9619 9.14099 28.0629 9.22311 28.1332 9.32918C28.2036 9.43526 28.2399 9.56025 28.2374 9.68751C28.1812 14.1438 26.8999 25.2688 16.3437 32.2313Z" fill="url(#paint0_linear_589_377)"/>
    <path d="M21.575 4.48755H10.425C9.3578 6.94546 7.43762 8.93445 5.0188 10.0875C5.1563 14.5375 6.5688 24.5188 16 30.9563C25.4313 24.5188 26.85 14.5375 26.9813 10.0875C24.5638 8.93264 22.6442 6.94422 21.575 4.48755ZM23.3563 13.7813L22.1125 14.7563C22.2379 15.2655 22.3009 15.7881 22.3 16.3125C22.2987 17.9813 21.6352 19.5814 20.4552 20.7614C19.2752 21.9415 17.6751 22.605 16.0063 22.6063C7.6538 22.2632 7.6613 10.3532 16.0063 10.0125C17.4709 10.0132 18.8896 10.5237 20.0188 11.4563C20.082 11.5088 20.1342 11.5733 20.1725 11.646C20.2108 11.7187 20.2344 11.7983 20.2419 11.8801C20.2495 11.9619 20.2408 12.0444 20.2165 12.1229C20.1921 12.2014 20.1526 12.2744 20.1 12.3375C20.0475 12.4007 19.9831 12.453 19.9103 12.4913C19.8376 12.5296 19.7581 12.5531 19.6763 12.5607C19.5944 12.5682 19.5119 12.5596 19.4334 12.5352C19.3549 12.5109 19.282 12.4713 19.2188 12.4188C18.4809 11.8088 17.5846 11.4215 16.6346 11.3021C15.6847 11.1827 14.7204 11.3361 13.8545 11.7445C12.9886 12.1529 12.2568 12.7993 11.7447 13.6082C11.2325 14.4172 10.9613 15.3551 10.9625 16.3125C11.2394 23.0038 20.7738 23.0019 21.05 16.3125C21.0523 16.0824 21.0356 15.8525 21 15.625L16.3438 19.275C16.2283 19.3644 16.0853 19.4108 15.9393 19.4063C15.7933 19.4017 15.6535 19.3465 15.5438 19.25L12.7438 16.7813C12.6262 16.6693 12.5567 16.516 12.5499 16.3538C12.543 16.1916 12.5994 16.033 12.7071 15.9115C12.8149 15.79 12.9655 15.7151 13.1274 15.7024C13.2893 15.6898 13.4498 15.7405 13.575 15.8438L15.9813 17.9688C17.125 17.0738 21.5313 13.625 22.5875 12.7938C22.7185 12.6919 22.8846 12.6461 23.0493 12.6666C23.2139 12.6871 23.3637 12.7722 23.4657 12.9032C23.5676 13.0341 23.6134 13.2002 23.5928 13.3649C23.5723 13.5296 23.4872 13.6794 23.3563 13.7813Z" fill="url(#paint1_linear_589_377)"/>
    <defs>
      <linearGradient id="paint0_linear_589_377" x1="15.9999" y1="0.5" x2="15.9999" y2="35.5011" gradientUnits="userSpaceOnUse">
        <stop stop-color="#00588C"/>
        <stop offset="1" stop-color="#0074B7"/>
      </linearGradient>
      <linearGradient id="paint1_linear_589_377" x1="16" y1="4.48755" x2="16" y2="30.9563" gradientUnits="userSpaceOnUse">
        <stop stop-color="#F37021"/>
        <stop offset="1" stop-color="#F89C3C"/>
      </linearGradient>
    </defs>
  </symbol>

  
  <symbol id="reabilitation" viewBox="0 0 24 36">
    <path d="M17.6912 31.6375V31.8788C17.6912 31.8788 20.3787 31.8806 20.7775 31.8788V30.2563C20.7773 29.9339 20.6759 29.6198 20.4875 29.3582C20.299 29.0967 20.0332 28.901 19.7275 28.7988L12.6256 25.8969V21.1125C11.8393 21.1113 10.3256 21.1125 9.53934 21.1125V25.8975L2.44434 28.7931C2.13528 28.8935 1.86597 29.0893 1.67508 29.3522C1.48419 29.6152 1.38153 29.9319 1.38184 30.2569V31.8794C1.77746 31.8763 4.46809 31.8794 4.46809 31.8794C4.46996 31.67 4.43246 31.4356 4.69684 31.345L9.53934 29.1619V29.4806C9.54779 29.89 9.71851 30.2792 10.0139 30.5627C10.3094 30.8461 10.7053 31.0007 11.1146 30.9922C11.524 30.9837 11.9132 30.813 12.1967 30.5176C12.4802 30.2222 12.6347 29.8262 12.6262 29.4169V29.1556L17.4943 31.3575C17.5515 31.3789 17.6009 31.4171 17.6361 31.4671C17.6712 31.517 17.6904 31.5764 17.6912 31.6375ZM12.6256 15.2375H9.53934V16.9056H12.6256V15.2375ZM18.83 1.07251H16.3037C16.4844 1.76116 16.5446 2.47584 16.4818 3.18501C16.484 3.51789 16.4236 3.8482 16.3037 4.15876H18.83C19.0181 4.15877 19.2043 4.19587 19.378 4.26794C19.5518 4.34001 19.7096 4.44563 19.8425 4.57876C20.0203 4.76025 20.1474 4.98528 20.211 5.23132C20.2745 5.47736 20.2723 5.73579 20.2046 5.98072C20.1369 6.22565 20.006 6.44849 19.8251 6.62694C19.6442 6.80539 19.4196 6.93317 19.1737 6.99751L11.6775 8.13001C11.0685 8.27168 10.5256 8.61562 10.1374 9.10567C9.74915 9.59573 9.53854 10.2029 9.53996 10.8281V13.9656H12.625V11.3181C12.6224 11.2555 12.6403 11.1937 12.6759 11.142C12.7115 11.0904 12.763 11.0517 12.8225 11.0319L19.8412 10.0069C25.0312 8.69563 24.1937 1.18251 18.8293 1.07251H18.83Z" fill="url(#paint0_linear_613_622)"/>
    <path d="M3.99683 4.725H13.6625C14.0716 4.72566 14.4642 4.56391 14.7541 4.27528C15.0441 3.98664 15.2075 3.59473 15.2087 3.18563V2.04C15.2061 1.63141 15.0422 1.24038 14.7528 0.951982C14.4633 0.663584 14.0717 0.501145 13.6631 0.5H3.99683C3.5885 0.500331 3.19699 0.662687 2.90825 0.951421C2.61952 1.24016 2.45717 1.63167 2.45683 2.04V3.18563C2.45717 3.59396 2.61952 3.98547 2.90825 4.2742C3.19699 4.56294 3.5885 4.72467 3.99683 4.725ZM21.0256 33.1512H17.4437L17.0425 34.2525C16.9932 34.3933 16.9783 34.5438 16.9989 34.6914C17.0195 34.8391 17.0751 34.9798 17.1609 35.1017C17.2468 35.2236 17.3605 35.3233 17.4926 35.3925C17.6248 35.4616 17.7715 35.4983 17.9206 35.4994H20.5487C20.6974 35.4976 20.8435 35.4604 20.975 35.3909C21.1064 35.3214 21.2195 35.2216 21.3047 35.0997C21.3899 34.9778 21.4448 34.8374 21.465 34.6901C21.4852 34.5428 21.4699 34.3928 21.4206 34.2525L21.0256 33.1512ZM4.71558 33.1512H1.13308L0.732459 34.2525C0.683243 34.3933 0.668319 34.5438 0.688925 34.6914C0.709531 34.8391 0.765074 34.9798 0.850939 35.1017C0.936805 35.2236 1.05052 35.3233 1.18264 35.3925C1.31475 35.4616 1.46146 35.4983 1.61058 35.4994H4.23871C4.3874 35.4976 4.53352 35.4604 4.66498 35.3909C4.79644 35.3214 4.90945 35.2216 4.99467 35.0997C5.07988 34.9778 5.13484 34.8374 5.155 34.6901C5.17515 34.5428 5.15993 34.3928 5.11058 34.2525L4.71558 33.1512ZM9.53933 18.1781V19.8388H12.6256V18.1781H9.53933Z" fill="url(#paint1_linear_613_622)"/>
    <defs>
      <linearGradient id="paint0_linear_613_622" x1="12.3526" y1="1.07251" x2="12.3526" y2="31.8796" gradientUnits="userSpaceOnUse">
        <stop stop-color="#F37021"/>
        <stop offset="1" stop-color="#F89C3C"/>
      </linearGradient>
      <linearGradient id="paint1_linear_613_622" x1="11.0768" y1="0.5" x2="11.0768" y2="35.4994" gradientUnits="userSpaceOnUse">
        <stop stop-color="#00588C"/>
        <stop offset="1" stop-color="#0074B7"/>
      </linearGradient>
    </defs>
  </symbol>

  
  <symbol id="sneakers" viewBox="0 0 38 22">
    <path d="M13.3737 6.94282C12.5424 6.45824 10.7045 5.35606 9.89685 4.88098C8.79466 5.43886 6.63781 5.88136 3.88235 3.27521C3.55755 2.96764 3.15018 2.76135 2.71003 2.68157C2.26988 2.60179 1.81602 2.65197 1.40393 2.82598C0.991841 2.99999 0.639373 3.29028 0.389612 3.66138C0.13985 4.03248 0.00361471 4.46831 -0.00244141 4.91559V5.82028C3.1738 7.77896 7.78207 9.97247 13.3744 6.94282H13.3737ZM27.7367 16.1892H32.0505C34.1763 16.0973 36.1828 15.1813 37.6449 13.6353C37.7958 13.4742 37.9037 13.2776 37.9586 13.0637C38.0135 12.8499 38.0137 12.6256 37.9591 12.4117C37.1732 10.1462 35.0204 9.48857 32.2955 9.04539C30.8634 8.87273 29.4839 8.39979 28.2471 7.65748C27.9146 8.14138 27.2535 9.15805 26.9271 9.6372C26.8278 9.78696 26.6731 9.89115 26.497 9.92685C26.3209 9.96255 26.1379 9.92684 25.9881 9.82757C25.8384 9.7283 25.7342 9.57361 25.6985 9.39752C25.6628 9.22143 25.6985 9.03837 25.7977 8.88861L27.0635 6.98354L25.1034 5.88815C24.7817 6.37001 24.1126 7.38261 23.7909 7.8543C23.6908 8.00414 23.5353 8.1081 23.3586 8.14329C23.1818 8.17848 22.9984 8.14203 22.8485 8.04195C22.6987 7.94187 22.5947 7.78637 22.5595 7.60964C22.5243 7.43291 22.5608 7.24945 22.6609 7.0996L23.913 5.22168L21.9605 4.13307C21.9387 4.12085 20.6974 6.05171 20.4904 6.21188C20.3649 6.30498 20.2108 6.35127 20.0548 6.34273C19.8987 6.3342 19.7506 6.27138 19.636 6.16515C19.5214 6.05891 19.4475 5.91596 19.4272 5.76101C19.4069 5.60607 19.4413 5.4489 19.5247 5.31669L20.77 3.45914L18.81 2.37053C18.5148 2.83339 17.8381 3.80934 17.5449 4.26202C17.4448 4.41187 17.2892 4.51579 17.1124 4.55092C16.9356 4.58604 16.7521 4.54951 16.6022 4.44934C16.4524 4.34917 16.3485 4.19357 16.3134 4.01678C16.2782 3.84 16.3148 3.65649 16.4149 3.50664C16.6769 3.08993 17.3474 2.12756 17.6196 1.70406L16.5717 1.11225C15.911 0.745388 15.1407 0.627403 14.4005 0.779679C13.6603 0.931955 12.9992 1.34441 12.5369 1.94228L10.9855 3.94915C11.732 4.38893 24.8584 12.1612 24.8584 12.1612C26.1323 12.7951 27.0221 15.0592 27.7367 16.1892Z" fill="url(#paint0_linear_576_372)"/>
    <path d="M-0.00244141 17.55V17.8832C-0.00226147 18.7855 0.356246 19.6507 0.994251 20.2888C1.63226 20.9268 2.49753 21.2853 3.3998 21.2854H29.7504C33.5049 21.3425 36.9886 18.9548 37.8403 15.3388C36.2038 16.6892 34.1698 17.4659 32.0498 17.55H-0.00244141ZM-0.00244141 12.2841V16.1892H5.6924C4.35567 14.2148 2.32104 12.8195 -0.00244141 12.2841Z" fill="url(#paint1_linear_576_372)"/>
    <path d="M7.25763 16.1892H26.1794C25.6778 15.4047 25.0324 13.7731 24.165 13.332L14.6872 7.71856C12.7183 9.04754 10.3953 9.75385 8.0198 9.74579C5.18579 9.6943 2.41664 8.88892 -0.00292969 7.41248V10.9097C1.51886 11.2076 2.95713 11.8345 4.21119 12.7466C5.46525 13.6587 6.50477 14.8339 7.25696 16.1899L7.25763 16.1892Z" fill="url(#paint2_linear_576_372)"/>
    <defs>
      <linearGradient id="paint0_linear_576_372" x1="18.9987" y1="0.714844" x2="18.9987" y2="16.1892" gradientUnits="userSpaceOnUse">
        <stop stop-color="#00588C"/>
        <stop offset="1" stop-color="#0074B7"/>
      </linearGradient>
      <linearGradient id="paint1_linear_576_372" x1="18.9189" y1="12.2841" x2="18.9189" y2="21.2864" gradientUnits="userSpaceOnUse">
        <stop stop-color="#F37021"/>
        <stop offset="1" stop-color="#F89C3C"/>
      </linearGradient>
      <linearGradient id="paint2_linear_576_372" x1="13.0882" y1="7.41248" x2="13.0882" y2="16.1899" gradientUnits="userSpaceOnUse">
        <stop stop-color="#00588C"/>
        <stop offset="1" stop-color="#0074B7"/>
      </linearGradient>
    </defs>
  </symbol>

  
  <symbol id="stairs" viewBox="0 0 36 26">
    <path d="M34.875 19.3674L34.075 19.3668V12.5043C34.0749 12.3941 34.0446 12.286 33.9875 12.1918L27.1375 0.360565C27.0679 0.243249 26.9618 0.151922 26.8355 0.100519C26.7091 0.0491165 26.5694 0.0404601 26.4377 0.0758711C26.306 0.111282 26.1895 0.188816 26.1059 0.296642C26.0224 0.404468 25.9764 0.536667 25.975 0.673065V7.82931H10.025V0.673065C10.0235 0.536719 9.9774 0.404614 9.89381 0.29689C9.81022 0.189166 9.69369 0.111736 9.56199 0.0764039C9.43029 0.0410723 9.29066 0.0497782 9.16437 0.101195C9.03808 0.152611 8.93207 0.243917 8.8625 0.36119L2.0125 12.1924C1.95536 12.2867 1.9251 12.3947 1.925 12.5049V19.3643C1.925 19.3643 1.59438 19.3674 1.125 19.3674C0.959395 19.3679 0.800711 19.4339 0.683607 19.551C0.566504 19.6681 0.500497 19.8268 0.500003 19.9924V25.3237C0.499755 25.4058 0.515752 25.4872 0.547074 25.5632C0.578395 25.6391 0.624423 25.7081 0.682509 25.7662C0.740595 25.8243 0.809593 25.8703 0.885533 25.9016C0.961473 25.9329 1.04286 25.9489 1.125 25.9487H34.875C34.9571 25.9489 35.0385 25.9329 35.1145 25.9016C35.1904 25.8703 35.2594 25.8243 35.3175 25.7662C35.3756 25.7081 35.4216 25.6391 35.4529 25.5632C35.4843 25.4872 35.5003 25.4058 35.5 25.3237V19.9924C35.4995 19.8268 35.4335 19.6681 35.3164 19.551C35.1993 19.4339 35.0406 19.3679 34.875 19.3674ZM32.825 15.1362C32.8269 15.7262 32.825 17.9987 32.8244 19.3662C24.4206 19.3568 7.95188 19.3774 3.17438 19.3631C3.19 17.3824 3.16375 14.6449 3.17438 12.6674L8.77438 2.99869C8.77375 4.57556 8.77563 9.08619 8.77438 10.5924H27.2244C27.2256 9.14056 27.2244 4.52306 27.2244 2.99869L32.8244 12.6674C32.8381 12.8674 32.8156 15.0049 32.825 15.1362Z" fill="url(#paint0_linear_576_367)"/>
    <path d="M31.6937 16.2299C31.6932 16.0643 31.6272 15.9056 31.51 15.7885C31.3929 15.6714 31.2343 15.6054 31.0687 15.6049H30.0499C28.2812 15.6018 6.42615 15.6037 4.93115 15.6049C4.76554 15.6054 4.60686 15.6714 4.48976 15.7885C4.37265 15.9056 4.30665 16.0643 4.30615 16.2299V18.1112H31.6937C31.6949 17.6937 31.6924 16.633 31.6937 16.2299ZM28.7999 14.3487H30.0499C30.0505 13.9324 30.0487 12.8755 30.0499 12.4737C30.0507 12.3914 30.0351 12.3097 30.004 12.2335C29.9729 12.1573 29.9269 12.0881 29.8687 12.0299C29.8105 11.9717 29.7413 11.9257 29.6651 11.8945C29.5889 11.8634 29.5072 11.8478 29.4249 11.8487C28.603 11.8587 26.753 11.8299 25.9749 11.8487C25.9743 11.8424 10.0124 11.8605 10.0249 11.8424H8.7749C8.78553 11.8599 6.57553 11.8424 6.5749 11.8487C6.49259 11.8478 6.41095 11.8634 6.33474 11.8945C6.25853 11.9257 6.1893 11.9717 6.1311 12.0299C6.07289 12.0881 6.02689 12.1573 5.99578 12.2335C5.96466 12.3097 5.94907 12.3914 5.9499 12.4737C5.94803 12.8712 5.95115 13.938 5.9499 14.3487H28.7999Z" fill="url(#paint1_linear_576_367)"/>
    <defs>
      <linearGradient id="paint0_linear_576_367" x1="18" y1="0.0544434" x2="18" y2="25.9487" gradientUnits="userSpaceOnUse">
        <stop stop-color="#F37021"/>
        <stop offset="1" stop-color="#F89C3C"/>
      </linearGradient>
      <linearGradient id="paint1_linear_576_367" x1="18.0001" y1="11.8422" x2="18.0001" y2="18.1112" gradientUnits="userSpaceOnUse">
        <stop stop-color="#00588C"/>
        <stop offset="1" stop-color="#0074B7"/>
      </linearGradient>
    </defs>
  </symbol>

  
  <symbol id="time" viewBox="0 0 36 32">
    <path d="M31.125 0.837524H4.875C3.71508 0.838848 2.60305 1.30021 1.78287 2.12039C0.962685 2.94058 0.501323 4.05261 0.5 5.21252V26.7875C0.501323 27.9474 0.962685 29.0595 1.78287 29.8797C2.60305 30.6998 3.71508 31.1612 4.875 31.1625H31.125C32.2849 31.1612 33.3969 30.6998 34.2171 29.8797C35.0373 29.0595 35.4987 27.9474 35.5 26.7875V5.21252C35.4987 4.05261 35.0373 2.94058 34.2171 2.12039C33.3969 1.30021 32.2849 0.838848 31.125 0.837524ZM26.4813 24.3C19.0819 31.8388 6.19375 26.6725 6.125 16C6.12913 12.8518 7.38157 9.8338 9.60767 7.6077C11.8338 5.3816 14.8518 4.12916 18 4.12502C28.5275 4.1644 33.7812 16.8606 26.4813 24.3Z" fill="url(#paint0_linear_588_556)"/>
    <path d="M26.7563 15.375H28.6063C28.4662 12.9938 27.5257 10.7298 25.9375 8.95005L24.6375 10.25C24.5793 10.3083 24.5101 10.3545 24.434 10.3861C24.3578 10.4176 24.2762 10.4339 24.1938 10.4339C24.1114 10.4339 24.0298 10.4176 23.9536 10.3861C23.8775 10.3545 23.8083 10.3083 23.75 10.25C23.6918 10.1918 23.6456 10.1226 23.614 10.0465C23.5825 9.97032 23.5662 9.88871 23.5662 9.8063C23.5662 9.72389 23.5825 9.64228 23.614 9.56614C23.6456 9.49001 23.6918 9.42082 23.75 9.36255L25.05 8.06255C23.2703 6.47436 21.0063 5.53394 18.625 5.3938V7.2438C18.625 7.40956 18.5592 7.56853 18.442 7.68574C18.3248 7.80295 18.1658 7.8688 18 7.8688C17.8343 7.8688 17.6753 7.80295 17.5581 7.68574C17.4409 7.56853 17.375 7.40956 17.375 7.2438V5.3938C14.9938 5.53394 12.7298 6.47436 10.95 8.06255L12.25 9.36255C12.3358 9.45088 12.3938 9.56239 12.4168 9.6833C12.4399 9.80422 12.427 9.92925 12.3798 10.0429C12.3326 10.1566 12.2532 10.254 12.1512 10.323C12.0493 10.392 11.9294 10.4297 11.8063 10.4313C11.6407 10.4295 11.482 10.3647 11.3625 10.25L10.0625 8.95005C8.47436 10.7298 7.53394 12.9938 7.3938 15.375H9.2438C9.40956 15.375 9.56853 15.4409 9.68574 15.5581C9.80295 15.6753 9.8688 15.8343 9.8688 16C9.8688 16.1658 9.80295 16.3248 9.68574 16.442C9.56853 16.5592 9.40956 16.625 9.2438 16.625H7.3938C7.53394 19.0063 8.47436 21.2703 10.0625 23.05L11.3625 21.75C11.4208 21.6918 11.49 21.6456 11.5661 21.614C11.6423 21.5825 11.7239 21.5662 11.8063 21.5662C11.8887 21.5662 11.9703 21.5825 12.0465 21.614C12.1226 21.6456 12.1918 21.6918 12.25 21.75C12.3083 21.8083 12.3545 21.8775 12.3861 21.9536C12.4176 22.0298 12.4339 22.1114 12.4339 22.1938C12.4339 22.2762 12.4176 22.3578 12.3861 22.434C12.3545 22.5101 12.3083 22.5793 12.25 22.6375L10.95 23.9375C12.7298 25.5257 14.9938 26.4662 17.375 26.6063V24.7563C17.375 24.5905 17.4409 24.4316 17.5581 24.3144C17.6753 24.1971 17.8343 24.1313 18 24.1313C18.1658 24.1313 18.3248 24.1971 18.442 24.3144C18.5592 24.4316 18.625 24.5905 18.625 24.7563V26.6063C21.0063 26.4662 23.2703 25.5257 25.05 23.9375L23.75 22.6375C23.6918 22.5793 23.6456 22.5101 23.614 22.434C23.5825 22.3578 23.5662 22.2762 23.5662 22.1938C23.5662 22.1114 23.5825 22.0298 23.614 21.9536C23.6456 21.8775 23.6918 21.8083 23.75 21.75C23.8083 21.6918 23.8775 21.6456 23.9536 21.614C24.0298 21.5825 24.1114 21.5662 24.1938 21.5662C24.2762 21.5662 24.3578 21.5825 24.434 21.614C24.5101 21.6456 24.5793 21.6918 24.6375 21.75L25.9375 23.05C27.5257 21.2703 28.4662 19.0063 28.6063 16.625H26.7563C26.5905 16.625 26.4316 16.5592 26.3144 16.442C26.1971 16.3248 26.1313 16.1658 26.1313 16C26.1313 15.8343 26.1971 15.6753 26.3144 15.5581C26.4316 15.4409 26.5905 15.375 26.7563 15.375ZM23.3313 16.6625H20.1938C20.0854 17.0168 19.8871 17.3369 19.6184 17.5918C19.3496 17.8467 19.0194 18.0278 18.66 18.1173C18.3005 18.2069 17.924 18.2019 17.567 18.1029C17.2101 18.0039 16.8848 17.8142 16.6229 17.5522C16.3609 17.2903 16.1712 16.965 16.0722 16.6081C15.9732 16.2511 15.9682 15.8746 16.0578 15.5151C16.1473 15.1557 16.3284 14.8255 16.5833 14.5567C16.8382 14.288 17.1583 14.0897 17.5125 13.9813V10.65C17.5125 10.4843 17.5784 10.3253 17.6956 10.2081C17.8128 10.0909 17.9718 10.025 18.1376 10.025C18.3033 10.025 18.4623 10.0909 18.5795 10.2081C18.6967 10.3253 18.7626 10.4843 18.7626 10.65V13.9813C19.1009 14.0828 19.4088 14.2667 19.6586 14.5165C19.9084 14.7663 20.0923 15.0742 20.1938 15.4125H23.3313C23.4971 15.4125 23.656 15.4784 23.7732 15.5956C23.8905 15.7128 23.9563 15.8718 23.9563 16.0375C23.9563 16.2033 23.8905 16.3623 23.7732 16.4795C23.656 16.5967 23.4971 16.6625 23.3313 16.6625Z" fill="url(#paint1_linear_588_556)"/>
    <path d="M18.1376 15.1376C17.8997 15.1376 17.6716 15.2321 17.5034 15.4003C17.3352 15.5685 17.2407 15.7966 17.2407 16.0344C17.2407 16.2723 17.3352 16.5004 17.5034 16.6686C17.6716 16.8368 17.8997 16.9313 18.1376 16.9313C18.3755 16.9313 18.6036 16.8368 18.7718 16.6686C18.94 16.5004 19.0345 16.2723 19.0345 16.0344C19.0345 15.7966 18.94 15.5685 18.7718 15.4003C18.6036 15.2321 18.3755 15.1376 18.1376 15.1376Z" fill="url(#paint2_linear_588_556)"/>
    <defs>
      <linearGradient id="paint0_linear_588_556" x1="18" y1="0.837524" x2="18" y2="31.1625" gradientUnits="userSpaceOnUse">
        <stop stop-color="#00588C"/>
        <stop offset="1" stop-color="#0074B7"/>
      </linearGradient>
      <linearGradient id="paint1_linear_588_556" x1="18" y1="5.3938" x2="18" y2="26.6063" gradientUnits="userSpaceOnUse">
        <stop stop-color="#F37021"/>
        <stop offset="1" stop-color="#F89C3C"/>
      </linearGradient>
      <linearGradient id="paint2_linear_588_556" x1="18.1376" y1="15.1376" x2="18.1376" y2="16.9313" gradientUnits="userSpaceOnUse">
        <stop stop-color="#00588C"/>
        <stop offset="1" stop-color="#0074B7"/>
      </linearGradient>
    </defs>
  </symbol>

  
  <symbol id="yoga" viewBox="0 0 36 22">
    <path d="M12.8099 15.6462C11.8805 14.77 10.2455 15.6437 10.0974 16.7025C9.83554 17.5812 10.6912 18.9537 11.7537 18.79C11.8862 18.7498 12.0017 18.6669 12.0821 18.5542C12.1626 18.4415 12.2035 18.3053 12.1985 18.1669C12.1936 18.0285 12.1429 17.8957 12.0545 17.789C11.9662 17.6824 11.845 17.608 11.7099 17.5775C11.5823 17.5392 11.4729 17.4562 11.4017 17.3437C11.3305 17.2311 11.3023 17.0966 11.3224 16.965C11.3403 16.8903 11.3741 16.8203 11.4213 16.7597C11.4686 16.6992 11.5283 16.6494 11.5964 16.6139C11.6645 16.5784 11.7395 16.5578 11.8162 16.5537C11.8929 16.5496 11.9696 16.562 12.0412 16.59C12.168 16.654 12.3128 16.6727 12.4517 16.6431C12.5907 16.6135 12.7153 16.5373 12.805 16.4272C12.8947 16.3171 12.9441 16.1796 12.945 16.0376C12.9459 15.8956 12.8982 15.7575 12.8099 15.6462Z" fill="url(#paint0_linear_611_585)"/>
    <path d="M15.3786 14.765C13.9536 12.8019 10.0511 7.3963 8.57863 5.3588C8.16926 4.78942 7.33738 3.65067 6.92863 3.07755C6.42638 2.29848 5.63521 1.75083 4.72917 1.55509C3.82314 1.35935 2.87645 1.53154 2.09738 2.0338C1.31831 2.53605 0.770663 3.32722 0.574922 4.23326C0.379181 5.13929 0.551378 6.08598 1.05363 6.86505L6.44113 16.1775L8.12238 19.0775C11.0949 24.0944 18.3555 19.7688 15.3786 14.765ZM11.2224 19.9838C7.77738 19.2194 8.28551 14.165 11.8099 14.0963C12.2282 14.092 12.6427 14.176 13.0264 14.3427C13.41 14.5094 13.7543 14.7551 14.0366 15.0638C14.3189 15.3725 14.533 15.7373 14.6648 16.1343C14.7967 16.5313 14.8433 16.9517 14.8018 17.3679C14.7603 17.7842 14.6314 18.187 14.4237 18.5501C14.216 18.9133 13.9341 19.2285 13.5964 19.4753C13.2586 19.7222 12.8726 19.895 12.4636 19.9826C12.0545 20.0703 11.6316 20.0706 11.2224 19.9838ZM35.2093 13.5275L24.753 1.1338C24.6074 0.959627 24.4166 0.828971 24.2016 0.756196C23.9866 0.683421 23.7557 0.671346 23.5343 0.721299L19.553 1.61505C19.4405 1.5038 31.853 16.2025 31.853 16.2025L34.5655 15.5213C34.7676 15.4687 34.9532 15.3659 35.1051 15.2226C35.257 15.0792 35.3703 14.8998 35.4344 14.7011C35.4986 14.5023 35.5116 14.2906 35.4723 14.0854C35.4329 13.8803 35.3424 13.6884 35.2093 13.5275Z" fill="url(#paint1_linear_611_585)"/>
    <path d="M14.766 2.69001L9.10352 3.95876C9.23227 4.14251 15.6879 13.065 16.0848 13.615C16.8177 14.5183 17.2442 15.6314 17.3026 16.7932C17.361 17.955 17.0483 19.1052 16.4098 20.0775L27.1598 17.3775L14.766 2.69001ZM18.1723 1.92126L16.141 2.37751L28.5098 17.04L30.5035 16.54C30.5035 16.54 18.1785 1.92126 18.1723 1.92126Z" fill="url(#paint2_linear_611_585)"/>
    <defs>
      <linearGradient id="paint0_linear_611_585" x1="11.4974" y1="15.2872" x2="11.4974" y2="18.8034" gradientUnits="userSpaceOnUse">
        <stop stop-color="#F37021"/>
        <stop offset="1" stop-color="#F89C3C"/>
      </linearGradient>
      <linearGradient id="paint1_linear_611_585" x1="17.9953" y1="0.69104" x2="17.9953" y2="21.3083" gradientUnits="userSpaceOnUse">
        <stop stop-color="#F37021"/>
        <stop offset="1" stop-color="#F89C3C"/>
      </linearGradient>
      <linearGradient id="paint2_linear_611_585" x1="19.8035" y1="1.92126" x2="19.8035" y2="20.0775" gradientUnits="userSpaceOnUse">
        <stop stop-color="#00588C"/>
        <stop offset="1" stop-color="#0074B7"/>
      </linearGradient>
    </defs>
  </symbol>

</svg>
