<svg id="tcp" width="55" height="75" viewBox="0 0 55 75" fill="none" xmlns="http://www.w3.org/2000/svg">
<path d="M9.43332 1.26546C9.55674 1.29623 9.68016 1.32699 9.80732 1.35869C10.7974 1.62782 10.7974 1.62782 11.1677 2.08748C11.3283 2.66578 11.3694 2.97132 11.1225 3.52376C10.5413 3.96986 10.0005 3.87503 9.28879 3.82186C8.6748 3.72166 8.07285 3.5741 7.46945 3.42383C6.41241 3.18528 5.58723 3.26903 4.62766 3.78573C3.73234 4.51826 3.19453 5.30793 3.02765 6.45165C2.97323 7.49289 3.36569 8.27566 3.905 9.14242C4.77078 9.98414 5.94286 10.2164 7.08469 10.4703C7.24869 10.5071 7.41269 10.544 7.58166 10.5819C10.5721 11.2322 13.5725 11.5443 16.6221 11.7141C17.2691 11.7509 17.9 11.8071 18.5388 11.9156C18.5269 11.7397 18.5149 11.5639 18.5027 11.3827C18.5129 9.74968 19.1776 8.33283 20.2732 7.14608C21.4704 6.04709 22.9862 5.49107 24.6079 5.51858C25.443 5.5909 26.2574 5.78465 27.0748 5.96395C29.3572 6.462 31.6094 6.78033 33.939 6.96139C34.2927 7.00155 34.2927 7.00155 34.7263 7.14608C34.5674 5.85576 34.2745 4.86535 33.281 3.98446C32.4403 3.38896 31.6125 3.17851 30.5802 3.31332C30.3891 3.35246 30.1985 3.39334 30.0081 3.43569C29.794 3.48012 29.5798 3.52452 29.3657 3.56889C29.2545 3.59255 29.1433 3.61621 29.0287 3.64059C17.2712 6.11945 17.2712 6.11945 13.5976 4.31869C13.2774 3.88798 13.2548 3.62371 13.2538 3.0992C13.3721 2.68161 13.5825 2.50712 13.9138 2.23202C14.2653 2.16541 14.2653 2.16541 14.6628 2.17326C14.8126 2.17471 14.9625 2.17615 15.1169 2.17764C15.2792 2.18198 15.4415 2.18633 15.6086 2.1908C15.7786 2.19265 15.9485 2.19449 16.1236 2.1964C16.6698 2.2025 17.2158 2.21235 17.7619 2.22298C21.223 2.28748 24.555 2.14085 27.9333 1.33773C30.095 0.86379 32.2996 0.406367 34.2927 1.65389C35.6369 2.64833 36.5282 3.85792 36.9936 5.4659C37.0361 5.82296 37.0432 6.16023 37.0416 6.5194C37.0412 6.6367 37.0408 6.75401 37.0404 6.87487C37.0399 6.96437 37.0393 7.05387 37.0388 7.14608C40.6258 6.90787 44.1022 6.51675 47.6167 5.72786C49.287 5.36294 50.8275 5.55423 52.323 6.43245C53.6855 7.36836 54.5217 8.64462 54.8997 10.2462C55.1466 11.7393 54.9489 13.2456 54.1866 14.568C53.9774 14.8586 53.7583 15.1214 53.5154 15.3844C53.4261 15.4816 53.3369 15.5789 53.2449 15.6791C52.7624 16.1827 52.7624 16.1827 52.5036 16.3961C52.4082 16.3961 52.3129 16.3961 52.2146 16.3961C52.215 16.5562 52.215 16.5562 52.2154 16.7196C52.2218 19.3256 52.2266 21.9316 52.2295 24.5377C52.231 25.798 52.2331 27.0582 52.2364 28.3185C52.2393 29.4179 52.2411 30.5173 52.2418 31.6166C52.2421 32.1979 52.243 32.7792 52.2451 33.3605C52.2471 33.9094 52.2477 34.4583 52.2473 35.0072C52.2474 35.3011 52.2489 35.5949 52.2505 35.8888C52.2424 39.5994 51.3167 43.2794 48.8904 46.1695C48.7366 46.3531 48.7366 46.3531 48.5798 46.5404C46.4576 48.9792 43.9104 50.6487 40.7966 51.5172C40.7958 51.6242 40.7949 51.7312 40.794 51.8415C40.7857 52.8516 40.7752 53.8617 40.7625 54.8717C40.7561 55.391 40.7504 55.9102 40.7465 56.4295C40.7428 56.9309 40.7369 57.4322 40.7297 57.9336C40.7261 58.2174 40.7246 58.5012 40.7232 58.785C40.7189 59.0454 40.7189 59.0453 40.7146 59.311C40.713 59.4634 40.7114 59.6159 40.7097 59.7729C40.6437 60.2499 40.5014 60.5252 40.2185 60.9117C39.7716 61.1351 39.4099 61.0987 38.9177 61.0562C38.5163 60.7545 38.3583 60.5841 38.2701 60.0849C38.2713 59.9347 38.2726 59.7844 38.2739 59.6297C38.274 59.3737 38.274 59.3737 38.2741 59.1125C38.2771 58.9289 38.28 58.7454 38.2831 58.5563C38.2839 58.3678 38.2848 58.1794 38.2856 57.9852C38.2878 57.4853 38.2935 56.9854 38.2999 56.4855C38.3058 55.9749 38.3084 55.4643 38.3113 54.9537C38.3175 53.9527 38.3277 52.9517 38.3396 51.9508C37.2903 51.9508 36.241 51.9508 35.1599 51.9508C35.1599 57.5311 35.1599 63.1115 35.1599 68.8609C36.2092 68.8609 37.2585 68.8609 38.3396 68.8609C38.3345 68.4903 38.3295 68.1198 38.3243 67.738C38.3209 67.3792 38.3183 67.0205 38.3158 66.6617C38.3136 66.4123 38.3106 66.1629 38.3069 65.9135C38.3016 65.5551 38.2991 65.1968 38.2972 64.8383C38.295 64.7267 38.2928 64.6152 38.2905 64.5002C38.2902 63.7315 38.2902 63.7315 38.5285 63.3757C38.9472 63.1165 39.2977 63.0881 39.7849 63.0797C40.2803 63.3812 40.4678 63.5385 40.6521 64.0914C40.6742 64.4542 40.6892 64.8139 40.6978 65.1771C40.7008 65.2823 40.7038 65.3876 40.7069 65.496C40.7163 65.8317 40.7249 66.1675 40.7334 66.5033C40.7396 66.7311 40.7459 66.9589 40.7523 67.1867C40.7677 67.7447 40.7824 68.3028 40.7966 68.8609C40.8961 68.8893 40.9956 68.9176 41.0982 68.9469C41.2937 69.0038 41.2937 69.0038 41.4933 69.0619C41.6226 69.0992 41.7519 69.1365 41.8852 69.175C42.6347 69.4261 43.0641 69.8933 43.4281 70.5885C43.7893 71.5208 43.7583 72.4202 43.401 73.3453C43.0174 74.0875 42.3046 74.6695 41.5193 74.9312C41.2174 74.947 40.915 74.9542 40.6127 74.9568C40.4255 74.9587 40.2383 74.9605 40.0454 74.9624C39.8406 74.9636 39.6357 74.9647 39.4309 74.9657C39.3275 74.9663 39.2241 74.9669 39.1176 74.9675C38.5699 74.9705 38.0222 74.9725 37.4745 74.9739C36.911 74.9755 36.3475 74.9805 35.7839 74.9862C35.3488 74.99 34.9137 74.9912 34.4786 74.9917C34.271 74.9924 34.0634 74.9941 33.8558 74.9968C32.6919 75.0109 31.8097 75.007 30.8239 74.3531C30.5264 74.0324 30.5264 74.0324 30.3271 73.7027C30.2246 73.5395 30.2246 73.5395 30.1199 73.373C29.7637 72.6729 29.6906 71.9329 29.889 71.1655C30.2179 70.2182 30.6816 69.6227 31.55 69.1206C31.8357 69.0054 31.8357 69.0054 32.7029 68.8609C32.7029 63.1375 32.7029 57.414 32.7029 51.5172C31.9874 51.2787 31.272 51.0402 30.5349 50.7945C28.5946 49.941 25.7418 48.2904 24.7536 46.314C24.0755 46.4453 23.4053 46.5976 22.7302 46.7476C22.7302 52.5188 22.7302 58.2899 22.7302 64.2359C23.0164 64.2359 23.3025 64.2359 23.5974 64.2359C24.5653 64.6315 25.27 65.3381 25.675 66.2955C25.8531 67.364 25.7567 68.2829 25.1285 69.185C24.4958 69.8828 23.7118 70.2763 22.7748 70.3275C22.6264 70.3289 22.478 70.3303 22.325 70.3318C22.1561 70.3337 21.9872 70.3355 21.8132 70.3374C21.631 70.3385 21.4489 70.3396 21.2612 70.3407C21.0729 70.3418 20.8847 70.343 20.6908 70.3442C20.292 70.3464 19.8933 70.3478 19.4945 70.3489C18.9872 70.3505 18.48 70.3555 17.9727 70.3612C17.485 70.3659 16.9974 70.3665 16.5097 70.3678C16.3293 70.3703 16.1489 70.3728 15.963 70.3754C14.8088 70.3726 13.6308 70.3053 12.7669 69.4517C12.1337 68.6827 11.8405 67.9012 11.9175 66.9007C12.0662 65.9144 12.4567 65.3234 13.225 64.7068C13.8216 64.2817 14.1847 64.2359 14.9255 64.2359C14.9255 58.4648 14.9255 52.6937 14.9255 46.7476C14.4963 46.6522 14.067 46.5569 13.6247 46.4586C9.59374 44.9177 6.45675 41.992 4.6333 38.1006C3.56192 35.6852 3.31581 33.1449 3.33019 30.5285C3.33028 30.3203 3.33023 30.1121 3.33007 29.9038C3.32998 29.3467 3.33166 28.7897 3.3337 28.2326C3.33553 27.6474 3.33568 27.0622 3.33602 26.4769C3.33691 25.3724 3.33928 24.2678 3.34219 23.1633C3.34544 21.9043 3.34702 20.6452 3.34846 19.3862C3.35147 16.7996 3.35655 14.2131 3.36301 11.6265C3.24992 11.584 3.13683 11.5415 3.02031 11.4978C2.03313 11.0814 1.46309 10.0808 1.05954 9.13338C0.454023 7.58161 0.391806 5.94769 1.05051 4.39998C1.89569 2.69681 2.9297 1.83126 4.66379 1.07577C6.14065 0.583478 7.96072 0.895929 9.43332 1.26546ZM21.7185 9.16951C21.0212 10.1647 20.7098 10.9763 20.8513 12.2047C21.1776 13.2989 21.7822 14.0347 22.7387 14.6615C23.3373 14.9703 24.0013 15.0918 24.6543 15.2398C24.813 15.2767 24.9716 15.3135 25.1351 15.3515C26.2429 15.6018 27.3545 15.8158 28.4753 15.9986C28.608 16.0204 28.7407 16.0422 28.8775 16.0647C31.4749 16.4631 34.0614 16.5953 36.6865 16.5858C36.838 16.5855 36.9895 16.5852 37.1456 16.585C39.5443 16.578 41.8923 16.4838 44.2654 16.107C44.4381 16.0799 44.6108 16.0528 44.7888 16.0249C48.7896 15.5813 48.7896 15.5813 52.0232 13.4936C52.5595 12.7168 52.8027 11.8466 52.6482 10.9039C52.2701 9.57675 51.6288 8.88194 50.4751 8.16005C49.2539 7.52881 47.9008 7.9963 46.6411 8.27523C45.3274 8.5564 44.0167 8.81899 42.6845 8.99788C42.5071 9.02201 42.5071 9.02201 42.326 9.04661C40.4991 9.2785 38.6705 9.34418 36.831 9.34115C36.7237 9.34101 36.6164 9.34088 36.5058 9.34074C32.7017 9.33041 28.993 8.84877 25.2907 7.95674C23.936 7.65304 22.5932 8.0699 21.7185 9.16951ZM5.67551 12.6383C5.66874 15.2039 5.66365 17.7695 5.66053 20.3351C5.65905 21.5265 5.65702 22.7179 5.6537 23.9094C5.65081 24.9487 5.64895 25.988 5.64831 27.0273C5.64794 27.5768 5.64707 28.1263 5.64495 28.6758C5.64296 29.1947 5.64238 29.7136 5.64281 30.2325C5.6427 30.5104 5.64116 30.7882 5.63954 31.0661C5.64773 34.5808 6.60499 37.8973 8.99973 40.5328C9.11692 40.6634 9.23411 40.794 9.35485 40.9286C11.8319 43.5507 15.1739 44.8993 18.755 45.0138C20.2203 45.0317 21.7956 44.8314 23.1638 44.2906C23.2115 44.1952 23.2592 44.0998 23.3083 44.0015C23.1407 43.6066 23.1407 43.6066 22.9018 43.1705C22.5942 42.5888 22.3453 42.0296 22.1521 41.4C22.0014 41.4313 22.0014 41.4313 21.8478 41.4632C18.7733 42.0243 15.8736 41.8236 13.1911 40.0992C10.8795 38.5008 9.52113 36.1903 8.99973 33.4508C8.94051 32.7654 8.93646 32.084 8.93724 31.3964C8.93593 31.1968 8.93444 30.9972 8.93277 30.7976C8.92882 30.2614 8.92745 29.7252 8.92658 29.189C8.92521 28.6265 8.92143 28.0641 8.91791 27.5016C8.91162 26.439 8.90748 25.3764 8.90413 24.3138C8.90021 23.103 8.89386 21.8922 8.88732 20.6814C8.87394 18.1931 8.86356 15.7048 8.8552 13.2164C8.4067 13.1193 7.958 13.0232 7.50925 12.9273C7.38191 12.8998 7.25456 12.8722 7.12336 12.8438C7.00086 12.8177 6.87836 12.7916 6.75215 12.7647C6.58299 12.7284 6.58299 12.7284 6.41041 12.6913C6.08892 12.6257 6.08892 12.6257 5.67551 12.6383ZM11.1677 13.65C11.1677 17.1794 11.1677 20.7089 11.1677 24.3453C14.5064 24.3453 17.845 24.3453 21.2849 24.3453C21.3207 22.4047 21.3207 22.4047 21.3571 20.4249C21.3677 20.0178 21.3782 19.6107 21.389 19.1912C21.3924 18.8674 21.3954 18.5435 21.3978 18.2197C21.4067 17.9689 21.4067 17.9689 21.4157 17.713C21.4371 16.838 21.4371 16.838 21.0288 16.1033C20.7235 15.8679 20.7235 15.8679 20.4027 15.69C19.9342 15.4145 19.7705 14.9678 19.5375 14.4963C19.0869 14.0585 18.5675 14.1077 17.9607 14.0836C17.8376 14.0775 17.7145 14.0714 17.5877 14.0651C17.1881 14.0473 16.7886 14.0336 16.3889 14.0203C15.1729 13.9747 13.97 13.8881 12.7616 13.7454C12.2219 13.6819 11.7134 13.65 11.1677 13.65ZM23.5974 17.4078C23.5872 19.9847 23.5796 22.5617 23.5749 25.1387C23.5727 26.3354 23.5697 27.5322 23.5647 28.729C23.5603 29.7732 23.5576 30.8174 23.5566 31.8616C23.556 32.4135 23.5547 32.9654 23.5515 33.5173C23.5267 38.0031 23.9727 41.963 27.0661 45.4469C27.1531 45.5458 27.2401 45.6447 27.3298 45.7466C29.3857 47.9405 32.4975 49.4995 35.5052 49.6563C37.1777 49.7065 38.7501 49.6887 40.363 49.2047C40.5268 49.1572 40.6905 49.1097 40.8593 49.0607C44.1836 47.9897 46.8292 45.6069 48.4726 42.5427C48.7771 41.9385 49.0146 41.317 49.2336 40.6773C49.2681 40.5781 49.3026 40.4789 49.3381 40.3767C49.8667 38.727 49.9449 37.0117 49.9349 35.2925C49.9348 35.0957 49.9349 34.8989 49.935 34.7021C49.9351 34.1748 49.9334 33.6476 49.9314 33.1204C49.9296 32.5668 49.9294 32.0132 49.9291 31.4596C49.9282 30.4144 49.9258 29.3693 49.9229 28.3241C49.9196 27.1329 49.9181 25.9416 49.9166 24.7504C49.9136 22.3029 49.9085 19.8553 49.9021 17.4078C48.8143 17.5 47.7817 17.7256 46.7224 17.9859C46.7219 18.1399 46.7219 18.1399 46.7213 18.2971C46.7128 20.8017 46.7018 23.3062 46.6883 25.8108C46.6818 27.022 46.6761 28.2332 46.6723 29.4444C46.669 30.5007 46.6641 31.5571 46.6575 32.6134C46.6541 33.1721 46.6514 33.7309 46.6505 34.2896C46.6496 34.8168 46.6467 35.344 46.6423 35.8712C46.6404 36.1542 46.6406 36.4373 46.641 36.7204C46.6246 38.2784 46.3495 39.7171 45.6384 41.1109C45.5892 41.208 45.54 41.305 45.4893 41.405C44.2603 43.7063 42.0649 45.3655 39.5952 46.1424C37.0432 46.8773 34.1747 46.5244 31.8357 45.3023C29.3049 43.7428 27.6952 41.5482 26.9819 38.6826C26.7356 37.3845 26.7539 36.0382 26.7474 34.722C26.746 34.5399 26.7445 34.3578 26.7431 34.1702C26.7392 33.6767 26.7361 33.1832 26.7332 32.6897C26.73 32.1718 26.7261 31.6539 26.7222 31.136C26.7151 30.1579 26.7086 29.1797 26.7023 28.2016C26.6951 27.0869 26.6872 25.9722 26.6792 24.8576C26.6628 22.567 26.6474 20.2765 26.6325 17.9859C26.2624 17.8885 25.8921 17.7923 25.5215 17.6969C25.4172 17.6693 25.313 17.6417 25.2056 17.6133C25.1036 17.5872 25.0016 17.5611 24.8965 17.5343C24.8034 17.51 24.7103 17.4858 24.6144 17.4609C24.271 17.399 23.9455 17.3993 23.5974 17.4078ZM28.945 18.4195C28.945 21.949 28.945 25.4784 28.945 29.1148C29.9466 29.1148 30.9482 29.1148 31.9802 29.1148C31.9802 25.6808 31.9802 22.2467 31.9802 18.7086C30.2277 18.3902 30.2277 18.3902 28.945 18.4195ZM42.8121 18.4777C39.98 18.7951 37.1402 18.7973 34.2927 18.8531C34.2927 22.2395 34.2927 25.6258 34.2927 29.1148C37.6314 29.1148 40.97 29.1148 44.4099 29.1148C44.4099 25.5854 44.4099 22.0559 44.4099 18.4195C43.6008 18.4148 43.6008 18.4148 42.8121 18.4777ZM11.1677 26.6578C11.1677 27.9933 11.1677 29.3287 11.1677 30.7047C14.5064 30.7047 17.845 30.7047 21.2849 30.7047C21.2849 29.3692 21.2849 28.0337 21.2849 26.6578C17.9462 26.6578 14.6075 26.6578 11.1677 26.6578ZM28.945 31.4273C28.945 32.7628 28.945 34.0983 28.945 35.4742C34.0484 35.4742 39.1518 35.4742 44.4099 35.4742C44.4099 34.1387 44.4099 32.8033 44.4099 31.4273C39.3065 31.4273 34.2031 31.4273 28.945 31.4273ZM11.1677 33.0172C11.698 35.4037 12.8051 37.1961 14.8781 38.5218C16.6228 39.5252 18.6472 39.8133 20.6209 39.424C20.9432 39.3258 21.2598 39.2091 21.5739 39.0875C21.5263 38.6105 21.4786 38.1336 21.4294 37.6422C21.3817 36.1159 21.334 34.5897 21.2849 33.0172C17.9462 33.0172 14.6075 33.0172 11.1677 33.0172ZM29.0896 37.6422C29.185 38.1191 29.2804 38.5961 29.3786 39.0875C29.5217 39.0875 29.6648 39.0875 29.8122 39.0875C30.0507 38.6105 30.2892 38.1336 30.5349 37.6422C30.0579 37.6422 29.581 37.6422 29.0896 37.6422ZM33.1364 37.6422C32.7072 38.453 32.2779 39.2638 31.8357 40.0992C31.1751 41.0037 31.1751 41.0037 30.8239 41.4C31.9754 42.8742 33.5126 43.9038 35.3767 44.25C37.6411 44.5047 39.6624 44.1021 41.4758 42.685C43.1346 41.2468 43.9783 39.8003 44.4099 37.6422C40.6897 37.6422 36.9694 37.6422 33.1364 37.6422ZM17.238 47.1812C17.238 52.8093 17.238 58.4373 17.238 64.2359C18.2873 64.2359 19.3366 64.2359 20.4177 64.2359C20.4177 58.6079 20.4177 52.9798 20.4177 47.1812C19.3684 47.1812 18.3191 47.1812 17.238 47.1812ZM14.3624 66.8175C14.1578 67.1298 14.1578 67.1298 14.3022 67.515C14.4612 67.8674 14.4612 67.8674 14.781 67.9937C15.0362 68.0098 15.2919 68.0167 15.5476 68.0193C15.7078 68.0212 15.8679 68.023 16.0329 68.0249C16.2935 68.0265 16.2935 68.0265 16.5594 68.0282C16.7373 68.0293 16.9151 68.0305 17.0984 68.0317C17.4753 68.0337 17.8522 68.0353 18.229 68.0364C18.6157 68.0377 19.0023 68.0407 19.389 68.0453C19.9453 68.0514 20.5016 68.0538 21.0579 68.0553C21.2311 68.0578 21.4042 68.0603 21.5826 68.0629C21.7437 68.0625 21.9048 68.0621 22.0707 68.0617C22.2831 68.0629 22.2831 68.0629 22.4999 68.0642C22.975 67.9749 23.1475 67.7798 23.4529 67.4156C23.2956 66.9459 23.2956 66.9459 23.0193 66.5484C22.76 66.5318 22.5 66.5253 22.2402 66.5228C22.0738 66.521 21.9074 66.5191 21.7359 66.5172C21.5547 66.5161 21.3734 66.5151 21.1866 66.514C21.0018 66.5128 20.817 66.5116 20.6265 66.5104C20.2346 66.5083 19.8426 66.5069 19.4506 66.5058C18.9482 66.5042 18.4459 66.4992 17.9435 66.4934C17.4648 66.4888 16.9862 66.4881 16.5074 66.4869C16.2364 66.4831 16.2364 66.4831 15.96 66.4792C15.7926 66.4796 15.6253 66.4801 15.4529 66.4805C15.3054 66.4796 15.1579 66.4788 15.0059 66.4779C14.6183 66.5165 14.6183 66.5165 14.3624 66.8175ZM32.2693 71.4625C32.1519 71.8318 32.1519 71.8318 32.1247 72.1851C32.448 72.5476 32.7196 72.7437 33.2044 72.8179C33.6599 72.8374 34.1123 72.8395 34.5682 72.835C34.7355 72.8352 34.9028 72.8354 35.0751 72.8356C35.4284 72.8354 35.7817 72.8337 36.135 72.8307C36.6755 72.8265 37.2158 72.8277 37.7564 72.8296C38.0998 72.8287 38.4433 72.8275 38.7867 72.8259C38.9483 72.8264 39.1098 72.8268 39.2763 72.8272C39.4273 72.8254 39.5782 72.8235 39.7338 72.8217C39.8661 72.8209 39.9984 72.8201 40.1347 72.8193C40.5899 72.7509 40.8626 72.6039 41.2302 72.3297C41.2779 72.1866 41.3256 72.0435 41.3747 71.8961C41.0512 71.4377 40.8508 71.2098 40.2885 71.1068C39.8224 71.0849 39.3611 71.0847 38.8946 71.0927C38.7237 71.093 38.5529 71.0934 38.3769 71.0937C38.0162 71.0951 37.6555 71.0983 37.2948 71.103C36.7422 71.1102 36.1898 71.1119 35.6372 71.1127C35.2867 71.1148 34.9362 71.1171 34.5857 71.1198C34.4202 71.1206 34.2548 71.1213 34.0843 71.1221C33.9304 71.1244 33.7765 71.1268 33.618 71.1291C33.4828 71.1307 33.3476 71.1322 33.2083 71.1338C32.8258 71.1758 32.5887 71.2491 32.2693 71.4625Z" fill="white"/>
</svg>
