<svg width="15" height="14" viewBox="0 0 15 14" fill="none" xmlns="http://www.w3.org/2000/svg">
<path d="M14 7C14 8.72391 13.3152 10.3772 12.0962 11.5962C10.8772 12.8152 9.22391 13.5 7.5 13.5C5.77609 13.5 4.12279 12.8152 2.90381 11.5962C1.68482 10.3772 1 8.72391 1 7M14 7C14 5.27609 13.3152 3.62279 12.0962 2.40381C10.8772 1.18482 9.22391 0.5 7.5 0.5C5.77609 0.5 4.12279 1.18482 2.90381 2.40381C1.68482 3.62279 1 5.27609 1 7M14 7H1" stroke="#101828" stroke-linecap="round" stroke-linejoin="round"/>
<path d="M10 7C9.8772 9.37699 9.00168 11.6533 7.5 13.5C5.99832 11.6533 5.1228 9.37699 5 7C5.1228 4.62301 5.99832 2.34665 7.5 0.5C9.00168 2.34665 9.8772 4.62301 10 7Z" stroke="#101828" stroke-linecap="round" stroke-linejoin="round"/>
</svg>
