<svg width="74" height="26" viewBox="0 0 74 26" fill="none" xmlns="http://www.w3.org/2000/svg">
<path d="M22.0955 1.15785C22.2127 1.16636 22.33 1.17486 22.4508 1.18362C25.6489 1.42387 28.5994 1.9614 31.5089 3.34999C34.2466 4.6547 36.6851 5.63399 39.6818 4.58831C40.6866 4.20968 41.6487 3.73943 42.6176 3.27753C45.321 1.99527 47.8852 1.53342 50.8499 1.2575C51.001 1.24236 51.1522 1.22723 51.3079 1.21164C56.714 0.68664 62.3427 0.672503 67.7292 1.40243C67.896 1.42492 68.0629 1.44741 68.2347 1.47058C68.7102 1.53722 69.1846 1.60839 69.6588 1.68324C69.7926 1.70431 69.9264 1.72537 70.0642 1.74708C71.4699 1.99314 72.6907 2.29538 73.6093 3.44567C74.108 4.21296 73.9705 5.17041 73.9753 6.05288C73.977 6.2609 73.9799 6.46893 73.9842 6.67692C74.0276 8.78896 74.0276 8.78896 73.3557 9.66372C72.9121 10.2683 72.6893 10.7402 72.5583 11.4788C72.508 11.7521 72.508 11.7521 72.4568 12.0309C72.4401 12.1265 72.4235 12.2221 72.4064 12.3206C72.3541 12.6211 72.2993 12.9211 72.2439 13.221C72.1687 13.628 72.0942 14.0351 72.0203 14.4423C71.0361 19.8326 71.0361 19.8326 69.749 21.5484C69.6657 21.6739 69.5824 21.7995 69.4965 21.9288C66.8899 24.693 62.4935 25.2406 58.9066 25.3505C53.9209 25.4712 48.2211 25.0908 44.4097 21.477C41.6759 18.638 40.2957 14.5087 39.3985 10.7518C39.3097 10.3735 39.3097 10.3735 39.1642 9.95359C38.4432 9.67643 37.7706 9.61859 37.0001 9.62749C36.9031 9.62637 36.806 9.62525 36.706 9.62409C36.0389 9.62668 35.4557 9.70085 34.8361 9.95359C34.6515 10.2284 34.6515 10.2284 34.6107 10.5877C33.6331 15.1199 31.7789 20.2239 27.8121 22.9524C22.5448 26.0199 15.0339 26.0017 9.28265 24.5558C7.16236 23.9747 5.02199 22.9571 3.85175 21.0043C3.76388 20.8432 3.76388 20.8432 3.67424 20.6788C3.62309 20.5878 3.57195 20.4968 3.51926 20.4031C2.4051 18.1689 2.1433 15.4566 1.72644 13.0212C1.69549 12.8444 1.69549 12.8444 1.66392 12.664C1.62508 12.4419 1.58721 12.2197 1.55053 11.9974C1.39168 11.0968 1.12051 10.2877 0.554439 9.55502C-0.0896715 8.71577 0.0305749 7.76543 0.0249518 6.7525C0.0232928 6.54447 0.0203468 6.33645 0.0160759 6.12846C-0.0278772 3.98676 -0.0278772 3.98676 0.644607 3.14165C4.55926 -0.882553 17.0873 0.788396 22.0955 1.15785ZM6.09072 6.05847C4.84167 7.63398 4.62974 9.63104 4.63903 11.566C4.63974 11.7398 4.64045 11.9136 4.64118 12.0926C4.67798 14.8924 5.36199 17.9574 7.317 20.0719C10.3611 22.8526 14.9334 23.0141 18.8224 22.8528C19.7044 22.7821 20.5595 22.6249 21.4192 22.418C21.5735 22.3818 21.5735 22.3818 21.7309 22.345C23.971 21.8023 25.846 20.8903 27.4785 19.2294C27.5992 19.1155 27.7198 19.0015 27.8442 18.8841C30.0435 16.5381 31.46 12.2052 31.3929 9.02793C31.3426 8.03487 31.2864 7.31212 30.5532 6.58385C26.5725 3.4203 19.4945 3.84583 14.7288 3.83009C14.6114 3.82933 14.4941 3.82857 14.3732 3.82778C11.5041 3.81329 8.21385 3.83913 6.09072 6.05847ZM43.3299 6.71067C42.5843 7.65949 42.5372 8.77169 42.6266 9.95359C43.0642 13.3461 44.3356 17.6127 47.0668 19.8596C50.8354 22.6741 55.6255 23.3356 60.2048 22.7332C62.8172 22.3274 65.3439 21.5535 67.1522 19.5193C69.2363 16.571 69.6942 12.8258 69.2722 9.29601C68.9996 7.72404 68.3118 6.26337 67.0648 5.24774C64.7809 3.7805 61.9315 3.83576 59.3256 3.83915C59.2017 3.83924 59.0779 3.83933 58.9502 3.83942C50.6745 3.61354 50.6745 3.61354 43.3299 6.71067ZM1.65448 5.46061C1.65448 5.84324 1.65448 6.22587 1.65448 6.62009C2.08296 6.42877 2.51144 6.23746 2.9529 6.04035C2.56545 5.65112 2.17728 5.59678 1.65448 5.46061ZM71.0474 5.89541C71.4123 6.34351 71.8011 6.46201 72.3458 6.62009C72.3458 6.23746 72.3458 5.85483 72.3458 5.46061C71.8692 5.46061 71.4772 5.70353 71.0474 5.89541Z" fill="white"/>
</svg>
